<?xml version="1.0" encoding="utf-8" standalone="no"?>
<!DOCTYPE svg PUBLIC "-//W3C//DTD SVG 1.1//EN"
  "http://www.w3.org/Graphics/SVG/1.1/DTD/svg11.dtd">
<svg xmlns:xlink="http://www.w3.org/1999/xlink" width="444.891702pt" height="340.666381pt" viewBox="0 0 444.891702 340.666381" xmlns="http://www.w3.org/2000/svg" version="1.1">
 <metadata>
  <rdf:RDF xmlns:dc="http://purl.org/dc/elements/1.1/" xmlns:cc="http://creativecommons.org/ns#" xmlns:rdf="http://www.w3.org/1999/02/22-rdf-syntax-ns#">
   <cc:Work>
    <dc:type rdf:resource="http://purl.org/dc/dcmitype/StillImage"/>
    <dc:date>2023-12-21T17:39:01.788124</dc:date>
    <dc:format>image/svg+xml</dc:format>
    <dc:creator>
     <cc:Agent>
      <dc:title>Matplotlib v3.8.2, https://matplotlib.org/</dc:title>
     </cc:Agent>
    </dc:creator>
   </cc:Work>
  </rdf:RDF>
 </metadata>
 <defs>
  <style type="text/css">*{stroke-linejoin: round; stroke-linecap: butt}</style>
 </defs>
 <g id="figure_1">
  <g id="patch_1">
   <path d="M 0 340.666381 
L 444.891702 340.666381 
L 444.891702 0 
L 0 0 
z
" style="fill: #ffffff"/>
  </g>
  <g id="axes_1">
   <g id="patch_2">
    <path d="M 47.091702 300.337648 
L 437.691702 300.337648 
L 437.691702 23.137648 
L 47.091702 23.137648 
z
" style="fill: #ffffff"/>
   </g>
   <g id="PathCollection_1">
    <path d="M 57.370649 90.870764 
C 58.166259 90.870764 58.929389 90.554665 59.49197 89.992084 
C 60.05455 89.429503 60.370649 88.666373 60.370649 87.870764 
C 60.370649 87.075155 60.05455 86.312024 59.49197 85.749443 
C 58.929389 85.186863 58.166259 84.870764 57.370649 84.870764 
C 56.57504 84.870764 55.81191 85.186863 55.249329 85.749443 
C 54.686748 86.312024 54.370649 87.075155 54.370649 87.870764 
C 54.370649 88.666373 54.686748 89.429503 55.249329 89.992084 
C 55.81191 90.554665 56.57504 90.870764 57.370649 90.870764 
L 57.370649 90.870764 
z
" clip-path="url(#p888144e28d)" style="fill: none; stroke: #008000"/>
   </g>
   <g id="PathCollection_2">
    <path d="M 98.486439 275.012894 
C 99.282048 275.012894 100.045178 274.696795 100.607759 274.134214 
C 101.17034 273.571634 101.486439 272.808503 101.486439 272.012894 
C 101.486439 271.217285 101.17034 270.454154 100.607759 269.891574 
C 100.045178 269.328993 99.282048 269.012894 98.486439 269.012894 
C 97.690829 269.012894 96.927699 269.328993 96.365118 269.891574 
C 95.802538 270.454154 95.486439 271.217285 95.486439 272.012894 
C 95.486439 272.808503 95.802538 273.571634 96.365118 274.134214 
C 96.927699 274.696795 97.690829 275.012894 98.486439 275.012894 
L 98.486439 275.012894 
z
" clip-path="url(#p888144e28d)" style="fill: none; stroke: #008000"/>
   </g>
   <g id="PathCollection_3">
    <path d="M 139.602228 85.837805 
C 140.397838 85.837805 141.160968 85.521706 141.723549 84.959125 
C 142.286129 84.396544 142.602228 83.633414 142.602228 82.837805 
C 142.602228 82.042195 142.286129 81.279065 141.723549 80.716484 
C 141.160968 80.153904 140.397838 79.837805 139.602228 79.837805 
C 138.806619 79.837805 138.043489 80.153904 137.480908 80.716484 
C 136.918327 81.279065 136.602228 82.042195 136.602228 82.837805 
C 136.602228 83.633414 136.918327 84.396544 137.480908 84.959125 
C 138.043489 85.521706 138.806619 85.837805 139.602228 85.837805 
L 139.602228 85.837805 
z
" clip-path="url(#p888144e28d)" style="fill: none; stroke: #008000"/>
   </g>
   <g id="PathCollection_4">
    <path d="M 180.718018 217.067748 
C 181.513627 217.067748 182.276757 216.751649 182.839338 216.189068 
C 183.401919 215.626487 183.718018 214.863357 183.718018 214.067748 
C 183.718018 213.272138 183.401919 212.509008 182.839338 211.946427 
C 182.276757 211.383847 181.513627 211.067748 180.718018 211.067748 
C 179.922408 211.067748 179.159278 211.383847 178.596697 211.946427 
C 178.034117 212.509008 177.718018 213.272138 177.718018 214.067748 
C 177.718018 214.863357 178.034117 215.626487 178.596697 216.189068 
C 179.159278 216.751649 179.922408 217.067748 180.718018 217.067748 
L 180.718018 217.067748 
z
" clip-path="url(#p888144e28d)" style="fill: none; stroke: #008000"/>
   </g>
   <g id="PathCollection_5">
    <path d="M 221.833807 138.768928 
C 222.629416 138.768928 223.392547 138.452829 223.955128 137.890248 
C 224.517708 137.327668 224.833807 136.564537 224.833807 135.768928 
C 224.833807 134.973319 224.517708 134.210188 223.955128 133.647608 
C 223.392547 133.085027 222.629416 132.768928 221.833807 132.768928 
C 221.038198 132.768928 220.275068 133.085027 219.712487 133.647608 
C 219.149906 134.210188 218.833807 134.973319 218.833807 135.768928 
C 218.833807 136.564537 219.149906 137.327668 219.712487 137.890248 
C 220.275068 138.452829 221.038198 138.768928 221.833807 138.768928 
L 221.833807 138.768928 
z
" clip-path="url(#p888144e28d)" style="fill: none; stroke: #008000"/>
   </g>
   <g id="PathCollection_6">
    <path d="M 262.949597 259.09635 
C 263.745206 259.09635 264.508336 258.780251 265.070917 258.21767 
C 265.633498 257.655089 265.949597 256.891959 265.949597 256.09635 
C 265.949597 255.30074 265.633498 254.53761 265.070917 253.975029 
C 264.508336 253.412449 263.745206 253.09635 262.949597 253.09635 
C 262.153987 253.09635 261.390857 253.412449 260.828276 253.975029 
C 260.265696 254.53761 259.949597 255.30074 259.949597 256.09635 
C 259.949597 256.891959 260.265696 257.655089 260.828276 258.21767 
C 261.390857 258.780251 262.153987 259.09635 262.949597 259.09635 
L 262.949597 259.09635 
z
" clip-path="url(#p888144e28d)" style="fill: none; stroke: #008000"/>
   </g>
   <g id="PathCollection_7">
    <path d="M 304.065386 135.369987 
C 304.860995 135.369987 305.624126 135.053888 306.186706 134.491307 
C 306.749287 133.928727 307.065386 133.165596 307.065386 132.369987 
C 307.065386 131.574378 306.749287 130.811248 306.186706 130.248667 
C 305.624126 129.686086 304.860995 129.369987 304.065386 129.369987 
C 303.269777 129.369987 302.506646 129.686086 301.944066 130.248667 
C 301.381485 130.811248 301.065386 131.574378 301.065386 132.369987 
C 301.065386 133.165596 301.381485 133.928727 301.944066 134.491307 
C 302.506646 135.053888 303.269777 135.369987 304.065386 135.369987 
L 304.065386 135.369987 
z
" clip-path="url(#p888144e28d)" style="fill: none; stroke: #008000"/>
   </g>
   <g id="PathCollection_8">
    <path d="M 345.181176 252.983785 
C 345.976785 252.983785 346.739915 252.667686 347.302496 252.105105 
C 347.865077 251.542524 348.181176 250.779394 348.181176 249.983785 
C 348.181176 249.188175 347.865077 248.425045 347.302496 247.862464 
C 346.739915 247.299884 345.976785 246.983785 345.181176 246.983785 
C 344.385566 246.983785 343.622436 247.299884 343.059855 247.862464 
C 342.497275 248.425045 342.181176 249.188175 342.181176 249.983785 
C 342.181176 250.779394 342.497275 251.542524 343.059855 252.105105 
C 343.622436 252.667686 344.385566 252.983785 345.181176 252.983785 
L 345.181176 252.983785 
z
" clip-path="url(#p888144e28d)" style="fill: none; stroke: #008000"/>
   </g>
   <g id="PathCollection_9">
    <path d="M 386.296965 165.810727 
C 387.092574 165.810727 387.855705 165.494628 388.418285 164.932047 
C 388.980866 164.369466 389.296965 163.606336 389.296965 162.810727 
C 389.296965 162.015118 388.980866 161.251987 388.418285 160.689407 
C 387.855705 160.126826 387.092574 159.810727 386.296965 159.810727 
C 385.501356 159.810727 384.738225 160.126826 384.175645 160.689407 
C 383.613064 161.251987 383.296965 162.015118 383.296965 162.810727 
C 383.296965 163.606336 383.613064 164.369466 384.175645 164.932047 
C 384.738225 165.494628 385.501356 165.810727 386.296965 165.810727 
L 386.296965 165.810727 
z
" clip-path="url(#p888144e28d)" style="fill: none; stroke: #008000"/>
   </g>
   <g id="PathCollection_10">
    <path d="M 427.412755 290.737601 
C 428.208364 290.737601 428.971494 290.421502 429.534075 289.858922 
C 430.096656 289.296341 430.412755 288.533211 430.412755 287.737601 
C 430.412755 286.941992 430.096656 286.178862 429.534075 285.616281 
C 428.971494 285.0537 428.208364 284.737601 427.412755 284.737601 
C 426.617145 284.737601 425.854015 285.0537 425.291434 285.616281 
C 424.728853 286.178862 424.412755 286.941992 424.412755 287.737601 
C 424.412755 288.533211 424.728853 289.296341 425.291434 289.858922 
C 425.854015 290.421502 426.617145 290.737601 427.412755 290.737601 
L 427.412755 290.737601 
z
" clip-path="url(#p888144e28d)" style="fill: none; stroke: #008000"/>
   </g>
   <g id="PathCollection_11">
    <path d="M 57.370649 90.871024 
C 58.166259 90.871024 58.929389 90.554926 59.49197 89.992345 
C 60.05455 89.429764 60.370649 88.666634 60.370649 87.871024 
C 60.370649 87.075415 60.05455 86.312285 59.49197 85.749704 
C 58.929389 85.187123 58.166259 84.871024 57.370649 84.871024 
C 56.57504 84.871024 55.81191 85.187123 55.249329 85.749704 
C 54.686748 86.312285 54.370649 87.075415 54.370649 87.871024 
C 54.370649 88.666634 54.686748 89.429764 55.249329 89.992345 
C 55.81191 90.554926 56.57504 90.871024 57.370649 90.871024 
L 57.370649 90.871024 
z
" clip-path="url(#p888144e28d)" style="fill: none; stroke: #4169e1"/>
   </g>
   <g id="PathCollection_12">
    <path d="M 98.486439 275.01288 
C 99.282048 275.01288 100.045178 274.696781 100.607759 274.134201 
C 101.17034 273.57162 101.486439 272.80849 101.486439 272.01288 
C 101.486439 271.217271 101.17034 270.454141 100.607759 269.89156 
C 100.045178 269.328979 99.282048 269.01288 98.486439 269.01288 
C 97.690829 269.01288 96.927699 269.328979 96.365118 269.89156 
C 95.802538 270.454141 95.486439 271.217271 95.486439 272.01288 
C 95.486439 272.80849 95.802538 273.57162 96.365118 274.134201 
C 96.927699 274.696781 97.690829 275.01288 98.486439 275.01288 
L 98.486439 275.01288 
z
" clip-path="url(#p888144e28d)" style="fill: none; stroke: #4169e1"/>
   </g>
   <g id="PathCollection_13">
    <path d="M 139.602228 85.837806 
C 140.397838 85.837806 141.160968 85.521707 141.723549 84.959126 
C 142.286129 84.396545 142.602228 83.633415 142.602228 82.837806 
C 142.602228 82.042196 142.286129 81.279066 141.723549 80.716485 
C 141.160968 80.153905 140.397838 79.837806 139.602228 79.837806 
C 138.806619 79.837806 138.043489 80.153905 137.480908 80.716485 
C 136.918327 81.279066 136.602228 82.042196 136.602228 82.837806 
C 136.602228 83.633415 136.918327 84.396545 137.480908 84.959126 
C 138.043489 85.521707 138.806619 85.837806 139.602228 85.837806 
L 139.602228 85.837806 
z
" clip-path="url(#p888144e28d)" style="fill: none; stroke: #4169e1"/>
   </g>
   <g id="PathCollection_14">
    <path d="M 180.718018 217.067733 
C 181.513627 217.067733 182.276757 216.751634 182.839338 216.189053 
C 183.401919 215.626472 183.718018 214.863342 183.718018 214.067733 
C 183.718018 213.272123 183.401919 212.508993 182.839338 211.946412 
C 182.276757 211.383831 181.513627 211.067733 180.718018 211.067733 
C 179.922408 211.067733 179.159278 211.383831 178.596697 211.946412 
C 178.034117 212.508993 177.718018 213.272123 177.718018 214.067733 
C 177.718018 214.863342 178.034117 215.626472 178.596697 216.189053 
C 179.159278 216.751634 179.922408 217.067733 180.718018 217.067733 
L 180.718018 217.067733 
z
" clip-path="url(#p888144e28d)" style="fill: none; stroke: #4169e1"/>
   </g>
   <g id="PathCollection_15">
    <path d="M 221.833807 138.768969 
C 222.629416 138.768969 223.392547 138.45287 223.955128 137.890289 
C 224.517708 137.327708 224.833807 136.564578 224.833807 135.768969 
C 224.833807 134.973359 224.517708 134.210229 223.955128 133.647648 
C 223.392547 133.085068 222.629416 132.768969 221.833807 132.768969 
C 221.038198 132.768969 220.275068 133.085068 219.712487 133.647648 
C 219.149906 134.210229 218.833807 134.973359 218.833807 135.768969 
C 218.833807 136.564578 219.149906 137.327708 219.712487 137.890289 
C 220.275068 138.45287 221.038198 138.768969 221.833807 138.768969 
L 221.833807 138.768969 
z
" clip-path="url(#p888144e28d)" style="fill: none; stroke: #4169e1"/>
   </g>
   <g id="PathCollection_16">
    <path d="M 262.949597 259.096338 
C 263.745206 259.096338 264.508336 258.78024 265.070917 258.217659 
C 265.633498 257.655078 265.949597 256.891948 265.949597 256.096338 
C 265.949597 255.300729 265.633498 254.537599 265.070917 253.975018 
C 264.508336 253.412437 263.745206 253.096338 262.949597 253.096338 
C 262.153987 253.096338 261.390857 253.412437 260.828276 253.975018 
C 260.265696 254.537599 259.949597 255.300729 259.949597 256.096338 
C 259.949597 256.891948 260.265696 257.655078 260.828276 258.217659 
C 261.390857 258.78024 262.153987 259.096338 262.949597 259.096338 
L 262.949597 259.096338 
z
" clip-path="url(#p888144e28d)" style="fill: none; stroke: #4169e1"/>
   </g>
   <g id="PathCollection_17">
    <path d="M 304.065386 135.369984 
C 304.860995 135.369984 305.624126 135.053885 306.186706 134.491304 
C 306.749287 133.928723 307.065386 133.165593 307.065386 132.369984 
C 307.065386 131.574374 306.749287 130.811244 306.186706 130.248663 
C 305.624126 129.686083 304.860995 129.369984 304.065386 129.369984 
C 303.269777 129.369984 302.506646 129.686083 301.944066 130.248663 
C 301.381485 130.811244 301.065386 131.574374 301.065386 132.369984 
C 301.065386 133.165593 301.381485 133.928723 301.944066 134.491304 
C 302.506646 135.053885 303.269777 135.369984 304.065386 135.369984 
L 304.065386 135.369984 
z
" clip-path="url(#p888144e28d)" style="fill: none; stroke: #4169e1"/>
   </g>
   <g id="PathCollection_18">
    <path d="M 345.181176 252.983784 
C 345.976785 252.983784 346.739915 252.667685 347.302496 252.105104 
C 347.865077 251.542524 348.181176 250.779393 348.181176 249.983784 
C 348.181176 249.188175 347.865077 248.425045 347.302496 247.862464 
C 346.739915 247.299883 345.976785 246.983784 345.181176 246.983784 
C 344.385566 246.983784 343.622436 247.299883 343.059855 247.862464 
C 342.497275 248.425045 342.181176 249.188175 342.181176 249.983784 
C 342.181176 250.779393 342.497275 251.542524 343.059855 252.105104 
C 343.622436 252.667685 344.385566 252.983784 345.181176 252.983784 
L 345.181176 252.983784 
z
" clip-path="url(#p888144e28d)" style="fill: none; stroke: #4169e1"/>
   </g>
   <g id="PathCollection_19">
    <path d="M 386.296965 165.810727 
C 387.092574 165.810727 387.855705 165.494628 388.418285 164.932047 
C 388.980866 164.369466 389.296965 163.606336 389.296965 162.810727 
C 389.296965 162.015118 388.980866 161.251987 388.418285 160.689407 
C 387.855705 160.126826 387.092574 159.810727 386.296965 159.810727 
C 385.501356 159.810727 384.738225 160.126826 384.175645 160.689407 
C 383.613064 161.251987 383.296965 162.015118 383.296965 162.810727 
C 383.296965 163.606336 383.613064 164.369466 384.175645 164.932047 
C 384.738225 165.494628 385.501356 165.810727 386.296965 165.810727 
L 386.296965 165.810727 
z
" clip-path="url(#p888144e28d)" style="fill: none; stroke: #4169e1"/>
   </g>
   <g id="PathCollection_20">
    <path d="M 427.412755 290.737601 
C 428.208364 290.737601 428.971494 290.421502 429.534075 289.858922 
C 430.096656 289.296341 430.412755 288.533211 430.412755 287.737601 
C 430.412755 286.941992 430.096656 286.178862 429.534075 285.616281 
C 428.971494 285.0537 428.208364 284.737601 427.412755 284.737601 
C 426.617145 284.737601 425.854015 285.0537 425.291434 285.616281 
C 424.728853 286.178862 424.412755 286.941992 424.412755 287.737601 
C 424.412755 288.533211 424.728853 289.296341 425.291434 289.858922 
C 425.854015 290.421502 426.617145 290.737601 427.412755 290.737601 
L 427.412755 290.737601 
z
" clip-path="url(#p888144e28d)" style="fill: none; stroke: #4169e1"/>
   </g>
   <g id="PathCollection_21">
    <path d="M 57.370649 90.871025 
C 58.166259 90.871025 58.929389 90.554926 59.49197 89.992345 
C 60.05455 89.429764 60.370649 88.666634 60.370649 87.871025 
C 60.370649 87.075415 60.05455 86.312285 59.49197 85.749704 
C 58.929389 85.187124 58.166259 84.871025 57.370649 84.871025 
C 56.57504 84.871025 55.81191 85.187124 55.249329 85.749704 
C 54.686748 86.312285 54.370649 87.075415 54.370649 87.871025 
C 54.370649 88.666634 54.686748 89.429764 55.249329 89.992345 
C 55.81191 90.554926 56.57504 90.871025 57.370649 90.871025 
L 57.370649 90.871025 
z
" clip-path="url(#p888144e28d)" style="fill: none; stroke: #ff7f50"/>
   </g>
   <g id="PathCollection_22">
    <path d="M 98.486439 275.012883 
C 99.282048 275.012883 100.045178 274.696784 100.607759 274.134203 
C 101.17034 273.571623 101.486439 272.808492 101.486439 272.012883 
C 101.486439 271.217274 101.17034 270.454143 100.607759 269.891563 
C 100.045178 269.328982 99.282048 269.012883 98.486439 269.012883 
C 97.690829 269.012883 96.927699 269.328982 96.365118 269.891563 
C 95.802538 270.454143 95.486439 271.217274 95.486439 272.012883 
C 95.486439 272.808492 95.802538 273.571623 96.365118 274.134203 
C 96.927699 274.696784 97.690829 275.012883 98.486439 275.012883 
L 98.486439 275.012883 
z
" clip-path="url(#p888144e28d)" style="fill: none; stroke: #ff7f50"/>
   </g>
   <g id="PathCollection_23">
    <path d="M 139.602228 85.837804 
C 140.397838 85.837804 141.160968 85.521706 141.723549 84.959125 
C 142.286129 84.396544 142.602228 83.633414 142.602228 82.837804 
C 142.602228 82.042195 142.286129 81.279065 141.723549 80.716484 
C 141.160968 80.153903 140.397838 79.837804 139.602228 79.837804 
C 138.806619 79.837804 138.043489 80.153903 137.480908 80.716484 
C 136.918327 81.279065 136.602228 82.042195 136.602228 82.837804 
C 136.602228 83.633414 136.918327 84.396544 137.480908 84.959125 
C 138.043489 85.521706 138.806619 85.837804 139.602228 85.837804 
L 139.602228 85.837804 
z
" clip-path="url(#p888144e28d)" style="fill: none; stroke: #ff7f50"/>
   </g>
   <g id="PathCollection_24">
    <path d="M 180.718018 217.067773 
C 181.513627 217.067773 182.276757 216.751674 182.839338 216.189093 
C 183.401919 215.626512 183.718018 214.863382 183.718018 214.067773 
C 183.718018 213.272164 183.401919 212.509033 182.839338 211.946453 
C 182.276757 211.383872 181.513627 211.067773 180.718018 211.067773 
C 179.922408 211.067773 179.159278 211.383872 178.596697 211.946453 
C 178.034117 212.509033 177.718018 213.272164 177.718018 214.067773 
C 177.718018 214.863382 178.034117 215.626512 178.596697 216.189093 
C 179.159278 216.751674 179.922408 217.067773 180.718018 217.067773 
L 180.718018 217.067773 
z
" clip-path="url(#p888144e28d)" style="fill: none; stroke: #ff7f50"/>
   </g>
   <g id="PathCollection_25">
    <path d="M 221.833807 138.768314 
C 222.629416 138.768314 223.392547 138.452215 223.955128 137.889634 
C 224.517708 137.327054 224.833807 136.563923 224.833807 135.768314 
C 224.833807 134.972705 224.517708 134.209574 223.955128 133.646994 
C 223.392547 133.084413 222.629416 132.768314 221.833807 132.768314 
C 221.038198 132.768314 220.275068 133.084413 219.712487 133.646994 
C 219.149906 134.209574 218.833807 134.972705 218.833807 135.768314 
C 218.833807 136.563923 219.149906 137.327054 219.712487 137.889634 
C 220.275068 138.452215 221.038198 138.768314 221.833807 138.768314 
L 221.833807 138.768314 
z
" clip-path="url(#p888144e28d)" style="fill: none; stroke: #ff7f50"/>
   </g>
   <g id="PathCollection_26">
    <path d="M 262.949597 259.096409 
C 263.745206 259.096409 264.508336 258.78031 265.070917 258.21773 
C 265.633498 257.655149 265.949597 256.892019 265.949597 256.096409 
C 265.949597 255.3008 265.633498 254.53767 265.070917 253.975089 
C 264.508336 253.412508 263.745206 253.096409 262.949597 253.096409 
C 262.153987 253.096409 261.390857 253.412508 260.828276 253.975089 
C 260.265696 254.53767 259.949597 255.3008 259.949597 256.096409 
C 259.949597 256.892019 260.265696 257.655149 260.828276 258.21773 
C 261.390857 258.78031 262.153987 259.096409 262.949597 259.096409 
L 262.949597 259.096409 
z
" clip-path="url(#p888144e28d)" style="fill: none; stroke: #ff7f50"/>
   </g>
   <g id="PathCollection_27">
    <path d="M 304.065386 135.370025 
C 304.860995 135.370025 305.624126 135.053926 306.186706 134.491346 
C 306.749287 133.928765 307.065386 133.165635 307.065386 132.370025 
C 307.065386 131.574416 306.749287 130.811286 306.186706 130.248705 
C 305.624126 129.686124 304.860995 129.370025 304.065386 129.370025 
C 303.269777 129.370025 302.506646 129.686124 301.944066 130.248705 
C 301.381485 130.811286 301.065386 131.574416 301.065386 132.370025 
C 301.065386 133.165635 301.381485 133.928765 301.944066 134.491346 
C 302.506646 135.053926 303.269777 135.370025 304.065386 135.370025 
L 304.065386 135.370025 
z
" clip-path="url(#p888144e28d)" style="fill: none; stroke: #ff7f50"/>
   </g>
   <g id="PathCollection_28">
    <path d="M 345.181176 252.98382 
C 345.976785 252.98382 346.739915 252.667721 347.302496 252.10514 
C 347.865077 251.542559 348.181176 250.779429 348.181176 249.98382 
C 348.181176 249.18821 347.865077 248.42508 347.302496 247.862499 
C 346.739915 247.299919 345.976785 246.98382 345.181176 246.98382 
C 344.385566 246.98382 343.622436 247.299919 343.059855 247.862499 
C 342.497275 248.42508 342.181176 249.18821 342.181176 249.98382 
C 342.181176 250.779429 342.497275 251.542559 343.059855 252.10514 
C 343.622436 252.667721 344.385566 252.98382 345.181176 252.98382 
L 345.181176 252.98382 
z
" clip-path="url(#p888144e28d)" style="fill: none; stroke: #ff7f50"/>
   </g>
   <g id="PathCollection_29">
    <path d="M 386.296965 165.810864 
C 387.092574 165.810864 387.855705 165.494765 388.418285 164.932184 
C 388.980866 164.369604 389.296965 163.606473 389.296965 162.810864 
C 389.296965 162.015255 388.980866 161.252125 388.418285 160.689544 
C 387.855705 160.126963 387.092574 159.810864 386.296965 159.810864 
C 385.501356 159.810864 384.738225 160.126963 384.175645 160.689544 
C 383.613064 161.252125 383.296965 162.015255 383.296965 162.810864 
C 383.296965 163.606473 383.613064 164.369604 384.175645 164.932184 
C 384.738225 165.494765 385.501356 165.810864 386.296965 165.810864 
L 386.296965 165.810864 
z
" clip-path="url(#p888144e28d)" style="fill: none; stroke: #ff7f50"/>
   </g>
   <g id="PathCollection_30">
    <path d="M 427.412755 290.737648 
C 428.208364 290.737648 428.971494 290.421549 429.534075 289.858969 
C 430.096656 289.296388 430.412755 288.533258 430.412755 287.737648 
C 430.412755 286.942039 430.096656 286.178909 429.534075 285.616328 
C 428.971494 285.053747 428.208364 284.737648 427.412755 284.737648 
C 426.617145 284.737648 425.854015 285.053747 425.291434 285.616328 
C 424.728853 286.178909 424.412755 286.942039 424.412755 287.737648 
C 424.412755 288.533258 424.728853 289.296388 425.291434 289.858969 
C 425.854015 290.421549 426.617145 290.737648 427.412755 290.737648 
L 427.412755 290.737648 
z
" clip-path="url(#p888144e28d)" style="fill: none; stroke: #ff7f50"/>
   </g>
   <g id="PathCollection_31">
    <path d="M 57.370649 51.182651 
C 58.166259 51.182651 58.929389 50.866552 59.49197 50.303971 
C 60.05455 49.741391 60.370649 48.97826 60.370649 48.182651 
C 60.370649 47.387042 60.05455 46.623912 59.49197 46.061331 
C 58.929389 45.49875 58.166259 45.182651 57.370649 45.182651 
C 56.57504 45.182651 55.81191 45.49875 55.249329 46.061331 
C 54.686748 46.623912 54.370649 47.387042 54.370649 48.182651 
C 54.370649 48.97826 54.686748 49.741391 55.249329 50.303971 
C 55.81191 50.866552 56.57504 51.182651 57.370649 51.182651 
L 57.370649 51.182651 
z
" clip-path="url(#p888144e28d)" style="fill: none; stroke: #ffd700"/>
   </g>
   <g id="PathCollection_32">
    <path d="M 98.486439 231.940985 
C 99.282048 231.940985 100.045178 231.624886 100.607759 231.062306 
C 101.17034 230.499725 101.486439 229.736595 101.486439 228.940985 
C 101.486439 228.145376 101.17034 227.382246 100.607759 226.819665 
C 100.045178 226.257084 99.282048 225.940985 98.486439 225.940985 
C 97.690829 225.940985 96.927699 226.257084 96.365118 226.819665 
C 95.802538 227.382246 95.486439 228.145376 95.486439 228.940985 
C 95.486439 229.736595 95.802538 230.499725 96.365118 231.062306 
C 96.927699 231.624886 97.690829 231.940985 98.486439 231.940985 
L 98.486439 231.940985 
z
" clip-path="url(#p888144e28d)" style="fill: none; stroke: #ffd700"/>
   </g>
   <g id="PathCollection_33">
    <path d="M 139.602228 38.737648 
C 140.397838 38.737648 141.160968 38.421549 141.723549 37.858969 
C 142.286129 37.296388 142.602228 36.533258 142.602228 35.737648 
C 142.602228 34.942039 142.286129 34.178909 141.723549 33.616328 
C 141.160968 33.053747 140.397838 32.737648 139.602228 32.737648 
C 138.806619 32.737648 138.043489 33.053747 137.480908 33.616328 
C 136.918327 34.178909 136.602228 34.942039 136.602228 35.737648 
C 136.602228 36.533258 136.918327 37.296388 137.480908 37.858969 
C 138.043489 38.421549 138.806619 38.737648 139.602228 38.737648 
L 139.602228 38.737648 
z
" clip-path="url(#p888144e28d)" style="fill: none; stroke: #ffd700"/>
   </g>
   <g id="PathCollection_34">
    <path d="M 180.718018 197.052092 
C 181.513627 197.052092 182.276757 196.735993 182.839338 196.173412 
C 183.401919 195.610832 183.718018 194.847701 183.718018 194.052092 
C 183.718018 193.256483 183.401919 192.493352 182.839338 191.930772 
C 182.276757 191.368191 181.513627 191.052092 180.718018 191.052092 
C 179.922408 191.052092 179.159278 191.368191 178.596697 191.930772 
C 178.034117 192.493352 177.718018 193.256483 177.718018 194.052092 
C 177.718018 194.847701 178.034117 195.610832 178.596697 196.173412 
C 179.159278 196.735993 179.922408 197.052092 180.718018 197.052092 
L 180.718018 197.052092 
z
" clip-path="url(#p888144e28d)" style="fill: none; stroke: #ffd700"/>
   </g>
   <g id="PathCollection_35">
    <path d="M 221.833807 91.126558 
C 222.629416 91.126558 223.392547 90.810459 223.955128 90.247878 
C 224.517708 89.685297 224.833807 88.922167 224.833807 88.126558 
C 224.833807 87.330948 224.517708 86.567818 223.955128 86.005237 
C 223.392547 85.442657 222.629416 85.126558 221.833807 85.126558 
C 221.038198 85.126558 220.275068 85.442657 219.712487 86.005237 
C 219.149906 86.567818 218.833807 87.330948 218.833807 88.126558 
C 218.833807 88.922167 219.149906 89.685297 219.712487 90.247878 
C 220.275068 90.810459 221.038198 91.126558 221.833807 91.126558 
L 221.833807 91.126558 
z
" clip-path="url(#p888144e28d)" style="fill: none; stroke: #ffd700"/>
   </g>
   <g id="PathCollection_36">
    <path d="M 262.949597 217.321613 
C 263.745206 217.321613 264.508336 217.005514 265.070917 216.442933 
C 265.633498 215.880352 265.949597 215.117222 265.949597 214.321613 
C 265.949597 213.526003 265.633498 212.762873 265.070917 212.200292 
C 264.508336 211.637712 263.745206 211.321613 262.949597 211.321613 
C 262.153987 211.321613 261.390857 211.637712 260.828276 212.200292 
C 260.265696 212.762873 259.949597 213.526003 259.949597 214.321613 
C 259.949597 215.117222 260.265696 215.880352 260.828276 216.442933 
C 261.390857 217.005514 262.153987 217.321613 262.949597 217.321613 
L 262.949597 217.321613 
z
" clip-path="url(#p888144e28d)" style="fill: none; stroke: #ffd700"/>
   </g>
   <g id="PathCollection_37">
    <path d="M 304.065386 96.561587 
C 304.860995 96.561587 305.624126 96.245488 306.186706 95.682907 
C 306.749287 95.120327 307.065386 94.357196 307.065386 93.561587 
C 307.065386 92.765978 306.749287 92.002847 306.186706 91.440267 
C 305.624126 90.877686 304.860995 90.561587 304.065386 90.561587 
C 303.269777 90.561587 302.506646 90.877686 301.944066 91.440267 
C 301.381485 92.002847 301.065386 92.765978 301.065386 93.561587 
C 301.065386 94.357196 301.381485 95.120327 301.944066 95.682907 
C 302.506646 96.245488 303.269777 96.561587 304.065386 96.561587 
L 304.065386 96.561587 
z
" clip-path="url(#p888144e28d)" style="fill: none; stroke: #ffd700"/>
   </g>
   <g id="PathCollection_38">
    <path d="M 345.181176 212.020752 
C 345.976785 212.020752 346.739915 211.704653 347.302496 211.142072 
C 347.865077 210.579492 348.181176 209.816361 348.181176 209.020752 
C 348.181176 208.225143 347.865077 207.462012 347.302496 206.899432 
C 346.739915 206.336851 345.976785 206.020752 345.181176 206.020752 
C 344.385566 206.020752 343.622436 206.336851 343.059855 206.899432 
C 342.497275 207.462012 342.181176 208.225143 342.181176 209.020752 
C 342.181176 209.816361 342.497275 210.579492 343.059855 211.142072 
C 343.622436 211.704653 344.385566 212.020752 345.181176 212.020752 
L 345.181176 212.020752 
z
" clip-path="url(#p888144e28d)" style="fill: none; stroke: #ffd700"/>
   </g>
   <g id="PathCollection_39">
    <path d="M 386.296965 156.358549 
C 387.092574 156.358549 387.855705 156.04245 388.418285 155.479869 
C 388.980866 154.917288 389.296965 154.154158 389.296965 153.358549 
C 389.296965 152.562939 388.980866 151.799809 388.418285 151.237228 
C 387.855705 150.674648 387.092574 150.358549 386.296965 150.358549 
C 385.501356 150.358549 384.738225 150.674648 384.175645 151.237228 
C 383.613064 151.799809 383.296965 152.562939 383.296965 153.358549 
C 383.296965 154.154158 383.613064 154.917288 384.175645 155.479869 
C 384.738225 156.04245 385.501356 156.358549 386.296965 156.358549 
L 386.296965 156.358549 
z
" clip-path="url(#p888144e28d)" style="fill: none; stroke: #ffd700"/>
   </g>
   <g id="PathCollection_40">
    <path d="M 427.412755 249.858967 
C 428.208364 249.858967 428.971494 249.542868 429.534075 248.980287 
C 430.096656 248.417707 430.412755 247.654576 430.412755 246.858967 
C 430.412755 246.063358 430.096656 245.300227 429.534075 244.737647 
C 428.971494 244.175066 428.208364 243.858967 427.412755 243.858967 
C 426.617145 243.858967 425.854015 244.175066 425.291434 244.737647 
C 424.728853 245.300227 424.412755 246.063358 424.412755 246.858967 
C 424.412755 247.654576 424.728853 248.417707 425.291434 248.980287 
C 425.854015 249.542868 426.617145 249.858967 427.412755 249.858967 
L 427.412755 249.858967 
z
" clip-path="url(#p888144e28d)" style="fill: none; stroke: #ffd700"/>
   </g>
   <g id="PathCollection_41">
    <path d="M 57.370649 115.136248 
C 58.166259 115.136248 58.929389 114.820149 59.49197 114.257568 
C 60.05455 113.694987 60.370649 112.931857 60.370649 112.136248 
C 60.370649 111.340638 60.05455 110.577508 59.49197 110.014927 
C 58.929389 109.452347 58.166259 109.136248 57.370649 109.136248 
C 56.57504 109.136248 55.81191 109.452347 55.249329 110.014927 
C 54.686748 110.577508 54.370649 111.340638 54.370649 112.136248 
C 54.370649 112.931857 54.686748 113.694987 55.249329 114.257568 
C 55.81191 114.820149 56.57504 115.136248 57.370649 115.136248 
L 57.370649 115.136248 
z
" clip-path="url(#p888144e28d)" style="fill: none; stroke: #00ff00"/>
   </g>
   <g id="PathCollection_42">
    <path d="M 98.486439 275.66488 
C 99.282048 275.66488 100.045178 275.348781 100.607759 274.786201 
C 101.17034 274.22362 101.486439 273.460489 101.486439 272.66488 
C 101.486439 271.869271 101.17034 271.106141 100.607759 270.54356 
C 100.045178 269.980979 99.282048 269.66488 98.486439 269.66488 
C 97.690829 269.66488 96.927699 269.980979 96.365118 270.54356 
C 95.802538 271.106141 95.486439 271.869271 95.486439 272.66488 
C 95.486439 273.460489 95.802538 274.22362 96.365118 274.786201 
C 96.927699 275.348781 97.690829 275.66488 98.486439 275.66488 
L 98.486439 275.66488 
z
" clip-path="url(#p888144e28d)" style="fill: none; stroke: #00ff00"/>
   </g>
   <g id="PathCollection_43">
    <path d="M 139.602228 120.688173 
C 140.397838 120.688173 141.160968 120.372074 141.723549 119.809493 
C 142.286129 119.246912 142.602228 118.483782 142.602228 117.688173 
C 142.602228 116.892563 142.286129 116.129433 141.723549 115.566852 
C 141.160968 115.004272 140.397838 114.688173 139.602228 114.688173 
C 138.806619 114.688173 138.043489 115.004272 137.480908 115.566852 
C 136.918327 116.129433 136.602228 116.892563 136.602228 117.688173 
C 136.602228 118.483782 136.918327 119.246912 137.480908 119.809493 
C 138.043489 120.372074 138.806619 120.688173 139.602228 120.688173 
L 139.602228 120.688173 
z
" clip-path="url(#p888144e28d)" style="fill: none; stroke: #00ff00"/>
   </g>
   <g id="PathCollection_44">
    <path d="M 180.718018 248.33041 
C 181.513627 248.33041 182.276757 248.014311 182.839338 247.45173 
C 183.401919 246.88915 183.718018 246.126019 183.718018 245.33041 
C 183.718018 244.534801 183.401919 243.77167 182.839338 243.20909 
C 182.276757 242.646509 181.513627 242.33041 180.718018 242.33041 
C 179.922408 242.33041 179.159278 242.646509 178.596697 243.20909 
C 178.034117 243.77167 177.718018 244.534801 177.718018 245.33041 
C 177.718018 246.126019 178.034117 246.88915 178.596697 247.45173 
C 179.159278 248.014311 179.922408 248.33041 180.718018 248.33041 
L 180.718018 248.33041 
z
" clip-path="url(#p888144e28d)" style="fill: none; stroke: #00ff00"/>
   </g>
   <g id="PathCollection_45">
    <path d="M 221.833807 136.607946 
C 222.629416 136.607946 223.392547 136.291847 223.955128 135.729267 
C 224.517708 135.166686 224.833807 134.403556 224.833807 133.607946 
C 224.833807 132.812337 224.517708 132.049207 223.955128 131.486626 
C 223.392547 130.924045 222.629416 130.607946 221.833807 130.607946 
C 221.038198 130.607946 220.275068 130.924045 219.712487 131.486626 
C 219.149906 132.049207 218.833807 132.812337 218.833807 133.607946 
C 218.833807 134.403556 219.149906 135.166686 219.712487 135.729267 
C 220.275068 136.291847 221.038198 136.607946 221.833807 136.607946 
L 221.833807 136.607946 
z
" clip-path="url(#p888144e28d)" style="fill: none; stroke: #00ff00"/>
   </g>
   <g id="PathCollection_46">
    <path d="M 262.949597 253.246495 
C 263.745206 253.246495 264.508336 252.930396 265.070917 252.367815 
C 265.633498 251.805235 265.949597 251.042104 265.949597 250.246495 
C 265.949597 249.450886 265.633498 248.687755 265.070917 248.125175 
C 264.508336 247.562594 263.745206 247.246495 262.949597 247.246495 
C 262.153987 247.246495 261.390857 247.562594 260.828276 248.125175 
C 260.265696 248.687755 259.949597 249.450886 259.949597 250.246495 
C 259.949597 251.042104 260.265696 251.805235 260.828276 252.367815 
C 261.390857 252.930396 262.153987 253.246495 262.949597 253.246495 
L 262.949597 253.246495 
z
" clip-path="url(#p888144e28d)" style="fill: none; stroke: #00ff00"/>
   </g>
   <g id="PathCollection_47">
    <path d="M 304.065386 152.711031 
C 304.860995 152.711031 305.624126 152.394932 306.186706 151.832351 
C 306.749287 151.26977 307.065386 150.50664 307.065386 149.711031 
C 307.065386 148.915421 306.749287 148.152291 306.186706 147.58971 
C 305.624126 147.027129 304.860995 146.711031 304.065386 146.711031 
C 303.269777 146.711031 302.506646 147.027129 301.944066 147.58971 
C 301.381485 148.152291 301.065386 148.915421 301.065386 149.711031 
C 301.065386 150.50664 301.381485 151.26977 301.944066 151.832351 
C 302.506646 152.394932 303.269777 152.711031 304.065386 152.711031 
L 304.065386 152.711031 
z
" clip-path="url(#p888144e28d)" style="fill: none; stroke: #00ff00"/>
   </g>
   <g id="PathCollection_48">
    <path d="M 345.181176 256.813377 
C 345.976785 256.813377 346.739915 256.497278 347.302496 255.934697 
C 347.865077 255.372117 348.181176 254.608986 348.181176 253.813377 
C 348.181176 253.017768 347.865077 252.254637 347.302496 251.692057 
C 346.739915 251.129476 345.976785 250.813377 345.181176 250.813377 
C 344.385566 250.813377 343.622436 251.129476 343.059855 251.692057 
C 342.497275 252.254637 342.181176 253.017768 342.181176 253.813377 
C 342.181176 254.608986 342.497275 255.372117 343.059855 255.934697 
C 343.622436 256.497278 344.385566 256.813377 345.181176 256.813377 
L 345.181176 256.813377 
z
" clip-path="url(#p888144e28d)" style="fill: none; stroke: #00ff00"/>
   </g>
   <g id="PathCollection_49">
    <path d="M 386.296965 197.445394 
C 387.092574 197.445394 387.855705 197.129295 388.418285 196.566714 
C 388.980866 196.004134 389.296965 195.241003 389.296965 194.445394 
C 389.296965 193.649785 388.980866 192.886654 388.418285 192.324074 
C 387.855705 191.761493 387.092574 191.445394 386.296965 191.445394 
C 385.501356 191.445394 384.738225 191.761493 384.175645 192.324074 
C 383.613064 192.886654 383.296965 193.649785 383.296965 194.445394 
C 383.296965 195.241003 383.613064 196.004134 384.175645 196.566714 
C 384.738225 197.129295 385.501356 197.445394 386.296965 197.445394 
L 386.296965 197.445394 
z
" clip-path="url(#p888144e28d)" style="fill: none; stroke: #00ff00"/>
   </g>
   <g id="PathCollection_50">
    <path d="M 427.412755 281.343708 
C 428.208364 281.343708 428.971494 281.027609 429.534075 280.465028 
C 430.096656 279.902447 430.412755 279.139317 430.412755 278.343708 
C 430.412755 277.548098 430.096656 276.784968 429.534075 276.222387 
C 428.971494 275.659807 428.208364 275.343708 427.412755 275.343708 
C 426.617145 275.343708 425.854015 275.659807 425.291434 276.222387 
C 424.728853 276.784968 424.412755 277.548098 424.412755 278.343708 
C 424.412755 279.139317 424.728853 279.902447 425.291434 280.465028 
C 425.854015 281.027609 426.617145 281.343708 427.412755 281.343708 
L 427.412755 281.343708 
z
" clip-path="url(#p888144e28d)" style="fill: none; stroke: #00ff00"/>
   </g>
   <g id="matplotlib.axis_1">
    <g id="xtick_1">
     <g id="line2d_1">
      <path d="M 57.370649 300.337648 
L 57.370649 23.137648 
" clip-path="url(#p888144e28d)" style="fill: none; stroke: #808080; stroke-width: 0.5; stroke-linecap: square"/>
     </g>
     <g id="line2d_2">
      <defs>
       <path id="m5efd0b9a88" d="M 0 0 
L 0 3.5 
" style="stroke: #000000; stroke-width: 0.8"/>
      </defs>
      <g>
       <use xlink:href="#m5efd0b9a88" x="57.370649" y="300.337648" style="stroke: #000000; stroke-width: 0.8"/>
      </g>
     </g>
     <g id="text_1">
      <!-- $\mathdefault{1}$ -->
      <g transform="translate(54.879982 314.435969) scale(0.1 -0.1)">
       <defs>
        <path id="CMR17-31" d="M 1702 4058 
C 1702 4192 1696 4192 1606 4192 
C 1357 3916 979 3827 621 3827 
C 602 3827 570 3827 563 3808 
C 557 3795 557 3782 557 3648 
C 755 3648 1088 3686 1344 3839 
L 1344 461 
C 1344 236 1331 160 781 160 
L 589 160 
L 589 0 
C 896 0 1216 0 1523 0 
C 1830 0 2150 0 2458 0 
L 2458 160 
L 2266 160 
C 1715 160 1702 230 1702 458 
L 1702 4058 
z
" transform="scale(0.015625)"/>
       </defs>
       <use xlink:href="#CMR17-31" transform="scale(0.996264)"/>
      </g>
     </g>
    </g>
    <g id="xtick_2">
     <g id="line2d_3">
      <path d="M 98.486439 300.337648 
L 98.486439 23.137648 
" clip-path="url(#p888144e28d)" style="fill: none; stroke: #808080; stroke-width: 0.5; stroke-linecap: square"/>
     </g>
     <g id="line2d_4">
      <g>
       <use xlink:href="#m5efd0b9a88" x="98.486439" y="300.337648" style="stroke: #000000; stroke-width: 0.8"/>
      </g>
     </g>
     <g id="text_2">
      <!-- $\mathdefault{2}$ -->
      <g transform="translate(95.995771 314.435969) scale(0.1 -0.1)">
       <defs>
        <path id="CMR17-32" d="M 2669 989 
L 2554 989 
C 2490 536 2438 459 2413 420 
C 2381 369 1920 369 1830 369 
L 602 369 
C 832 619 1280 1072 1824 1597 
C 2214 1967 2669 2402 2669 3035 
C 2669 3790 2067 4224 1395 4224 
C 691 4224 262 3604 262 3030 
C 262 2780 448 2748 525 2748 
C 589 2748 781 2787 781 3010 
C 781 3207 614 3264 525 3264 
C 486 3264 448 3258 422 3245 
C 544 3790 915 4058 1306 4058 
C 1862 4058 2227 3617 2227 3035 
C 2227 2479 1901 2000 1536 1584 
L 262 146 
L 262 0 
L 2515 0 
L 2669 989 
z
" transform="scale(0.015625)"/>
       </defs>
       <use xlink:href="#CMR17-32" transform="scale(0.996264)"/>
      </g>
     </g>
    </g>
    <g id="xtick_3">
     <g id="line2d_5">
      <path d="M 139.602228 300.337648 
L 139.602228 23.137648 
" clip-path="url(#p888144e28d)" style="fill: none; stroke: #808080; stroke-width: 0.5; stroke-linecap: square"/>
     </g>
     <g id="line2d_6">
      <g>
       <use xlink:href="#m5efd0b9a88" x="139.602228" y="300.337648" style="stroke: #000000; stroke-width: 0.8"/>
      </g>
     </g>
     <g id="text_3">
      <!-- $\mathdefault{3}$ -->
      <g transform="translate(137.111561 314.435969) scale(0.1 -0.1)">
       <defs>
        <path id="CMR17-33" d="M 1414 2157 
C 1984 2157 2234 1662 2234 1090 
C 2234 320 1824 25 1453 25 
C 1114 25 563 194 390 693 
C 422 680 454 680 486 680 
C 640 680 755 782 755 948 
C 755 1133 614 1216 486 1216 
C 378 1216 211 1165 211 926 
C 211 335 787 -128 1466 -128 
C 2176 -128 2720 430 2720 1085 
C 2720 1707 2208 2157 1600 2227 
C 2086 2328 2554 2756 2554 3329 
C 2554 3820 2048 4179 1472 4179 
C 890 4179 378 3829 378 3329 
C 378 3110 544 3072 627 3072 
C 762 3072 877 3155 877 3321 
C 877 3486 762 3569 627 3569 
C 602 3569 570 3569 544 3557 
C 730 3959 1235 4032 1459 4032 
C 1683 4032 2106 3925 2106 3320 
C 2106 3143 2080 2828 1862 2550 
C 1670 2304 1453 2304 1242 2284 
C 1210 2284 1062 2269 1037 2269 
C 992 2263 966 2257 966 2208 
C 966 2163 973 2157 1101 2157 
L 1414 2157 
z
" transform="scale(0.015625)"/>
       </defs>
       <use xlink:href="#CMR17-33" transform="scale(0.996264)"/>
      </g>
     </g>
    </g>
    <g id="xtick_4">
     <g id="line2d_7">
      <path d="M 180.718018 300.337648 
L 180.718018 23.137648 
" clip-path="url(#p888144e28d)" style="fill: none; stroke: #808080; stroke-width: 0.5; stroke-linecap: square"/>
     </g>
     <g id="line2d_8">
      <g>
       <use xlink:href="#m5efd0b9a88" x="180.718018" y="300.337648" style="stroke: #000000; stroke-width: 0.8"/>
      </g>
     </g>
     <g id="text_4">
      <!-- $\mathdefault{4}$ -->
      <g transform="translate(178.22735 314.435969) scale(0.1 -0.1)">
       <defs>
        <path id="CMR17-34" d="M 2150 4122 
C 2150 4256 2144 4256 2029 4256 
L 128 1254 
L 128 1088 
L 1779 1088 
L 1779 457 
C 1779 224 1766 160 1318 160 
L 1197 160 
L 1197 0 
C 1402 0 1747 0 1965 0 
C 2182 0 2528 0 2733 0 
L 2733 160 
L 2611 160 
C 2163 160 2150 224 2150 457 
L 2150 1088 
L 2803 1088 
L 2803 1254 
L 2150 1254 
L 2150 4122 
z
M 1798 3703 
L 1798 1254 
L 256 1254 
L 1798 3703 
z
" transform="scale(0.015625)"/>
       </defs>
       <use xlink:href="#CMR17-34" transform="scale(0.996264)"/>
      </g>
     </g>
    </g>
    <g id="xtick_5">
     <g id="line2d_9">
      <path d="M 221.833807 300.337648 
L 221.833807 23.137648 
" clip-path="url(#p888144e28d)" style="fill: none; stroke: #808080; stroke-width: 0.5; stroke-linecap: square"/>
     </g>
     <g id="line2d_10">
      <g>
       <use xlink:href="#m5efd0b9a88" x="221.833807" y="300.337648" style="stroke: #000000; stroke-width: 0.8"/>
      </g>
     </g>
     <g id="text_5">
      <!-- $\mathdefault{5}$ -->
      <g transform="translate(219.34314 314.435969) scale(0.1 -0.1)">
       <defs>
        <path id="CMR17-35" d="M 730 3692 
C 794 3666 1056 3584 1325 3584 
C 1920 3584 2246 3911 2432 4100 
C 2432 4157 2432 4192 2394 4192 
C 2387 4192 2374 4192 2323 4163 
C 2099 4058 1837 3973 1517 3973 
C 1325 3973 1037 3999 723 4139 
C 653 4171 640 4171 634 4171 
C 602 4171 595 4164 595 4037 
L 595 2203 
C 595 2089 595 2057 659 2057 
C 691 2057 704 2070 736 2114 
C 941 2401 1222 2522 1542 2522 
C 1766 2522 2246 2382 2246 1289 
C 2246 1085 2246 715 2054 421 
C 1894 159 1645 25 1370 25 
C 947 25 518 320 403 814 
C 429 807 480 795 506 795 
C 589 795 749 840 749 1038 
C 749 1210 627 1280 506 1280 
C 358 1280 262 1190 262 1011 
C 262 454 704 -128 1382 -128 
C 2042 -128 2669 440 2669 1264 
C 2669 2030 2170 2624 1549 2624 
C 1222 2624 947 2503 730 2274 
L 730 3692 
z
" transform="scale(0.015625)"/>
       </defs>
       <use xlink:href="#CMR17-35" transform="scale(0.996264)"/>
      </g>
     </g>
    </g>
    <g id="xtick_6">
     <g id="line2d_11">
      <path d="M 262.949597 300.337648 
L 262.949597 23.137648 
" clip-path="url(#p888144e28d)" style="fill: none; stroke: #808080; stroke-width: 0.5; stroke-linecap: square"/>
     </g>
     <g id="line2d_12">
      <g>
       <use xlink:href="#m5efd0b9a88" x="262.949597" y="300.337648" style="stroke: #000000; stroke-width: 0.8"/>
      </g>
     </g>
     <g id="text_6">
      <!-- $\mathdefault{6}$ -->
      <g transform="translate(260.458929 314.435969) scale(0.1 -0.1)">
       <defs>
        <path id="CMR17-36" d="M 678 2176 
C 678 3690 1395 4032 1811 4032 
C 1946 4032 2272 4009 2400 3776 
C 2298 3776 2106 3776 2106 3553 
C 2106 3381 2246 3323 2336 3323 
C 2394 3323 2566 3348 2566 3560 
C 2566 3954 2246 4179 1805 4179 
C 1043 4179 243 3390 243 1984 
C 243 253 966 -128 1478 -128 
C 2099 -128 2688 427 2688 1283 
C 2688 2081 2170 2662 1517 2662 
C 1126 2662 838 2407 678 1960 
L 678 2176 
z
M 1478 25 
C 691 25 691 1200 691 1436 
C 691 1896 909 2560 1504 2560 
C 1613 2560 1926 2560 2138 2120 
C 2253 1870 2253 1609 2253 1289 
C 2253 944 2253 690 2118 434 
C 1978 171 1773 25 1478 25 
z
" transform="scale(0.015625)"/>
       </defs>
       <use xlink:href="#CMR17-36" transform="scale(0.996264)"/>
      </g>
     </g>
    </g>
    <g id="xtick_7">
     <g id="line2d_13">
      <path d="M 304.065386 300.337648 
L 304.065386 23.137648 
" clip-path="url(#p888144e28d)" style="fill: none; stroke: #808080; stroke-width: 0.5; stroke-linecap: square"/>
     </g>
     <g id="line2d_14">
      <g>
       <use xlink:href="#m5efd0b9a88" x="304.065386" y="300.337648" style="stroke: #000000; stroke-width: 0.8"/>
      </g>
     </g>
     <g id="text_7">
      <!-- $\mathdefault{7}$ -->
      <g transform="translate(301.574718 314.435969) scale(0.1 -0.1)">
       <defs>
        <path id="CMR17-37" d="M 2886 3941 
L 2886 4081 
L 1382 4081 
C 634 4081 621 4165 595 4288 
L 480 4288 
L 294 3094 
L 410 3094 
C 429 3215 474 3540 550 3661 
C 589 3712 1062 3712 1171 3712 
L 2579 3712 
L 1869 2661 
C 1395 1954 1069 999 1069 165 
C 1069 89 1069 -128 1299 -128 
C 1530 -128 1530 89 1530 171 
L 1530 465 
C 1530 1508 1709 2196 2003 2636 
L 2886 3941 
z
" transform="scale(0.015625)"/>
       </defs>
       <use xlink:href="#CMR17-37" transform="scale(0.996264)"/>
      </g>
     </g>
    </g>
    <g id="xtick_8">
     <g id="line2d_15">
      <path d="M 345.181176 300.337648 
L 345.181176 23.137648 
" clip-path="url(#p888144e28d)" style="fill: none; stroke: #808080; stroke-width: 0.5; stroke-linecap: square"/>
     </g>
     <g id="line2d_16">
      <g>
       <use xlink:href="#m5efd0b9a88" x="345.181176" y="300.337648" style="stroke: #000000; stroke-width: 0.8"/>
      </g>
     </g>
     <g id="text_8">
      <!-- $\mathdefault{8}$ -->
      <g transform="translate(342.690508 314.435969) scale(0.1 -0.1)">
       <defs>
        <path id="CMR17-38" d="M 1741 2264 
C 2144 2467 2554 2773 2554 3263 
C 2554 3841 1990 4179 1472 4179 
C 890 4179 378 3759 378 3180 
C 378 3021 416 2747 666 2505 
C 730 2442 998 2251 1171 2130 
C 883 1983 211 1634 211 934 
C 211 279 838 -128 1459 -128 
C 2144 -128 2720 362 2720 1010 
C 2720 1590 2330 1857 2074 2029 
L 1741 2264 
z
M 902 2822 
C 851 2854 595 3051 595 3351 
C 595 3739 998 4032 1459 4032 
C 1965 4032 2336 3676 2336 3262 
C 2336 2669 1670 2331 1638 2331 
C 1632 2331 1626 2331 1574 2370 
L 902 2822 
z
M 2080 1519 
C 2176 1449 2483 1240 2483 851 
C 2483 381 2010 25 1472 25 
C 890 25 448 438 448 940 
C 448 1443 838 1862 1280 2060 
L 2080 1519 
z
" transform="scale(0.015625)"/>
       </defs>
       <use xlink:href="#CMR17-38" transform="scale(0.996264)"/>
      </g>
     </g>
    </g>
    <g id="xtick_9">
     <g id="line2d_17">
      <path d="M 386.296965 300.337648 
L 386.296965 23.137648 
" clip-path="url(#p888144e28d)" style="fill: none; stroke: #808080; stroke-width: 0.5; stroke-linecap: square"/>
     </g>
     <g id="line2d_18">
      <g>
       <use xlink:href="#m5efd0b9a88" x="386.296965" y="300.337648" style="stroke: #000000; stroke-width: 0.8"/>
      </g>
     </g>
     <g id="text_9">
      <!-- $\mathdefault{9}$ -->
      <g transform="translate(383.806297 314.435969) scale(0.1 -0.1)">
       <defs>
        <path id="CMR17-39" d="M 2253 1864 
C 2253 464 1670 31 1190 31 
C 1043 31 685 31 538 294 
C 704 268 826 357 826 518 
C 826 692 685 749 595 749 
C 538 749 365 723 365 506 
C 365 71 742 -128 1203 -128 
C 1939 -128 2688 674 2688 2073 
C 2688 3817 1971 4179 1485 4179 
C 851 4179 243 3628 243 2778 
C 243 1991 762 1408 1414 1408 
C 1952 1408 2189 1903 2253 2112 
L 2253 1864 
z
M 1427 1510 
C 1254 1510 1011 1542 813 1922 
C 678 2169 678 2461 678 2771 
C 678 3146 678 3405 858 3684 
C 947 3817 1114 4032 1485 4032 
C 2240 4032 2240 2885 2240 2632 
C 2240 2182 2035 1510 1427 1510 
z
" transform="scale(0.015625)"/>
       </defs>
       <use xlink:href="#CMR17-39" transform="scale(0.996264)"/>
      </g>
     </g>
    </g>
    <g id="xtick_10">
     <g id="line2d_19">
      <path d="M 427.412755 300.337648 
L 427.412755 23.137648 
" clip-path="url(#p888144e28d)" style="fill: none; stroke: #808080; stroke-width: 0.5; stroke-linecap: square"/>
     </g>
     <g id="line2d_20">
      <g>
       <use xlink:href="#m5efd0b9a88" x="427.412755" y="300.337648" style="stroke: #000000; stroke-width: 0.8"/>
      </g>
     </g>
     <g id="text_10">
      <!-- $\mathdefault{10}$ -->
      <g transform="translate(422.431419 314.435969) scale(0.1 -0.1)">
       <defs>
        <path id="CMR17-30" d="M 2688 2025 
C 2688 2416 2682 3080 2413 3591 
C 2176 4039 1798 4198 1466 4198 
C 1158 4198 768 4058 525 3597 
C 269 3118 243 2524 243 2025 
C 243 1661 250 1106 448 619 
C 723 -39 1216 -128 1466 -128 
C 1760 -128 2208 -7 2470 600 
C 2662 1042 2688 1559 2688 2025 
z
M 1466 -26 
C 1056 -26 813 325 723 812 
C 653 1188 653 1738 653 2096 
C 653 2588 653 2997 736 3387 
C 858 3929 1216 4096 1466 4096 
C 1728 4096 2067 3923 2189 3400 
C 2272 3036 2278 2607 2278 2096 
C 2278 1680 2278 1169 2202 792 
C 2067 95 1690 -26 1466 -26 
z
" transform="scale(0.015625)"/>
       </defs>
       <use xlink:href="#CMR17-31" transform="scale(0.996264)"/>
       <use xlink:href="#CMR17-30" transform="translate(45.690477 0) scale(0.996264)"/>
      </g>
     </g>
    </g>
    <g id="text_11">
     <!-- $data set$ -->
     <g transform="translate(220.361347 330.495603) scale(0.14 -0.14)">
      <defs>
       <path id="CMMI12-64" d="M 3219 4257 
C 3226 4282 3238 4320 3238 4352 
C 3238 4416 3174 4416 3162 4416 
C 3155 4416 2842 4388 2810 4380 
C 2701 4373 2605 4358 2490 4358 
C 2330 4345 2285 4339 2285 4224 
C 2285 4160 2336 4160 2426 4160 
C 2739 4160 2746 4103 2746 4040 
C 2746 4002 2733 3952 2726 3933 
L 2336 2395 
C 2266 2561 2093 2816 1760 2816 
C 1037 2816 256 1884 256 939 
C 256 307 627 -64 1062 -64 
C 1414 -64 1715 211 1894 422 
C 1958 45 2259 -64 2451 -64 
C 2643 -64 2797 51 2912 281 
C 3014 498 3104 888 3104 913 
C 3104 945 3078 971 3040 971 
C 2982 971 2976 939 2950 843 
C 2854 466 2733 64 2470 64 
C 2285 64 2272 229 2272 357 
C 2272 382 2272 515 2317 694 
L 3219 4257 
z
M 1926 760 
C 1894 651 1894 639 1805 517 
C 1664 338 1382 64 1082 64 
C 819 64 672 300 672 677 
C 672 1028 870 1743 992 2012 
C 1210 2459 1510 2689 1760 2689 
C 2182 2689 2266 2165 2266 2114 
C 2266 2108 2246 2024 2240 2012 
L 1926 760 
z
" transform="scale(0.015625)"/>
       <path id="CMMI12-61" d="M 1926 760 
C 1894 651 1894 639 1805 517 
C 1664 338 1382 64 1082 64 
C 819 64 672 300 672 677 
C 672 1028 870 1743 992 2012 
C 1210 2459 1510 2689 1760 2689 
C 2182 2689 2266 2165 2266 2114 
C 2266 2108 2246 2024 2240 2012 
L 1926 760 
z
M 2336 2395 
C 2266 2561 2093 2816 1760 2816 
C 1037 2816 256 1884 256 939 
C 256 307 627 -64 1062 -64 
C 1414 -64 1715 211 1894 422 
C 1958 45 2259 -64 2451 -64 
C 2643 -64 2797 51 2912 281 
C 3014 498 3104 888 3104 913 
C 3104 945 3078 971 3040 971 
C 2982 971 2976 939 2950 843 
C 2854 466 2733 64 2470 64 
C 2285 64 2272 230 2272 358 
C 2272 505 2291 575 2349 824 
C 2394 984 2426 1124 2477 1309 
C 2714 2267 2771 2497 2771 2535 
C 2771 2625 2701 2695 2605 2695 
C 2400 2695 2349 2472 2336 2395 
z
" transform="scale(0.015625)"/>
       <path id="CMMI12-74" d="M 1286 2566 
L 1875 2566 
C 1997 2566 2061 2566 2061 2681 
C 2061 2752 2022 2752 1894 2752 
L 1331 2752 
L 1568 3692 
C 1594 3781 1594 3794 1594 3840 
C 1594 3943 1510 4000 1427 4000 
C 1376 4000 1229 3981 1178 3775 
L 928 2752 
L 326 2752 
C 198 2752 141 2752 141 2630 
C 141 2566 186 2566 307 2566 
L 877 2566 
L 454 881 
C 403 658 384 594 384 511 
C 384 211 595 -64 954 -64 
C 1600 -64 1946 868 1946 912 
C 1946 951 1920 970 1882 970 
C 1869 970 1843 970 1830 944 
C 1824 938 1818 931 1773 829 
C 1638 511 1344 64 973 64 
C 781 64 768 224 768 364 
C 768 370 768 492 787 568 
L 1286 2566 
z
" transform="scale(0.015625)"/>
       <path id="CMMI12-73" d="M 1459 1280 
C 1568 1261 1741 1223 1779 1216 
C 1862 1192 2150 1090 2150 783 
C 2150 586 1971 70 1229 70 
C 1094 70 614 70 486 436 
C 742 404 870 603 870 745 
C 870 880 781 950 653 950 
C 512 950 326 841 326 552 
C 326 173 710 -64 1222 -64 
C 2195 -64 2483 651 2483 984 
C 2483 1079 2483 1258 2278 1462 
C 2118 1616 1965 1648 1619 1718 
C 1446 1756 1171 1814 1171 2101 
C 1171 2229 1286 2689 1894 2689 
C 2163 2689 2426 2589 2490 2368 
C 2208 2368 2195 2125 2195 2119 
C 2195 1984 2317 1946 2374 1946 
C 2464 1946 2643 2015 2643 2281 
C 2643 2545 2400 2816 1901 2816 
C 1062 2816 838 2160 838 1899 
C 838 1414 1312 1312 1459 1280 
z
" transform="scale(0.015625)"/>
       <path id="CMMI12-65" d="M 1146 1479 
C 1318 1479 1754 1479 2061 1595 
C 2547 1783 2592 2158 2592 2274 
C 2592 2558 2349 2816 1926 2816 
C 1254 2816 288 2210 288 1073 
C 288 402 672 -64 1254 -64 
C 2125 -64 2675 609 2675 692 
C 2675 730 2637 762 2611 762 
C 2592 762 2586 756 2528 699 
C 2118 159 1510 64 1267 64 
C 902 64 710 350 710 822 
C 710 911 710 1071 806 1479 
L 1146 1479 
z
M 838 1600 
C 1114 2592 1722 2689 1926 2689 
C 2208 2689 2400 2522 2400 2277 
C 2400 1600 1376 1600 1107 1600 
L 838 1600 
z
" transform="scale(0.015625)"/>
      </defs>
      <use xlink:href="#CMMI12-64" transform="scale(0.996264)"/>
      <use xlink:href="#CMMI12-61" transform="translate(50.689097 0) scale(0.996264)"/>
      <use xlink:href="#CMMI12-74" transform="translate(101.896954 0) scale(0.996264)"/>
      <use xlink:href="#CMMI12-61" transform="translate(137.123285 0) scale(0.996264)"/>
      <use xlink:href="#CMMI12-73" transform="translate(188.331142 0) scale(0.996264)"/>
      <use xlink:href="#CMMI12-65" transform="translate(234.28119 0) scale(0.996264)"/>
      <use xlink:href="#CMMI12-74" transform="translate(279.493191 0) scale(0.996264)"/>
     </g>
    </g>
   </g>
   <g id="matplotlib.axis_2">
    <g id="ytick_1">
     <g id="line2d_21">
      <path d="M 47.091702 278.510092 
L 437.691702 278.510092 
" clip-path="url(#p888144e28d)" style="fill: none; stroke: #808080; stroke-width: 0.5; stroke-linecap: square"/>
     </g>
     <g id="line2d_22">
      <defs>
       <path id="m04377abc60" d="M 0 0 
L -3.5 0 
" style="stroke: #000000; stroke-width: 0.8"/>
      </defs>
      <g>
       <use xlink:href="#m04377abc60" x="47.091702" y="278.510092" style="stroke: #000000; stroke-width: 0.8"/>
      </g>
     </g>
     <g id="text_12">
      <!-- $\mathdefault{75}$ -->
      <g transform="translate(30.129031 282.059252) scale(0.1 -0.1)">
       <use xlink:href="#CMR17-37" transform="scale(0.996264)"/>
       <use xlink:href="#CMR17-35" transform="translate(45.690477 0) scale(0.996264)"/>
      </g>
     </g>
    </g>
    <g id="ytick_2">
     <g id="line2d_23">
      <path d="M 47.091702 246.667741 
L 437.691702 246.667741 
" clip-path="url(#p888144e28d)" style="fill: none; stroke: #808080; stroke-width: 0.5; stroke-linecap: square"/>
     </g>
     <g id="line2d_24">
      <g>
       <use xlink:href="#m04377abc60" x="47.091702" y="246.667741" style="stroke: #000000; stroke-width: 0.8"/>
      </g>
     </g>
     <g id="text_13">
      <!-- $\mathdefault{80}$ -->
      <g transform="translate(30.129031 250.216901) scale(0.1 -0.1)">
       <use xlink:href="#CMR17-38" transform="scale(0.996264)"/>
       <use xlink:href="#CMR17-30" transform="translate(45.690477 0) scale(0.996264)"/>
      </g>
     </g>
    </g>
    <g id="ytick_3">
     <g id="line2d_25">
      <path d="M 47.091702 214.825391 
L 437.691702 214.825391 
" clip-path="url(#p888144e28d)" style="fill: none; stroke: #808080; stroke-width: 0.5; stroke-linecap: square"/>
     </g>
     <g id="line2d_26">
      <g>
       <use xlink:href="#m04377abc60" x="47.091702" y="214.825391" style="stroke: #000000; stroke-width: 0.8"/>
      </g>
     </g>
     <g id="text_14">
      <!-- $\mathdefault{85}$ -->
      <g transform="translate(30.129031 218.374551) scale(0.1 -0.1)">
       <use xlink:href="#CMR17-38" transform="scale(0.996264)"/>
       <use xlink:href="#CMR17-35" transform="translate(45.690477 0) scale(0.996264)"/>
      </g>
     </g>
    </g>
    <g id="ytick_4">
     <g id="line2d_27">
      <path d="M 47.091702 182.98304 
L 437.691702 182.98304 
" clip-path="url(#p888144e28d)" style="fill: none; stroke: #808080; stroke-width: 0.5; stroke-linecap: square"/>
     </g>
     <g id="line2d_28">
      <g>
       <use xlink:href="#m04377abc60" x="47.091702" y="182.98304" style="stroke: #000000; stroke-width: 0.8"/>
      </g>
     </g>
     <g id="text_15">
      <!-- $\mathdefault{90}$ -->
      <g transform="translate(30.129031 186.5322) scale(0.1 -0.1)">
       <use xlink:href="#CMR17-39" transform="scale(0.996264)"/>
       <use xlink:href="#CMR17-30" transform="translate(45.690477 0) scale(0.996264)"/>
      </g>
     </g>
    </g>
    <g id="ytick_5">
     <g id="line2d_29">
      <path d="M 47.091702 151.140689 
L 437.691702 151.140689 
" clip-path="url(#p888144e28d)" style="fill: none; stroke: #808080; stroke-width: 0.5; stroke-linecap: square"/>
     </g>
     <g id="line2d_30">
      <g>
       <use xlink:href="#m04377abc60" x="47.091702" y="151.140689" style="stroke: #000000; stroke-width: 0.8"/>
      </g>
     </g>
     <g id="text_16">
      <!-- $\mathdefault{95}$ -->
      <g transform="translate(30.129031 154.689849) scale(0.1 -0.1)">
       <use xlink:href="#CMR17-39" transform="scale(0.996264)"/>
       <use xlink:href="#CMR17-35" transform="translate(45.690477 0) scale(0.996264)"/>
      </g>
     </g>
    </g>
    <g id="ytick_6">
     <g id="line2d_31">
      <path d="M 47.091702 119.298339 
L 437.691702 119.298339 
" clip-path="url(#p888144e28d)" style="fill: none; stroke: #808080; stroke-width: 0.5; stroke-linecap: square"/>
     </g>
     <g id="line2d_32">
      <g>
       <use xlink:href="#m04377abc60" x="47.091702" y="119.298339" style="stroke: #000000; stroke-width: 0.8"/>
      </g>
     </g>
     <g id="text_17">
      <!-- $\mathdefault{100}$ -->
      <g transform="translate(25.147696 122.847499) scale(0.1 -0.1)">
       <use xlink:href="#CMR17-31" transform="scale(0.996264)"/>
       <use xlink:href="#CMR17-30" transform="translate(45.690477 0) scale(0.996264)"/>
       <use xlink:href="#CMR17-30" transform="translate(91.380954 0) scale(0.996264)"/>
      </g>
     </g>
    </g>
    <g id="ytick_7">
     <g id="line2d_33">
      <path d="M 47.091702 87.455988 
L 437.691702 87.455988 
" clip-path="url(#p888144e28d)" style="fill: none; stroke: #808080; stroke-width: 0.5; stroke-linecap: square"/>
     </g>
     <g id="line2d_34">
      <g>
       <use xlink:href="#m04377abc60" x="47.091702" y="87.455988" style="stroke: #000000; stroke-width: 0.8"/>
      </g>
     </g>
     <g id="text_18">
      <!-- $\mathdefault{105}$ -->
      <g transform="translate(25.147696 91.005148) scale(0.1 -0.1)">
       <use xlink:href="#CMR17-31" transform="scale(0.996264)"/>
       <use xlink:href="#CMR17-30" transform="translate(45.690477 0) scale(0.996264)"/>
       <use xlink:href="#CMR17-35" transform="translate(91.380954 0) scale(0.996264)"/>
      </g>
     </g>
    </g>
    <g id="ytick_8">
     <g id="line2d_35">
      <path d="M 47.091702 55.613637 
L 437.691702 55.613637 
" clip-path="url(#p888144e28d)" style="fill: none; stroke: #808080; stroke-width: 0.5; stroke-linecap: square"/>
     </g>
     <g id="line2d_36">
      <g>
       <use xlink:href="#m04377abc60" x="47.091702" y="55.613637" style="stroke: #000000; stroke-width: 0.8"/>
      </g>
     </g>
     <g id="text_19">
      <!-- $\mathdefault{110}$ -->
      <g transform="translate(25.147696 59.162797) scale(0.1 -0.1)">
       <use xlink:href="#CMR17-31" transform="scale(0.996264)"/>
       <use xlink:href="#CMR17-31" transform="translate(45.690477 0) scale(0.996264)"/>
       <use xlink:href="#CMR17-30" transform="translate(91.380954 0) scale(0.996264)"/>
      </g>
     </g>
    </g>
    <g id="ytick_9">
     <g id="line2d_37">
      <path d="M 47.091702 23.771287 
L 437.691702 23.771287 
" clip-path="url(#p888144e28d)" style="fill: none; stroke: #808080; stroke-width: 0.5; stroke-linecap: square"/>
     </g>
     <g id="line2d_38">
      <g>
       <use xlink:href="#m04377abc60" x="47.091702" y="23.771287" style="stroke: #000000; stroke-width: 0.8"/>
      </g>
     </g>
     <g id="text_20">
      <!-- $\mathdefault{115}$ -->
      <g transform="translate(25.147696 27.320447) scale(0.1 -0.1)">
       <use xlink:href="#CMR17-31" transform="scale(0.996264)"/>
       <use xlink:href="#CMR17-31" transform="translate(45.690477 0) scale(0.996264)"/>
       <use xlink:href="#CMR17-35" transform="translate(91.380954 0) scale(0.996264)"/>
      </g>
     </g>
    </g>
    <g id="text_21">
     <!-- $v_{0}\ [km/h]$ -->
     <g transform="translate(17.660772 190.632337) rotate(-90) scale(0.14 -0.14)">
      <defs>
       <path id="CMMI12-76" d="M 2925 2389 
C 2925 2791 2720 2816 2669 2816 
C 2515 2816 2374 2663 2374 2535 
C 2374 2459 2419 2414 2445 2389 
C 2509 2331 2675 2159 2675 1827 
C 2675 1558 2291 64 1523 64 
C 1133 64 1056 390 1056 626 
C 1056 945 1203 1392 1376 1852 
C 1478 2114 1504 2178 1504 2305 
C 1504 2574 1312 2816 998 2816 
C 410 2816 173 1890 173 1839 
C 173 1814 198 1782 243 1782 
C 301 1782 307 1807 333 1897 
C 486 2446 736 2689 979 2689 
C 1037 2689 1146 2689 1146 2478 
C 1146 2312 1075 2127 979 1884 
C 672 1067 672 869 672 715 
C 672 575 691 313 890 134 
C 1120 -64 1440 -64 1498 -64 
C 2560 -64 2925 2024 2925 2389 
z
" transform="scale(0.015625)"/>
       <path id="CMR17-5b" d="M 1504 -1600 
L 1504 -1377 
L 902 -1377 
L 902 4544 
L 1504 4544 
L 1504 4767 
L 678 4767 
L 678 -1600 
L 1504 -1600 
z
" transform="scale(0.015625)"/>
       <path id="CMMI12-6b" d="M 1798 4257 
C 1805 4283 1818 4321 1818 4352 
C 1818 4416 1754 4416 1741 4416 
C 1734 4416 1504 4393 1389 4377 
C 1280 4377 1184 4358 1069 4358 
C 915 4345 870 4339 870 4224 
C 870 4160 934 4160 998 4160 
C 1325 4160 1325 4103 1325 4040 
C 1325 4015 1325 4002 1293 3888 
L 378 248 
C 352 152 352 140 352 101 
C 352 -38 461 -64 525 -64 
C 704 -64 742 77 794 275 
L 1094 1469 
C 1555 1418 1830 1226 1830 920 
C 1830 881 1830 856 1811 760 
C 1786 664 1786 588 1786 556 
C 1786 185 2029 -64 2355 -64 
C 2650 -64 2803 204 2854 294 
C 2989 530 3072 888 3072 913 
C 3072 945 3046 971 3008 971 
C 2950 971 2944 945 2918 843 
C 2829 511 2694 64 2368 64 
C 2240 64 2157 128 2157 370 
C 2157 492 2182 632 2208 728 
C 2234 843 2234 849 2234 926 
C 2234 1303 1894 1514 1306 1590 
C 1536 1731 1766 1980 1856 2076 
C 2221 2484 2470 2689 2765 2689 
C 2912 2689 2950 2650 2995 2612 
C 2758 2586 2669 2420 2669 2293 
C 2669 2139 2790 2088 2880 2088 
C 3053 2088 3206 2235 3206 2440 
C 3206 2625 3059 2816 2771 2816 
C 2419 2816 2131 2567 1677 2056 
C 1613 1980 1376 1737 1139 1648 
L 1798 4257 
z
" transform="scale(0.015625)"/>
       <path id="CMMI12-6d" d="M 1318 1871 
C 1331 1910 1491 2229 1728 2433 
C 1894 2586 2112 2689 2362 2689 
C 2618 2689 2707 2497 2707 2242 
C 2707 2203 2707 2076 2630 1775 
L 2470 1118 
C 2419 926 2298 453 2285 383 
C 2259 287 2221 121 2221 96 
C 2221 6 2291 -64 2387 -64 
C 2579 -64 2611 83 2669 313 
L 3053 1839 
C 3066 1890 3398 2689 4102 2689 
C 4358 2689 4448 2497 4448 2242 
C 4448 1884 4198 1188 4058 805 
C 4000 651 3968 568 3968 453 
C 3968 166 4166 -64 4474 -64 
C 5069 -64 5293 875 5293 913 
C 5293 945 5267 971 5229 971 
C 5171 971 5165 952 5133 843 
C 4986 332 4749 64 4493 64 
C 4429 64 4326 64 4326 269 
C 4326 436 4403 640 4429 710 
C 4544 1018 4832 1773 4832 2145 
C 4832 2528 4608 2816 4122 2816 
C 3693 2816 3347 2574 3091 2197 
C 3072 2542 2861 2816 2381 2816 
C 1811 2816 1510 2415 1395 2255 
C 1376 2618 1114 2816 832 2816 
C 646 2816 499 2727 378 2484 
C 262 2254 173 1865 173 1839 
C 173 1814 198 1782 243 1782 
C 294 1782 301 1788 339 1935 
C 435 2312 557 2689 813 2689 
C 960 2689 1011 2586 1011 2395 
C 1011 2254 947 2005 902 1807 
L 723 1118 
C 698 996 627 709 595 594 
C 550 428 480 128 480 96 
C 480 6 550 -64 646 -64 
C 723 -64 813 -26 864 70 
C 877 102 934 326 966 453 
L 1107 1028 
L 1318 1871 
z
" transform="scale(0.015625)"/>
       <path id="CMMI12-3d" d="M 2746 4562 
C 2746 4569 2784 4666 2784 4678 
C 2784 4755 2720 4800 2669 4800 
C 2637 4800 2579 4800 2528 4659 
L 384 -1363 
C 384 -1370 346 -1465 346 -1478 
C 346 -1555 410 -1600 461 -1600 
C 499 -1600 557 -1593 602 -1459 
L 2746 4562 
z
" transform="scale(0.015625)"/>
       <path id="CMMI12-68" d="M 1798 4257 
C 1805 4283 1818 4321 1818 4352 
C 1818 4416 1754 4416 1741 4416 
C 1734 4416 1421 4388 1389 4380 
C 1280 4373 1184 4358 1069 4358 
C 909 4345 864 4339 864 4224 
C 864 4160 915 4160 1005 4160 
C 1318 4160 1325 4103 1325 4040 
C 1325 4002 1312 3951 1306 3932 
L 378 248 
C 352 152 352 140 352 101 
C 352 -38 461 -64 525 -64 
C 634 -64 717 19 749 89 
L 1037 1245 
C 1069 1386 1107 1520 1139 1660 
C 1210 1929 1210 1935 1331 2120 
C 1453 2305 1741 2689 2234 2689 
C 2490 2689 2579 2497 2579 2242 
C 2579 1884 2330 1188 2189 805 
C 2131 651 2099 568 2099 453 
C 2099 166 2298 -64 2605 -64 
C 3200 -64 3424 875 3424 913 
C 3424 945 3398 971 3360 971 
C 3302 971 3296 952 3264 843 
C 3117 332 2880 64 2624 64 
C 2560 64 2458 64 2458 269 
C 2458 436 2534 640 2560 710 
C 2675 1018 2963 1773 2963 2145 
C 2963 2528 2739 2816 2253 2816 
C 1888 2816 1568 2644 1306 2312 
L 1798 4257 
z
" transform="scale(0.015625)"/>
       <path id="CMR17-5d" d="M 915 4767 
L 90 4767 
L 90 4544 
L 691 4544 
L 691 -1377 
L 90 -1377 
L 90 -1600 
L 915 -1600 
L 915 4767 
z
" transform="scale(0.015625)"/>
      </defs>
      <use xlink:href="#CMMI12-76" transform="scale(0.996264)"/>
      <use xlink:href="#CMR17-30" transform="translate(47.160581 -14.943915) scale(0.697382)"/>
      <use xlink:href="#CMR17-5b" transform="translate(107.337064 0) scale(0.996264)"/>
      <use xlink:href="#CMMI12-6b" transform="translate(132.208123 0) scale(0.996264)"/>
      <use xlink:href="#CMMI12-6d" transform="translate(186.287323 0) scale(0.996264)"/>
      <use xlink:href="#CMMI12-3d" transform="translate(271.614548 0) scale(0.996264)"/>
      <use xlink:href="#CMMI12-68" transform="translate(320.389467 0) scale(0.996264)"/>
      <use xlink:href="#CMR17-5d" transform="translate(376.544091 0) scale(0.996264)"/>
     </g>
    </g>
   </g>
   <g id="line2d_39">
    <path d="M 57.370649 188.155659 
L 98.486439 188.155659 
L 139.602228 188.155659 
L 180.718018 188.155659 
L 221.833807 188.155659 
L 262.949597 188.155659 
L 304.065386 188.155659 
L 345.181176 188.155659 
L 386.296965 188.155659 
L 427.412755 188.155659 
" clip-path="url(#p888144e28d)" style="fill: none; stroke: #008000; stroke-width: 1.5; stroke-linecap: square"/>
   </g>
   <g id="line2d_40">
    <path d="M 57.370649 188.155685 
L 98.486439 188.155685 
L 139.602228 188.155685 
L 180.718018 188.155685 
L 221.833807 188.155685 
L 262.949597 188.155685 
L 304.065386 188.155685 
L 345.181176 188.155685 
L 386.296965 188.155685 
L 427.412755 188.155685 
" clip-path="url(#p888144e28d)" style="fill: none; stroke: #4169e1; stroke-width: 1.5; stroke-linecap: square"/>
   </g>
   <g id="line2d_41">
    <path d="M 57.370649 188.155657 
L 98.486439 188.155657 
L 139.602228 188.155657 
L 180.718018 188.155657 
L 221.833807 188.155657 
L 262.949597 188.155657 
L 304.065386 188.155657 
L 345.181176 188.155657 
L 386.296965 188.155657 
L 427.412755 188.155657 
" clip-path="url(#p888144e28d)" style="fill: none; stroke: #ff7f50; stroke-width: 1.5; stroke-linecap: square"/>
   </g>
   <g id="line2d_42">
    <path d="M 57.370649 144.953471 
L 98.486439 144.953471 
L 139.602228 144.953471 
L 180.718018 144.953471 
L 221.833807 144.953471 
L 262.949597 144.953471 
L 304.065386 144.953471 
L 345.181176 144.953471 
L 386.296965 144.953471 
L 427.412755 144.953471 
" clip-path="url(#p888144e28d)" style="fill: none; stroke: #ffd700; stroke-width: 1.5; stroke-linecap: square"/>
   </g>
   <g id="line2d_43">
    <path d="M 57.370649 196.638038 
L 98.486439 196.638038 
L 139.602228 196.638038 
L 180.718018 196.638038 
L 221.833807 196.638038 
L 262.949597 196.638038 
L 304.065386 196.638038 
L 345.181176 196.638038 
L 386.296965 196.638038 
L 427.412755 196.638038 
" clip-path="url(#p888144e28d)" style="fill: none; stroke: #00ff00; stroke-width: 1.5; stroke-linecap: square"/>
   </g>
   <g id="patch_3">
    <path d="M 47.091702 300.337648 
L 47.091702 23.137648 
" style="fill: none; stroke: #000000; stroke-width: 0.8; stroke-linejoin: miter; stroke-linecap: square"/>
   </g>
   <g id="patch_4">
    <path d="M 437.691702 300.337648 
L 437.691702 23.137648 
" style="fill: none; stroke: #000000; stroke-width: 0.8; stroke-linejoin: miter; stroke-linecap: square"/>
   </g>
   <g id="patch_5">
    <path d="M 47.091702 300.337648 
L 437.691702 300.337648 
" style="fill: none; stroke: #000000; stroke-width: 0.8; stroke-linejoin: miter; stroke-linecap: square"/>
   </g>
   <g id="patch_6">
    <path d="M 47.091702 23.137648 
L 437.691702 23.137648 
" style="fill: none; stroke: #000000; stroke-width: 0.8; stroke-linejoin: miter; stroke-linecap: square"/>
   </g>
   <g id="text_22">
    <!-- $Velocities\ v_0\ of\ the\ leading\ car$ -->
    <g transform="translate(147.095491 17.137648) scale(0.14 -0.14)">
     <defs>
      <path id="CMMI12-56" d="M 3962 3640 
C 4179 3984 4378 4136 4704 4162 
C 4768 4168 4819 4168 4819 4282 
C 4819 4308 4806 4346 4749 4346 
C 4634 4346 4358 4346 4243 4346 
C 4058 4346 3866 4346 3686 4346 
C 3635 4346 3571 4346 3571 4226 
C 3571 4168 3629 4162 3654 4162 
C 3891 4143 3917 4029 3917 3952 
C 3917 3857 3827 3710 3821 3704 
L 1811 540 
L 1363 3969 
C 1363 4160 1696 4160 1766 4160 
C 1862 4160 1920 4160 1920 4282 
C 1920 4346 1850 4346 1830 4346 
C 1722 4346 1594 4346 1485 4346 
L 1126 4346 
C 659 4346 467 4346 461 4346 
C 422 4346 346 4346 346 4230 
C 346 4160 390 4160 493 4160 
C 819 4160 838 4102 858 3944 
L 1370 24 
C 1389 -109 1389 -128 1478 -128 
C 1555 -128 1587 -109 1651 -8 
L 3962 3640 
z
" transform="scale(0.015625)"/>
      <path id="CMMI12-6c" d="M 1626 4257 
C 1632 4282 1645 4320 1645 4352 
C 1645 4416 1581 4416 1568 4416 
C 1562 4416 1331 4393 1216 4377 
C 1107 4377 1011 4358 896 4358 
C 742 4345 698 4339 698 4224 
C 698 4160 762 4160 826 4160 
C 1152 4160 1152 4102 1152 4039 
C 1152 4014 1152 4001 1120 3887 
L 326 731 
C 307 661 294 610 294 509 
C 294 191 531 -64 858 -64 
C 1069 -64 1210 76 1312 274 
C 1421 483 1510 884 1510 909 
C 1510 941 1485 967 1446 967 
C 1389 967 1382 935 1357 840 
C 1242 401 1126 64 870 64 
C 678 64 678 267 678 357 
C 678 382 678 515 723 694 
L 1626 4257 
z
" transform="scale(0.015625)"/>
      <path id="CMMI12-6f" d="M 2918 1756 
C 2918 2363 2522 2816 1939 2816 
C 1094 2816 262 1897 262 996 
C 262 390 659 -64 1242 -64 
C 2093 -64 2918 856 2918 1756 
z
M 1248 64 
C 928 64 691 319 691 766 
C 691 1060 845 1712 1024 2031 
C 1312 2523 1670 2689 1933 2689 
C 2246 2689 2490 2433 2490 1986 
C 2490 1731 2355 1047 2112 658 
C 1850 230 1498 64 1248 64 
z
" transform="scale(0.015625)"/>
      <path id="CMMI12-63" d="M 2502 2431 
C 2381 2431 2323 2431 2234 2355 
C 2195 2323 2125 2227 2125 2125 
C 2125 1997 2221 1920 2342 1920 
C 2496 1920 2669 2044 2669 2292 
C 2669 2588 2374 2816 1933 2816 
C 1094 2816 256 1903 256 996 
C 256 441 602 -64 1254 -64 
C 2125 -64 2675 622 2675 706 
C 2675 744 2637 776 2611 776 
C 2592 776 2586 770 2528 713 
C 2118 162 1510 64 1267 64 
C 826 64 685 446 685 764 
C 685 988 794 1605 1024 2039 
C 1190 2338 1536 2682 1939 2682 
C 2022 2682 2374 2682 2502 2431 
z
" transform="scale(0.015625)"/>
      <path id="CMMI12-69" d="M 1811 913 
C 1811 945 1786 971 1747 971 
C 1690 971 1683 952 1651 843 
C 1485 262 1222 64 1011 64 
C 934 64 845 83 845 275 
C 845 447 922 639 992 830 
L 1440 2018 
C 1459 2069 1504 2184 1504 2305 
C 1504 2574 1312 2816 998 2816 
C 410 2816 173 1890 173 1839 
C 173 1814 198 1782 243 1782 
C 301 1782 307 1807 333 1896 
C 486 2428 730 2682 979 2682 
C 1037 2682 1146 2682 1146 2478 
C 1146 2312 1062 2101 1011 1961 
L 563 773 
C 525 671 486 568 486 453 
C 486 166 685 -64 992 -64 
C 1581 -64 1811 869 1811 913 
z
M 1760 4013 
C 1760 4109 1683 4224 1542 4224 
C 1395 4224 1229 4083 1229 3917 
C 1229 3758 1363 3707 1440 3707 
C 1613 3707 1760 3873 1760 4013 
z
" transform="scale(0.015625)"/>
      <path id="CMMI12-66" d="M 2854 2566 
C 2982 2566 3034 2566 3034 2688 
C 3034 2752 2982 2752 2867 2752 
L 2349 2752 
C 2470 3429 2560 3897 2611 4107 
C 2650 4265 2784 4416 2950 4416 
C 3085 4416 3219 4358 3283 4298 
C 3034 4272 2957 4082 2957 3969 
C 2957 3837 3053 3759 3174 3759 
C 3302 3759 3494 3870 3494 4119 
C 3494 4393 3226 4544 2944 4544 
C 2669 4544 2400 4334 2272 4078 
C 2157 3848 2093 3611 1946 2752 
L 1517 2752 
C 1395 2752 1331 2752 1331 2637 
C 1331 2566 1370 2566 1498 2566 
L 1907 2566 
C 1792 1976 1530 542 1382 -137 
C 1274 -689 1178 -1152 858 -1152 
C 838 -1152 653 -1152 538 -1031 
C 864 -1005 864 -726 864 -720 
C 864 -593 768 -517 646 -517 
C 518 -517 326 -625 326 -867 
C 326 -1140 608 -1280 858 -1280 
C 1510 -1280 1779 -118 1850 199 
C 1965 688 2278 2376 2310 2566 
L 2854 2566 
z
" transform="scale(0.015625)"/>
      <path id="CMMI12-6e" d="M 1318 1871 
C 1331 1910 1491 2229 1728 2433 
C 1894 2586 2112 2689 2362 2689 
C 2618 2689 2707 2497 2707 2242 
C 2707 1878 2445 1150 2317 805 
C 2259 651 2227 568 2227 453 
C 2227 166 2426 -64 2733 -64 
C 3328 -64 3552 875 3552 913 
C 3552 945 3526 971 3488 971 
C 3430 971 3424 952 3392 843 
C 3245 319 3002 64 2752 64 
C 2688 64 2586 64 2586 269 
C 2586 429 2656 621 2694 710 
C 2822 1063 3091 1780 3091 2145 
C 3091 2528 2867 2816 2381 2816 
C 1811 2816 1510 2415 1395 2255 
C 1376 2618 1114 2816 832 2816 
C 627 2816 486 2695 378 2478 
C 262 2248 173 1865 173 1839 
C 173 1814 198 1782 243 1782 
C 294 1782 301 1788 339 1935 
C 442 2325 557 2689 813 2689 
C 960 2689 1011 2586 1011 2395 
C 1011 2254 947 2005 902 1807 
L 723 1118 
C 698 996 627 709 595 594 
C 550 428 480 128 480 96 
C 480 6 550 -64 646 -64 
C 723 -64 813 -26 864 70 
C 877 102 934 326 966 453 
L 1107 1028 
L 1318 1871 
z
" transform="scale(0.015625)"/>
      <path id="CMMI12-67" d="M 2163 811 
C 2138 709 2125 683 2042 588 
C 1779 249 1510 128 1312 128 
C 1101 128 902 294 902 734 
C 902 1073 1094 1788 1235 2076 
C 1421 2433 1709 2689 1978 2689 
C 2400 2689 2483 2165 2483 2127 
L 2464 2037 
L 2163 811 
z
M 2560 2395 
C 2477 2580 2298 2816 1978 2816 
C 1280 2816 486 1941 486 990 
C 486 326 890 0 1299 0 
C 1638 0 1939 268 2054 396 
L 1914 -171 
C 1824 -516 1786 -674 1555 -894 
C 1293 -1152 1050 -1152 909 -1152 
C 717 -1152 557 -1139 397 -1089 
C 602 -1033 653 -858 653 -789 
C 653 -689 576 -588 435 -588 
C 282 -588 115 -714 115 -922 
C 115 -1180 378 -1280 922 -1280 
C 1747 -1280 2176 -753 2259 -410 
L 2970 2435 
C 2989 2511 2989 2524 2989 2536 
C 2989 2625 2918 2695 2822 2695 
C 2669 2695 2579 2567 2560 2395 
z
" transform="scale(0.015625)"/>
      <path id="CMMI12-72" d="M 2490 2612 
C 2291 2574 2189 2433 2189 2293 
C 2189 2139 2310 2088 2400 2088 
C 2579 2088 2726 2242 2726 2433 
C 2726 2638 2528 2816 2208 2816 
C 1952 2816 1658 2701 1389 2312 
C 1344 2650 1088 2816 832 2816 
C 582 2816 454 2625 378 2484 
C 269 2254 173 1871 173 1839 
C 173 1814 198 1782 243 1782 
C 294 1782 301 1788 339 1935 
C 435 2318 557 2689 813 2689 
C 966 2689 1011 2580 1011 2395 
C 1011 2254 947 2005 902 1807 
L 723 1118 
C 698 996 627 709 595 594 
C 550 428 480 128 480 96 
C 480 6 550 -64 646 -64 
C 717 -64 838 -19 877 109 
C 896 160 1133 1124 1171 1271 
C 1203 1411 1242 1546 1274 1686 
C 1299 1775 1325 1878 1344 1961 
C 1363 2018 1536 2331 1696 2472 
C 1773 2542 1939 2689 2202 2689 
C 2304 2689 2406 2670 2490 2612 
z
" transform="scale(0.015625)"/>
     </defs>
     <use xlink:href="#CMMI12-56" transform="scale(0.996264)"/>
     <use xlink:href="#CMMI12-65" transform="translate(78.547321 0) scale(0.996264)"/>
     <use xlink:href="#CMMI12-6c" transform="translate(123.759322 0) scale(0.996264)"/>
     <use xlink:href="#CMMI12-6f" transform="translate(155.007726 0) scale(0.996264)"/>
     <use xlink:href="#CMMI12-63" transform="translate(201.903035 0) scale(0.996264)"/>
     <use xlink:href="#CMMI12-69" transform="translate(243.886269 0) scale(0.996264)"/>
     <use xlink:href="#CMMI12-74" transform="translate(277.164871 0) scale(0.996264)"/>
     <use xlink:href="#CMMI12-69" transform="translate(312.391201 0) scale(0.996264)"/>
     <use xlink:href="#CMMI12-65" transform="translate(345.669803 0) scale(0.996264)"/>
     <use xlink:href="#CMMI12-73" transform="translate(390.881804 0) scale(0.996264)"/>
     <use xlink:href="#CMMI12-76" transform="translate(464.527021 0) scale(0.996264)"/>
     <use xlink:href="#CMR17-30" transform="translate(511.687602 -14.943915) scale(0.697382)"/>
     <use xlink:href="#CMMI12-6f" transform="translate(571.864085 0) scale(0.996264)"/>
     <use xlink:href="#CMMI12-66" transform="translate(618.759395 0) scale(0.996264)"/>
     <use xlink:href="#CMMI12-74" transform="translate(705.174869 0) scale(0.996264)"/>
     <use xlink:href="#CMMI12-68" transform="translate(740.401199 0) scale(0.996264)"/>
     <use xlink:href="#CMMI12-65" transform="translate(796.555823 0) scale(0.996264)"/>
     <use xlink:href="#CMMI12-6c" transform="translate(869.462994 0) scale(0.996264)"/>
     <use xlink:href="#CMMI12-65" transform="translate(900.711398 0) scale(0.996264)"/>
     <use xlink:href="#CMMI12-61" transform="translate(945.923399 0) scale(0.996264)"/>
     <use xlink:href="#CMMI12-64" transform="translate(997.131256 0) scale(0.996264)"/>
     <use xlink:href="#CMMI12-69" transform="translate(1047.820353 0) scale(0.996264)"/>
     <use xlink:href="#CMMI12-6e" transform="translate(1081.098955 0) scale(0.996264)"/>
     <use xlink:href="#CMMI12-67" transform="translate(1139.329002 0) scale(0.996264)"/>
     <use xlink:href="#CMMI12-63" transform="translate(1217.309662 0) scale(0.996264)"/>
     <use xlink:href="#CMMI12-61" transform="translate(1259.292895 0) scale(0.996264)"/>
     <use xlink:href="#CMMI12-72" transform="translate(1310.500753 0) scale(0.996264)"/>
    </g>
   </g>
   <g id="legend_1">
    <g id="patch_7">
     <path d="M 370.547274 102.239182 
L 430.691702 102.239182 
Q 432.691702 102.239182 432.691702 100.239182 
L 432.691702 30.137648 
Q 432.691702 28.137648 430.691702 28.137648 
L 370.547274 28.137648 
Q 368.547274 28.137648 368.547274 30.137648 
L 368.547274 100.239182 
Q 368.547274 102.239182 370.547274 102.239182 
z
" style="fill: #ffffff; opacity: 0.8; stroke: #cccccc; stroke-linejoin: miter"/>
    </g>
    <g id="line2d_44">
     <path d="M 372.547274 35.735969 
L 382.547274 35.735969 
L 392.547274 35.735969 
" style="fill: none; stroke: #008000; stroke-width: 1.5; stroke-linecap: square"/>
    </g>
    <g id="text_23">
     <!-- $NN 2$ -->
     <g transform="translate(400.547274 39.235969) scale(0.1 -0.1)">
      <defs>
       <path id="CMMI12-4e" d="M 4736 3698 
C 4806 3974 4909 4166 5395 4166 
C 5414 4166 5491 4166 5491 4279 
C 5491 4352 5434 4352 5408 4352 
C 5280 4352 4954 4352 4826 4352 
L 4518 4352 
C 4429 4352 4314 4352 4224 4352 
C 4186 4352 4109 4352 4109 4230 
C 4109 4166 4160 4166 4205 4166 
C 4589 4166 4614 4019 4614 3903 
C 4614 3846 4608 3826 4589 3737 
L 3866 850 
L 2496 4249 
C 2451 4352 2445 4352 2304 4352 
L 1523 4352 
C 1395 4352 1338 4352 1338 4230 
C 1338 4166 1382 4166 1504 4166 
C 1536 4166 1914 4166 1914 4115 
C 1914 4102 1901 4051 1894 4032 
L 1043 635 
C 966 320 813 186 390 186 
C 358 186 294 186 294 67 
C 294 0 358 0 378 0 
C 506 0 832 0 960 0 
L 1267 0 
C 1357 0 1466 0 1555 0 
C 1600 0 1670 0 1670 122 
C 1670 180 1606 186 1581 186 
C 1370 186 1165 224 1165 454 
C 1165 505 1178 562 1190 613 
L 2054 4032 
C 2093 3968 2093 3956 2118 3898 
L 3642 115 
C 3674 38 3686 0 3744 0 
C 3808 0 3814 19 3840 128 
L 4736 3698 
z
" transform="scale(0.015625)"/>
      </defs>
      <use xlink:href="#CMMI12-4e" transform="scale(0.996264)"/>
      <use xlink:href="#CMMI12-4e" transform="translate(88.521773 0) scale(0.996264)"/>
      <use xlink:href="#CMR17-32" transform="translate(177.043545 0) scale(0.996264)"/>
     </g>
    </g>
    <g id="line2d_45">
     <path d="M 372.547274 49.956275 
L 382.547274 49.956275 
L 392.547274 49.956275 
" style="fill: none; stroke: #4169e1; stroke-width: 1.5; stroke-linecap: square"/>
    </g>
    <g id="text_24">
     <!-- $NN 4$ -->
     <g transform="translate(400.547274 53.456275) scale(0.1 -0.1)">
      <use xlink:href="#CMMI12-4e" transform="scale(0.996264)"/>
      <use xlink:href="#CMMI12-4e" transform="translate(88.521773 0) scale(0.996264)"/>
      <use xlink:href="#CMR17-34" transform="translate(177.043545 0) scale(0.996264)"/>
     </g>
    </g>
    <g id="line2d_46">
     <path d="M 372.547274 64.176582 
L 382.547274 64.176582 
L 392.547274 64.176582 
" style="fill: none; stroke: #ff7f50; stroke-width: 1.5; stroke-linecap: square"/>
    </g>
    <g id="text_25">
     <!-- $NN 10$ -->
     <g transform="translate(400.547274 67.676582) scale(0.1 -0.1)">
      <use xlink:href="#CMMI12-4e" transform="scale(0.996264)"/>
      <use xlink:href="#CMMI12-4e" transform="translate(88.521773 0) scale(0.996264)"/>
      <use xlink:href="#CMR17-31" transform="translate(177.043545 0) scale(0.996264)"/>
      <use xlink:href="#CMR17-30" transform="translate(222.734022 0) scale(0.996264)"/>
     </g>
    </g>
    <g id="line2d_47">
     <path d="M 372.547274 78.396889 
L 382.547274 78.396889 
L 392.547274 78.396889 
" style="fill: none; stroke: #ffd700; stroke-width: 1.5; stroke-linecap: square"/>
    </g>
    <g id="text_26">
     <!-- $Lin$ -->
     <g transform="translate(400.547274 81.896889) scale(0.1 -0.1)">
      <defs>
       <path id="CMMI12-4c" d="M 2349 3861 
C 2406 4103 2426 4167 2989 4167 
C 3162 4167 3206 4167 3206 4288 
C 3206 4352 3136 4352 3110 4352 
C 2982 4352 2835 4352 2707 4352 
L 1850 4352 
C 1728 4352 1587 4352 1466 4352 
C 1414 4352 1344 4352 1344 4231 
C 1344 4167 1402 4167 1498 4167 
C 1888 4167 1888 4116 1888 4046 
C 1888 4034 1888 3995 1862 3899 
L 998 472 
C 941 249 928 185 480 185 
C 358 185 294 185 294 70 
C 294 0 333 0 461 0 
L 3328 0 
C 3469 0 3475 6 3520 121 
L 4013 1478 
C 4026 1510 4038 1548 4038 1567 
C 4038 1605 4006 1631 3974 1631 
C 3968 1631 3936 1631 3923 1605 
C 3910 1599 3910 1586 3859 1465 
C 3654 905 3366 185 2285 185 
L 1670 185 
C 1581 185 1568 185 1530 192 
C 1459 198 1453 211 1453 262 
C 1453 307 1466 345 1478 401 
L 2349 3861 
z
" transform="scale(0.015625)"/>
      </defs>
      <use xlink:href="#CMMI12-4c" transform="scale(0.996264)"/>
      <use xlink:href="#CMMI12-69" transform="translate(66.370875 0) scale(0.996264)"/>
      <use xlink:href="#CMMI12-6e" transform="translate(99.649477 0) scale(0.996264)"/>
     </g>
    </g>
    <g id="line2d_48">
     <path d="M 372.547274 92.617195 
L 382.547274 92.617195 
L 392.547274 92.617195 
" style="fill: none; stroke: #00ff00; stroke-width: 1.5; stroke-linecap: square"/>
    </g>
    <g id="text_27">
     <!-- $Log$ -->
     <g transform="translate(400.547274 96.117195) scale(0.1 -0.1)">
      <use xlink:href="#CMMI12-4c" transform="scale(0.996264)"/>
      <use xlink:href="#CMMI12-6f" transform="translate(66.370875 0) scale(0.996264)"/>
      <use xlink:href="#CMMI12-67" transform="translate(113.266185 0) scale(0.996264)"/>
     </g>
    </g>
   </g>
  </g>
 </g>
 <defs>
  <clipPath id="p888144e28d">
   <rect x="47.091702" y="23.137648" width="390.6" height="277.2"/>
  </clipPath>
 </defs>
</svg>
