<?xml version="1.0" encoding="utf-8" standalone="no"?>
<!DOCTYPE svg PUBLIC "-//W3C//DTD SVG 1.1//EN"
  "http://www.w3.org/Graphics/SVG/1.1/DTD/svg11.dtd">
<svg xmlns:xlink="http://www.w3.org/1999/xlink" width="802.8pt" height="262.8pt" viewBox="0 0 802.8 262.8" xmlns="http://www.w3.org/2000/svg" version="1.1">
 <metadata>
  <rdf:RDF xmlns:dc="http://purl.org/dc/elements/1.1/" xmlns:cc="http://creativecommons.org/ns#" xmlns:rdf="http://www.w3.org/1999/02/22-rdf-syntax-ns#">
   <cc:Work>
    <dc:type rdf:resource="http://purl.org/dc/dcmitype/StillImage"/>
    <dc:date>2024-03-03T12:14:46.808643</dc:date>
    <dc:format>image/svg+xml</dc:format>
    <dc:creator>
     <cc:Agent>
      <dc:title>Matplotlib v3.8.2, https://matplotlib.org/</dc:title>
     </cc:Agent>
    </dc:creator>
   </cc:Work>
  </rdf:RDF>
 </metadata>
 <defs>
  <style type="text/css">*{stroke-linejoin: round; stroke-linecap: butt}</style>
 </defs>
 <g id="figure_1">
  <g id="patch_1">
   <path d="M 0 262.8 
L 802.8 262.8 
L 802.8 0 
L 0 0 
z
" style="fill: #ffffff"/>
  </g>
  <g id="axes_1">
   <g id="patch_2">
    <path d="M 41.994438 224.315334 
L 262.8 224.315334 
L 262.8 23.137648 
L 41.994438 23.137648 
z
" style="fill: #ffffff"/>
   </g>
   <g id="matplotlib.axis_1">
    <g id="xtick_1">
     <g id="line2d_1">
      <defs>
       <path id="m67ef635cf8" d="M 0 0 
L 0 3.5 
" style="stroke: #000000; stroke-width: 0.8"/>
      </defs>
      <g>
       <use xlink:href="#m67ef635cf8" x="60.394901" y="224.315334" style="stroke: #000000; stroke-width: 0.8"/>
      </g>
     </g>
     <g id="text_1">
      <!-- $\mathdefault{−1.0}$ -->
      <g transform="translate(50.15549 238.413655) scale(0.1 -0.1)">
       <defs>
        <path id="CMSY10-0" d="M 4218 1472 
C 4326 1472 4442 1472 4442 1600 
C 4442 1728 4326 1728 4218 1728 
L 755 1728 
C 646 1728 531 1728 531 1600 
C 531 1472 646 1472 755 1472 
L 4218 1472 
z
" transform="scale(0.015625)"/>
        <path id="CMR17-31" d="M 1702 4058 
C 1702 4192 1696 4192 1606 4192 
C 1357 3916 979 3827 621 3827 
C 602 3827 570 3827 563 3808 
C 557 3795 557 3782 557 3648 
C 755 3648 1088 3686 1344 3839 
L 1344 461 
C 1344 236 1331 160 781 160 
L 589 160 
L 589 0 
C 896 0 1216 0 1523 0 
C 1830 0 2150 0 2458 0 
L 2458 160 
L 2266 160 
C 1715 160 1702 230 1702 458 
L 1702 4058 
z
" transform="scale(0.015625)"/>
        <path id="CMMI12-3a" d="M 1178 307 
C 1178 492 1024 619 870 619 
C 685 619 557 466 557 313 
C 557 128 710 0 864 0 
C 1050 0 1178 153 1178 307 
z
" transform="scale(0.015625)"/>
        <path id="CMR17-30" d="M 2688 2025 
C 2688 2416 2682 3080 2413 3591 
C 2176 4039 1798 4198 1466 4198 
C 1158 4198 768 4058 525 3597 
C 269 3118 243 2524 243 2025 
C 243 1661 250 1106 448 619 
C 723 -39 1216 -128 1466 -128 
C 1760 -128 2208 -7 2470 600 
C 2662 1042 2688 1559 2688 2025 
z
M 1466 -26 
C 1056 -26 813 325 723 812 
C 653 1188 653 1738 653 2096 
C 653 2588 653 2997 736 3387 
C 858 3929 1216 4096 1466 4096 
C 1728 4096 2067 3923 2189 3400 
C 2272 3036 2278 2607 2278 2096 
C 2278 1680 2278 1169 2202 792 
C 2067 95 1690 -26 1466 -26 
z
" transform="scale(0.015625)"/>
       </defs>
       <use xlink:href="#CMSY10-0" transform="scale(0.996264)"/>
       <use xlink:href="#CMR17-31" transform="translate(77.487468 0) scale(0.996264)"/>
       <use xlink:href="#CMMI12-3a" transform="translate(123.177945 0) scale(0.996264)"/>
       <use xlink:href="#CMR17-30" transform="translate(150.275122 0) scale(0.996264)"/>
      </g>
     </g>
    </g>
    <g id="xtick_2">
     <g id="line2d_2">
      <g>
       <use xlink:href="#m67ef635cf8" x="97.195828" y="224.315334" style="stroke: #000000; stroke-width: 0.8"/>
      </g>
     </g>
     <g id="text_2">
      <!-- $\mathdefault{−0.5}$ -->
      <g transform="translate(86.956417 238.413655) scale(0.1 -0.1)">
       <defs>
        <path id="CMR17-35" d="M 730 3692 
C 794 3666 1056 3584 1325 3584 
C 1920 3584 2246 3911 2432 4100 
C 2432 4157 2432 4192 2394 4192 
C 2387 4192 2374 4192 2323 4163 
C 2099 4058 1837 3973 1517 3973 
C 1325 3973 1037 3999 723 4139 
C 653 4171 640 4171 634 4171 
C 602 4171 595 4164 595 4037 
L 595 2203 
C 595 2089 595 2057 659 2057 
C 691 2057 704 2070 736 2114 
C 941 2401 1222 2522 1542 2522 
C 1766 2522 2246 2382 2246 1289 
C 2246 1085 2246 715 2054 421 
C 1894 159 1645 25 1370 25 
C 947 25 518 320 403 814 
C 429 807 480 795 506 795 
C 589 795 749 840 749 1038 
C 749 1210 627 1280 506 1280 
C 358 1280 262 1190 262 1011 
C 262 454 704 -128 1382 -128 
C 2042 -128 2669 440 2669 1264 
C 2669 2030 2170 2624 1549 2624 
C 1222 2624 947 2503 730 2274 
L 730 3692 
z
" transform="scale(0.015625)"/>
       </defs>
       <use xlink:href="#CMSY10-0" transform="scale(0.996264)"/>
       <use xlink:href="#CMR17-30" transform="translate(77.487468 0) scale(0.996264)"/>
       <use xlink:href="#CMMI12-3a" transform="translate(123.177945 0) scale(0.996264)"/>
       <use xlink:href="#CMR17-35" transform="translate(150.275122 0) scale(0.996264)"/>
      </g>
     </g>
    </g>
    <g id="xtick_3">
     <g id="line2d_3">
      <g>
       <use xlink:href="#m67ef635cf8" x="133.996755" y="224.315334" style="stroke: #000000; stroke-width: 0.8"/>
      </g>
     </g>
     <g id="text_3">
      <!-- $\mathdefault{0.0}$ -->
      <g transform="translate(127.631716 238.413655) scale(0.1 -0.1)">
       <use xlink:href="#CMR17-30" transform="scale(0.996264)"/>
       <use xlink:href="#CMMI12-3a" transform="translate(45.690477 0) scale(0.996264)"/>
       <use xlink:href="#CMR17-30" transform="translate(72.787654 0) scale(0.996264)"/>
      </g>
     </g>
    </g>
    <g id="xtick_4">
     <g id="line2d_4">
      <g>
       <use xlink:href="#m67ef635cf8" x="170.797682" y="224.315334" style="stroke: #000000; stroke-width: 0.8"/>
      </g>
     </g>
     <g id="text_4">
      <!-- $\mathdefault{0.5}$ -->
      <g transform="translate(164.432643 238.413655) scale(0.1 -0.1)">
       <use xlink:href="#CMR17-30" transform="scale(0.996264)"/>
       <use xlink:href="#CMMI12-3a" transform="translate(45.690477 0) scale(0.996264)"/>
       <use xlink:href="#CMR17-35" transform="translate(72.787654 0) scale(0.996264)"/>
      </g>
     </g>
    </g>
    <g id="xtick_5">
     <g id="line2d_5">
      <g>
       <use xlink:href="#m67ef635cf8" x="207.598609" y="224.315334" style="stroke: #000000; stroke-width: 0.8"/>
      </g>
     </g>
     <g id="text_5">
      <!-- $\mathdefault{1.0}$ -->
      <g transform="translate(201.23357 238.413655) scale(0.1 -0.1)">
       <use xlink:href="#CMR17-31" transform="scale(0.996264)"/>
       <use xlink:href="#CMMI12-3a" transform="translate(45.690477 0) scale(0.996264)"/>
       <use xlink:href="#CMR17-30" transform="translate(72.787654 0) scale(0.996264)"/>
      </g>
     </g>
    </g>
    <g id="xtick_6">
     <g id="line2d_6">
      <g>
       <use xlink:href="#m67ef635cf8" x="244.399536" y="224.315334" style="stroke: #000000; stroke-width: 0.8"/>
      </g>
     </g>
     <g id="text_6">
      <!-- $\mathdefault{1.5}$ -->
      <g transform="translate(238.034497 238.413655) scale(0.1 -0.1)">
       <use xlink:href="#CMR17-31" transform="scale(0.996264)"/>
       <use xlink:href="#CMMI12-3a" transform="translate(45.690477 0) scale(0.996264)"/>
       <use xlink:href="#CMR17-35" transform="translate(72.787654 0) scale(0.996264)"/>
      </g>
     </g>
    </g>
    <g id="text_7">
     <!-- $x$ -->
     <g transform="translate(149.071175 253.053625) scale(0.12 -0.12)">
      <defs>
       <path id="CMMI12-78" d="M 3034 2606 
C 2829 2567 2752 2414 2752 2293 
C 2752 2139 2874 2088 2963 2088 
C 3155 2088 3290 2254 3290 2427 
C 3290 2695 2982 2816 2714 2816 
C 2323 2816 2106 2433 2048 2312 
C 1901 2816 1504 2816 1389 2816 
C 736 2816 390 1980 390 1839 
C 390 1814 416 1782 461 1782 
C 512 1782 525 1820 538 1846 
C 755 2555 1184 2689 1370 2689 
C 1658 2689 1715 2420 1715 2267 
C 1715 2127 1677 1980 1600 1673 
L 1382 798 
C 1286 415 1101 64 762 64 
C 730 64 570 64 435 147 
C 666 192 717 383 717 460 
C 717 588 621 664 499 664 
C 346 664 179 530 179 326 
C 179 57 480 -64 755 -64 
C 1062 -64 1280 179 1414 441 
C 1517 64 1837 -64 2074 -64 
C 2726 -64 3072 773 3072 913 
C 3072 945 3046 971 3008 971 
C 2950 971 2944 939 2925 888 
C 2752 326 2381 64 2093 64 
C 1869 64 1747 230 1747 492 
C 1747 632 1773 734 1875 1156 
L 2099 2024 
C 2195 2408 2413 2689 2707 2689 
C 2720 2689 2899 2689 3034 2606 
z
" transform="scale(0.015625)"/>
      </defs>
      <use xlink:href="#CMMI12-78" transform="scale(0.996264)"/>
     </g>
    </g>
   </g>
   <g id="matplotlib.axis_2">
    <g id="ytick_1">
     <g id="line2d_7">
      <defs>
       <path id="me35397eb55" d="M 0 0 
L -3.5 0 
" style="stroke: #000000; stroke-width: 0.8"/>
      </defs>
      <g>
       <use xlink:href="#me35397eb55" x="41.994438" y="224.315334" style="stroke: #000000; stroke-width: 0.8"/>
      </g>
     </g>
     <g id="text_8">
      <!-- $\mathdefault{0.0}$ -->
      <g transform="translate(22.264359 227.864495) scale(0.1 -0.1)">
       <use xlink:href="#CMR17-30" transform="scale(0.996264)"/>
       <use xlink:href="#CMMI12-3a" transform="translate(45.690477 0) scale(0.996264)"/>
       <use xlink:href="#CMR17-30" transform="translate(72.787654 0) scale(0.996264)"/>
      </g>
     </g>
    </g>
    <g id="ytick_2">
     <g id="line2d_8">
      <g>
       <use xlink:href="#me35397eb55" x="41.994438" y="184.079797" style="stroke: #000000; stroke-width: 0.8"/>
      </g>
     </g>
     <g id="text_9">
      <!-- $\mathdefault{0.1}$ -->
      <g transform="translate(22.264359 187.628957) scale(0.1 -0.1)">
       <use xlink:href="#CMR17-30" transform="scale(0.996264)"/>
       <use xlink:href="#CMMI12-3a" transform="translate(45.690477 0) scale(0.996264)"/>
       <use xlink:href="#CMR17-31" transform="translate(72.787654 0) scale(0.996264)"/>
      </g>
     </g>
    </g>
    <g id="ytick_3">
     <g id="line2d_9">
      <g>
       <use xlink:href="#me35397eb55" x="41.994438" y="143.84426" style="stroke: #000000; stroke-width: 0.8"/>
      </g>
     </g>
     <g id="text_10">
      <!-- $\mathdefault{0.2}$ -->
      <g transform="translate(22.264359 147.39342) scale(0.1 -0.1)">
       <defs>
        <path id="CMR17-32" d="M 2669 989 
L 2554 989 
C 2490 536 2438 459 2413 420 
C 2381 369 1920 369 1830 369 
L 602 369 
C 832 619 1280 1072 1824 1597 
C 2214 1967 2669 2402 2669 3035 
C 2669 3790 2067 4224 1395 4224 
C 691 4224 262 3604 262 3030 
C 262 2780 448 2748 525 2748 
C 589 2748 781 2787 781 3010 
C 781 3207 614 3264 525 3264 
C 486 3264 448 3258 422 3245 
C 544 3790 915 4058 1306 4058 
C 1862 4058 2227 3617 2227 3035 
C 2227 2479 1901 2000 1536 1584 
L 262 146 
L 262 0 
L 2515 0 
L 2669 989 
z
" transform="scale(0.015625)"/>
       </defs>
       <use xlink:href="#CMR17-30" transform="scale(0.996264)"/>
       <use xlink:href="#CMMI12-3a" transform="translate(45.690477 0) scale(0.996264)"/>
       <use xlink:href="#CMR17-32" transform="translate(72.787654 0) scale(0.996264)"/>
      </g>
     </g>
    </g>
    <g id="ytick_4">
     <g id="line2d_10">
      <g>
       <use xlink:href="#me35397eb55" x="41.994438" y="103.608723" style="stroke: #000000; stroke-width: 0.8"/>
      </g>
     </g>
     <g id="text_11">
      <!-- $\mathdefault{0.3}$ -->
      <g transform="translate(22.264359 107.157883) scale(0.1 -0.1)">
       <defs>
        <path id="CMR17-33" d="M 1414 2157 
C 1984 2157 2234 1662 2234 1090 
C 2234 320 1824 25 1453 25 
C 1114 25 563 194 390 693 
C 422 680 454 680 486 680 
C 640 680 755 782 755 948 
C 755 1133 614 1216 486 1216 
C 378 1216 211 1165 211 926 
C 211 335 787 -128 1466 -128 
C 2176 -128 2720 430 2720 1085 
C 2720 1707 2208 2157 1600 2227 
C 2086 2328 2554 2756 2554 3329 
C 2554 3820 2048 4179 1472 4179 
C 890 4179 378 3829 378 3329 
C 378 3110 544 3072 627 3072 
C 762 3072 877 3155 877 3321 
C 877 3486 762 3569 627 3569 
C 602 3569 570 3569 544 3557 
C 730 3959 1235 4032 1459 4032 
C 1683 4032 2106 3925 2106 3320 
C 2106 3143 2080 2828 1862 2550 
C 1670 2304 1453 2304 1242 2284 
C 1210 2284 1062 2269 1037 2269 
C 992 2263 966 2257 966 2208 
C 966 2163 973 2157 1101 2157 
L 1414 2157 
z
" transform="scale(0.015625)"/>
       </defs>
       <use xlink:href="#CMR17-30" transform="scale(0.996264)"/>
       <use xlink:href="#CMMI12-3a" transform="translate(45.690477 0) scale(0.996264)"/>
       <use xlink:href="#CMR17-33" transform="translate(72.787654 0) scale(0.996264)"/>
      </g>
     </g>
    </g>
    <g id="ytick_5">
     <g id="line2d_11">
      <g>
       <use xlink:href="#me35397eb55" x="41.994438" y="63.373186" style="stroke: #000000; stroke-width: 0.8"/>
      </g>
     </g>
     <g id="text_12">
      <!-- $\mathdefault{0.4}$ -->
      <g transform="translate(22.264359 66.922346) scale(0.1 -0.1)">
       <defs>
        <path id="CMR17-34" d="M 2150 4122 
C 2150 4256 2144 4256 2029 4256 
L 128 1254 
L 128 1088 
L 1779 1088 
L 1779 457 
C 1779 224 1766 160 1318 160 
L 1197 160 
L 1197 0 
C 1402 0 1747 0 1965 0 
C 2182 0 2528 0 2733 0 
L 2733 160 
L 2611 160 
C 2163 160 2150 224 2150 457 
L 2150 1088 
L 2803 1088 
L 2803 1254 
L 2150 1254 
L 2150 4122 
z
M 1798 3703 
L 1798 1254 
L 256 1254 
L 1798 3703 
z
" transform="scale(0.015625)"/>
       </defs>
       <use xlink:href="#CMR17-30" transform="scale(0.996264)"/>
       <use xlink:href="#CMMI12-3a" transform="translate(45.690477 0) scale(0.996264)"/>
       <use xlink:href="#CMR17-34" transform="translate(72.787654 0) scale(0.996264)"/>
      </g>
     </g>
    </g>
    <g id="ytick_6">
     <g id="line2d_12">
      <g>
       <use xlink:href="#me35397eb55" x="41.994438" y="23.137648" style="stroke: #000000; stroke-width: 0.8"/>
      </g>
     </g>
     <g id="text_13">
      <!-- $\mathdefault{0.5}$ -->
      <g transform="translate(22.264359 26.686809) scale(0.1 -0.1)">
       <use xlink:href="#CMR17-30" transform="scale(0.996264)"/>
       <use xlink:href="#CMMI12-3a" transform="translate(45.690477 0) scale(0.996264)"/>
       <use xlink:href="#CMR17-35" transform="translate(72.787654 0) scale(0.996264)"/>
      </g>
     </g>
    </g>
    <g id="text_14">
     <!-- $t$ -->
     <g transform="translate(15.717984 125.840071) rotate(-90) scale(0.12 -0.12)">
      <defs>
       <path id="CMMI12-74" d="M 1286 2566 
L 1875 2566 
C 1997 2566 2061 2566 2061 2681 
C 2061 2752 2022 2752 1894 2752 
L 1331 2752 
L 1568 3692 
C 1594 3781 1594 3794 1594 3840 
C 1594 3943 1510 4000 1427 4000 
C 1376 4000 1229 3981 1178 3775 
L 928 2752 
L 326 2752 
C 198 2752 141 2752 141 2630 
C 141 2566 186 2566 307 2566 
L 877 2566 
L 454 881 
C 403 658 384 594 384 511 
C 384 211 595 -64 954 -64 
C 1600 -64 1946 868 1946 912 
C 1946 951 1920 970 1882 970 
C 1869 970 1843 970 1830 944 
C 1824 938 1818 931 1773 829 
C 1638 511 1344 64 973 64 
C 781 64 768 224 768 364 
C 768 370 768 492 787 568 
L 1286 2566 
z
" transform="scale(0.015625)"/>
      </defs>
      <use xlink:href="#CMMI12-74" transform="scale(0.996264)"/>
     </g>
    </g>
   </g>
   <g id="line2d_13">
    <path d="M 60.394901 224.315334 
L 67.755087 23.137648 
L 67.755087 23.137648 
" clip-path="url(#pb8ec255af5)" style="fill: none; stroke: #000000; stroke-opacity: 0.5; stroke-width: 0.75; stroke-linecap: square"/>
   </g>
   <g id="line2d_14">
    <path d="M 66.056582 224.315334 
L 73.416768 23.137648 
L 73.416768 23.137648 
" clip-path="url(#pb8ec255af5)" style="fill: none; stroke: #000000; stroke-opacity: 0.5; stroke-width: 0.75; stroke-linecap: square"/>
   </g>
   <g id="line2d_15">
    <path d="M 71.718264 224.315334 
L 79.078449 23.137648 
L 79.078449 23.137648 
" clip-path="url(#pb8ec255af5)" style="fill: none; stroke: #000000; stroke-opacity: 0.5; stroke-width: 0.75; stroke-linecap: square"/>
   </g>
   <g id="line2d_16">
    <path d="M 77.379945 224.315334 
L 84.74013 23.137648 
L 84.74013 23.137648 
" clip-path="url(#pb8ec255af5)" style="fill: none; stroke: #000000; stroke-opacity: 0.5; stroke-width: 0.75; stroke-linecap: square"/>
   </g>
   <g id="line2d_17">
    <path d="M 83.041626 224.315334 
L 90.401811 23.137648 
L 90.401811 23.137648 
" clip-path="url(#pb8ec255af5)" style="fill: none; stroke: #000000; stroke-opacity: 0.5; stroke-width: 0.75; stroke-linecap: square"/>
   </g>
   <g id="line2d_18">
    <path d="M 88.703307 224.315334 
L 96.063492 23.137648 
L 96.063492 23.137648 
" clip-path="url(#pb8ec255af5)" style="fill: none; stroke: #000000; stroke-opacity: 0.5; stroke-width: 0.75; stroke-linecap: square"/>
   </g>
   <g id="line2d_19">
    <path d="M 94.364988 224.315334 
L 101.725173 23.137648 
L 101.725173 23.137648 
" clip-path="url(#pb8ec255af5)" style="fill: none; stroke: #000000; stroke-opacity: 0.5; stroke-width: 0.75; stroke-linecap: square"/>
   </g>
   <g id="line2d_20">
    <path d="M 100.026669 224.315334 
L 107.386854 23.137648 
L 107.386854 23.137648 
" clip-path="url(#pb8ec255af5)" style="fill: none; stroke: #000000; stroke-opacity: 0.5; stroke-width: 0.75; stroke-linecap: square"/>
   </g>
   <g id="line2d_21">
    <path d="M 105.68835 224.315334 
L 113.048535 23.137648 
L 113.048535 23.137648 
" clip-path="url(#pb8ec255af5)" style="fill: none; stroke: #000000; stroke-opacity: 0.5; stroke-width: 0.75; stroke-linecap: square"/>
   </g>
   <g id="line2d_22">
    <path d="M 111.350031 224.315334 
L 118.710216 23.137648 
L 118.710216 23.137648 
" clip-path="url(#pb8ec255af5)" style="fill: none; stroke: #000000; stroke-opacity: 0.5; stroke-width: 0.75; stroke-linecap: square"/>
   </g>
   <g id="line2d_23">
    <path d="M 117.011712 224.315334 
L 124.371898 23.137648 
L 124.371898 23.137648 
" clip-path="url(#pb8ec255af5)" style="fill: none; stroke: #000000; stroke-opacity: 0.5; stroke-width: 0.75; stroke-linecap: square"/>
   </g>
   <g id="line2d_24">
    <path d="M 122.673393 224.315334 
L 128.292612 68.402628 
L 126.63657 23.137648 
L 126.63657 23.137648 
" clip-path="url(#pb8ec255af5)" style="fill: none; stroke: #000000; stroke-opacity: 0.5; stroke-width: 0.75; stroke-linecap: square"/>
   </g>
   <g id="line2d_25">
    <path d="M 128.335074 224.315334 
L 131.126283 145.856037 
L 126.63657 23.137648 
L 126.63657 23.137648 
" clip-path="url(#pb8ec255af5)" style="fill: none; stroke: #000000; stroke-opacity: 0.5; stroke-width: 0.75; stroke-linecap: square"/>
   </g>
   <g id="line2d_26">
    <path d="M 133.996755 224.315334 
L 126.63657 23.137648 
L 126.63657 23.137648 
" clip-path="url(#pb8ec255af5)" style="fill: none; stroke: #000000; stroke-opacity: 0.5; stroke-width: 0.75; stroke-linecap: square"/>
   </g>
   <g id="line2d_27">
    <path d="M 136.625393 224.315334 
L 132.635121 187.097463 
L 126.63657 23.137648 
L 126.63657 23.137648 
" clip-path="url(#pb8ec255af5)" style="fill: none; stroke: #000000; stroke-opacity: 0.5; stroke-width: 0.75; stroke-linecap: square"/>
   </g>
   <g id="line2d_28">
    <path d="M 139.254031 224.315334 
L 131.347089 151.891367 
L 126.63657 23.137648 
L 126.63657 23.137648 
" clip-path="url(#pb8ec255af5)" style="fill: none; stroke: #000000; stroke-opacity: 0.5; stroke-width: 0.75; stroke-linecap: square"/>
   </g>
   <g id="line2d_29">
    <path d="M 141.882668 224.315334 
L 130.022255 115.679384 
L 126.63657 23.137648 
L 126.63657 23.137648 
" clip-path="url(#pb8ec255af5)" style="fill: none; stroke: #000000; stroke-opacity: 0.5; stroke-width: 0.75; stroke-linecap: square"/>
   </g>
   <g id="line2d_30">
    <path d="M 144.511306 224.315334 
L 128.697422 79.4674 
L 126.63657 23.137648 
L 126.63657 23.137648 
" clip-path="url(#pb8ec255af5)" style="fill: none; stroke: #000000; stroke-opacity: 0.5; stroke-width: 0.75; stroke-linecap: square"/>
   </g>
   <g id="line2d_31">
    <path d="M 147.139944 224.315334 
L 127.372589 43.255417 
L 126.63657 23.137648 
L 126.63657 23.137648 
" clip-path="url(#pb8ec255af5)" style="fill: none; stroke: #000000; stroke-opacity: 0.5; stroke-width: 0.75; stroke-linecap: square"/>
   </g>
   <g id="line2d_32">
    <path d="M 149.768581 224.315334 
L 127.688025 23.137648 
L 127.688025 23.137648 
" clip-path="url(#pb8ec255af5)" style="fill: none; stroke: #000000; stroke-opacity: 0.5; stroke-width: 0.75; stroke-linecap: square"/>
   </g>
   <g id="line2d_33">
    <path d="M 152.397219 224.315334 
L 130.316663 23.137648 
L 130.316663 23.137648 
" clip-path="url(#pb8ec255af5)" style="fill: none; stroke: #000000; stroke-opacity: 0.5; stroke-width: 0.75; stroke-linecap: square"/>
   </g>
   <g id="line2d_34">
    <path d="M 155.025857 224.315334 
L 132.9453 23.137648 
L 132.9453 23.137648 
" clip-path="url(#pb8ec255af5)" style="fill: none; stroke: #000000; stroke-opacity: 0.5; stroke-width: 0.75; stroke-linecap: square"/>
   </g>
   <g id="line2d_35">
    <path d="M 157.654494 224.315334 
L 135.573938 23.137648 
L 135.573938 23.137648 
" clip-path="url(#pb8ec255af5)" style="fill: none; stroke: #000000; stroke-opacity: 0.5; stroke-width: 0.75; stroke-linecap: square"/>
   </g>
   <g id="line2d_36">
    <path d="M 160.283132 224.315334 
L 138.202576 23.137648 
L 138.202576 23.137648 
" clip-path="url(#pb8ec255af5)" style="fill: none; stroke: #000000; stroke-opacity: 0.5; stroke-width: 0.75; stroke-linecap: square"/>
   </g>
   <g id="line2d_37">
    <path d="M 162.91177 224.315334 
L 140.831213 23.137648 
L 140.831213 23.137648 
" clip-path="url(#pb8ec255af5)" style="fill: none; stroke: #000000; stroke-opacity: 0.5; stroke-width: 0.75; stroke-linecap: square"/>
   </g>
   <g id="line2d_38">
    <path d="M 165.540407 224.315334 
L 143.459851 23.137648 
L 143.459851 23.137648 
" clip-path="url(#pb8ec255af5)" style="fill: none; stroke: #000000; stroke-opacity: 0.5; stroke-width: 0.75; stroke-linecap: square"/>
   </g>
   <g id="line2d_39">
    <path d="M 168.169045 224.315334 
L 146.088489 23.137648 
L 146.088489 23.137648 
" clip-path="url(#pb8ec255af5)" style="fill: none; stroke: #000000; stroke-opacity: 0.5; stroke-width: 0.75; stroke-linecap: square"/>
   </g>
   <g id="line2d_40">
    <path d="M 170.797682 224.315334 
L 148.717126 23.137648 
L 148.717126 23.137648 
" clip-path="url(#pb8ec255af5)" style="fill: none; stroke: #000000; stroke-opacity: 0.5; stroke-width: 0.75; stroke-linecap: square"/>
   </g>
   <g id="line2d_41">
    <path d="M 173.42632 224.315334 
L 151.345764 23.137648 
L 151.345764 23.137648 
" clip-path="url(#pb8ec255af5)" style="fill: none; stroke: #000000; stroke-opacity: 0.5; stroke-width: 0.75; stroke-linecap: square"/>
   </g>
   <g id="line2d_42">
    <path d="M 176.054958 224.315334 
L 153.974402 23.137648 
L 153.974402 23.137648 
" clip-path="url(#pb8ec255af5)" style="fill: none; stroke: #000000; stroke-opacity: 0.5; stroke-width: 0.75; stroke-linecap: square"/>
   </g>
   <g id="line2d_43">
    <path d="M 178.683595 224.315334 
L 156.603039 23.137648 
L 156.603039 23.137648 
" clip-path="url(#pb8ec255af5)" style="fill: none; stroke: #000000; stroke-opacity: 0.5; stroke-width: 0.75; stroke-linecap: square"/>
   </g>
   <g id="line2d_44">
    <path d="M 181.312233 224.315334 
L 159.231677 23.137648 
L 159.231677 23.137648 
" clip-path="url(#pb8ec255af5)" style="fill: none; stroke: #000000; stroke-opacity: 0.5; stroke-width: 0.75; stroke-linecap: square"/>
   </g>
   <g id="line2d_45">
    <path d="M 183.940871 224.315334 
L 161.860314 23.137648 
L 161.860314 23.137648 
" clip-path="url(#pb8ec255af5)" style="fill: none; stroke: #000000; stroke-opacity: 0.5; stroke-width: 0.75; stroke-linecap: square"/>
   </g>
   <g id="line2d_46">
    <path d="M 186.569508 224.315334 
L 164.488952 23.137648 
L 164.488952 23.137648 
" clip-path="url(#pb8ec255af5)" style="fill: none; stroke: #000000; stroke-opacity: 0.5; stroke-width: 0.75; stroke-linecap: square"/>
   </g>
   <g id="line2d_47">
    <path d="M 189.198146 224.315334 
L 167.11759 23.137648 
L 167.11759 23.137648 
" clip-path="url(#pb8ec255af5)" style="fill: none; stroke: #000000; stroke-opacity: 0.5; stroke-width: 0.75; stroke-linecap: square"/>
   </g>
   <g id="line2d_48">
    <path d="M 191.826784 224.315334 
L 169.746227 23.137648 
L 169.746227 23.137648 
" clip-path="url(#pb8ec255af5)" style="fill: none; stroke: #000000; stroke-opacity: 0.5; stroke-width: 0.75; stroke-linecap: square"/>
   </g>
   <g id="line2d_49">
    <path d="M 194.455421 224.315334 
L 172.374865 23.137648 
L 172.374865 23.137648 
" clip-path="url(#pb8ec255af5)" style="fill: none; stroke: #000000; stroke-opacity: 0.5; stroke-width: 0.75; stroke-linecap: square"/>
   </g>
   <g id="line2d_50">
    <path d="M 197.084059 224.315334 
L 175.003503 23.137648 
L 175.003503 23.137648 
" clip-path="url(#pb8ec255af5)" style="fill: none; stroke: #000000; stroke-opacity: 0.5; stroke-width: 0.75; stroke-linecap: square"/>
   </g>
   <g id="line2d_51">
    <path d="M 199.712697 224.315334 
L 177.63214 23.137648 
L 177.63214 23.137648 
" clip-path="url(#pb8ec255af5)" style="fill: none; stroke: #000000; stroke-opacity: 0.5; stroke-width: 0.75; stroke-linecap: square"/>
   </g>
   <g id="line2d_52">
    <path d="M 202.341334 224.315334 
L 180.260778 23.137648 
L 180.260778 23.137648 
" clip-path="url(#pb8ec255af5)" style="fill: none; stroke: #000000; stroke-opacity: 0.5; stroke-width: 0.75; stroke-linecap: square"/>
   </g>
   <g id="line2d_53">
    <path d="M 204.969972 224.315334 
L 182.889416 23.137648 
L 182.889416 23.137648 
" clip-path="url(#pb8ec255af5)" style="fill: none; stroke: #000000; stroke-opacity: 0.5; stroke-width: 0.75; stroke-linecap: square"/>
   </g>
   <g id="line2d_54">
    <path d="M 207.598609 224.315334 
L 185.518053 23.137648 
L 185.518053 23.137648 
" clip-path="url(#pb8ec255af5)" style="fill: none; stroke: #000000; stroke-opacity: 0.5; stroke-width: 0.75; stroke-linecap: square"/>
   </g>
   <g id="line2d_55">
    <path d="M 207.598609 224.315334 
L 244.399536 23.137648 
L 244.399536 23.137648 
" clip-path="url(#pb8ec255af5)" style="fill: none; stroke: #ff0000; stroke-opacity: 0.5; stroke-width: 0.75; stroke-linecap: square"/>
   </g>
   <g id="line2d_56">
    <path d="M 207.598609 224.315334 
L 192.878239 23.137648 
L 192.878239 23.137648 
" clip-path="url(#pb8ec255af5)" style="fill: none; stroke: #0000ff; stroke-opacity: 0.5; stroke-width: 0.75; stroke-linecap: square"/>
   </g>
   <g id="line2d_57">
    <path d="M 207.598609 224.315334 
L 200.238424 23.137648 
L 200.238424 23.137648 
" clip-path="url(#pb8ec255af5)" style="fill: none; stroke: #0000ff; stroke-opacity: 0.5; stroke-width: 0.75; stroke-linecap: square"/>
   </g>
   <g id="line2d_58">
    <path d="M 207.598609 224.315334 
L 207.598609 23.137648 
L 207.598609 23.137648 
" clip-path="url(#pb8ec255af5)" style="fill: none; stroke: #0000ff; stroke-opacity: 0.5; stroke-width: 0.75; stroke-linecap: square"/>
   </g>
   <g id="line2d_59">
    <path d="M 207.598609 224.315334 
L 214.958795 23.137648 
L 214.958795 23.137648 
" clip-path="url(#pb8ec255af5)" style="fill: none; stroke: #0000ff; stroke-opacity: 0.5; stroke-width: 0.75; stroke-linecap: square"/>
   </g>
   <g id="line2d_60">
    <path d="M 207.598609 224.315334 
L 222.31898 23.137648 
L 222.31898 23.137648 
" clip-path="url(#pb8ec255af5)" style="fill: none; stroke: #0000ff; stroke-opacity: 0.5; stroke-width: 0.75; stroke-linecap: square"/>
   </g>
   <g id="line2d_61">
    <path d="M 207.598609 224.315334 
L 229.679166 23.137648 
L 229.679166 23.137648 
" clip-path="url(#pb8ec255af5)" style="fill: none; stroke: #0000ff; stroke-opacity: 0.5; stroke-width: 0.75; stroke-linecap: square"/>
   </g>
   <g id="line2d_62">
    <path d="M 207.598609 224.315334 
L 237.039351 23.137648 
L 237.039351 23.137648 
" clip-path="url(#pb8ec255af5)" style="fill: none; stroke: #0000ff; stroke-opacity: 0.5; stroke-width: 0.75; stroke-linecap: square"/>
   </g>
   <g id="line2d_63">
    <path d="M 133.996755 224.315334 
L 126.63657 23.137648 
L 126.63657 23.137648 
" clip-path="url(#pb8ec255af5)" style="fill: none; stroke: #ff0000; stroke-width: 2; stroke-linecap: square"/>
   </g>
   <g id="line2d_64">
    <path d="M -1 123.726491 
L 6.420208 123.726491 
L 16.233789 123.726491 
L 26.047369 123.726491 
L 35.86095 123.726491 
L 45.674531 123.726491 
L 55.488111 123.726491 
L 65.301692 123.726491 
L 75.115272 123.726491 
L 84.928853 123.726491 
L 94.742433 123.726491 
L 104.556014 123.726491 
L 114.369594 123.726491 
L 124.183175 123.726491 
L 133.996755 123.726491 
L 138.596871 123.726491 
L 142.918192 123.726491 
L 147.239513 123.726491 
L 151.560834 123.726491 
L 155.882155 123.726491 
L 160.203476 123.726491 
L 164.524797 123.726491 
L 168.846118 123.726491 
L 173.167439 123.726491 
L 177.48876 123.726491 
L 181.810081 123.726491 
L 186.131402 123.726491 
L 190.452723 123.726491 
L 194.774044 123.726491 
L 199.095365 123.726491 
L 203.416686 123.726491 
L 207.738007 123.726491 
L 212.059328 123.726491 
L 216.380649 123.726491 
L 220.70197 123.726491 
L 225.023291 123.726491 
L 229.344612 123.726491 
L 233.665933 123.726491 
L 237.987254 123.726491 
L 242.308575 123.726491 
L 246.629896 123.726491 
L 250.951217 123.726491 
L 255.272538 123.726491 
L 259.593859 123.726491 
L 263.91518 123.726491 
L 268.236501 123.726491 
L 272.557822 123.726491 
L 276.879143 123.726491 
L 281.200464 123.726491 
" clip-path="url(#pb8ec255af5)" style="fill: none; stroke-dasharray: 3.7,1.6; stroke-dashoffset: 0; stroke: #1f77b4"/>
   </g>
   <g id="patch_3">
    <path d="M 41.994438 224.315334 
L 41.994438 23.137648 
" style="fill: none; stroke: #000000; stroke-width: 0.8; stroke-linejoin: miter; stroke-linecap: square"/>
   </g>
   <g id="patch_4">
    <path d="M 262.8 224.315334 
L 262.8 23.137648 
" style="fill: none; stroke: #000000; stroke-width: 0.8; stroke-linejoin: miter; stroke-linecap: square"/>
   </g>
   <g id="patch_5">
    <path d="M 41.994438 224.315334 
L 262.8 224.315334 
" style="fill: none; stroke: #000000; stroke-width: 0.8; stroke-linejoin: miter; stroke-linecap: square"/>
   </g>
   <g id="patch_6">
    <path d="M 41.994438 23.137648 
L 262.8 23.137648 
" style="fill: none; stroke: #000000; stroke-width: 0.8; stroke-linejoin: miter; stroke-linecap: square"/>
   </g>
   <g id="text_15">
    <!-- $Waves\ in\ x-t\ plane$ -->
    <g transform="translate(87.953344 17.137648) scale(0.14 -0.14)">
     <defs>
      <path id="CMMI12-57" d="M 5779 3646 
C 5926 3894 6067 4129 6451 4168 
C 6509 4174 6566 4180 6566 4282 
C 6566 4352 6509 4352 6490 4352 
C 6477 4352 6432 4352 6010 4352 
C 5818 4352 5619 4352 5434 4352 
C 5395 4352 5318 4352 5318 4226 
C 5318 4166 5370 4160 5408 4160 
C 5536 4160 5741 4122 5741 3925 
C 5741 3842 5715 3797 5651 3690 
L 3904 648 
L 3674 3963 
C 3674 4039 3744 4160 4102 4160 
C 4186 4160 4250 4160 4250 4286 
C 4250 4352 4186 4352 4154 4352 
C 3930 4352 3693 4352 3462 4352 
L 3130 4352 
C 3034 4352 2918 4352 2822 4352 
C 2784 4352 2707 4352 2707 4226 
C 2707 4160 2752 4160 2861 4160 
C 3155 4160 3155 4153 3181 3772 
L 3200 3543 
L 1542 648 
L 1306 3931 
C 1306 4002 1306 4160 1741 4160 
C 1811 4160 1882 4160 1882 4279 
C 1882 4352 1824 4352 1786 4352 
C 1562 4352 1325 4352 1094 4352 
L 762 4352 
C 666 4352 550 4352 454 4352 
C 416 4352 339 4352 339 4226 
C 339 4160 390 4160 480 4160 
C 781 4160 787 4121 800 3918 
L 1082 18 
C 1088 -90 1094 -128 1171 -128 
C 1235 -128 1248 -103 1306 -7 
L 3213 3307 
L 3450 18 
C 3456 -90 3462 -128 3539 -128 
C 3603 -128 3622 -96 3674 -7 
L 5779 3646 
z
" transform="scale(0.015625)"/>
      <path id="CMMI12-61" d="M 1926 760 
C 1894 651 1894 639 1805 517 
C 1664 338 1382 64 1082 64 
C 819 64 672 300 672 677 
C 672 1028 870 1743 992 2012 
C 1210 2459 1510 2689 1760 2689 
C 2182 2689 2266 2165 2266 2114 
C 2266 2108 2246 2024 2240 2012 
L 1926 760 
z
M 2336 2395 
C 2266 2561 2093 2816 1760 2816 
C 1037 2816 256 1884 256 939 
C 256 307 627 -64 1062 -64 
C 1414 -64 1715 211 1894 422 
C 1958 45 2259 -64 2451 -64 
C 2643 -64 2797 51 2912 281 
C 3014 498 3104 888 3104 913 
C 3104 945 3078 971 3040 971 
C 2982 971 2976 939 2950 843 
C 2854 466 2733 64 2470 64 
C 2285 64 2272 230 2272 358 
C 2272 505 2291 575 2349 824 
C 2394 984 2426 1124 2477 1309 
C 2714 2267 2771 2497 2771 2535 
C 2771 2625 2701 2695 2605 2695 
C 2400 2695 2349 2472 2336 2395 
z
" transform="scale(0.015625)"/>
      <path id="CMMI12-76" d="M 2925 2389 
C 2925 2791 2720 2816 2669 2816 
C 2515 2816 2374 2663 2374 2535 
C 2374 2459 2419 2414 2445 2389 
C 2509 2331 2675 2159 2675 1827 
C 2675 1558 2291 64 1523 64 
C 1133 64 1056 390 1056 626 
C 1056 945 1203 1392 1376 1852 
C 1478 2114 1504 2178 1504 2305 
C 1504 2574 1312 2816 998 2816 
C 410 2816 173 1890 173 1839 
C 173 1814 198 1782 243 1782 
C 301 1782 307 1807 333 1897 
C 486 2446 736 2689 979 2689 
C 1037 2689 1146 2689 1146 2478 
C 1146 2312 1075 2127 979 1884 
C 672 1067 672 869 672 715 
C 672 575 691 313 890 134 
C 1120 -64 1440 -64 1498 -64 
C 2560 -64 2925 2024 2925 2389 
z
" transform="scale(0.015625)"/>
      <path id="CMMI12-65" d="M 1146 1479 
C 1318 1479 1754 1479 2061 1595 
C 2547 1783 2592 2158 2592 2274 
C 2592 2558 2349 2816 1926 2816 
C 1254 2816 288 2210 288 1073 
C 288 402 672 -64 1254 -64 
C 2125 -64 2675 609 2675 692 
C 2675 730 2637 762 2611 762 
C 2592 762 2586 756 2528 699 
C 2118 159 1510 64 1267 64 
C 902 64 710 350 710 822 
C 710 911 710 1071 806 1479 
L 1146 1479 
z
M 838 1600 
C 1114 2592 1722 2689 1926 2689 
C 2208 2689 2400 2522 2400 2277 
C 2400 1600 1376 1600 1107 1600 
L 838 1600 
z
" transform="scale(0.015625)"/>
      <path id="CMMI12-73" d="M 1459 1280 
C 1568 1261 1741 1223 1779 1216 
C 1862 1192 2150 1090 2150 783 
C 2150 586 1971 70 1229 70 
C 1094 70 614 70 486 436 
C 742 404 870 603 870 745 
C 870 880 781 950 653 950 
C 512 950 326 841 326 552 
C 326 173 710 -64 1222 -64 
C 2195 -64 2483 651 2483 984 
C 2483 1079 2483 1258 2278 1462 
C 2118 1616 1965 1648 1619 1718 
C 1446 1756 1171 1814 1171 2101 
C 1171 2229 1286 2689 1894 2689 
C 2163 2689 2426 2589 2490 2368 
C 2208 2368 2195 2125 2195 2119 
C 2195 1984 2317 1946 2374 1946 
C 2464 1946 2643 2015 2643 2281 
C 2643 2545 2400 2816 1901 2816 
C 1062 2816 838 2160 838 1899 
C 838 1414 1312 1312 1459 1280 
z
" transform="scale(0.015625)"/>
      <path id="CMMI12-69" d="M 1811 913 
C 1811 945 1786 971 1747 971 
C 1690 971 1683 952 1651 843 
C 1485 262 1222 64 1011 64 
C 934 64 845 83 845 275 
C 845 447 922 639 992 830 
L 1440 2018 
C 1459 2069 1504 2184 1504 2305 
C 1504 2574 1312 2816 998 2816 
C 410 2816 173 1890 173 1839 
C 173 1814 198 1782 243 1782 
C 301 1782 307 1807 333 1896 
C 486 2428 730 2682 979 2682 
C 1037 2682 1146 2682 1146 2478 
C 1146 2312 1062 2101 1011 1961 
L 563 773 
C 525 671 486 568 486 453 
C 486 166 685 -64 992 -64 
C 1581 -64 1811 869 1811 913 
z
M 1760 4013 
C 1760 4109 1683 4224 1542 4224 
C 1395 4224 1229 4083 1229 3917 
C 1229 3758 1363 3707 1440 3707 
C 1613 3707 1760 3873 1760 4013 
z
" transform="scale(0.015625)"/>
      <path id="CMMI12-6e" d="M 1318 1871 
C 1331 1910 1491 2229 1728 2433 
C 1894 2586 2112 2689 2362 2689 
C 2618 2689 2707 2497 2707 2242 
C 2707 1878 2445 1150 2317 805 
C 2259 651 2227 568 2227 453 
C 2227 166 2426 -64 2733 -64 
C 3328 -64 3552 875 3552 913 
C 3552 945 3526 971 3488 971 
C 3430 971 3424 952 3392 843 
C 3245 319 3002 64 2752 64 
C 2688 64 2586 64 2586 269 
C 2586 429 2656 621 2694 710 
C 2822 1063 3091 1780 3091 2145 
C 3091 2528 2867 2816 2381 2816 
C 1811 2816 1510 2415 1395 2255 
C 1376 2618 1114 2816 832 2816 
C 627 2816 486 2695 378 2478 
C 262 2248 173 1865 173 1839 
C 173 1814 198 1782 243 1782 
C 294 1782 301 1788 339 1935 
C 442 2325 557 2689 813 2689 
C 960 2689 1011 2586 1011 2395 
C 1011 2254 947 2005 902 1807 
L 723 1118 
C 698 996 627 709 595 594 
C 550 428 480 128 480 96 
C 480 6 550 -64 646 -64 
C 723 -64 813 -26 864 70 
C 877 102 934 326 966 453 
L 1107 1028 
L 1318 1871 
z
" transform="scale(0.015625)"/>
      <path id="CMMI12-70" d="M 275 -789 
C 230 -980 205 -1031 -58 -1031 
C -134 -1031 -198 -1031 -198 -1152 
C -198 -1165 -192 -1216 -122 -1216 
C -38 -1216 51 -1216 134 -1216 
L 410 -1216 
C 544 -1216 870 -1216 1005 -1216 
C 1043 -1216 1120 -1216 1120 -1101 
C 1120 -1031 1075 -1031 966 -1031 
C 672 -1031 653 -987 653 -937 
C 653 -861 941 219 979 364 
C 1050 185 1222 -64 1555 -64 
C 2278 -64 3059 875 3059 1814 
C 3059 2401 2726 2816 2246 2816 
C 1837 2816 1491 2420 1421 2331 
C 1370 2650 1120 2816 864 2816 
C 678 2816 531 2727 410 2484 
C 294 2254 205 1865 205 1839 
C 205 1814 230 1782 275 1782 
C 326 1782 333 1788 371 1935 
C 467 2312 589 2689 845 2689 
C 992 2689 1043 2587 1043 2397 
C 1043 2245 1024 2181 998 2067 
L 275 -789 
z
M 1382 1993 
C 1427 2171 1606 2357 1709 2446 
C 1779 2510 1990 2689 2234 2689 
C 2515 2689 2643 2408 2643 2076 
C 2643 1769 2464 1047 2304 715 
C 2144 370 1850 64 1555 64 
C 1120 64 1050 613 1050 639 
C 1050 658 1062 709 1069 741 
L 1382 1993 
z
" transform="scale(0.015625)"/>
      <path id="CMMI12-6c" d="M 1626 4257 
C 1632 4282 1645 4320 1645 4352 
C 1645 4416 1581 4416 1568 4416 
C 1562 4416 1331 4393 1216 4377 
C 1107 4377 1011 4358 896 4358 
C 742 4345 698 4339 698 4224 
C 698 4160 762 4160 826 4160 
C 1152 4160 1152 4102 1152 4039 
C 1152 4014 1152 4001 1120 3887 
L 326 731 
C 307 661 294 610 294 509 
C 294 191 531 -64 858 -64 
C 1069 -64 1210 76 1312 274 
C 1421 483 1510 884 1510 909 
C 1510 941 1485 967 1446 967 
C 1389 967 1382 935 1357 840 
C 1242 401 1126 64 870 64 
C 678 64 678 267 678 357 
C 678 382 678 515 723 694 
L 1626 4257 
z
" transform="scale(0.015625)"/>
     </defs>
     <use xlink:href="#CMMI12-57" transform="scale(0.996264)"/>
     <use xlink:href="#CMMI12-61" transform="translate(105.644498 0) scale(0.996264)"/>
     <use xlink:href="#CMMI12-76" transform="translate(156.852355 0) scale(0.996264)"/>
     <use xlink:href="#CMMI12-65" transform="translate(207.587529 0) scale(0.996264)"/>
     <use xlink:href="#CMMI12-73" transform="translate(252.79953 0) scale(0.996264)"/>
     <use xlink:href="#CMMI12-69" transform="translate(326.444747 0) scale(0.996264)"/>
     <use xlink:href="#CMMI12-6e" transform="translate(359.723349 0) scale(0.996264)"/>
     <use xlink:href="#CMMI12-78" transform="translate(445.648566 0) scale(0.996264)"/>
     <use xlink:href="#CMSY10-0" transform="translate(523.221832 0) scale(0.996264)"/>
     <use xlink:href="#CMMI12-74" transform="translate(622.848507 0) scale(0.996264)"/>
     <use xlink:href="#CMMI12-70" transform="translate(685.770007 0) scale(0.996264)"/>
     <use xlink:href="#CMMI12-6c" transform="translate(734.729521 0) scale(0.996264)"/>
     <use xlink:href="#CMMI12-61" transform="translate(765.977925 0) scale(0.996264)"/>
     <use xlink:href="#CMMI12-6e" transform="translate(817.185782 0) scale(0.996264)"/>
     <use xlink:href="#CMMI12-65" transform="translate(875.41583 0) scale(0.996264)"/>
    </g>
   </g>
  </g>
  <g id="axes_2">
   <g id="patch_7">
    <path d="M 308.394438 224.315334 
L 529.2 224.315334 
L 529.2 23.137648 
L 308.394438 23.137648 
z
" style="fill: #ffffff"/>
   </g>
   <g id="matplotlib.axis_3">
    <g id="xtick_7">
     <g id="line2d_65">
      <path d="M 326.794901 224.315334 
L 326.794901 23.137648 
" clip-path="url(#p7ebcdfcd4c)" style="fill: none; stroke-dasharray: 0.185,0.08; stroke-dashoffset: 0; stroke: #808080; stroke-width: 0.05"/>
     </g>
     <g id="line2d_66">
      <g>
       <use xlink:href="#m67ef635cf8" x="326.794901" y="224.315334" style="stroke: #000000; stroke-width: 0.8"/>
      </g>
     </g>
     <g id="text_16">
      <!-- $\mathdefault{−1.0}$ -->
      <g transform="translate(316.55549 238.413655) scale(0.1 -0.1)">
       <use xlink:href="#CMSY10-0" transform="scale(0.996264)"/>
       <use xlink:href="#CMR17-31" transform="translate(77.487468 0) scale(0.996264)"/>
       <use xlink:href="#CMMI12-3a" transform="translate(123.177945 0) scale(0.996264)"/>
       <use xlink:href="#CMR17-30" transform="translate(150.275122 0) scale(0.996264)"/>
      </g>
     </g>
    </g>
    <g id="xtick_8">
     <g id="line2d_67">
      <path d="M 363.595828 224.315334 
L 363.595828 23.137648 
" clip-path="url(#p7ebcdfcd4c)" style="fill: none; stroke-dasharray: 0.185,0.08; stroke-dashoffset: 0; stroke: #808080; stroke-width: 0.05"/>
     </g>
     <g id="line2d_68">
      <g>
       <use xlink:href="#m67ef635cf8" x="363.595828" y="224.315334" style="stroke: #000000; stroke-width: 0.8"/>
      </g>
     </g>
     <g id="text_17">
      <!-- $\mathdefault{−0.5}$ -->
      <g transform="translate(353.356417 238.413655) scale(0.1 -0.1)">
       <use xlink:href="#CMSY10-0" transform="scale(0.996264)"/>
       <use xlink:href="#CMR17-30" transform="translate(77.487468 0) scale(0.996264)"/>
       <use xlink:href="#CMMI12-3a" transform="translate(123.177945 0) scale(0.996264)"/>
       <use xlink:href="#CMR17-35" transform="translate(150.275122 0) scale(0.996264)"/>
      </g>
     </g>
    </g>
    <g id="xtick_9">
     <g id="line2d_69">
      <path d="M 400.396755 224.315334 
L 400.396755 23.137648 
" clip-path="url(#p7ebcdfcd4c)" style="fill: none; stroke-dasharray: 0.185,0.08; stroke-dashoffset: 0; stroke: #808080; stroke-width: 0.05"/>
     </g>
     <g id="line2d_70">
      <g>
       <use xlink:href="#m67ef635cf8" x="400.396755" y="224.315334" style="stroke: #000000; stroke-width: 0.8"/>
      </g>
     </g>
     <g id="text_18">
      <!-- $\mathdefault{0.0}$ -->
      <g transform="translate(394.031716 238.413655) scale(0.1 -0.1)">
       <use xlink:href="#CMR17-30" transform="scale(0.996264)"/>
       <use xlink:href="#CMMI12-3a" transform="translate(45.690477 0) scale(0.996264)"/>
       <use xlink:href="#CMR17-30" transform="translate(72.787654 0) scale(0.996264)"/>
      </g>
     </g>
    </g>
    <g id="xtick_10">
     <g id="line2d_71">
      <path d="M 437.197682 224.315334 
L 437.197682 23.137648 
" clip-path="url(#p7ebcdfcd4c)" style="fill: none; stroke-dasharray: 0.185,0.08; stroke-dashoffset: 0; stroke: #808080; stroke-width: 0.05"/>
     </g>
     <g id="line2d_72">
      <g>
       <use xlink:href="#m67ef635cf8" x="437.197682" y="224.315334" style="stroke: #000000; stroke-width: 0.8"/>
      </g>
     </g>
     <g id="text_19">
      <!-- $\mathdefault{0.5}$ -->
      <g transform="translate(430.832643 238.413655) scale(0.1 -0.1)">
       <use xlink:href="#CMR17-30" transform="scale(0.996264)"/>
       <use xlink:href="#CMMI12-3a" transform="translate(45.690477 0) scale(0.996264)"/>
       <use xlink:href="#CMR17-35" transform="translate(72.787654 0) scale(0.996264)"/>
      </g>
     </g>
    </g>
    <g id="xtick_11">
     <g id="line2d_73">
      <path d="M 473.998609 224.315334 
L 473.998609 23.137648 
" clip-path="url(#p7ebcdfcd4c)" style="fill: none; stroke-dasharray: 0.185,0.08; stroke-dashoffset: 0; stroke: #808080; stroke-width: 0.05"/>
     </g>
     <g id="line2d_74">
      <g>
       <use xlink:href="#m67ef635cf8" x="473.998609" y="224.315334" style="stroke: #000000; stroke-width: 0.8"/>
      </g>
     </g>
     <g id="text_20">
      <!-- $\mathdefault{1.0}$ -->
      <g transform="translate(467.63357 238.413655) scale(0.1 -0.1)">
       <use xlink:href="#CMR17-31" transform="scale(0.996264)"/>
       <use xlink:href="#CMMI12-3a" transform="translate(45.690477 0) scale(0.996264)"/>
       <use xlink:href="#CMR17-30" transform="translate(72.787654 0) scale(0.996264)"/>
      </g>
     </g>
    </g>
    <g id="xtick_12">
     <g id="line2d_75">
      <path d="M 510.799536 224.315334 
L 510.799536 23.137648 
" clip-path="url(#p7ebcdfcd4c)" style="fill: none; stroke-dasharray: 0.185,0.08; stroke-dashoffset: 0; stroke: #808080; stroke-width: 0.05"/>
     </g>
     <g id="line2d_76">
      <g>
       <use xlink:href="#m67ef635cf8" x="510.799536" y="224.315334" style="stroke: #000000; stroke-width: 0.8"/>
      </g>
     </g>
     <g id="text_21">
      <!-- $\mathdefault{1.5}$ -->
      <g transform="translate(504.434497 238.413655) scale(0.1 -0.1)">
       <use xlink:href="#CMR17-31" transform="scale(0.996264)"/>
       <use xlink:href="#CMMI12-3a" transform="translate(45.690477 0) scale(0.996264)"/>
       <use xlink:href="#CMR17-35" transform="translate(72.787654 0) scale(0.996264)"/>
      </g>
     </g>
    </g>
    <g id="text_22">
     <!-- $x$ -->
     <g transform="translate(415.471175 253.053625) scale(0.12 -0.12)">
      <use xlink:href="#CMMI12-78" transform="scale(0.996264)"/>
     </g>
    </g>
   </g>
   <g id="matplotlib.axis_4">
    <g id="ytick_7">
     <g id="line2d_77">
      <path d="M 308.394438 224.315334 
L 529.2 224.315334 
" clip-path="url(#p7ebcdfcd4c)" style="fill: none; stroke-dasharray: 0.185,0.08; stroke-dashoffset: 0; stroke: #808080; stroke-width: 0.05"/>
     </g>
     <g id="line2d_78">
      <g>
       <use xlink:href="#me35397eb55" x="308.394438" y="224.315334" style="stroke: #000000; stroke-width: 0.8"/>
      </g>
     </g>
     <g id="text_23">
      <!-- $\mathdefault{0.0}$ -->
      <g transform="translate(288.664359 227.864495) scale(0.1 -0.1)">
       <use xlink:href="#CMR17-30" transform="scale(0.996264)"/>
       <use xlink:href="#CMMI12-3a" transform="translate(45.690477 0) scale(0.996264)"/>
       <use xlink:href="#CMR17-30" transform="translate(72.787654 0) scale(0.996264)"/>
      </g>
     </g>
    </g>
    <g id="ytick_8">
     <g id="line2d_79">
      <path d="M 308.394438 184.079797 
L 529.2 184.079797 
" clip-path="url(#p7ebcdfcd4c)" style="fill: none; stroke-dasharray: 0.185,0.08; stroke-dashoffset: 0; stroke: #808080; stroke-width: 0.05"/>
     </g>
     <g id="line2d_80">
      <g>
       <use xlink:href="#me35397eb55" x="308.394438" y="184.079797" style="stroke: #000000; stroke-width: 0.8"/>
      </g>
     </g>
     <g id="text_24">
      <!-- $\mathdefault{0.2}$ -->
      <g transform="translate(288.664359 187.628957) scale(0.1 -0.1)">
       <use xlink:href="#CMR17-30" transform="scale(0.996264)"/>
       <use xlink:href="#CMMI12-3a" transform="translate(45.690477 0) scale(0.996264)"/>
       <use xlink:href="#CMR17-32" transform="translate(72.787654 0) scale(0.996264)"/>
      </g>
     </g>
    </g>
    <g id="ytick_9">
     <g id="line2d_81">
      <path d="M 308.394438 143.84426 
L 529.2 143.84426 
" clip-path="url(#p7ebcdfcd4c)" style="fill: none; stroke-dasharray: 0.185,0.08; stroke-dashoffset: 0; stroke: #808080; stroke-width: 0.05"/>
     </g>
     <g id="line2d_82">
      <g>
       <use xlink:href="#me35397eb55" x="308.394438" y="143.84426" style="stroke: #000000; stroke-width: 0.8"/>
      </g>
     </g>
     <g id="text_25">
      <!-- $\mathdefault{0.4}$ -->
      <g transform="translate(288.664359 147.39342) scale(0.1 -0.1)">
       <use xlink:href="#CMR17-30" transform="scale(0.996264)"/>
       <use xlink:href="#CMMI12-3a" transform="translate(45.690477 0) scale(0.996264)"/>
       <use xlink:href="#CMR17-34" transform="translate(72.787654 0) scale(0.996264)"/>
      </g>
     </g>
    </g>
    <g id="ytick_10">
     <g id="line2d_83">
      <path d="M 308.394438 103.608723 
L 529.2 103.608723 
" clip-path="url(#p7ebcdfcd4c)" style="fill: none; stroke-dasharray: 0.185,0.08; stroke-dashoffset: 0; stroke: #808080; stroke-width: 0.05"/>
     </g>
     <g id="line2d_84">
      <g>
       <use xlink:href="#me35397eb55" x="308.394438" y="103.608723" style="stroke: #000000; stroke-width: 0.8"/>
      </g>
     </g>
     <g id="text_26">
      <!-- $\mathdefault{0.6}$ -->
      <g transform="translate(288.664359 107.157883) scale(0.1 -0.1)">
       <defs>
        <path id="CMR17-36" d="M 678 2176 
C 678 3690 1395 4032 1811 4032 
C 1946 4032 2272 4009 2400 3776 
C 2298 3776 2106 3776 2106 3553 
C 2106 3381 2246 3323 2336 3323 
C 2394 3323 2566 3348 2566 3560 
C 2566 3954 2246 4179 1805 4179 
C 1043 4179 243 3390 243 1984 
C 243 253 966 -128 1478 -128 
C 2099 -128 2688 427 2688 1283 
C 2688 2081 2170 2662 1517 2662 
C 1126 2662 838 2407 678 1960 
L 678 2176 
z
M 1478 25 
C 691 25 691 1200 691 1436 
C 691 1896 909 2560 1504 2560 
C 1613 2560 1926 2560 2138 2120 
C 2253 1870 2253 1609 2253 1289 
C 2253 944 2253 690 2118 434 
C 1978 171 1773 25 1478 25 
z
" transform="scale(0.015625)"/>
       </defs>
       <use xlink:href="#CMR17-30" transform="scale(0.996264)"/>
       <use xlink:href="#CMMI12-3a" transform="translate(45.690477 0) scale(0.996264)"/>
       <use xlink:href="#CMR17-36" transform="translate(72.787654 0) scale(0.996264)"/>
      </g>
     </g>
    </g>
    <g id="ytick_11">
     <g id="line2d_85">
      <path d="M 308.394438 63.373186 
L 529.2 63.373186 
" clip-path="url(#p7ebcdfcd4c)" style="fill: none; stroke-dasharray: 0.185,0.08; stroke-dashoffset: 0; stroke: #808080; stroke-width: 0.05"/>
     </g>
     <g id="line2d_86">
      <g>
       <use xlink:href="#me35397eb55" x="308.394438" y="63.373186" style="stroke: #000000; stroke-width: 0.8"/>
      </g>
     </g>
     <g id="text_27">
      <!-- $\mathdefault{0.8}$ -->
      <g transform="translate(288.664359 66.922346) scale(0.1 -0.1)">
       <defs>
        <path id="CMR17-38" d="M 1741 2264 
C 2144 2467 2554 2773 2554 3263 
C 2554 3841 1990 4179 1472 4179 
C 890 4179 378 3759 378 3180 
C 378 3021 416 2747 666 2505 
C 730 2442 998 2251 1171 2130 
C 883 1983 211 1634 211 934 
C 211 279 838 -128 1459 -128 
C 2144 -128 2720 362 2720 1010 
C 2720 1590 2330 1857 2074 2029 
L 1741 2264 
z
M 902 2822 
C 851 2854 595 3051 595 3351 
C 595 3739 998 4032 1459 4032 
C 1965 4032 2336 3676 2336 3262 
C 2336 2669 1670 2331 1638 2331 
C 1632 2331 1626 2331 1574 2370 
L 902 2822 
z
M 2080 1519 
C 2176 1449 2483 1240 2483 851 
C 2483 381 2010 25 1472 25 
C 890 25 448 438 448 940 
C 448 1443 838 1862 1280 2060 
L 2080 1519 
z
" transform="scale(0.015625)"/>
       </defs>
       <use xlink:href="#CMR17-30" transform="scale(0.996264)"/>
       <use xlink:href="#CMMI12-3a" transform="translate(45.690477 0) scale(0.996264)"/>
       <use xlink:href="#CMR17-38" transform="translate(72.787654 0) scale(0.996264)"/>
      </g>
     </g>
    </g>
    <g id="ytick_12">
     <g id="line2d_87">
      <path d="M 308.394438 23.137648 
L 529.2 23.137648 
" clip-path="url(#p7ebcdfcd4c)" style="fill: none; stroke-dasharray: 0.185,0.08; stroke-dashoffset: 0; stroke: #808080; stroke-width: 0.05"/>
     </g>
     <g id="line2d_88">
      <g>
       <use xlink:href="#me35397eb55" x="308.394438" y="23.137648" style="stroke: #000000; stroke-width: 0.8"/>
      </g>
     </g>
     <g id="text_28">
      <!-- $\mathdefault{1.0}$ -->
      <g transform="translate(288.664359 26.686809) scale(0.1 -0.1)">
       <use xlink:href="#CMR17-31" transform="scale(0.996264)"/>
       <use xlink:href="#CMMI12-3a" transform="translate(45.690477 0) scale(0.996264)"/>
       <use xlink:href="#CMR17-30" transform="translate(72.787654 0) scale(0.996264)"/>
      </g>
     </g>
    </g>
    <g id="text_29">
     <!-- $\rho$ -->
     <g transform="translate(282.117984 126.745353) rotate(-90) scale(0.12 -0.12)">
      <defs>
       <path id="CMMI12-1a" d="M 198 -1107 
C 192 -1139 179 -1177 179 -1216 
C 179 -1312 256 -1376 352 -1376 
C 448 -1376 538 -1312 576 -1222 
C 602 -1164 781 -397 986 390 
C 1114 70 1350 -64 1600 -64 
C 2323 -64 3142 830 3142 1795 
C 3142 2478 2726 2816 2285 2816 
C 1722 2816 1037 2235 826 1385 
L 198 -1107 
z
M 1594 64 
C 1158 64 1050 569 1050 645 
C 1050 684 1210 1295 1229 1391 
C 1555 2670 2182 2670 2278 2670 
C 2566 2670 2726 2410 2726 2036 
C 2726 1712 2554 1084 2445 819 
C 2253 381 1920 64 1594 64 
z
" transform="scale(0.015625)"/>
      </defs>
      <use xlink:href="#CMMI12-1a" transform="scale(0.996264)"/>
     </g>
    </g>
   </g>
   <g id="line2d_89">
    <path d="M 337.835179 143.84426 
L 396.249349 143.84426 
L 397.049623 63.373186 
L 462.728326 63.373186 
L 463.30334 65.259226 
L 492.399073 224.315334 
L 492.399073 224.315334 
" clip-path="url(#p7ebcdfcd4c)" style="fill: none; stroke: #000000; stroke-width: 1.5; stroke-linecap: square"/>
   </g>
   <g id="patch_8">
    <path d="M 308.394438 224.315334 
L 308.394438 23.137648 
" style="fill: none; stroke: #000000; stroke-width: 0.8; stroke-linejoin: miter; stroke-linecap: square"/>
   </g>
   <g id="patch_9">
    <path d="M 529.2 224.315334 
L 529.2 23.137648 
" style="fill: none; stroke: #000000; stroke-width: 0.8; stroke-linejoin: miter; stroke-linecap: square"/>
   </g>
   <g id="patch_10">
    <path d="M 308.394438 224.315334 
L 529.2 224.315334 
" style="fill: none; stroke: #000000; stroke-width: 0.8; stroke-linejoin: miter; stroke-linecap: square"/>
   </g>
   <g id="patch_11">
    <path d="M 308.394438 23.137648 
L 529.2 23.137648 
" style="fill: none; stroke: #000000; stroke-width: 0.8; stroke-linejoin: miter; stroke-linecap: square"/>
   </g>
   <g id="text_30">
    <!-- $Density\ at\ t=0.25$ -->
    <g transform="translate(360.386992 17.137648) scale(0.14 -0.14)">
     <defs>
      <path id="CMMI12-44" d="M 1005 472 
C 947 249 934 185 486 185 
C 365 185 301 185 301 70 
C 301 0 339 0 467 0 
L 2496 0 
C 3789 0 5050 1332 5050 2753 
C 5050 3671 4499 4352 3584 4352 
L 1530 4352 
C 1408 4352 1350 4352 1350 4231 
C 1350 4167 1408 4167 1504 4167 
C 1894 4167 1894 4116 1894 4046 
C 1894 4034 1894 3995 1869 3899 
L 1005 472 
z
M 2355 3931 
C 2413 4167 2438 4167 2688 4167 
L 3392 4167 
C 3994 4167 4544 3842 4544 2963 
C 4544 2644 4416 1536 3795 835 
C 3616 625 3130 185 2394 185 
L 1664 185 
C 1574 185 1562 185 1523 192 
C 1453 198 1446 211 1446 262 
C 1446 307 1459 345 1472 402 
L 2355 3931 
z
" transform="scale(0.015625)"/>
      <path id="CMMI12-79" d="M 1683 -700 
C 1510 -939 1261 -1152 947 -1152 
C 870 -1152 563 -1152 467 -889 
C 486 -895 518 -895 531 -895 
C 723 -895 851 -729 851 -582 
C 851 -435 730 -384 634 -384 
C 531 -384 307 -458 307 -759 
C 307 -1071 582 -1286 947 -1286 
C 1587 -1286 2234 -700 2413 6 
L 3040 2485 
C 3046 2517 3059 2556 3059 2594 
C 3059 2689 2982 2753 2886 2753 
C 2829 2753 2694 2727 2643 2535 
L 2170 658 
C 2138 543 2138 530 2086 460 
C 1958 281 1747 64 1440 64 
C 1082 64 1050 415 1050 588 
C 1050 952 1222 1443 1395 1903 
C 1466 2088 1504 2178 1504 2305 
C 1504 2574 1312 2816 998 2816 
C 410 2816 173 1890 173 1839 
C 173 1814 198 1782 243 1782 
C 301 1782 307 1807 333 1897 
C 486 2433 730 2689 979 2689 
C 1037 2689 1146 2689 1146 2478 
C 1146 2312 1075 2127 979 1884 
C 666 1047 666 837 666 683 
C 666 77 1101 -64 1421 -64 
C 1606 -64 1837 -6 2061 230 
L 2067 224 
C 1971 -147 1907 -392 1683 -700 
z
" transform="scale(0.015625)"/>
      <path id="CMR17-3d" d="M 4115 2017 
C 4211 2017 4307 2017 4307 2125 
C 4307 2240 4198 2240 4090 2240 
L 512 2240 
C 403 2240 294 2240 294 2125 
C 294 2017 390 2017 486 2017 
L 4115 2017 
z
M 4090 896 
C 4198 896 4307 896 4307 1011 
C 4307 1119 4211 1119 4115 1119 
L 486 1119 
C 390 1119 294 1119 294 1011 
C 294 896 403 896 512 896 
L 4090 896 
z
" transform="scale(0.015625)"/>
     </defs>
     <use xlink:href="#CMMI12-44" transform="scale(0.996264)"/>
     <use xlink:href="#CMMI12-65" transform="translate(83.703948 0) scale(0.996264)"/>
     <use xlink:href="#CMMI12-6e" transform="translate(128.915949 0) scale(0.996264)"/>
     <use xlink:href="#CMMI12-73" transform="translate(187.145996 0) scale(0.996264)"/>
     <use xlink:href="#CMMI12-69" transform="translate(233.096044 0) scale(0.996264)"/>
     <use xlink:href="#CMMI12-74" transform="translate(266.374645 0) scale(0.996264)"/>
     <use xlink:href="#CMMI12-79" transform="translate(301.600976 0) scale(0.996264)"/>
     <use xlink:href="#CMMI12-61" transform="translate(380.434926 0) scale(0.996264)"/>
     <use xlink:href="#CMMI12-74" transform="translate(431.642784 0) scale(0.996264)"/>
     <use xlink:href="#CMMI12-74" transform="translate(494.564283 0) scale(0.996264)"/>
     <use xlink:href="#CMR17-3d" transform="translate(557.464622 0) scale(0.996264)"/>
     <use xlink:href="#CMR17-30" transform="translate(656.85342 0) scale(0.996264)"/>
     <use xlink:href="#CMMI12-3a" transform="translate(702.543897 0) scale(0.996264)"/>
     <use xlink:href="#CMR17-32" transform="translate(729.641074 0) scale(0.996264)"/>
     <use xlink:href="#CMR17-35" transform="translate(775.331551 0) scale(0.996264)"/>
    </g>
   </g>
  </g>
  <g id="axes_3">
   <g id="patch_12">
    <path d="M 574.794438 224.315334 
L 795.6 224.315334 
L 795.6 23.137648 
L 574.794438 23.137648 
z
" style="fill: #ffffff"/>
   </g>
   <g id="matplotlib.axis_5">
    <g id="xtick_13">
     <g id="line2d_90">
      <g>
       <use xlink:href="#m67ef635cf8" x="593.194901" y="224.315334" style="stroke: #000000; stroke-width: 0.8"/>
      </g>
     </g>
     <g id="text_31">
      <!-- $\mathdefault{−1.0}$ -->
      <g transform="translate(582.95549 238.413655) scale(0.1 -0.1)">
       <use xlink:href="#CMSY10-0" transform="scale(0.996264)"/>
       <use xlink:href="#CMR17-31" transform="translate(77.487468 0) scale(0.996264)"/>
       <use xlink:href="#CMMI12-3a" transform="translate(123.177945 0) scale(0.996264)"/>
       <use xlink:href="#CMR17-30" transform="translate(150.275122 0) scale(0.996264)"/>
      </g>
     </g>
    </g>
    <g id="xtick_14">
     <g id="line2d_91">
      <g>
       <use xlink:href="#m67ef635cf8" x="629.995828" y="224.315334" style="stroke: #000000; stroke-width: 0.8"/>
      </g>
     </g>
     <g id="text_32">
      <!-- $\mathdefault{−0.5}$ -->
      <g transform="translate(619.756417 238.413655) scale(0.1 -0.1)">
       <use xlink:href="#CMSY10-0" transform="scale(0.996264)"/>
       <use xlink:href="#CMR17-30" transform="translate(77.487468 0) scale(0.996264)"/>
       <use xlink:href="#CMMI12-3a" transform="translate(123.177945 0) scale(0.996264)"/>
       <use xlink:href="#CMR17-35" transform="translate(150.275122 0) scale(0.996264)"/>
      </g>
     </g>
    </g>
    <g id="xtick_15">
     <g id="line2d_92">
      <g>
       <use xlink:href="#m67ef635cf8" x="666.796755" y="224.315334" style="stroke: #000000; stroke-width: 0.8"/>
      </g>
     </g>
     <g id="text_33">
      <!-- $\mathdefault{0.0}$ -->
      <g transform="translate(660.431716 238.413655) scale(0.1 -0.1)">
       <use xlink:href="#CMR17-30" transform="scale(0.996264)"/>
       <use xlink:href="#CMMI12-3a" transform="translate(45.690477 0) scale(0.996264)"/>
       <use xlink:href="#CMR17-30" transform="translate(72.787654 0) scale(0.996264)"/>
      </g>
     </g>
    </g>
    <g id="xtick_16">
     <g id="line2d_93">
      <g>
       <use xlink:href="#m67ef635cf8" x="703.597682" y="224.315334" style="stroke: #000000; stroke-width: 0.8"/>
      </g>
     </g>
     <g id="text_34">
      <!-- $\mathdefault{0.5}$ -->
      <g transform="translate(697.232643 238.413655) scale(0.1 -0.1)">
       <use xlink:href="#CMR17-30" transform="scale(0.996264)"/>
       <use xlink:href="#CMMI12-3a" transform="translate(45.690477 0) scale(0.996264)"/>
       <use xlink:href="#CMR17-35" transform="translate(72.787654 0) scale(0.996264)"/>
      </g>
     </g>
    </g>
    <g id="xtick_17">
     <g id="line2d_94">
      <g>
       <use xlink:href="#m67ef635cf8" x="740.398609" y="224.315334" style="stroke: #000000; stroke-width: 0.8"/>
      </g>
     </g>
     <g id="text_35">
      <!-- $\mathdefault{1.0}$ -->
      <g transform="translate(734.03357 238.413655) scale(0.1 -0.1)">
       <use xlink:href="#CMR17-31" transform="scale(0.996264)"/>
       <use xlink:href="#CMMI12-3a" transform="translate(45.690477 0) scale(0.996264)"/>
       <use xlink:href="#CMR17-30" transform="translate(72.787654 0) scale(0.996264)"/>
      </g>
     </g>
    </g>
    <g id="xtick_18">
     <g id="line2d_95">
      <g>
       <use xlink:href="#m67ef635cf8" x="777.199536" y="224.315334" style="stroke: #000000; stroke-width: 0.8"/>
      </g>
     </g>
     <g id="text_36">
      <!-- $\mathdefault{1.5}$ -->
      <g transform="translate(770.834497 238.413655) scale(0.1 -0.1)">
       <use xlink:href="#CMR17-31" transform="scale(0.996264)"/>
       <use xlink:href="#CMMI12-3a" transform="translate(45.690477 0) scale(0.996264)"/>
       <use xlink:href="#CMR17-35" transform="translate(72.787654 0) scale(0.996264)"/>
      </g>
     </g>
    </g>
    <g id="text_37">
     <!-- $x$ -->
     <g transform="translate(681.871175 253.053625) scale(0.12 -0.12)">
      <use xlink:href="#CMMI12-78" transform="scale(0.996264)"/>
     </g>
    </g>
   </g>
   <g id="matplotlib.axis_6">
    <g id="ytick_13">
     <g id="line2d_96">
      <g>
       <use xlink:href="#me35397eb55" x="574.794438" y="224.315334" style="stroke: #000000; stroke-width: 0.8"/>
      </g>
     </g>
     <g id="text_38">
      <!-- $\mathdefault{0.0}$ -->
      <g transform="translate(555.064359 227.864495) scale(0.1 -0.1)">
       <use xlink:href="#CMR17-30" transform="scale(0.996264)"/>
       <use xlink:href="#CMMI12-3a" transform="translate(45.690477 0) scale(0.996264)"/>
       <use xlink:href="#CMR17-30" transform="translate(72.787654 0) scale(0.996264)"/>
      </g>
     </g>
    </g>
    <g id="ytick_14">
     <g id="line2d_97">
      <g>
       <use xlink:href="#me35397eb55" x="574.794438" y="184.079797" style="stroke: #000000; stroke-width: 0.8"/>
      </g>
     </g>
     <g id="text_39">
      <!-- $\mathdefault{0.1}$ -->
      <g transform="translate(555.064359 187.628957) scale(0.1 -0.1)">
       <use xlink:href="#CMR17-30" transform="scale(0.996264)"/>
       <use xlink:href="#CMMI12-3a" transform="translate(45.690477 0) scale(0.996264)"/>
       <use xlink:href="#CMR17-31" transform="translate(72.787654 0) scale(0.996264)"/>
      </g>
     </g>
    </g>
    <g id="ytick_15">
     <g id="line2d_98">
      <g>
       <use xlink:href="#me35397eb55" x="574.794438" y="143.84426" style="stroke: #000000; stroke-width: 0.8"/>
      </g>
     </g>
     <g id="text_40">
      <!-- $\mathdefault{0.2}$ -->
      <g transform="translate(555.064359 147.39342) scale(0.1 -0.1)">
       <use xlink:href="#CMR17-30" transform="scale(0.996264)"/>
       <use xlink:href="#CMMI12-3a" transform="translate(45.690477 0) scale(0.996264)"/>
       <use xlink:href="#CMR17-32" transform="translate(72.787654 0) scale(0.996264)"/>
      </g>
     </g>
    </g>
    <g id="ytick_16">
     <g id="line2d_99">
      <g>
       <use xlink:href="#me35397eb55" x="574.794438" y="103.608723" style="stroke: #000000; stroke-width: 0.8"/>
      </g>
     </g>
     <g id="text_41">
      <!-- $\mathdefault{0.3}$ -->
      <g transform="translate(555.064359 107.157883) scale(0.1 -0.1)">
       <use xlink:href="#CMR17-30" transform="scale(0.996264)"/>
       <use xlink:href="#CMMI12-3a" transform="translate(45.690477 0) scale(0.996264)"/>
       <use xlink:href="#CMR17-33" transform="translate(72.787654 0) scale(0.996264)"/>
      </g>
     </g>
    </g>
    <g id="ytick_17">
     <g id="line2d_100">
      <g>
       <use xlink:href="#me35397eb55" x="574.794438" y="63.373186" style="stroke: #000000; stroke-width: 0.8"/>
      </g>
     </g>
     <g id="text_42">
      <!-- $\mathdefault{0.4}$ -->
      <g transform="translate(555.064359 66.922346) scale(0.1 -0.1)">
       <use xlink:href="#CMR17-30" transform="scale(0.996264)"/>
       <use xlink:href="#CMMI12-3a" transform="translate(45.690477 0) scale(0.996264)"/>
       <use xlink:href="#CMR17-34" transform="translate(72.787654 0) scale(0.996264)"/>
      </g>
     </g>
    </g>
    <g id="ytick_18">
     <g id="line2d_101">
      <g>
       <use xlink:href="#me35397eb55" x="574.794438" y="23.137648" style="stroke: #000000; stroke-width: 0.8"/>
      </g>
     </g>
     <g id="text_43">
      <!-- $\mathdefault{0.5}$ -->
      <g transform="translate(555.064359 26.686809) scale(0.1 -0.1)">
       <use xlink:href="#CMR17-30" transform="scale(0.996264)"/>
       <use xlink:href="#CMMI12-3a" transform="translate(45.690477 0) scale(0.996264)"/>
       <use xlink:href="#CMR17-35" transform="translate(72.787654 0) scale(0.996264)"/>
      </g>
     </g>
    </g>
    <g id="text_44">
     <!-- $t$ -->
     <g transform="translate(548.517984 125.840071) rotate(-90) scale(0.12 -0.12)">
      <use xlink:href="#CMMI12-74" transform="scale(0.996264)"/>
     </g>
    </g>
   </g>
   <g id="line2d_102">
    <path d="M 593.194901 224.315334 
L 615.275458 23.137648 
L 615.275458 23.137648 
" clip-path="url(#pbc6f07fc2d)" style="fill: none; stroke: #000000; stroke-opacity: 0.5; stroke-width: 0.75; stroke-linecap: square"/>
   </g>
   <g id="line2d_103">
    <path d="M 598.856582 224.315334 
L 620.937139 23.137648 
L 620.937139 23.137648 
" clip-path="url(#pbc6f07fc2d)" style="fill: none; stroke: #000000; stroke-opacity: 0.5; stroke-width: 0.75; stroke-linecap: square"/>
   </g>
   <g id="line2d_104">
    <path d="M 604.518264 224.315334 
L 626.59882 23.137648 
L 626.59882 23.137648 
" clip-path="url(#pbc6f07fc2d)" style="fill: none; stroke: #000000; stroke-opacity: 0.5; stroke-width: 0.75; stroke-linecap: square"/>
   </g>
   <g id="line2d_105">
    <path d="M 610.179945 224.315334 
L 632.260501 23.137648 
L 632.260501 23.137648 
" clip-path="url(#pbc6f07fc2d)" style="fill: none; stroke: #000000; stroke-opacity: 0.5; stroke-width: 0.75; stroke-linecap: square"/>
   </g>
   <g id="line2d_106">
    <path d="M 615.841626 224.315334 
L 637.922182 23.137648 
L 637.922182 23.137648 
" clip-path="url(#pbc6f07fc2d)" style="fill: none; stroke: #000000; stroke-opacity: 0.5; stroke-width: 0.75; stroke-linecap: square"/>
   </g>
   <g id="line2d_107">
    <path d="M 621.503307 224.315334 
L 643.583863 23.137648 
L 643.583863 23.137648 
" clip-path="url(#pbc6f07fc2d)" style="fill: none; stroke: #000000; stroke-opacity: 0.5; stroke-width: 0.75; stroke-linecap: square"/>
   </g>
   <g id="line2d_108">
    <path d="M 627.164988 224.315334 
L 649.245544 23.137648 
L 649.245544 23.137648 
" clip-path="url(#pbc6f07fc2d)" style="fill: none; stroke: #000000; stroke-opacity: 0.5; stroke-width: 0.75; stroke-linecap: square"/>
   </g>
   <g id="line2d_109">
    <path d="M 632.826669 224.315334 
L 654.907225 23.137648 
L 654.907225 23.137648 
" clip-path="url(#pbc6f07fc2d)" style="fill: none; stroke: #000000; stroke-opacity: 0.5; stroke-width: 0.75; stroke-linecap: square"/>
   </g>
   <g id="line2d_110">
    <path d="M 638.48835 224.315334 
L 659.722485 30.178867 
L 659.980091 23.137648 
L 659.980091 23.137648 
" clip-path="url(#pbc6f07fc2d)" style="fill: none; stroke: #000000; stroke-opacity: 0.5; stroke-width: 0.75; stroke-linecap: square"/>
   </g>
   <g id="line2d_111">
    <path d="M 644.150031 224.315334 
L 661.078458 69.408516 
L 662.7713 23.137648 
L 662.7713 23.137648 
" clip-path="url(#pbc6f07fc2d)" style="fill: none; stroke: #000000; stroke-opacity: 0.5; stroke-width: 0.75; stroke-linecap: square"/>
   </g>
   <g id="line2d_112">
    <path d="M 649.811712 224.315334 
L 662.544833 107.632277 
L 665.636111 23.137648 
L 665.636111 23.137648 
" clip-path="url(#pbc6f07fc2d)" style="fill: none; stroke: #000000; stroke-opacity: 0.5; stroke-width: 0.75; stroke-linecap: square"/>
   </g>
   <g id="line2d_113">
    <path d="M 655.473393 224.315334 
L 663.900806 146.861925 
L 668.42732 23.137648 
L 668.42732 23.137648 
" clip-path="url(#pbc6f07fc2d)" style="fill: none; stroke: #000000; stroke-opacity: 0.5; stroke-width: 0.75; stroke-linecap: square"/>
   </g>
   <g id="line2d_114">
    <path d="M 661.135074 224.315334 
L 665.367181 185.085686 
L 671.29213 23.137648 
L 671.29213 23.137648 
" clip-path="url(#pbc6f07fc2d)" style="fill: none; stroke: #000000; stroke-opacity: 0.5; stroke-width: 0.75; stroke-linecap: square"/>
   </g>
   <g id="line2d_115">
    <path d="M 666.796755 224.315334 
L 674.156941 23.137648 
L 674.156941 23.137648 
" clip-path="url(#pbc6f07fc2d)" style="fill: none; stroke: #000000; stroke-opacity: 0.5; stroke-width: 0.75; stroke-linecap: square"/>
   </g>
   <g id="line2d_116">
    <path d="M 669.425393 224.315334 
L 676.785578 23.137648 
L 676.785578 23.137648 
" clip-path="url(#pbc6f07fc2d)" style="fill: none; stroke: #000000; stroke-opacity: 0.5; stroke-width: 0.75; stroke-linecap: square"/>
   </g>
   <g id="line2d_117">
    <path d="M 672.054031 224.315334 
L 679.414216 23.137648 
L 679.414216 23.137648 
" clip-path="url(#pbc6f07fc2d)" style="fill: none; stroke: #000000; stroke-opacity: 0.5; stroke-width: 0.75; stroke-linecap: square"/>
   </g>
   <g id="line2d_118">
    <path d="M 674.682668 224.315334 
L 682.042854 23.137648 
L 682.042854 23.137648 
" clip-path="url(#pbc6f07fc2d)" style="fill: none; stroke: #000000; stroke-opacity: 0.5; stroke-width: 0.75; stroke-linecap: square"/>
   </g>
   <g id="line2d_119">
    <path d="M 677.311306 224.315334 
L 684.671491 23.137648 
L 684.671491 23.137648 
" clip-path="url(#pbc6f07fc2d)" style="fill: none; stroke: #000000; stroke-opacity: 0.5; stroke-width: 0.75; stroke-linecap: square"/>
   </g>
   <g id="line2d_120">
    <path d="M 679.939944 224.315334 
L 687.300129 23.137648 
L 687.300129 23.137648 
" clip-path="url(#pbc6f07fc2d)" style="fill: none; stroke: #000000; stroke-opacity: 0.5; stroke-width: 0.75; stroke-linecap: square"/>
   </g>
   <g id="line2d_121">
    <path d="M 682.568581 224.315334 
L 689.928767 23.137648 
L 689.928767 23.137648 
" clip-path="url(#pbc6f07fc2d)" style="fill: none; stroke: #000000; stroke-opacity: 0.5; stroke-width: 0.75; stroke-linecap: square"/>
   </g>
   <g id="line2d_122">
    <path d="M 685.197219 224.315334 
L 692.557404 23.137648 
L 692.557404 23.137648 
" clip-path="url(#pbc6f07fc2d)" style="fill: none; stroke: #000000; stroke-opacity: 0.5; stroke-width: 0.75; stroke-linecap: square"/>
   </g>
   <g id="line2d_123">
    <path d="M 687.825857 224.315334 
L 695.186042 23.137648 
L 695.186042 23.137648 
" clip-path="url(#pbc6f07fc2d)" style="fill: none; stroke: #000000; stroke-opacity: 0.5; stroke-width: 0.75; stroke-linecap: square"/>
   </g>
   <g id="line2d_124">
    <path d="M 690.454494 224.315334 
L 697.81468 23.137648 
L 697.81468 23.137648 
" clip-path="url(#pbc6f07fc2d)" style="fill: none; stroke: #000000; stroke-opacity: 0.5; stroke-width: 0.75; stroke-linecap: square"/>
   </g>
   <g id="line2d_125">
    <path d="M 693.083132 224.315334 
L 700.443317 23.137648 
L 700.443317 23.137648 
" clip-path="url(#pbc6f07fc2d)" style="fill: none; stroke: #000000; stroke-opacity: 0.5; stroke-width: 0.75; stroke-linecap: square"/>
   </g>
   <g id="line2d_126">
    <path d="M 695.71177 224.315334 
L 703.071955 23.137648 
L 703.071955 23.137648 
" clip-path="url(#pbc6f07fc2d)" style="fill: none; stroke: #000000; stroke-opacity: 0.5; stroke-width: 0.75; stroke-linecap: square"/>
   </g>
   <g id="line2d_127">
    <path d="M 698.340407 224.315334 
L 705.700593 23.137648 
L 705.700593 23.137648 
" clip-path="url(#pbc6f07fc2d)" style="fill: none; stroke: #000000; stroke-opacity: 0.5; stroke-width: 0.75; stroke-linecap: square"/>
   </g>
   <g id="line2d_128">
    <path d="M 700.969045 224.315334 
L 708.32923 23.137648 
L 708.32923 23.137648 
" clip-path="url(#pbc6f07fc2d)" style="fill: none; stroke: #000000; stroke-opacity: 0.5; stroke-width: 0.75; stroke-linecap: square"/>
   </g>
   <g id="line2d_129">
    <path d="M 703.597682 224.315334 
L 710.957868 23.137648 
L 710.957868 23.137648 
" clip-path="url(#pbc6f07fc2d)" style="fill: none; stroke: #000000; stroke-opacity: 0.5; stroke-width: 0.75; stroke-linecap: square"/>
   </g>
   <g id="line2d_130">
    <path d="M 706.22632 224.315334 
L 713.586505 23.137648 
L 713.586505 23.137648 
" clip-path="url(#pbc6f07fc2d)" style="fill: none; stroke: #000000; stroke-opacity: 0.5; stroke-width: 0.75; stroke-linecap: square"/>
   </g>
   <g id="line2d_131">
    <path d="M 708.854958 224.315334 
L 716.215143 23.137648 
L 716.215143 23.137648 
" clip-path="url(#pbc6f07fc2d)" style="fill: none; stroke: #000000; stroke-opacity: 0.5; stroke-width: 0.75; stroke-linecap: square"/>
   </g>
   <g id="line2d_132">
    <path d="M 711.483595 224.315334 
L 718.843781 23.137648 
L 718.843781 23.137648 
" clip-path="url(#pbc6f07fc2d)" style="fill: none; stroke: #000000; stroke-opacity: 0.5; stroke-width: 0.75; stroke-linecap: square"/>
   </g>
   <g id="line2d_133">
    <path d="M 714.112233 224.315334 
L 721.472418 23.137648 
L 721.472418 23.137648 
" clip-path="url(#pbc6f07fc2d)" style="fill: none; stroke: #000000; stroke-opacity: 0.5; stroke-width: 0.75; stroke-linecap: square"/>
   </g>
   <g id="line2d_134">
    <path d="M 716.740871 224.315334 
L 724.101056 23.137648 
L 724.101056 23.137648 
" clip-path="url(#pbc6f07fc2d)" style="fill: none; stroke: #000000; stroke-opacity: 0.5; stroke-width: 0.75; stroke-linecap: square"/>
   </g>
   <g id="line2d_135">
    <path d="M 719.369508 224.315334 
L 726.729694 23.137648 
L 726.729694 23.137648 
" clip-path="url(#pbc6f07fc2d)" style="fill: none; stroke: #000000; stroke-opacity: 0.5; stroke-width: 0.75; stroke-linecap: square"/>
   </g>
   <g id="line2d_136">
    <path d="M 721.998146 224.315334 
L 729.358331 23.137648 
L 729.358331 23.137648 
" clip-path="url(#pbc6f07fc2d)" style="fill: none; stroke: #000000; stroke-opacity: 0.5; stroke-width: 0.75; stroke-linecap: square"/>
   </g>
   <g id="line2d_137">
    <path d="M 724.626784 224.315334 
L 731.986969 23.137648 
L 731.986969 23.137648 
" clip-path="url(#pbc6f07fc2d)" style="fill: none; stroke: #000000; stroke-opacity: 0.5; stroke-width: 0.75; stroke-linecap: square"/>
   </g>
   <g id="line2d_138">
    <path d="M 727.255421 224.315334 
L 734.615607 23.137648 
L 734.615607 23.137648 
" clip-path="url(#pbc6f07fc2d)" style="fill: none; stroke: #000000; stroke-opacity: 0.5; stroke-width: 0.75; stroke-linecap: square"/>
   </g>
   <g id="line2d_139">
    <path d="M 729.884059 224.315334 
L 737.244244 23.137648 
L 737.244244 23.137648 
" clip-path="url(#pbc6f07fc2d)" style="fill: none; stroke: #000000; stroke-opacity: 0.5; stroke-width: 0.75; stroke-linecap: square"/>
   </g>
   <g id="line2d_140">
    <path d="M 732.512697 224.315334 
L 739.872882 23.137648 
L 739.872882 23.137648 
" clip-path="url(#pbc6f07fc2d)" style="fill: none; stroke: #000000; stroke-opacity: 0.5; stroke-width: 0.75; stroke-linecap: square"/>
   </g>
   <g id="line2d_141">
    <path d="M 735.141334 224.315334 
L 742.50152 23.137648 
L 742.50152 23.137648 
" clip-path="url(#pbc6f07fc2d)" style="fill: none; stroke: #000000; stroke-opacity: 0.5; stroke-width: 0.75; stroke-linecap: square"/>
   </g>
   <g id="line2d_142">
    <path d="M 737.769972 224.315334 
L 745.130157 23.137648 
L 745.130157 23.137648 
" clip-path="url(#pbc6f07fc2d)" style="fill: none; stroke: #000000; stroke-opacity: 0.5; stroke-width: 0.75; stroke-linecap: square"/>
   </g>
   <g id="line2d_143">
    <path d="M 740.398609 224.315334 
L 747.758795 23.137648 
L 747.758795 23.137648 
" clip-path="url(#pbc6f07fc2d)" style="fill: none; stroke: #000000; stroke-opacity: 0.5; stroke-width: 0.75; stroke-linecap: square"/>
   </g>
   <g id="line2d_144">
    <path d="M 740.398609 224.315334 
L 777.199536 23.137648 
L 777.199536 23.137648 
" clip-path="url(#pbc6f07fc2d)" style="fill: none; stroke: #ff0000; stroke-opacity: 0.5; stroke-width: 0.75; stroke-linecap: square"/>
   </g>
   <g id="line2d_145">
    <path d="M 740.398609 224.315334 
L 751.438888 23.137648 
L 751.438888 23.137648 
" clip-path="url(#pbc6f07fc2d)" style="fill: none; stroke: #0000ff; stroke-opacity: 0.5; stroke-width: 0.75; stroke-linecap: square"/>
   </g>
   <g id="line2d_146">
    <path d="M 740.398609 224.315334 
L 755.11898 23.137648 
L 755.11898 23.137648 
" clip-path="url(#pbc6f07fc2d)" style="fill: none; stroke: #0000ff; stroke-opacity: 0.5; stroke-width: 0.75; stroke-linecap: square"/>
   </g>
   <g id="line2d_147">
    <path d="M 740.398609 224.315334 
L 758.799073 23.137648 
L 758.799073 23.137648 
" clip-path="url(#pbc6f07fc2d)" style="fill: none; stroke: #0000ff; stroke-opacity: 0.5; stroke-width: 0.75; stroke-linecap: square"/>
   </g>
   <g id="line2d_148">
    <path d="M 740.398609 224.315334 
L 762.479166 23.137648 
L 762.479166 23.137648 
" clip-path="url(#pbc6f07fc2d)" style="fill: none; stroke: #0000ff; stroke-opacity: 0.5; stroke-width: 0.75; stroke-linecap: square"/>
   </g>
   <g id="line2d_149">
    <path d="M 740.398609 224.315334 
L 766.159258 23.137648 
L 766.159258 23.137648 
" clip-path="url(#pbc6f07fc2d)" style="fill: none; stroke: #0000ff; stroke-opacity: 0.5; stroke-width: 0.75; stroke-linecap: square"/>
   </g>
   <g id="line2d_150">
    <path d="M 740.398609 224.315334 
L 769.839351 23.137648 
L 769.839351 23.137648 
" clip-path="url(#pbc6f07fc2d)" style="fill: none; stroke: #0000ff; stroke-opacity: 0.5; stroke-width: 0.75; stroke-linecap: square"/>
   </g>
   <g id="line2d_151">
    <path d="M 740.398609 224.315334 
L 773.519444 23.137648 
L 773.519444 23.137648 
" clip-path="url(#pbc6f07fc2d)" style="fill: none; stroke: #0000ff; stroke-opacity: 0.5; stroke-width: 0.75; stroke-linecap: square"/>
   </g>
   <g id="line2d_152">
    <path d="M 666.796755 224.315334 
L 659.43657 23.137648 
L 659.43657 23.137648 
" clip-path="url(#pbc6f07fc2d)" style="fill: none; stroke: #ff0000; stroke-width: 2; stroke-linecap: square"/>
   </g>
   <g id="line2d_153">
    <path d="M 519.593047 123.726491 
L 529.406628 123.726491 
L 539.220208 123.726491 
L 549.033789 123.726491 
L 558.847369 123.726491 
L 568.66095 123.726491 
L 578.474531 123.726491 
L 588.288111 123.726491 
L 598.101692 123.726491 
L 607.915272 123.726491 
L 617.728853 123.726491 
L 627.542433 123.726491 
L 637.356014 123.726491 
L 647.169594 123.726491 
L 656.983175 123.726491 
L 666.796755 123.726491 
L 671.396871 123.726491 
L 675.718192 123.726491 
L 680.039513 123.726491 
L 684.360834 123.726491 
L 688.682155 123.726491 
L 693.003476 123.726491 
L 697.324797 123.726491 
L 701.646118 123.726491 
L 705.967439 123.726491 
L 710.28876 123.726491 
L 714.610081 123.726491 
L 718.931402 123.726491 
L 723.252723 123.726491 
L 727.574044 123.726491 
L 731.895365 123.726491 
L 736.216686 123.726491 
L 740.538007 123.726491 
L 744.859328 123.726491 
L 749.180649 123.726491 
L 753.50197 123.726491 
L 757.823291 123.726491 
L 762.144612 123.726491 
L 766.465933 123.726491 
L 770.787254 123.726491 
L 775.108575 123.726491 
L 779.429896 123.726491 
L 783.751217 123.726491 
L 788.072538 123.726491 
L 792.393859 123.726491 
L 796.71518 123.726491 
L 801.036501 123.726491 
L 803.8 123.726491 
" clip-path="url(#pbc6f07fc2d)" style="fill: none; stroke-dasharray: 3.7,1.6; stroke-dashoffset: 0; stroke: #1f77b4"/>
   </g>
   <g id="patch_13">
    <path d="M 574.794438 224.315334 
L 574.794438 23.137648 
" style="fill: none; stroke: #000000; stroke-width: 0.8; stroke-linejoin: miter; stroke-linecap: square"/>
   </g>
   <g id="patch_14">
    <path d="M 795.6 224.315334 
L 795.6 23.137648 
" style="fill: none; stroke: #000000; stroke-width: 0.8; stroke-linejoin: miter; stroke-linecap: square"/>
   </g>
   <g id="patch_15">
    <path d="M 574.794438 224.315334 
L 795.6 224.315334 
" style="fill: none; stroke: #000000; stroke-width: 0.8; stroke-linejoin: miter; stroke-linecap: square"/>
   </g>
   <g id="patch_16">
    <path d="M 574.794438 23.137648 
L 795.6 23.137648 
" style="fill: none; stroke: #000000; stroke-width: 0.8; stroke-linejoin: miter; stroke-linecap: square"/>
   </g>
   <g id="text_45">
    <!-- $Vehicle\ trajectories$ -->
    <g transform="translate(623.679398 17.137648) scale(0.14 -0.14)">
     <defs>
      <path id="CMMI12-56" d="M 3962 3640 
C 4179 3984 4378 4136 4704 4162 
C 4768 4168 4819 4168 4819 4282 
C 4819 4308 4806 4346 4749 4346 
C 4634 4346 4358 4346 4243 4346 
C 4058 4346 3866 4346 3686 4346 
C 3635 4346 3571 4346 3571 4226 
C 3571 4168 3629 4162 3654 4162 
C 3891 4143 3917 4029 3917 3952 
C 3917 3857 3827 3710 3821 3704 
L 1811 540 
L 1363 3969 
C 1363 4160 1696 4160 1766 4160 
C 1862 4160 1920 4160 1920 4282 
C 1920 4346 1850 4346 1830 4346 
C 1722 4346 1594 4346 1485 4346 
L 1126 4346 
C 659 4346 467 4346 461 4346 
C 422 4346 346 4346 346 4230 
C 346 4160 390 4160 493 4160 
C 819 4160 838 4102 858 3944 
L 1370 24 
C 1389 -109 1389 -128 1478 -128 
C 1555 -128 1587 -109 1651 -8 
L 3962 3640 
z
" transform="scale(0.015625)"/>
      <path id="CMMI12-68" d="M 1798 4257 
C 1805 4283 1818 4321 1818 4352 
C 1818 4416 1754 4416 1741 4416 
C 1734 4416 1421 4388 1389 4380 
C 1280 4373 1184 4358 1069 4358 
C 909 4345 864 4339 864 4224 
C 864 4160 915 4160 1005 4160 
C 1318 4160 1325 4103 1325 4040 
C 1325 4002 1312 3951 1306 3932 
L 378 248 
C 352 152 352 140 352 101 
C 352 -38 461 -64 525 -64 
C 634 -64 717 19 749 89 
L 1037 1245 
C 1069 1386 1107 1520 1139 1660 
C 1210 1929 1210 1935 1331 2120 
C 1453 2305 1741 2689 2234 2689 
C 2490 2689 2579 2497 2579 2242 
C 2579 1884 2330 1188 2189 805 
C 2131 651 2099 568 2099 453 
C 2099 166 2298 -64 2605 -64 
C 3200 -64 3424 875 3424 913 
C 3424 945 3398 971 3360 971 
C 3302 971 3296 952 3264 843 
C 3117 332 2880 64 2624 64 
C 2560 64 2458 64 2458 269 
C 2458 436 2534 640 2560 710 
C 2675 1018 2963 1773 2963 2145 
C 2963 2528 2739 2816 2253 2816 
C 1888 2816 1568 2644 1306 2312 
L 1798 4257 
z
" transform="scale(0.015625)"/>
      <path id="CMMI12-63" d="M 2502 2431 
C 2381 2431 2323 2431 2234 2355 
C 2195 2323 2125 2227 2125 2125 
C 2125 1997 2221 1920 2342 1920 
C 2496 1920 2669 2044 2669 2292 
C 2669 2588 2374 2816 1933 2816 
C 1094 2816 256 1903 256 996 
C 256 441 602 -64 1254 -64 
C 2125 -64 2675 622 2675 706 
C 2675 744 2637 776 2611 776 
C 2592 776 2586 770 2528 713 
C 2118 162 1510 64 1267 64 
C 826 64 685 446 685 764 
C 685 988 794 1605 1024 2039 
C 1190 2338 1536 2682 1939 2682 
C 2022 2682 2374 2682 2502 2431 
z
" transform="scale(0.015625)"/>
      <path id="CMMI12-72" d="M 2490 2612 
C 2291 2574 2189 2433 2189 2293 
C 2189 2139 2310 2088 2400 2088 
C 2579 2088 2726 2242 2726 2433 
C 2726 2638 2528 2816 2208 2816 
C 1952 2816 1658 2701 1389 2312 
C 1344 2650 1088 2816 832 2816 
C 582 2816 454 2625 378 2484 
C 269 2254 173 1871 173 1839 
C 173 1814 198 1782 243 1782 
C 294 1782 301 1788 339 1935 
C 435 2318 557 2689 813 2689 
C 966 2689 1011 2580 1011 2395 
C 1011 2254 947 2005 902 1807 
L 723 1118 
C 698 996 627 709 595 594 
C 550 428 480 128 480 96 
C 480 6 550 -64 646 -64 
C 717 -64 838 -19 877 109 
C 896 160 1133 1124 1171 1271 
C 1203 1411 1242 1546 1274 1686 
C 1299 1775 1325 1878 1344 1961 
C 1363 2018 1536 2331 1696 2472 
C 1773 2542 1939 2689 2202 2689 
C 2304 2689 2406 2670 2490 2612 
z
" transform="scale(0.015625)"/>
      <path id="CMMI12-6a" d="M 2240 2028 
C 2266 2131 2266 2219 2266 2245 
C 2266 2613 1990 2816 1702 2816 
C 1056 2816 710 1889 710 1845 
C 710 1813 736 1788 774 1788 
C 826 1788 832 1813 864 1876 
C 1120 2492 1440 2689 1683 2689 
C 1818 2689 1888 2618 1888 2397 
C 1888 2245 1869 2181 1843 2067 
L 1235 -327 
C 1114 -796 813 -1152 461 -1152 
C 435 -1152 301 -1152 179 -1088 
C 333 -1056 454 -936 454 -784 
C 454 -682 378 -580 237 -580 
C 70 -580 -83 -720 -83 -911 
C -83 -1171 198 -1280 461 -1280 
C 902 -1280 1485 -956 1645 -320 
L 2240 2028 
z
M 2502 4013 
C 2502 4173 2368 4224 2291 4224 
C 2118 4224 1971 4058 1971 3917 
C 1971 3822 2048 3707 2189 3707 
C 2336 3707 2502 3847 2502 4013 
z
" transform="scale(0.015625)"/>
      <path id="CMMI12-6f" d="M 2918 1756 
C 2918 2363 2522 2816 1939 2816 
C 1094 2816 262 1897 262 996 
C 262 390 659 -64 1242 -64 
C 2093 -64 2918 856 2918 1756 
z
M 1248 64 
C 928 64 691 319 691 766 
C 691 1060 845 1712 1024 2031 
C 1312 2523 1670 2689 1933 2689 
C 2246 2689 2490 2433 2490 1986 
C 2490 1731 2355 1047 2112 658 
C 1850 230 1498 64 1248 64 
z
" transform="scale(0.015625)"/>
     </defs>
     <use xlink:href="#CMMI12-56" transform="scale(0.996264)"/>
     <use xlink:href="#CMMI12-65" transform="translate(78.547321 0) scale(0.996264)"/>
     <use xlink:href="#CMMI12-68" transform="translate(123.759322 0) scale(0.996264)"/>
     <use xlink:href="#CMMI12-69" transform="translate(179.913946 0) scale(0.996264)"/>
     <use xlink:href="#CMMI12-63" transform="translate(213.192548 0) scale(0.996264)"/>
     <use xlink:href="#CMMI12-6c" transform="translate(255.175781 0) scale(0.996264)"/>
     <use xlink:href="#CMMI12-65" transform="translate(286.424185 0) scale(0.996264)"/>
     <use xlink:href="#CMMI12-74" transform="translate(359.331356 0) scale(0.996264)"/>
     <use xlink:href="#CMMI12-72" transform="translate(394.557686 0) scale(0.996264)"/>
     <use xlink:href="#CMMI12-61" transform="translate(441.228298 0) scale(0.996264)"/>
     <use xlink:href="#CMMI12-6a" transform="translate(492.436156 0) scale(0.996264)"/>
     <use xlink:href="#CMMI12-65" transform="translate(538.398638 0) scale(0.996264)"/>
     <use xlink:href="#CMMI12-63" transform="translate(583.610639 0) scale(0.996264)"/>
     <use xlink:href="#CMMI12-74" transform="translate(625.593873 0) scale(0.996264)"/>
     <use xlink:href="#CMMI12-6f" transform="translate(660.820203 0) scale(0.996264)"/>
     <use xlink:href="#CMMI12-72" transform="translate(707.715513 0) scale(0.996264)"/>
     <use xlink:href="#CMMI12-69" transform="translate(754.386125 0) scale(0.996264)"/>
     <use xlink:href="#CMMI12-65" transform="translate(787.664727 0) scale(0.996264)"/>
     <use xlink:href="#CMMI12-73" transform="translate(832.876728 0) scale(0.996264)"/>
    </g>
   </g>
  </g>
 </g>
 <defs>
  <clipPath id="pb8ec255af5">
   <rect x="41.994438" y="23.137648" width="220.805562" height="201.177686"/>
  </clipPath>
  <clipPath id="p7ebcdfcd4c">
   <rect x="308.394438" y="23.137648" width="220.805562" height="201.177686"/>
  </clipPath>
  <clipPath id="pbc6f07fc2d">
   <rect x="574.794438" y="23.137648" width="220.805562" height="201.177686"/>
  </clipPath>
 </defs>
</svg>
