<?xml version="1.0" encoding="utf-8" standalone="no"?>
<!DOCTYPE svg PUBLIC "-//W3C//DTD SVG 1.1//EN"
  "http://www.w3.org/Graphics/SVG/1.1/DTD/svg11.dtd">
<svg xmlns:xlink="http://www.w3.org/1999/xlink" width="444.891702pt" height="340.666381pt" viewBox="0 0 444.891702 340.666381" xmlns="http://www.w3.org/2000/svg" version="1.1">
 <metadata>
  <rdf:RDF xmlns:dc="http://purl.org/dc/elements/1.1/" xmlns:cc="http://creativecommons.org/ns#" xmlns:rdf="http://www.w3.org/1999/02/22-rdf-syntax-ns#">
   <cc:Work>
    <dc:type rdf:resource="http://purl.org/dc/dcmitype/StillImage"/>
    <dc:date>2023-12-21T17:19:19.108008</dc:date>
    <dc:format>image/svg+xml</dc:format>
    <dc:creator>
     <cc:Agent>
      <dc:title>Matplotlib v3.8.2, https://matplotlib.org/</dc:title>
     </cc:Agent>
    </dc:creator>
   </cc:Work>
  </rdf:RDF>
 </metadata>
 <defs>
  <style type="text/css">*{stroke-linejoin: round; stroke-linecap: butt}</style>
 </defs>
 <g id="figure_1">
  <g id="patch_1">
   <path d="M 0 340.666381 
L 444.891702 340.666381 
L 444.891702 0 
L 0 0 
z
" style="fill: #ffffff"/>
  </g>
  <g id="axes_1">
   <g id="patch_2">
    <path d="M 47.091702 300.337648 
L 437.691702 300.337648 
L 437.691702 23.137648 
L 47.091702 23.137648 
z
" style="fill: #ffffff"/>
   </g>
   <g id="matplotlib.axis_1">
    <g id="xtick_1">
     <g id="line2d_1">
      <path d="M 57.370649 300.337648 
L 57.370649 23.137648 
" clip-path="url(#pf6f974cbba)" style="fill: none; stroke: #808080; stroke-width: 0.5; stroke-linecap: square"/>
     </g>
     <g id="line2d_2">
      <defs>
       <path id="m34f1db2773" d="M 0 0 
L 0 3.5 
" style="stroke: #000000; stroke-width: 0.8"/>
      </defs>
      <g>
       <use xlink:href="#m34f1db2773" x="57.370649" y="300.337648" style="stroke: #000000; stroke-width: 0.8"/>
      </g>
     </g>
     <g id="text_1">
      <!-- $\mathdefault{1}$ -->
      <g transform="translate(54.879982 314.435969) scale(0.1 -0.1)">
       <defs>
        <path id="CMR17-31" d="M 1702 4058 
C 1702 4192 1696 4192 1606 4192 
C 1357 3916 979 3827 621 3827 
C 602 3827 570 3827 563 3808 
C 557 3795 557 3782 557 3648 
C 755 3648 1088 3686 1344 3839 
L 1344 461 
C 1344 236 1331 160 781 160 
L 589 160 
L 589 0 
C 896 0 1216 0 1523 0 
C 1830 0 2150 0 2458 0 
L 2458 160 
L 2266 160 
C 1715 160 1702 230 1702 458 
L 1702 4058 
z
" transform="scale(0.015625)"/>
       </defs>
       <use xlink:href="#CMR17-31" transform="scale(0.996264)"/>
      </g>
     </g>
    </g>
    <g id="xtick_2">
     <g id="line2d_3">
      <path d="M 98.486439 300.337648 
L 98.486439 23.137648 
" clip-path="url(#pf6f974cbba)" style="fill: none; stroke: #808080; stroke-width: 0.5; stroke-linecap: square"/>
     </g>
     <g id="line2d_4">
      <g>
       <use xlink:href="#m34f1db2773" x="98.486439" y="300.337648" style="stroke: #000000; stroke-width: 0.8"/>
      </g>
     </g>
     <g id="text_2">
      <!-- $\mathdefault{2}$ -->
      <g transform="translate(95.995771 314.435969) scale(0.1 -0.1)">
       <defs>
        <path id="CMR17-32" d="M 2669 989 
L 2554 989 
C 2490 536 2438 459 2413 420 
C 2381 369 1920 369 1830 369 
L 602 369 
C 832 619 1280 1072 1824 1597 
C 2214 1967 2669 2402 2669 3035 
C 2669 3790 2067 4224 1395 4224 
C 691 4224 262 3604 262 3030 
C 262 2780 448 2748 525 2748 
C 589 2748 781 2787 781 3010 
C 781 3207 614 3264 525 3264 
C 486 3264 448 3258 422 3245 
C 544 3790 915 4058 1306 4058 
C 1862 4058 2227 3617 2227 3035 
C 2227 2479 1901 2000 1536 1584 
L 262 146 
L 262 0 
L 2515 0 
L 2669 989 
z
" transform="scale(0.015625)"/>
       </defs>
       <use xlink:href="#CMR17-32" transform="scale(0.996264)"/>
      </g>
     </g>
    </g>
    <g id="xtick_3">
     <g id="line2d_5">
      <path d="M 139.602228 300.337648 
L 139.602228 23.137648 
" clip-path="url(#pf6f974cbba)" style="fill: none; stroke: #808080; stroke-width: 0.5; stroke-linecap: square"/>
     </g>
     <g id="line2d_6">
      <g>
       <use xlink:href="#m34f1db2773" x="139.602228" y="300.337648" style="stroke: #000000; stroke-width: 0.8"/>
      </g>
     </g>
     <g id="text_3">
      <!-- $\mathdefault{3}$ -->
      <g transform="translate(137.111561 314.435969) scale(0.1 -0.1)">
       <defs>
        <path id="CMR17-33" d="M 1414 2157 
C 1984 2157 2234 1662 2234 1090 
C 2234 320 1824 25 1453 25 
C 1114 25 563 194 390 693 
C 422 680 454 680 486 680 
C 640 680 755 782 755 948 
C 755 1133 614 1216 486 1216 
C 378 1216 211 1165 211 926 
C 211 335 787 -128 1466 -128 
C 2176 -128 2720 430 2720 1085 
C 2720 1707 2208 2157 1600 2227 
C 2086 2328 2554 2756 2554 3329 
C 2554 3820 2048 4179 1472 4179 
C 890 4179 378 3829 378 3329 
C 378 3110 544 3072 627 3072 
C 762 3072 877 3155 877 3321 
C 877 3486 762 3569 627 3569 
C 602 3569 570 3569 544 3557 
C 730 3959 1235 4032 1459 4032 
C 1683 4032 2106 3925 2106 3320 
C 2106 3143 2080 2828 1862 2550 
C 1670 2304 1453 2304 1242 2284 
C 1210 2284 1062 2269 1037 2269 
C 992 2263 966 2257 966 2208 
C 966 2163 973 2157 1101 2157 
L 1414 2157 
z
" transform="scale(0.015625)"/>
       </defs>
       <use xlink:href="#CMR17-33" transform="scale(0.996264)"/>
      </g>
     </g>
    </g>
    <g id="xtick_4">
     <g id="line2d_7">
      <path d="M 180.718018 300.337648 
L 180.718018 23.137648 
" clip-path="url(#pf6f974cbba)" style="fill: none; stroke: #808080; stroke-width: 0.5; stroke-linecap: square"/>
     </g>
     <g id="line2d_8">
      <g>
       <use xlink:href="#m34f1db2773" x="180.718018" y="300.337648" style="stroke: #000000; stroke-width: 0.8"/>
      </g>
     </g>
     <g id="text_4">
      <!-- $\mathdefault{4}$ -->
      <g transform="translate(178.22735 314.435969) scale(0.1 -0.1)">
       <defs>
        <path id="CMR17-34" d="M 2150 4122 
C 2150 4256 2144 4256 2029 4256 
L 128 1254 
L 128 1088 
L 1779 1088 
L 1779 457 
C 1779 224 1766 160 1318 160 
L 1197 160 
L 1197 0 
C 1402 0 1747 0 1965 0 
C 2182 0 2528 0 2733 0 
L 2733 160 
L 2611 160 
C 2163 160 2150 224 2150 457 
L 2150 1088 
L 2803 1088 
L 2803 1254 
L 2150 1254 
L 2150 4122 
z
M 1798 3703 
L 1798 1254 
L 256 1254 
L 1798 3703 
z
" transform="scale(0.015625)"/>
       </defs>
       <use xlink:href="#CMR17-34" transform="scale(0.996264)"/>
      </g>
     </g>
    </g>
    <g id="xtick_5">
     <g id="line2d_9">
      <path d="M 221.833807 300.337648 
L 221.833807 23.137648 
" clip-path="url(#pf6f974cbba)" style="fill: none; stroke: #808080; stroke-width: 0.5; stroke-linecap: square"/>
     </g>
     <g id="line2d_10">
      <g>
       <use xlink:href="#m34f1db2773" x="221.833807" y="300.337648" style="stroke: #000000; stroke-width: 0.8"/>
      </g>
     </g>
     <g id="text_5">
      <!-- $\mathdefault{5}$ -->
      <g transform="translate(219.34314 314.435969) scale(0.1 -0.1)">
       <defs>
        <path id="CMR17-35" d="M 730 3692 
C 794 3666 1056 3584 1325 3584 
C 1920 3584 2246 3911 2432 4100 
C 2432 4157 2432 4192 2394 4192 
C 2387 4192 2374 4192 2323 4163 
C 2099 4058 1837 3973 1517 3973 
C 1325 3973 1037 3999 723 4139 
C 653 4171 640 4171 634 4171 
C 602 4171 595 4164 595 4037 
L 595 2203 
C 595 2089 595 2057 659 2057 
C 691 2057 704 2070 736 2114 
C 941 2401 1222 2522 1542 2522 
C 1766 2522 2246 2382 2246 1289 
C 2246 1085 2246 715 2054 421 
C 1894 159 1645 25 1370 25 
C 947 25 518 320 403 814 
C 429 807 480 795 506 795 
C 589 795 749 840 749 1038 
C 749 1210 627 1280 506 1280 
C 358 1280 262 1190 262 1011 
C 262 454 704 -128 1382 -128 
C 2042 -128 2669 440 2669 1264 
C 2669 2030 2170 2624 1549 2624 
C 1222 2624 947 2503 730 2274 
L 730 3692 
z
" transform="scale(0.015625)"/>
       </defs>
       <use xlink:href="#CMR17-35" transform="scale(0.996264)"/>
      </g>
     </g>
    </g>
    <g id="xtick_6">
     <g id="line2d_11">
      <path d="M 262.949597 300.337648 
L 262.949597 23.137648 
" clip-path="url(#pf6f974cbba)" style="fill: none; stroke: #808080; stroke-width: 0.5; stroke-linecap: square"/>
     </g>
     <g id="line2d_12">
      <g>
       <use xlink:href="#m34f1db2773" x="262.949597" y="300.337648" style="stroke: #000000; stroke-width: 0.8"/>
      </g>
     </g>
     <g id="text_6">
      <!-- $\mathdefault{6}$ -->
      <g transform="translate(260.458929 314.435969) scale(0.1 -0.1)">
       <defs>
        <path id="CMR17-36" d="M 678 2176 
C 678 3690 1395 4032 1811 4032 
C 1946 4032 2272 4009 2400 3776 
C 2298 3776 2106 3776 2106 3553 
C 2106 3381 2246 3323 2336 3323 
C 2394 3323 2566 3348 2566 3560 
C 2566 3954 2246 4179 1805 4179 
C 1043 4179 243 3390 243 1984 
C 243 253 966 -128 1478 -128 
C 2099 -128 2688 427 2688 1283 
C 2688 2081 2170 2662 1517 2662 
C 1126 2662 838 2407 678 1960 
L 678 2176 
z
M 1478 25 
C 691 25 691 1200 691 1436 
C 691 1896 909 2560 1504 2560 
C 1613 2560 1926 2560 2138 2120 
C 2253 1870 2253 1609 2253 1289 
C 2253 944 2253 690 2118 434 
C 1978 171 1773 25 1478 25 
z
" transform="scale(0.015625)"/>
       </defs>
       <use xlink:href="#CMR17-36" transform="scale(0.996264)"/>
      </g>
     </g>
    </g>
    <g id="xtick_7">
     <g id="line2d_13">
      <path d="M 304.065386 300.337648 
L 304.065386 23.137648 
" clip-path="url(#pf6f974cbba)" style="fill: none; stroke: #808080; stroke-width: 0.5; stroke-linecap: square"/>
     </g>
     <g id="line2d_14">
      <g>
       <use xlink:href="#m34f1db2773" x="304.065386" y="300.337648" style="stroke: #000000; stroke-width: 0.8"/>
      </g>
     </g>
     <g id="text_7">
      <!-- $\mathdefault{7}$ -->
      <g transform="translate(301.574718 314.435969) scale(0.1 -0.1)">
       <defs>
        <path id="CMR17-37" d="M 2886 3941 
L 2886 4081 
L 1382 4081 
C 634 4081 621 4165 595 4288 
L 480 4288 
L 294 3094 
L 410 3094 
C 429 3215 474 3540 550 3661 
C 589 3712 1062 3712 1171 3712 
L 2579 3712 
L 1869 2661 
C 1395 1954 1069 999 1069 165 
C 1069 89 1069 -128 1299 -128 
C 1530 -128 1530 89 1530 171 
L 1530 465 
C 1530 1508 1709 2196 2003 2636 
L 2886 3941 
z
" transform="scale(0.015625)"/>
       </defs>
       <use xlink:href="#CMR17-37" transform="scale(0.996264)"/>
      </g>
     </g>
    </g>
    <g id="xtick_8">
     <g id="line2d_15">
      <path d="M 345.181176 300.337648 
L 345.181176 23.137648 
" clip-path="url(#pf6f974cbba)" style="fill: none; stroke: #808080; stroke-width: 0.5; stroke-linecap: square"/>
     </g>
     <g id="line2d_16">
      <g>
       <use xlink:href="#m34f1db2773" x="345.181176" y="300.337648" style="stroke: #000000; stroke-width: 0.8"/>
      </g>
     </g>
     <g id="text_8">
      <!-- $\mathdefault{8}$ -->
      <g transform="translate(342.690508 314.435969) scale(0.1 -0.1)">
       <defs>
        <path id="CMR17-38" d="M 1741 2264 
C 2144 2467 2554 2773 2554 3263 
C 2554 3841 1990 4179 1472 4179 
C 890 4179 378 3759 378 3180 
C 378 3021 416 2747 666 2505 
C 730 2442 998 2251 1171 2130 
C 883 1983 211 1634 211 934 
C 211 279 838 -128 1459 -128 
C 2144 -128 2720 362 2720 1010 
C 2720 1590 2330 1857 2074 2029 
L 1741 2264 
z
M 902 2822 
C 851 2854 595 3051 595 3351 
C 595 3739 998 4032 1459 4032 
C 1965 4032 2336 3676 2336 3262 
C 2336 2669 1670 2331 1638 2331 
C 1632 2331 1626 2331 1574 2370 
L 902 2822 
z
M 2080 1519 
C 2176 1449 2483 1240 2483 851 
C 2483 381 2010 25 1472 25 
C 890 25 448 438 448 940 
C 448 1443 838 1862 1280 2060 
L 2080 1519 
z
" transform="scale(0.015625)"/>
       </defs>
       <use xlink:href="#CMR17-38" transform="scale(0.996264)"/>
      </g>
     </g>
    </g>
    <g id="xtick_9">
     <g id="line2d_17">
      <path d="M 386.296965 300.337648 
L 386.296965 23.137648 
" clip-path="url(#pf6f974cbba)" style="fill: none; stroke: #808080; stroke-width: 0.5; stroke-linecap: square"/>
     </g>
     <g id="line2d_18">
      <g>
       <use xlink:href="#m34f1db2773" x="386.296965" y="300.337648" style="stroke: #000000; stroke-width: 0.8"/>
      </g>
     </g>
     <g id="text_9">
      <!-- $\mathdefault{9}$ -->
      <g transform="translate(383.806297 314.435969) scale(0.1 -0.1)">
       <defs>
        <path id="CMR17-39" d="M 2253 1864 
C 2253 464 1670 31 1190 31 
C 1043 31 685 31 538 294 
C 704 268 826 357 826 518 
C 826 692 685 749 595 749 
C 538 749 365 723 365 506 
C 365 71 742 -128 1203 -128 
C 1939 -128 2688 674 2688 2073 
C 2688 3817 1971 4179 1485 4179 
C 851 4179 243 3628 243 2778 
C 243 1991 762 1408 1414 1408 
C 1952 1408 2189 1903 2253 2112 
L 2253 1864 
z
M 1427 1510 
C 1254 1510 1011 1542 813 1922 
C 678 2169 678 2461 678 2771 
C 678 3146 678 3405 858 3684 
C 947 3817 1114 4032 1485 4032 
C 2240 4032 2240 2885 2240 2632 
C 2240 2182 2035 1510 1427 1510 
z
" transform="scale(0.015625)"/>
       </defs>
       <use xlink:href="#CMR17-39" transform="scale(0.996264)"/>
      </g>
     </g>
    </g>
    <g id="xtick_10">
     <g id="line2d_19">
      <path d="M 427.412755 300.337648 
L 427.412755 23.137648 
" clip-path="url(#pf6f974cbba)" style="fill: none; stroke: #808080; stroke-width: 0.5; stroke-linecap: square"/>
     </g>
     <g id="line2d_20">
      <g>
       <use xlink:href="#m34f1db2773" x="427.412755" y="300.337648" style="stroke: #000000; stroke-width: 0.8"/>
      </g>
     </g>
     <g id="text_10">
      <!-- $\mathdefault{10}$ -->
      <g transform="translate(422.431419 314.435969) scale(0.1 -0.1)">
       <defs>
        <path id="CMR17-30" d="M 2688 2025 
C 2688 2416 2682 3080 2413 3591 
C 2176 4039 1798 4198 1466 4198 
C 1158 4198 768 4058 525 3597 
C 269 3118 243 2524 243 2025 
C 243 1661 250 1106 448 619 
C 723 -39 1216 -128 1466 -128 
C 1760 -128 2208 -7 2470 600 
C 2662 1042 2688 1559 2688 2025 
z
M 1466 -26 
C 1056 -26 813 325 723 812 
C 653 1188 653 1738 653 2096 
C 653 2588 653 2997 736 3387 
C 858 3929 1216 4096 1466 4096 
C 1728 4096 2067 3923 2189 3400 
C 2272 3036 2278 2607 2278 2096 
C 2278 1680 2278 1169 2202 792 
C 2067 95 1690 -26 1466 -26 
z
" transform="scale(0.015625)"/>
       </defs>
       <use xlink:href="#CMR17-31" transform="scale(0.996264)"/>
       <use xlink:href="#CMR17-30" transform="translate(45.690477 0) scale(0.996264)"/>
      </g>
     </g>
    </g>
    <g id="text_11">
     <!-- $data set$ -->
     <g transform="translate(220.361347 330.495603) scale(0.14 -0.14)">
      <defs>
       <path id="CMMI12-64" d="M 3219 4257 
C 3226 4282 3238 4320 3238 4352 
C 3238 4416 3174 4416 3162 4416 
C 3155 4416 2842 4388 2810 4380 
C 2701 4373 2605 4358 2490 4358 
C 2330 4345 2285 4339 2285 4224 
C 2285 4160 2336 4160 2426 4160 
C 2739 4160 2746 4103 2746 4040 
C 2746 4002 2733 3952 2726 3933 
L 2336 2395 
C 2266 2561 2093 2816 1760 2816 
C 1037 2816 256 1884 256 939 
C 256 307 627 -64 1062 -64 
C 1414 -64 1715 211 1894 422 
C 1958 45 2259 -64 2451 -64 
C 2643 -64 2797 51 2912 281 
C 3014 498 3104 888 3104 913 
C 3104 945 3078 971 3040 971 
C 2982 971 2976 939 2950 843 
C 2854 466 2733 64 2470 64 
C 2285 64 2272 229 2272 357 
C 2272 382 2272 515 2317 694 
L 3219 4257 
z
M 1926 760 
C 1894 651 1894 639 1805 517 
C 1664 338 1382 64 1082 64 
C 819 64 672 300 672 677 
C 672 1028 870 1743 992 2012 
C 1210 2459 1510 2689 1760 2689 
C 2182 2689 2266 2165 2266 2114 
C 2266 2108 2246 2024 2240 2012 
L 1926 760 
z
" transform="scale(0.015625)"/>
       <path id="CMMI12-61" d="M 1926 760 
C 1894 651 1894 639 1805 517 
C 1664 338 1382 64 1082 64 
C 819 64 672 300 672 677 
C 672 1028 870 1743 992 2012 
C 1210 2459 1510 2689 1760 2689 
C 2182 2689 2266 2165 2266 2114 
C 2266 2108 2246 2024 2240 2012 
L 1926 760 
z
M 2336 2395 
C 2266 2561 2093 2816 1760 2816 
C 1037 2816 256 1884 256 939 
C 256 307 627 -64 1062 -64 
C 1414 -64 1715 211 1894 422 
C 1958 45 2259 -64 2451 -64 
C 2643 -64 2797 51 2912 281 
C 3014 498 3104 888 3104 913 
C 3104 945 3078 971 3040 971 
C 2982 971 2976 939 2950 843 
C 2854 466 2733 64 2470 64 
C 2285 64 2272 230 2272 358 
C 2272 505 2291 575 2349 824 
C 2394 984 2426 1124 2477 1309 
C 2714 2267 2771 2497 2771 2535 
C 2771 2625 2701 2695 2605 2695 
C 2400 2695 2349 2472 2336 2395 
z
" transform="scale(0.015625)"/>
       <path id="CMMI12-74" d="M 1286 2566 
L 1875 2566 
C 1997 2566 2061 2566 2061 2681 
C 2061 2752 2022 2752 1894 2752 
L 1331 2752 
L 1568 3692 
C 1594 3781 1594 3794 1594 3840 
C 1594 3943 1510 4000 1427 4000 
C 1376 4000 1229 3981 1178 3775 
L 928 2752 
L 326 2752 
C 198 2752 141 2752 141 2630 
C 141 2566 186 2566 307 2566 
L 877 2566 
L 454 881 
C 403 658 384 594 384 511 
C 384 211 595 -64 954 -64 
C 1600 -64 1946 868 1946 912 
C 1946 951 1920 970 1882 970 
C 1869 970 1843 970 1830 944 
C 1824 938 1818 931 1773 829 
C 1638 511 1344 64 973 64 
C 781 64 768 224 768 364 
C 768 370 768 492 787 568 
L 1286 2566 
z
" transform="scale(0.015625)"/>
       <path id="CMMI12-73" d="M 1459 1280 
C 1568 1261 1741 1223 1779 1216 
C 1862 1192 2150 1090 2150 783 
C 2150 586 1971 70 1229 70 
C 1094 70 614 70 486 436 
C 742 404 870 603 870 745 
C 870 880 781 950 653 950 
C 512 950 326 841 326 552 
C 326 173 710 -64 1222 -64 
C 2195 -64 2483 651 2483 984 
C 2483 1079 2483 1258 2278 1462 
C 2118 1616 1965 1648 1619 1718 
C 1446 1756 1171 1814 1171 2101 
C 1171 2229 1286 2689 1894 2689 
C 2163 2689 2426 2589 2490 2368 
C 2208 2368 2195 2125 2195 2119 
C 2195 1984 2317 1946 2374 1946 
C 2464 1946 2643 2015 2643 2281 
C 2643 2545 2400 2816 1901 2816 
C 1062 2816 838 2160 838 1899 
C 838 1414 1312 1312 1459 1280 
z
" transform="scale(0.015625)"/>
       <path id="CMMI12-65" d="M 1146 1479 
C 1318 1479 1754 1479 2061 1595 
C 2547 1783 2592 2158 2592 2274 
C 2592 2558 2349 2816 1926 2816 
C 1254 2816 288 2210 288 1073 
C 288 402 672 -64 1254 -64 
C 2125 -64 2675 609 2675 692 
C 2675 730 2637 762 2611 762 
C 2592 762 2586 756 2528 699 
C 2118 159 1510 64 1267 64 
C 902 64 710 350 710 822 
C 710 911 710 1071 806 1479 
L 1146 1479 
z
M 838 1600 
C 1114 2592 1722 2689 1926 2689 
C 2208 2689 2400 2522 2400 2277 
C 2400 1600 1376 1600 1107 1600 
L 838 1600 
z
" transform="scale(0.015625)"/>
      </defs>
      <use xlink:href="#CMMI12-64" transform="scale(0.996264)"/>
      <use xlink:href="#CMMI12-61" transform="translate(50.689097 0) scale(0.996264)"/>
      <use xlink:href="#CMMI12-74" transform="translate(101.896954 0) scale(0.996264)"/>
      <use xlink:href="#CMMI12-61" transform="translate(137.123285 0) scale(0.996264)"/>
      <use xlink:href="#CMMI12-73" transform="translate(188.331142 0) scale(0.996264)"/>
      <use xlink:href="#CMMI12-65" transform="translate(234.28119 0) scale(0.996264)"/>
      <use xlink:href="#CMMI12-74" transform="translate(279.493191 0) scale(0.996264)"/>
     </g>
    </g>
   </g>
   <g id="matplotlib.axis_2">
    <g id="ytick_1">
     <g id="line2d_21">
      <path d="M 47.091702 287.910475 
L 437.691702 287.910475 
" clip-path="url(#pf6f974cbba)" style="fill: none; stroke: #808080; stroke-width: 0.5; stroke-linecap: square"/>
     </g>
     <g id="line2d_22">
      <defs>
       <path id="mc902cf5668" d="M 0 0 
L -3.5 0 
" style="stroke: #000000; stroke-width: 0.8"/>
      </defs>
      <g>
       <use xlink:href="#mc902cf5668" x="47.091702" y="287.910475" style="stroke: #000000; stroke-width: 0.8"/>
      </g>
     </g>
     <g id="text_12">
      <!-- $\mathdefault{75}$ -->
      <g transform="translate(30.129031 291.459635) scale(0.1 -0.1)">
       <use xlink:href="#CMR17-37" transform="scale(0.996264)"/>
       <use xlink:href="#CMR17-35" transform="translate(45.690477 0) scale(0.996264)"/>
      </g>
     </g>
    </g>
    <g id="ytick_2">
     <g id="line2d_23">
      <path d="M 47.091702 254.835158 
L 437.691702 254.835158 
" clip-path="url(#pf6f974cbba)" style="fill: none; stroke: #808080; stroke-width: 0.5; stroke-linecap: square"/>
     </g>
     <g id="line2d_24">
      <g>
       <use xlink:href="#mc902cf5668" x="47.091702" y="254.835158" style="stroke: #000000; stroke-width: 0.8"/>
      </g>
     </g>
     <g id="text_13">
      <!-- $\mathdefault{80}$ -->
      <g transform="translate(30.129031 258.384318) scale(0.1 -0.1)">
       <use xlink:href="#CMR17-38" transform="scale(0.996264)"/>
       <use xlink:href="#CMR17-30" transform="translate(45.690477 0) scale(0.996264)"/>
      </g>
     </g>
    </g>
    <g id="ytick_3">
     <g id="line2d_25">
      <path d="M 47.091702 221.759841 
L 437.691702 221.759841 
" clip-path="url(#pf6f974cbba)" style="fill: none; stroke: #808080; stroke-width: 0.5; stroke-linecap: square"/>
     </g>
     <g id="line2d_26">
      <g>
       <use xlink:href="#mc902cf5668" x="47.091702" y="221.759841" style="stroke: #000000; stroke-width: 0.8"/>
      </g>
     </g>
     <g id="text_14">
      <!-- $\mathdefault{85}$ -->
      <g transform="translate(30.129031 225.309001) scale(0.1 -0.1)">
       <use xlink:href="#CMR17-38" transform="scale(0.996264)"/>
       <use xlink:href="#CMR17-35" transform="translate(45.690477 0) scale(0.996264)"/>
      </g>
     </g>
    </g>
    <g id="ytick_4">
     <g id="line2d_27">
      <path d="M 47.091702 188.684524 
L 437.691702 188.684524 
" clip-path="url(#pf6f974cbba)" style="fill: none; stroke: #808080; stroke-width: 0.5; stroke-linecap: square"/>
     </g>
     <g id="line2d_28">
      <g>
       <use xlink:href="#mc902cf5668" x="47.091702" y="188.684524" style="stroke: #000000; stroke-width: 0.8"/>
      </g>
     </g>
     <g id="text_15">
      <!-- $\mathdefault{90}$ -->
      <g transform="translate(30.129031 192.233684) scale(0.1 -0.1)">
       <use xlink:href="#CMR17-39" transform="scale(0.996264)"/>
       <use xlink:href="#CMR17-30" transform="translate(45.690477 0) scale(0.996264)"/>
      </g>
     </g>
    </g>
    <g id="ytick_5">
     <g id="line2d_29">
      <path d="M 47.091702 155.609206 
L 437.691702 155.609206 
" clip-path="url(#pf6f974cbba)" style="fill: none; stroke: #808080; stroke-width: 0.5; stroke-linecap: square"/>
     </g>
     <g id="line2d_30">
      <g>
       <use xlink:href="#mc902cf5668" x="47.091702" y="155.609206" style="stroke: #000000; stroke-width: 0.8"/>
      </g>
     </g>
     <g id="text_16">
      <!-- $\mathdefault{95}$ -->
      <g transform="translate(30.129031 159.158367) scale(0.1 -0.1)">
       <use xlink:href="#CMR17-39" transform="scale(0.996264)"/>
       <use xlink:href="#CMR17-35" transform="translate(45.690477 0) scale(0.996264)"/>
      </g>
     </g>
    </g>
    <g id="ytick_6">
     <g id="line2d_31">
      <path d="M 47.091702 122.533889 
L 437.691702 122.533889 
" clip-path="url(#pf6f974cbba)" style="fill: none; stroke: #808080; stroke-width: 0.5; stroke-linecap: square"/>
     </g>
     <g id="line2d_32">
      <g>
       <use xlink:href="#mc902cf5668" x="47.091702" y="122.533889" style="stroke: #000000; stroke-width: 0.8"/>
      </g>
     </g>
     <g id="text_17">
      <!-- $\mathdefault{100}$ -->
      <g transform="translate(25.147696 126.083049) scale(0.1 -0.1)">
       <use xlink:href="#CMR17-31" transform="scale(0.996264)"/>
       <use xlink:href="#CMR17-30" transform="translate(45.690477 0) scale(0.996264)"/>
       <use xlink:href="#CMR17-30" transform="translate(91.380954 0) scale(0.996264)"/>
      </g>
     </g>
    </g>
    <g id="ytick_7">
     <g id="line2d_33">
      <path d="M 47.091702 89.458572 
L 437.691702 89.458572 
" clip-path="url(#pf6f974cbba)" style="fill: none; stroke: #808080; stroke-width: 0.5; stroke-linecap: square"/>
     </g>
     <g id="line2d_34">
      <g>
       <use xlink:href="#mc902cf5668" x="47.091702" y="89.458572" style="stroke: #000000; stroke-width: 0.8"/>
      </g>
     </g>
     <g id="text_18">
      <!-- $\mathdefault{105}$ -->
      <g transform="translate(25.147696 93.007732) scale(0.1 -0.1)">
       <use xlink:href="#CMR17-31" transform="scale(0.996264)"/>
       <use xlink:href="#CMR17-30" transform="translate(45.690477 0) scale(0.996264)"/>
       <use xlink:href="#CMR17-35" transform="translate(91.380954 0) scale(0.996264)"/>
      </g>
     </g>
    </g>
    <g id="ytick_8">
     <g id="line2d_35">
      <path d="M 47.091702 56.383255 
L 437.691702 56.383255 
" clip-path="url(#pf6f974cbba)" style="fill: none; stroke: #808080; stroke-width: 0.5; stroke-linecap: square"/>
     </g>
     <g id="line2d_36">
      <g>
       <use xlink:href="#mc902cf5668" x="47.091702" y="56.383255" style="stroke: #000000; stroke-width: 0.8"/>
      </g>
     </g>
     <g id="text_19">
      <!-- $\mathdefault{110}$ -->
      <g transform="translate(25.147696 59.932415) scale(0.1 -0.1)">
       <use xlink:href="#CMR17-31" transform="scale(0.996264)"/>
       <use xlink:href="#CMR17-31" transform="translate(45.690477 0) scale(0.996264)"/>
       <use xlink:href="#CMR17-30" transform="translate(91.380954 0) scale(0.996264)"/>
      </g>
     </g>
    </g>
    <g id="ytick_9">
     <g id="line2d_37">
      <path d="M 47.091702 23.307938 
L 437.691702 23.307938 
" clip-path="url(#pf6f974cbba)" style="fill: none; stroke: #808080; stroke-width: 0.5; stroke-linecap: square"/>
     </g>
     <g id="line2d_38">
      <g>
       <use xlink:href="#mc902cf5668" x="47.091702" y="23.307938" style="stroke: #000000; stroke-width: 0.8"/>
      </g>
     </g>
     <g id="text_20">
      <!-- $\mathdefault{115}$ -->
      <g transform="translate(25.147696 26.857098) scale(0.1 -0.1)">
       <use xlink:href="#CMR17-31" transform="scale(0.996264)"/>
       <use xlink:href="#CMR17-31" transform="translate(45.690477 0) scale(0.996264)"/>
       <use xlink:href="#CMR17-35" transform="translate(91.380954 0) scale(0.996264)"/>
      </g>
     </g>
    </g>
    <g id="text_21">
     <!-- $v_{0}\ [km/h]$ -->
     <g transform="translate(17.660772 190.632337) rotate(-90) scale(0.14 -0.14)">
      <defs>
       <path id="CMMI12-76" d="M 2925 2389 
C 2925 2791 2720 2816 2669 2816 
C 2515 2816 2374 2663 2374 2535 
C 2374 2459 2419 2414 2445 2389 
C 2509 2331 2675 2159 2675 1827 
C 2675 1558 2291 64 1523 64 
C 1133 64 1056 390 1056 626 
C 1056 945 1203 1392 1376 1852 
C 1478 2114 1504 2178 1504 2305 
C 1504 2574 1312 2816 998 2816 
C 410 2816 173 1890 173 1839 
C 173 1814 198 1782 243 1782 
C 301 1782 307 1807 333 1897 
C 486 2446 736 2689 979 2689 
C 1037 2689 1146 2689 1146 2478 
C 1146 2312 1075 2127 979 1884 
C 672 1067 672 869 672 715 
C 672 575 691 313 890 134 
C 1120 -64 1440 -64 1498 -64 
C 2560 -64 2925 2024 2925 2389 
z
" transform="scale(0.015625)"/>
       <path id="CMR17-5b" d="M 1504 -1600 
L 1504 -1377 
L 902 -1377 
L 902 4544 
L 1504 4544 
L 1504 4767 
L 678 4767 
L 678 -1600 
L 1504 -1600 
z
" transform="scale(0.015625)"/>
       <path id="CMMI12-6b" d="M 1798 4257 
C 1805 4283 1818 4321 1818 4352 
C 1818 4416 1754 4416 1741 4416 
C 1734 4416 1504 4393 1389 4377 
C 1280 4377 1184 4358 1069 4358 
C 915 4345 870 4339 870 4224 
C 870 4160 934 4160 998 4160 
C 1325 4160 1325 4103 1325 4040 
C 1325 4015 1325 4002 1293 3888 
L 378 248 
C 352 152 352 140 352 101 
C 352 -38 461 -64 525 -64 
C 704 -64 742 77 794 275 
L 1094 1469 
C 1555 1418 1830 1226 1830 920 
C 1830 881 1830 856 1811 760 
C 1786 664 1786 588 1786 556 
C 1786 185 2029 -64 2355 -64 
C 2650 -64 2803 204 2854 294 
C 2989 530 3072 888 3072 913 
C 3072 945 3046 971 3008 971 
C 2950 971 2944 945 2918 843 
C 2829 511 2694 64 2368 64 
C 2240 64 2157 128 2157 370 
C 2157 492 2182 632 2208 728 
C 2234 843 2234 849 2234 926 
C 2234 1303 1894 1514 1306 1590 
C 1536 1731 1766 1980 1856 2076 
C 2221 2484 2470 2689 2765 2689 
C 2912 2689 2950 2650 2995 2612 
C 2758 2586 2669 2420 2669 2293 
C 2669 2139 2790 2088 2880 2088 
C 3053 2088 3206 2235 3206 2440 
C 3206 2625 3059 2816 2771 2816 
C 2419 2816 2131 2567 1677 2056 
C 1613 1980 1376 1737 1139 1648 
L 1798 4257 
z
" transform="scale(0.015625)"/>
       <path id="CMMI12-6d" d="M 1318 1871 
C 1331 1910 1491 2229 1728 2433 
C 1894 2586 2112 2689 2362 2689 
C 2618 2689 2707 2497 2707 2242 
C 2707 2203 2707 2076 2630 1775 
L 2470 1118 
C 2419 926 2298 453 2285 383 
C 2259 287 2221 121 2221 96 
C 2221 6 2291 -64 2387 -64 
C 2579 -64 2611 83 2669 313 
L 3053 1839 
C 3066 1890 3398 2689 4102 2689 
C 4358 2689 4448 2497 4448 2242 
C 4448 1884 4198 1188 4058 805 
C 4000 651 3968 568 3968 453 
C 3968 166 4166 -64 4474 -64 
C 5069 -64 5293 875 5293 913 
C 5293 945 5267 971 5229 971 
C 5171 971 5165 952 5133 843 
C 4986 332 4749 64 4493 64 
C 4429 64 4326 64 4326 269 
C 4326 436 4403 640 4429 710 
C 4544 1018 4832 1773 4832 2145 
C 4832 2528 4608 2816 4122 2816 
C 3693 2816 3347 2574 3091 2197 
C 3072 2542 2861 2816 2381 2816 
C 1811 2816 1510 2415 1395 2255 
C 1376 2618 1114 2816 832 2816 
C 646 2816 499 2727 378 2484 
C 262 2254 173 1865 173 1839 
C 173 1814 198 1782 243 1782 
C 294 1782 301 1788 339 1935 
C 435 2312 557 2689 813 2689 
C 960 2689 1011 2586 1011 2395 
C 1011 2254 947 2005 902 1807 
L 723 1118 
C 698 996 627 709 595 594 
C 550 428 480 128 480 96 
C 480 6 550 -64 646 -64 
C 723 -64 813 -26 864 70 
C 877 102 934 326 966 453 
L 1107 1028 
L 1318 1871 
z
" transform="scale(0.015625)"/>
       <path id="CMMI12-3d" d="M 2746 4562 
C 2746 4569 2784 4666 2784 4678 
C 2784 4755 2720 4800 2669 4800 
C 2637 4800 2579 4800 2528 4659 
L 384 -1363 
C 384 -1370 346 -1465 346 -1478 
C 346 -1555 410 -1600 461 -1600 
C 499 -1600 557 -1593 602 -1459 
L 2746 4562 
z
" transform="scale(0.015625)"/>
       <path id="CMMI12-68" d="M 1798 4257 
C 1805 4283 1818 4321 1818 4352 
C 1818 4416 1754 4416 1741 4416 
C 1734 4416 1421 4388 1389 4380 
C 1280 4373 1184 4358 1069 4358 
C 909 4345 864 4339 864 4224 
C 864 4160 915 4160 1005 4160 
C 1318 4160 1325 4103 1325 4040 
C 1325 4002 1312 3951 1306 3932 
L 378 248 
C 352 152 352 140 352 101 
C 352 -38 461 -64 525 -64 
C 634 -64 717 19 749 89 
L 1037 1245 
C 1069 1386 1107 1520 1139 1660 
C 1210 1929 1210 1935 1331 2120 
C 1453 2305 1741 2689 2234 2689 
C 2490 2689 2579 2497 2579 2242 
C 2579 1884 2330 1188 2189 805 
C 2131 651 2099 568 2099 453 
C 2099 166 2298 -64 2605 -64 
C 3200 -64 3424 875 3424 913 
C 3424 945 3398 971 3360 971 
C 3302 971 3296 952 3264 843 
C 3117 332 2880 64 2624 64 
C 2560 64 2458 64 2458 269 
C 2458 436 2534 640 2560 710 
C 2675 1018 2963 1773 2963 2145 
C 2963 2528 2739 2816 2253 2816 
C 1888 2816 1568 2644 1306 2312 
L 1798 4257 
z
" transform="scale(0.015625)"/>
       <path id="CMR17-5d" d="M 915 4767 
L 90 4767 
L 90 4544 
L 691 4544 
L 691 -1377 
L 90 -1377 
L 90 -1600 
L 915 -1600 
L 915 4767 
z
" transform="scale(0.015625)"/>
      </defs>
      <use xlink:href="#CMMI12-76" transform="scale(0.996264)"/>
      <use xlink:href="#CMR17-30" transform="translate(47.160581 -14.943915) scale(0.697382)"/>
      <use xlink:href="#CMR17-5b" transform="translate(107.337064 0) scale(0.996264)"/>
      <use xlink:href="#CMMI12-6b" transform="translate(132.208123 0) scale(0.996264)"/>
      <use xlink:href="#CMMI12-6d" transform="translate(186.287323 0) scale(0.996264)"/>
      <use xlink:href="#CMMI12-3d" transform="translate(271.614548 0) scale(0.996264)"/>
      <use xlink:href="#CMMI12-68" transform="translate(320.389467 0) scale(0.996264)"/>
      <use xlink:href="#CMR17-5d" transform="translate(376.544091 0) scale(0.996264)"/>
     </g>
    </g>
   </g>
   <g id="line2d_39">
    <path d="M 57.370649 48.664534 
" clip-path="url(#pf6f974cbba)" style="fill: none; stroke: #ffd700; stroke-width: 1.5; stroke-linecap: square"/>
    <defs>
     <path id="m6a1fe34e9b" d="M -3 3 
L 3 -3 
M -3 -3 
L 3 3 
" style="stroke: #ffd700"/>
    </defs>
    <g clip-path="url(#pf6f974cbba)">
     <use xlink:href="#m6a1fe34e9b" x="57.370649" y="48.664534" style="fill: #ffd700; stroke: #ffd700"/>
    </g>
   </g>
   <g id="line2d_40">
    <path d="M 98.486439 236.422005 
" clip-path="url(#pf6f974cbba)" style="fill: none; stroke: #ffd700; stroke-width: 1.5; stroke-linecap: square"/>
    <g clip-path="url(#pf6f974cbba)">
     <use xlink:href="#m6a1fe34e9b" x="98.486439" y="236.422005" style="fill: #ffd700; stroke: #ffd700"/>
    </g>
   </g>
   <g id="line2d_41">
    <path d="M 139.602228 35.737648 
" clip-path="url(#pf6f974cbba)" style="fill: none; stroke: #ffd700; stroke-width: 1.5; stroke-linecap: square"/>
    <g clip-path="url(#pf6f974cbba)">
     <use xlink:href="#m6a1fe34e9b" x="139.602228" y="35.737648" style="fill: #ffd700; stroke: #ffd700"/>
    </g>
   </g>
   <g id="line2d_42">
    <path d="M 180.718018 200.18218 
" clip-path="url(#pf6f974cbba)" style="fill: none; stroke: #ffd700; stroke-width: 1.5; stroke-linecap: square"/>
    <g clip-path="url(#pf6f974cbba)">
     <use xlink:href="#m6a1fe34e9b" x="180.718018" y="200.18218" style="fill: #ffd700; stroke: #ffd700"/>
    </g>
   </g>
   <g id="line2d_43">
    <path d="M 221.833807 90.155107 
" clip-path="url(#pf6f974cbba)" style="fill: none; stroke: #ffd700; stroke-width: 1.5; stroke-linecap: square"/>
    <g clip-path="url(#pf6f974cbba)">
     <use xlink:href="#m6a1fe34e9b" x="221.833807" y="90.155107" style="fill: #ffd700; stroke: #ffd700"/>
    </g>
   </g>
   <g id="line2d_44">
    <path d="M 262.949597 221.236556 
" clip-path="url(#pf6f974cbba)" style="fill: none; stroke: #ffd700; stroke-width: 1.5; stroke-linecap: square"/>
    <g clip-path="url(#pf6f974cbba)">
     <use xlink:href="#m6a1fe34e9b" x="262.949597" y="221.236556" style="fill: #ffd700; stroke: #ffd700"/>
    </g>
   </g>
   <g id="line2d_45">
    <path d="M 304.065386 95.800586 
" clip-path="url(#pf6f974cbba)" style="fill: none; stroke: #ffd700; stroke-width: 1.5; stroke-linecap: square"/>
    <g clip-path="url(#pf6f974cbba)">
     <use xlink:href="#m6a1fe34e9b" x="304.065386" y="95.800586" style="fill: #ffd700; stroke: #ffd700"/>
    </g>
   </g>
   <g id="line2d_46">
    <path d="M 345.181176 215.730441 
" clip-path="url(#pf6f974cbba)" style="fill: none; stroke: #ffd700; stroke-width: 1.5; stroke-linecap: square"/>
    <g clip-path="url(#pf6f974cbba)">
     <use xlink:href="#m6a1fe34e9b" x="345.181176" y="215.730441" style="fill: #ffd700; stroke: #ffd700"/>
    </g>
   </g>
   <g id="line2d_47">
    <path d="M 386.296965 157.912943 
" clip-path="url(#pf6f974cbba)" style="fill: none; stroke: #ffd700; stroke-width: 1.5; stroke-linecap: square"/>
    <g clip-path="url(#pf6f974cbba)">
     <use xlink:href="#m6a1fe34e9b" x="386.296965" y="157.912943" style="fill: #ffd700; stroke: #ffd700"/>
    </g>
   </g>
   <g id="line2d_48">
    <path d="M 427.412755 255.033788 
" clip-path="url(#pf6f974cbba)" style="fill: none; stroke: #ffd700; stroke-width: 1.5; stroke-linecap: square"/>
    <g clip-path="url(#pf6f974cbba)">
     <use xlink:href="#m6a1fe34e9b" x="427.412755" y="255.033788" style="fill: #ffd700; stroke: #ffd700"/>
    </g>
   </g>
   <g id="line2d_49">
    <path d="M 57.370649 115.094475 
" clip-path="url(#pf6f974cbba)" style="fill: none; stroke: #808000; stroke-width: 1.5; stroke-linecap: square"/>
    <defs>
     <path id="mb1ab85d1eb" d="M -3 3 
L 3 -3 
M -3 -3 
L 3 3 
" style="stroke: #808000"/>
    </defs>
    <g clip-path="url(#pf6f974cbba)">
     <use xlink:href="#mb1ab85d1eb" x="57.370649" y="115.094475" style="fill: #808000; stroke: #808000"/>
    </g>
   </g>
   <g id="line2d_50">
    <path d="M 98.486439 281.838931 
" clip-path="url(#pf6f974cbba)" style="fill: none; stroke: #808000; stroke-width: 1.5; stroke-linecap: square"/>
    <g clip-path="url(#pf6f974cbba)">
     <use xlink:href="#mb1ab85d1eb" x="98.486439" y="281.838931" style="fill: #808000; stroke: #808000"/>
    </g>
   </g>
   <g id="line2d_51">
    <path d="M 139.602228 120.861376 
" clip-path="url(#pf6f974cbba)" style="fill: none; stroke: #808000; stroke-width: 1.5; stroke-linecap: square"/>
    <g clip-path="url(#pf6f974cbba)">
     <use xlink:href="#mb1ab85d1eb" x="139.602228" y="120.861376" style="fill: #808000; stroke: #808000"/>
    </g>
   </g>
   <g id="line2d_52">
    <path d="M 180.718018 253.446044 
" clip-path="url(#pf6f974cbba)" style="fill: none; stroke: #808000; stroke-width: 1.5; stroke-linecap: square"/>
    <g clip-path="url(#pf6f974cbba)">
     <use xlink:href="#mb1ab85d1eb" x="180.718018" y="253.446044" style="fill: #808000; stroke: #808000"/>
    </g>
   </g>
   <g id="line2d_53">
    <path d="M 221.833807 137.397579 
" clip-path="url(#pf6f974cbba)" style="fill: none; stroke: #808000; stroke-width: 1.5; stroke-linecap: square"/>
    <g clip-path="url(#pf6f974cbba)">
     <use xlink:href="#mb1ab85d1eb" x="221.833807" y="137.397579" style="fill: #808000; stroke: #808000"/>
    </g>
   </g>
   <g id="line2d_54">
    <path d="M 262.949597 258.552485 
" clip-path="url(#pf6f974cbba)" style="fill: none; stroke: #808000; stroke-width: 1.5; stroke-linecap: square"/>
    <g clip-path="url(#pf6f974cbba)">
     <use xlink:href="#mb1ab85d1eb" x="262.949597" y="258.552485" style="fill: #808000; stroke: #808000"/>
    </g>
   </g>
   <g id="line2d_55">
    <path d="M 304.065386 154.12419 
" clip-path="url(#pf6f974cbba)" style="fill: none; stroke: #808000; stroke-width: 1.5; stroke-linecap: square"/>
    <g clip-path="url(#pf6f974cbba)">
     <use xlink:href="#mb1ab85d1eb" x="304.065386" y="154.12419" style="fill: #808000; stroke: #808000"/>
    </g>
   </g>
   <g id="line2d_56">
    <path d="M 345.181176 262.25748 
" clip-path="url(#pf6f974cbba)" style="fill: none; stroke: #808000; stroke-width: 1.5; stroke-linecap: square"/>
    <g clip-path="url(#pf6f974cbba)">
     <use xlink:href="#mb1ab85d1eb" x="345.181176" y="262.25748" style="fill: #808000; stroke: #808000"/>
    </g>
   </g>
   <g id="line2d_57">
    <path d="M 386.296965 200.590711 
" clip-path="url(#pf6f974cbba)" style="fill: none; stroke: #808000; stroke-width: 1.5; stroke-linecap: square"/>
    <g clip-path="url(#pf6f974cbba)">
     <use xlink:href="#mb1ab85d1eb" x="386.296965" y="200.590711" style="fill: #808000; stroke: #808000"/>
    </g>
   </g>
   <g id="line2d_58">
    <path d="M 427.412755 287.737648 
" clip-path="url(#pf6f974cbba)" style="fill: none; stroke: #808000; stroke-width: 1.5; stroke-linecap: square"/>
    <g clip-path="url(#pf6f974cbba)">
     <use xlink:href="#mb1ab85d1eb" x="427.412755" y="287.737648" style="fill: #808000; stroke: #808000"/>
    </g>
   </g>
   <g id="line2d_59">
    <path d="M 57.370649 149.182413 
L 98.486439 149.182413 
L 139.602228 149.182413 
L 180.718018 149.182413 
L 221.833807 149.182413 
L 262.949597 149.182413 
L 304.065386 149.182413 
L 345.181176 149.182413 
L 386.296965 149.182413 
L 427.412755 149.182413 
" clip-path="url(#pf6f974cbba)" style="fill: none; stroke: #ffd700; stroke-width: 1.5; stroke-linecap: square"/>
   </g>
   <g id="line2d_60">
    <path d="M 57.370649 202.868257 
L 98.486439 202.868257 
L 139.602228 202.868257 
L 180.718018 202.868257 
L 221.833807 202.868257 
L 262.949597 202.868257 
L 304.065386 202.868257 
L 345.181176 202.868257 
L 386.296965 202.868257 
L 427.412755 202.868257 
" clip-path="url(#pf6f974cbba)" style="fill: none; stroke: #808000; stroke-width: 1.5; stroke-linecap: square"/>
   </g>
   <g id="patch_3">
    <path d="M 47.091702 300.337648 
L 47.091702 23.137648 
" style="fill: none; stroke: #000000; stroke-width: 0.8; stroke-linejoin: miter; stroke-linecap: square"/>
   </g>
   <g id="patch_4">
    <path d="M 437.691702 300.337648 
L 437.691702 23.137648 
" style="fill: none; stroke: #000000; stroke-width: 0.8; stroke-linejoin: miter; stroke-linecap: square"/>
   </g>
   <g id="patch_5">
    <path d="M 47.091702 300.337648 
L 437.691702 300.337648 
" style="fill: none; stroke: #000000; stroke-width: 0.8; stroke-linejoin: miter; stroke-linecap: square"/>
   </g>
   <g id="patch_6">
    <path d="M 47.091702 23.137648 
L 437.691702 23.137648 
" style="fill: none; stroke: #000000; stroke-width: 0.8; stroke-linejoin: miter; stroke-linecap: square"/>
   </g>
   <g id="text_22">
    <!-- $Velocities\ v_0\ of\ the\ leading\ car$ -->
    <g transform="translate(147.095491 17.137648) scale(0.14 -0.14)">
     <defs>
      <path id="CMMI12-56" d="M 3962 3640 
C 4179 3984 4378 4136 4704 4162 
C 4768 4168 4819 4168 4819 4282 
C 4819 4308 4806 4346 4749 4346 
C 4634 4346 4358 4346 4243 4346 
C 4058 4346 3866 4346 3686 4346 
C 3635 4346 3571 4346 3571 4226 
C 3571 4168 3629 4162 3654 4162 
C 3891 4143 3917 4029 3917 3952 
C 3917 3857 3827 3710 3821 3704 
L 1811 540 
L 1363 3969 
C 1363 4160 1696 4160 1766 4160 
C 1862 4160 1920 4160 1920 4282 
C 1920 4346 1850 4346 1830 4346 
C 1722 4346 1594 4346 1485 4346 
L 1126 4346 
C 659 4346 467 4346 461 4346 
C 422 4346 346 4346 346 4230 
C 346 4160 390 4160 493 4160 
C 819 4160 838 4102 858 3944 
L 1370 24 
C 1389 -109 1389 -128 1478 -128 
C 1555 -128 1587 -109 1651 -8 
L 3962 3640 
z
" transform="scale(0.015625)"/>
      <path id="CMMI12-6c" d="M 1626 4257 
C 1632 4282 1645 4320 1645 4352 
C 1645 4416 1581 4416 1568 4416 
C 1562 4416 1331 4393 1216 4377 
C 1107 4377 1011 4358 896 4358 
C 742 4345 698 4339 698 4224 
C 698 4160 762 4160 826 4160 
C 1152 4160 1152 4102 1152 4039 
C 1152 4014 1152 4001 1120 3887 
L 326 731 
C 307 661 294 610 294 509 
C 294 191 531 -64 858 -64 
C 1069 -64 1210 76 1312 274 
C 1421 483 1510 884 1510 909 
C 1510 941 1485 967 1446 967 
C 1389 967 1382 935 1357 840 
C 1242 401 1126 64 870 64 
C 678 64 678 267 678 357 
C 678 382 678 515 723 694 
L 1626 4257 
z
" transform="scale(0.015625)"/>
      <path id="CMMI12-6f" d="M 2918 1756 
C 2918 2363 2522 2816 1939 2816 
C 1094 2816 262 1897 262 996 
C 262 390 659 -64 1242 -64 
C 2093 -64 2918 856 2918 1756 
z
M 1248 64 
C 928 64 691 319 691 766 
C 691 1060 845 1712 1024 2031 
C 1312 2523 1670 2689 1933 2689 
C 2246 2689 2490 2433 2490 1986 
C 2490 1731 2355 1047 2112 658 
C 1850 230 1498 64 1248 64 
z
" transform="scale(0.015625)"/>
      <path id="CMMI12-63" d="M 2502 2431 
C 2381 2431 2323 2431 2234 2355 
C 2195 2323 2125 2227 2125 2125 
C 2125 1997 2221 1920 2342 1920 
C 2496 1920 2669 2044 2669 2292 
C 2669 2588 2374 2816 1933 2816 
C 1094 2816 256 1903 256 996 
C 256 441 602 -64 1254 -64 
C 2125 -64 2675 622 2675 706 
C 2675 744 2637 776 2611 776 
C 2592 776 2586 770 2528 713 
C 2118 162 1510 64 1267 64 
C 826 64 685 446 685 764 
C 685 988 794 1605 1024 2039 
C 1190 2338 1536 2682 1939 2682 
C 2022 2682 2374 2682 2502 2431 
z
" transform="scale(0.015625)"/>
      <path id="CMMI12-69" d="M 1811 913 
C 1811 945 1786 971 1747 971 
C 1690 971 1683 952 1651 843 
C 1485 262 1222 64 1011 64 
C 934 64 845 83 845 275 
C 845 447 922 639 992 830 
L 1440 2018 
C 1459 2069 1504 2184 1504 2305 
C 1504 2574 1312 2816 998 2816 
C 410 2816 173 1890 173 1839 
C 173 1814 198 1782 243 1782 
C 301 1782 307 1807 333 1896 
C 486 2428 730 2682 979 2682 
C 1037 2682 1146 2682 1146 2478 
C 1146 2312 1062 2101 1011 1961 
L 563 773 
C 525 671 486 568 486 453 
C 486 166 685 -64 992 -64 
C 1581 -64 1811 869 1811 913 
z
M 1760 4013 
C 1760 4109 1683 4224 1542 4224 
C 1395 4224 1229 4083 1229 3917 
C 1229 3758 1363 3707 1440 3707 
C 1613 3707 1760 3873 1760 4013 
z
" transform="scale(0.015625)"/>
      <path id="CMMI12-66" d="M 2854 2566 
C 2982 2566 3034 2566 3034 2688 
C 3034 2752 2982 2752 2867 2752 
L 2349 2752 
C 2470 3429 2560 3897 2611 4107 
C 2650 4265 2784 4416 2950 4416 
C 3085 4416 3219 4358 3283 4298 
C 3034 4272 2957 4082 2957 3969 
C 2957 3837 3053 3759 3174 3759 
C 3302 3759 3494 3870 3494 4119 
C 3494 4393 3226 4544 2944 4544 
C 2669 4544 2400 4334 2272 4078 
C 2157 3848 2093 3611 1946 2752 
L 1517 2752 
C 1395 2752 1331 2752 1331 2637 
C 1331 2566 1370 2566 1498 2566 
L 1907 2566 
C 1792 1976 1530 542 1382 -137 
C 1274 -689 1178 -1152 858 -1152 
C 838 -1152 653 -1152 538 -1031 
C 864 -1005 864 -726 864 -720 
C 864 -593 768 -517 646 -517 
C 518 -517 326 -625 326 -867 
C 326 -1140 608 -1280 858 -1280 
C 1510 -1280 1779 -118 1850 199 
C 1965 688 2278 2376 2310 2566 
L 2854 2566 
z
" transform="scale(0.015625)"/>
      <path id="CMMI12-6e" d="M 1318 1871 
C 1331 1910 1491 2229 1728 2433 
C 1894 2586 2112 2689 2362 2689 
C 2618 2689 2707 2497 2707 2242 
C 2707 1878 2445 1150 2317 805 
C 2259 651 2227 568 2227 453 
C 2227 166 2426 -64 2733 -64 
C 3328 -64 3552 875 3552 913 
C 3552 945 3526 971 3488 971 
C 3430 971 3424 952 3392 843 
C 3245 319 3002 64 2752 64 
C 2688 64 2586 64 2586 269 
C 2586 429 2656 621 2694 710 
C 2822 1063 3091 1780 3091 2145 
C 3091 2528 2867 2816 2381 2816 
C 1811 2816 1510 2415 1395 2255 
C 1376 2618 1114 2816 832 2816 
C 627 2816 486 2695 378 2478 
C 262 2248 173 1865 173 1839 
C 173 1814 198 1782 243 1782 
C 294 1782 301 1788 339 1935 
C 442 2325 557 2689 813 2689 
C 960 2689 1011 2586 1011 2395 
C 1011 2254 947 2005 902 1807 
L 723 1118 
C 698 996 627 709 595 594 
C 550 428 480 128 480 96 
C 480 6 550 -64 646 -64 
C 723 -64 813 -26 864 70 
C 877 102 934 326 966 453 
L 1107 1028 
L 1318 1871 
z
" transform="scale(0.015625)"/>
      <path id="CMMI12-67" d="M 2163 811 
C 2138 709 2125 683 2042 588 
C 1779 249 1510 128 1312 128 
C 1101 128 902 294 902 734 
C 902 1073 1094 1788 1235 2076 
C 1421 2433 1709 2689 1978 2689 
C 2400 2689 2483 2165 2483 2127 
L 2464 2037 
L 2163 811 
z
M 2560 2395 
C 2477 2580 2298 2816 1978 2816 
C 1280 2816 486 1941 486 990 
C 486 326 890 0 1299 0 
C 1638 0 1939 268 2054 396 
L 1914 -171 
C 1824 -516 1786 -674 1555 -894 
C 1293 -1152 1050 -1152 909 -1152 
C 717 -1152 557 -1139 397 -1089 
C 602 -1033 653 -858 653 -789 
C 653 -689 576 -588 435 -588 
C 282 -588 115 -714 115 -922 
C 115 -1180 378 -1280 922 -1280 
C 1747 -1280 2176 -753 2259 -410 
L 2970 2435 
C 2989 2511 2989 2524 2989 2536 
C 2989 2625 2918 2695 2822 2695 
C 2669 2695 2579 2567 2560 2395 
z
" transform="scale(0.015625)"/>
      <path id="CMMI12-72" d="M 2490 2612 
C 2291 2574 2189 2433 2189 2293 
C 2189 2139 2310 2088 2400 2088 
C 2579 2088 2726 2242 2726 2433 
C 2726 2638 2528 2816 2208 2816 
C 1952 2816 1658 2701 1389 2312 
C 1344 2650 1088 2816 832 2816 
C 582 2816 454 2625 378 2484 
C 269 2254 173 1871 173 1839 
C 173 1814 198 1782 243 1782 
C 294 1782 301 1788 339 1935 
C 435 2318 557 2689 813 2689 
C 966 2689 1011 2580 1011 2395 
C 1011 2254 947 2005 902 1807 
L 723 1118 
C 698 996 627 709 595 594 
C 550 428 480 128 480 96 
C 480 6 550 -64 646 -64 
C 717 -64 838 -19 877 109 
C 896 160 1133 1124 1171 1271 
C 1203 1411 1242 1546 1274 1686 
C 1299 1775 1325 1878 1344 1961 
C 1363 2018 1536 2331 1696 2472 
C 1773 2542 1939 2689 2202 2689 
C 2304 2689 2406 2670 2490 2612 
z
" transform="scale(0.015625)"/>
     </defs>
     <use xlink:href="#CMMI12-56" transform="scale(0.996264)"/>
     <use xlink:href="#CMMI12-65" transform="translate(78.547321 0) scale(0.996264)"/>
     <use xlink:href="#CMMI12-6c" transform="translate(123.759322 0) scale(0.996264)"/>
     <use xlink:href="#CMMI12-6f" transform="translate(155.007726 0) scale(0.996264)"/>
     <use xlink:href="#CMMI12-63" transform="translate(201.903035 0) scale(0.996264)"/>
     <use xlink:href="#CMMI12-69" transform="translate(243.886269 0) scale(0.996264)"/>
     <use xlink:href="#CMMI12-74" transform="translate(277.164871 0) scale(0.996264)"/>
     <use xlink:href="#CMMI12-69" transform="translate(312.391201 0) scale(0.996264)"/>
     <use xlink:href="#CMMI12-65" transform="translate(345.669803 0) scale(0.996264)"/>
     <use xlink:href="#CMMI12-73" transform="translate(390.881804 0) scale(0.996264)"/>
     <use xlink:href="#CMMI12-76" transform="translate(464.527021 0) scale(0.996264)"/>
     <use xlink:href="#CMR17-30" transform="translate(511.687602 -14.943915) scale(0.697382)"/>
     <use xlink:href="#CMMI12-6f" transform="translate(571.864085 0) scale(0.996264)"/>
     <use xlink:href="#CMMI12-66" transform="translate(618.759395 0) scale(0.996264)"/>
     <use xlink:href="#CMMI12-74" transform="translate(705.174869 0) scale(0.996264)"/>
     <use xlink:href="#CMMI12-68" transform="translate(740.401199 0) scale(0.996264)"/>
     <use xlink:href="#CMMI12-65" transform="translate(796.555823 0) scale(0.996264)"/>
     <use xlink:href="#CMMI12-6c" transform="translate(869.462994 0) scale(0.996264)"/>
     <use xlink:href="#CMMI12-65" transform="translate(900.711398 0) scale(0.996264)"/>
     <use xlink:href="#CMMI12-61" transform="translate(945.923399 0) scale(0.996264)"/>
     <use xlink:href="#CMMI12-64" transform="translate(997.131256 0) scale(0.996264)"/>
     <use xlink:href="#CMMI12-69" transform="translate(1047.820353 0) scale(0.996264)"/>
     <use xlink:href="#CMMI12-6e" transform="translate(1081.098955 0) scale(0.996264)"/>
     <use xlink:href="#CMMI12-67" transform="translate(1139.329002 0) scale(0.996264)"/>
     <use xlink:href="#CMMI12-63" transform="translate(1217.309662 0) scale(0.996264)"/>
     <use xlink:href="#CMMI12-61" transform="translate(1259.292895 0) scale(0.996264)"/>
     <use xlink:href="#CMMI12-72" transform="translate(1310.500753 0) scale(0.996264)"/>
    </g>
   </g>
   <g id="legend_1">
    <g id="patch_7">
     <path d="M 382.074208 59.578262 
L 430.691702 59.578262 
Q 432.691702 59.578262 432.691702 57.578262 
L 432.691702 30.137648 
Q 432.691702 28.137648 430.691702 28.137648 
L 382.074208 28.137648 
Q 380.074208 28.137648 380.074208 30.137648 
L 380.074208 57.578262 
Q 380.074208 59.578262 382.074208 59.578262 
z
" style="fill: #ffffff; opacity: 0.8; stroke: #cccccc; stroke-linejoin: miter"/>
    </g>
    <g id="line2d_61">
     <path d="M 384.074208 35.735969 
L 394.074208 35.735969 
L 404.074208 35.735969 
" style="fill: none; stroke: #ffd700; stroke-width: 1.5; stroke-linecap: square"/>
    </g>
    <g id="text_23">
     <!-- Lin -->
     <g transform="translate(412.074208 39.235969) scale(0.1 -0.1)">
      <defs>
       <path id="NimbusSanL-Regu-4c" d="M 1107 4672 
L 512 4672 
L 512 0 
L 3411 0 
L 3411 526 
L 1107 526 
L 1107 4672 
z
" transform="scale(0.015625)"/>
       <path id="NimbusSanL-Regu-69" d="M 960 3359 
L 429 3359 
L 429 0 
L 960 0 
L 960 3359 
z
M 960 4672 
L 422 4672 
L 422 3999 
L 960 3999 
L 960 4672 
z
" transform="scale(0.015625)"/>
       <path id="NimbusSanL-Regu-6e" d="M 448 3359 
L 448 0 
L 986 0 
L 986 1853 
C 986 2539 1344 2988 1894 2988 
C 2317 2988 2586 2731 2586 2327 
L 2586 0 
L 3117 0 
L 3117 2539 
C 3117 3097 2701 3456 2054 3456 
C 1555 3456 1235 3263 941 2796 
L 941 3359 
L 448 3359 
z
" transform="scale(0.015625)"/>
      </defs>
      <use xlink:href="#NimbusSanL-Regu-4c" transform="scale(0.996264)"/>
      <use xlink:href="#NimbusSanL-Regu-69" transform="translate(55.391677 0) scale(0.996264)"/>
      <use xlink:href="#NimbusSanL-Regu-6e" transform="translate(77.508461 0) scale(0.996264)"/>
     </g>
    </g>
    <g id="line2d_62">
     <path d="M 384.074208 49.956275 
L 394.074208 49.956275 
L 404.074208 49.956275 
" style="fill: none; stroke: #808000; stroke-width: 1.5; stroke-linecap: square"/>
    </g>
    <g id="text_24">
     <!-- Log -->
     <g transform="translate(412.074208 53.456275) scale(0.1 -0.1)">
      <defs>
       <path id="NimbusSanL-Regu-6f" d="M 1741 3456 
C 800 3456 230 2786 230 1663 
C 230 541 794 -128 1747 -128 
C 2688 -128 3264 541 3264 1638 
C 3264 2792 2707 3456 1741 3456 
z
M 1747 2962 
C 2349 2962 2707 2472 2707 1645 
C 2707 861 2336 365 1747 365 
C 1152 365 787 855 787 1663 
C 787 2466 1152 2962 1747 2962 
z
" transform="scale(0.015625)"/>
       <path id="NimbusSanL-Regu-67" d="M 2637 3341 
L 2637 2854 
C 2368 3252 2042 3438 1613 3438 
C 762 3438 186 2692 186 1600 
C 186 1048 333 598 608 276 
C 858 -7 1216 -173 1568 -173 
C 1990 -173 2285 6 2586 429 
L 2586 258 
C 2586 -192 2528 -465 2394 -649 
C 2253 -844 1978 -959 1651 -959 
C 1408 -959 1190 -896 1043 -783 
C 922 -688 870 -600 838 -406 
L 294 -406 
C 352 -1033 845 -1408 1632 -1408 
C 2131 -1408 2560 -1247 2778 -979 
C 3034 -671 3130 -249 3130 538 
L 3130 3341 
L 2637 3341 
z
M 1670 2944 
C 2246 2944 2586 2455 2586 1613 
C 2586 808 2240 320 1677 320 
C 1094 320 742 816 742 1632 
C 742 2442 1101 2944 1670 2944 
z
" transform="scale(0.015625)"/>
      </defs>
      <use xlink:href="#NimbusSanL-Regu-4c" transform="scale(0.996264)"/>
      <use xlink:href="#NimbusSanL-Regu-6f" transform="translate(55.391677 0) scale(0.996264)"/>
      <use xlink:href="#NimbusSanL-Regu-67" transform="translate(110.783354 0) scale(0.996264)"/>
     </g>
    </g>
   </g>
  </g>
 </g>
 <defs>
  <clipPath id="pf6f974cbba">
   <rect x="47.091702" y="23.137648" width="390.6" height="277.2"/>
  </clipPath>
 </defs>
</svg>
