<?xml version="1.0" encoding="utf-8" standalone="no"?>
<!DOCTYPE svg PUBLIC "-//W3C//DTD SVG 1.1//EN"
  "http://www.w3.org/Graphics/SVG/1.1/DTD/svg11.dtd">
<svg xmlns:xlink="http://www.w3.org/1999/xlink" width="444.891702pt" height="359.573739pt" viewBox="0 0 444.891702 359.573739" xmlns="http://www.w3.org/2000/svg" version="1.1">
 <metadata>
  <rdf:RDF xmlns:dc="http://purl.org/dc/elements/1.1/" xmlns:cc="http://creativecommons.org/ns#" xmlns:rdf="http://www.w3.org/1999/02/22-rdf-syntax-ns#">
   <cc:Work>
    <dc:type rdf:resource="http://purl.org/dc/dcmitype/StillImage"/>
    <dc:date>2023-08-28T19:31:31.762493</dc:date>
    <dc:format>image/svg+xml</dc:format>
    <dc:creator>
     <cc:Agent>
      <dc:title>Matplotlib v3.7.1, https://matplotlib.org/</dc:title>
     </cc:Agent>
    </dc:creator>
   </cc:Work>
  </rdf:RDF>
 </metadata>
 <defs>
  <style type="text/css">*{stroke-linejoin: round; stroke-linecap: butt}</style>
 </defs>
 <g id="figure_1">
  <g id="patch_1">
   <path d="M 0 359.573739 
L 444.891702 359.573739 
L 444.891702 0 
L 0 0 
z
" style="fill: #ffffff"/>
  </g>
  <g id="axes_1">
   <g id="patch_2">
    <path d="M 47.091702 315.861353 
L 437.691702 315.861353 
L 437.691702 38.661353 
L 47.091702 38.661353 
z
" style="fill: #ffffff"/>
   </g>
   <g id="PathCollection_1">
    <defs>
     <path id="m4081705269" d="M 0 3 
C 0.795609 3 1.55874 2.683901 2.12132 2.12132 
C 2.683901 1.55874 3 0.795609 3 0 
C 3 -0.795609 2.683901 -1.55874 2.12132 -2.12132 
C 1.55874 -2.683901 0.795609 -3 0 -3 
C -0.795609 -3 -1.55874 -2.683901 -2.12132 -2.12132 
C -2.683901 -1.55874 -3 -0.795609 -3 0 
C -3 0.795609 -2.683901 1.55874 -2.12132 2.12132 
C -1.55874 2.683901 -0.795609 3 0 3 
z
" style="stroke: #00008b; stroke-opacity: 0.2"/>
    </defs>
    <g clip-path="url(#pdf8023f8f4)">
     <use xlink:href="#m4081705269" x="57.370649" y="147.615708" style="fill: #00008b; fill-opacity: 0.2; stroke: #00008b; stroke-opacity: 0.2"/>
     <use xlink:href="#m4081705269" x="57.370649" y="122.13913" style="fill: #00008b; fill-opacity: 0.2; stroke: #00008b; stroke-opacity: 0.2"/>
     <use xlink:href="#m4081705269" x="57.370649" y="143.202417" style="fill: #00008b; fill-opacity: 0.2; stroke: #00008b; stroke-opacity: 0.2"/>
     <use xlink:href="#m4081705269" x="57.370649" y="134.274161" style="fill: #00008b; fill-opacity: 0.2; stroke: #00008b; stroke-opacity: 0.2"/>
     <use xlink:href="#m4081705269" x="57.370649" y="141.824008" style="fill: #00008b; fill-opacity: 0.2; stroke: #00008b; stroke-opacity: 0.2"/>
     <use xlink:href="#m4081705269" x="57.370649" y="147.720694" style="fill: #00008b; fill-opacity: 0.2; stroke: #00008b; stroke-opacity: 0.2"/>
     <use xlink:href="#m4081705269" x="57.370649" y="96.811526" style="fill: #00008b; fill-opacity: 0.2; stroke: #00008b; stroke-opacity: 0.2"/>
     <use xlink:href="#m4081705269" x="57.370649" y="113.175078" style="fill: #00008b; fill-opacity: 0.2; stroke: #00008b; stroke-opacity: 0.2"/>
     <use xlink:href="#m4081705269" x="57.370649" y="76.908114" style="fill: #00008b; fill-opacity: 0.2; stroke: #00008b; stroke-opacity: 0.2"/>
     <use xlink:href="#m4081705269" x="57.370649" y="95.806218" style="fill: #00008b; fill-opacity: 0.2; stroke: #00008b; stroke-opacity: 0.2"/>
     <use xlink:href="#m4081705269" x="57.370649" y="106.627264" style="fill: #00008b; fill-opacity: 0.2; stroke: #00008b; stroke-opacity: 0.2"/>
     <use xlink:href="#m4081705269" x="57.370649" y="148.774592" style="fill: #00008b; fill-opacity: 0.2; stroke: #00008b; stroke-opacity: 0.2"/>
     <use xlink:href="#m4081705269" x="57.370649" y="88.056765" style="fill: #00008b; fill-opacity: 0.2; stroke: #00008b; stroke-opacity: 0.2"/>
     <use xlink:href="#m4081705269" x="57.370649" y="123.992877" style="fill: #00008b; fill-opacity: 0.2; stroke: #00008b; stroke-opacity: 0.2"/>
     <use xlink:href="#m4081705269" x="57.370649" y="132.050663" style="fill: #00008b; fill-opacity: 0.2; stroke: #00008b; stroke-opacity: 0.2"/>
     <use xlink:href="#m4081705269" x="57.370649" y="111.303391" style="fill: #00008b; fill-opacity: 0.2; stroke: #00008b; stroke-opacity: 0.2"/>
     <use xlink:href="#m4081705269" x="57.370649" y="66.570581" style="fill: #00008b; fill-opacity: 0.2; stroke: #00008b; stroke-opacity: 0.2"/>
     <use xlink:href="#m4081705269" x="57.370649" y="63.536163" style="fill: #00008b; fill-opacity: 0.2; stroke: #00008b; stroke-opacity: 0.2"/>
     <use xlink:href="#m4081705269" x="57.370649" y="130.039273" style="fill: #00008b; fill-opacity: 0.2; stroke: #00008b; stroke-opacity: 0.2"/>
     <use xlink:href="#m4081705269" x="57.370649" y="133.842889" style="fill: #00008b; fill-opacity: 0.2; stroke: #00008b; stroke-opacity: 0.2"/>
     <use xlink:href="#m4081705269" x="57.370649" y="112.083613" style="fill: #00008b; fill-opacity: 0.2; stroke: #00008b; stroke-opacity: 0.2"/>
     <use xlink:href="#m4081705269" x="57.370649" y="176.862226" style="fill: #00008b; fill-opacity: 0.2; stroke: #00008b; stroke-opacity: 0.2"/>
     <use xlink:href="#m4081705269" x="57.370649" y="176.087271" style="fill: #00008b; fill-opacity: 0.2; stroke: #00008b; stroke-opacity: 0.2"/>
     <use xlink:href="#m4081705269" x="57.370649" y="218.011783" style="fill: #00008b; fill-opacity: 0.2; stroke: #00008b; stroke-opacity: 0.2"/>
     <use xlink:href="#m4081705269" x="57.370649" y="257.293492" style="fill: #00008b; fill-opacity: 0.2; stroke: #00008b; stroke-opacity: 0.2"/>
     <use xlink:href="#m4081705269" x="57.370649" y="234.175598" style="fill: #00008b; fill-opacity: 0.2; stroke: #00008b; stroke-opacity: 0.2"/>
     <use xlink:href="#m4081705269" x="57.370649" y="132.413636" style="fill: #00008b; fill-opacity: 0.2; stroke: #00008b; stroke-opacity: 0.2"/>
     <use xlink:href="#m4081705269" x="57.370649" y="278.996903" style="fill: #00008b; fill-opacity: 0.2; stroke: #00008b; stroke-opacity: 0.2"/>
    </g>
   </g>
   <g id="PathCollection_2">
    <g clip-path="url(#pdf8023f8f4)">
     <use xlink:href="#m4081705269" x="98.486439" y="229.47746" style="fill: #00008b; fill-opacity: 0.2; stroke: #00008b; stroke-opacity: 0.2"/>
     <use xlink:href="#m4081705269" x="98.486439" y="202.203043" style="fill: #00008b; fill-opacity: 0.2; stroke: #00008b; stroke-opacity: 0.2"/>
     <use xlink:href="#m4081705269" x="98.486439" y="230.078596" style="fill: #00008b; fill-opacity: 0.2; stroke: #00008b; stroke-opacity: 0.2"/>
     <use xlink:href="#m4081705269" x="98.486439" y="187.496863" style="fill: #00008b; fill-opacity: 0.2; stroke: #00008b; stroke-opacity: 0.2"/>
     <use xlink:href="#m4081705269" x="98.486439" y="240.848548" style="fill: #00008b; fill-opacity: 0.2; stroke: #00008b; stroke-opacity: 0.2"/>
     <use xlink:href="#m4081705269" x="98.486439" y="198.804795" style="fill: #00008b; fill-opacity: 0.2; stroke: #00008b; stroke-opacity: 0.2"/>
     <use xlink:href="#m4081705269" x="98.486439" y="199.895747" style="fill: #00008b; fill-opacity: 0.2; stroke: #00008b; stroke-opacity: 0.2"/>
     <use xlink:href="#m4081705269" x="98.486439" y="193.564876" style="fill: #00008b; fill-opacity: 0.2; stroke: #00008b; stroke-opacity: 0.2"/>
     <use xlink:href="#m4081705269" x="98.486439" y="191.972204" style="fill: #00008b; fill-opacity: 0.2; stroke: #00008b; stroke-opacity: 0.2"/>
     <use xlink:href="#m4081705269" x="98.486439" y="182.514502" style="fill: #00008b; fill-opacity: 0.2; stroke: #00008b; stroke-opacity: 0.2"/>
     <use xlink:href="#m4081705269" x="98.486439" y="194.462427" style="fill: #00008b; fill-opacity: 0.2; stroke: #00008b; stroke-opacity: 0.2"/>
     <use xlink:href="#m4081705269" x="98.486439" y="217.440466" style="fill: #00008b; fill-opacity: 0.2; stroke: #00008b; stroke-opacity: 0.2"/>
     <use xlink:href="#m4081705269" x="98.486439" y="191.540283" style="fill: #00008b; fill-opacity: 0.2; stroke: #00008b; stroke-opacity: 0.2"/>
     <use xlink:href="#m4081705269" x="98.486439" y="198.927896" style="fill: #00008b; fill-opacity: 0.2; stroke: #00008b; stroke-opacity: 0.2"/>
     <use xlink:href="#m4081705269" x="98.486439" y="184.526247" style="fill: #00008b; fill-opacity: 0.2; stroke: #00008b; stroke-opacity: 0.2"/>
     <use xlink:href="#m4081705269" x="98.486439" y="172.127371" style="fill: #00008b; fill-opacity: 0.2; stroke: #00008b; stroke-opacity: 0.2"/>
     <use xlink:href="#m4081705269" x="98.486439" y="175.327899" style="fill: #00008b; fill-opacity: 0.2; stroke: #00008b; stroke-opacity: 0.2"/>
     <use xlink:href="#m4081705269" x="98.486439" y="241.111628" style="fill: #00008b; fill-opacity: 0.2; stroke: #00008b; stroke-opacity: 0.2"/>
    </g>
   </g>
   <g id="PathCollection_3">
    <g clip-path="url(#pdf8023f8f4)">
     <use xlink:href="#m4081705269" x="139.602228" y="64.38931" style="fill: #00008b; fill-opacity: 0.2; stroke: #00008b; stroke-opacity: 0.2"/>
     <use xlink:href="#m4081705269" x="139.602228" y="77.928928" style="fill: #00008b; fill-opacity: 0.2; stroke: #00008b; stroke-opacity: 0.2"/>
     <use xlink:href="#m4081705269" x="139.602228" y="152.064696" style="fill: #00008b; fill-opacity: 0.2; stroke: #00008b; stroke-opacity: 0.2"/>
     <use xlink:href="#m4081705269" x="139.602228" y="149.666424" style="fill: #00008b; fill-opacity: 0.2; stroke: #00008b; stroke-opacity: 0.2"/>
     <use xlink:href="#m4081705269" x="139.602228" y="146.224087" style="fill: #00008b; fill-opacity: 0.2; stroke: #00008b; stroke-opacity: 0.2"/>
     <use xlink:href="#m4081705269" x="139.602228" y="103.072226" style="fill: #00008b; fill-opacity: 0.2; stroke: #00008b; stroke-opacity: 0.2"/>
     <use xlink:href="#m4081705269" x="139.602228" y="115.282694" style="fill: #00008b; fill-opacity: 0.2; stroke: #00008b; stroke-opacity: 0.2"/>
     <use xlink:href="#m4081705269" x="139.602228" y="144.133556" style="fill: #00008b; fill-opacity: 0.2; stroke: #00008b; stroke-opacity: 0.2"/>
     <use xlink:href="#m4081705269" x="139.602228" y="148.233503" style="fill: #00008b; fill-opacity: 0.2; stroke: #00008b; stroke-opacity: 0.2"/>
     <use xlink:href="#m4081705269" x="139.602228" y="89.251278" style="fill: #00008b; fill-opacity: 0.2; stroke: #00008b; stroke-opacity: 0.2"/>
     <use xlink:href="#m4081705269" x="139.602228" y="118.061337" style="fill: #00008b; fill-opacity: 0.2; stroke: #00008b; stroke-opacity: 0.2"/>
     <use xlink:href="#m4081705269" x="139.602228" y="143.965607" style="fill: #00008b; fill-opacity: 0.2; stroke: #00008b; stroke-opacity: 0.2"/>
     <use xlink:href="#m4081705269" x="139.602228" y="134.845861" style="fill: #00008b; fill-opacity: 0.2; stroke: #00008b; stroke-opacity: 0.2"/>
     <use xlink:href="#m4081705269" x="139.602228" y="177.720541" style="fill: #00008b; fill-opacity: 0.2; stroke: #00008b; stroke-opacity: 0.2"/>
     <use xlink:href="#m4081705269" x="139.602228" y="81.964176" style="fill: #00008b; fill-opacity: 0.2; stroke: #00008b; stroke-opacity: 0.2"/>
     <use xlink:href="#m4081705269" x="139.602228" y="122.566434" style="fill: #00008b; fill-opacity: 0.2; stroke: #00008b; stroke-opacity: 0.2"/>
     <use xlink:href="#m4081705269" x="139.602228" y="116.664147" style="fill: #00008b; fill-opacity: 0.2; stroke: #00008b; stroke-opacity: 0.2"/>
     <use xlink:href="#m4081705269" x="139.602228" y="121.454635" style="fill: #00008b; fill-opacity: 0.2; stroke: #00008b; stroke-opacity: 0.2"/>
     <use xlink:href="#m4081705269" x="139.602228" y="136.391048" style="fill: #00008b; fill-opacity: 0.2; stroke: #00008b; stroke-opacity: 0.2"/>
     <use xlink:href="#m4081705269" x="139.602228" y="126.772155" style="fill: #00008b; fill-opacity: 0.2; stroke: #00008b; stroke-opacity: 0.2"/>
     <use xlink:href="#m4081705269" x="139.602228" y="122.603616" style="fill: #00008b; fill-opacity: 0.2; stroke: #00008b; stroke-opacity: 0.2"/>
     <use xlink:href="#m4081705269" x="139.602228" y="139.765329" style="fill: #00008b; fill-opacity: 0.2; stroke: #00008b; stroke-opacity: 0.2"/>
     <use xlink:href="#m4081705269" x="139.602228" y="108.1295" style="fill: #00008b; fill-opacity: 0.2; stroke: #00008b; stroke-opacity: 0.2"/>
     <use xlink:href="#m4081705269" x="139.602228" y="277.869884" style="fill: #00008b; fill-opacity: 0.2; stroke: #00008b; stroke-opacity: 0.2"/>
     <use xlink:href="#m4081705269" x="139.602228" y="112.409255" style="fill: #00008b; fill-opacity: 0.2; stroke: #00008b; stroke-opacity: 0.2"/>
     <use xlink:href="#m4081705269" x="139.602228" y="108.873764" style="fill: #00008b; fill-opacity: 0.2; stroke: #00008b; stroke-opacity: 0.2"/>
     <use xlink:href="#m4081705269" x="139.602228" y="85.018345" style="fill: #00008b; fill-opacity: 0.2; stroke: #00008b; stroke-opacity: 0.2"/>
     <use xlink:href="#m4081705269" x="139.602228" y="77.86971" style="fill: #00008b; fill-opacity: 0.2; stroke: #00008b; stroke-opacity: 0.2"/>
     <use xlink:href="#m4081705269" x="139.602228" y="105.251464" style="fill: #00008b; fill-opacity: 0.2; stroke: #00008b; stroke-opacity: 0.2"/>
     <use xlink:href="#m4081705269" x="139.602228" y="119.26252" style="fill: #00008b; fill-opacity: 0.2; stroke: #00008b; stroke-opacity: 0.2"/>
     <use xlink:href="#m4081705269" x="139.602228" y="168.540411" style="fill: #00008b; fill-opacity: 0.2; stroke: #00008b; stroke-opacity: 0.2"/>
     <use xlink:href="#m4081705269" x="139.602228" y="196.87239" style="fill: #00008b; fill-opacity: 0.2; stroke: #00008b; stroke-opacity: 0.2"/>
     <use xlink:href="#m4081705269" x="139.602228" y="214.617832" style="fill: #00008b; fill-opacity: 0.2; stroke: #00008b; stroke-opacity: 0.2"/>
     <use xlink:href="#m4081705269" x="139.602228" y="180.389613" style="fill: #00008b; fill-opacity: 0.2; stroke: #00008b; stroke-opacity: 0.2"/>
     <use xlink:href="#m4081705269" x="139.602228" y="156.461896" style="fill: #00008b; fill-opacity: 0.2; stroke: #00008b; stroke-opacity: 0.2"/>
     <use xlink:href="#m4081705269" x="139.602228" y="249.579249" style="fill: #00008b; fill-opacity: 0.2; stroke: #00008b; stroke-opacity: 0.2"/>
     <use xlink:href="#m4081705269" x="139.602228" y="224.554847" style="fill: #00008b; fill-opacity: 0.2; stroke: #00008b; stroke-opacity: 0.2"/>
     <use xlink:href="#m4081705269" x="139.602228" y="216.4128" style="fill: #00008b; fill-opacity: 0.2; stroke: #00008b; stroke-opacity: 0.2"/>
     <use xlink:href="#m4081705269" x="139.602228" y="191.555945" style="fill: #00008b; fill-opacity: 0.2; stroke: #00008b; stroke-opacity: 0.2"/>
     <use xlink:href="#m4081705269" x="139.602228" y="163.97143" style="fill: #00008b; fill-opacity: 0.2; stroke: #00008b; stroke-opacity: 0.2"/>
     <use xlink:href="#m4081705269" x="139.602228" y="168.62728" style="fill: #00008b; fill-opacity: 0.2; stroke: #00008b; stroke-opacity: 0.2"/>
     <use xlink:href="#m4081705269" x="139.602228" y="136.846688" style="fill: #00008b; fill-opacity: 0.2; stroke: #00008b; stroke-opacity: 0.2"/>
     <use xlink:href="#m4081705269" x="139.602228" y="124.434828" style="fill: #00008b; fill-opacity: 0.2; stroke: #00008b; stroke-opacity: 0.2"/>
     <use xlink:href="#m4081705269" x="139.602228" y="169.123415" style="fill: #00008b; fill-opacity: 0.2; stroke: #00008b; stroke-opacity: 0.2"/>
     <use xlink:href="#m4081705269" x="139.602228" y="103.26444" style="fill: #00008b; fill-opacity: 0.2; stroke: #00008b; stroke-opacity: 0.2"/>
     <use xlink:href="#m4081705269" x="139.602228" y="156.992073" style="fill: #00008b; fill-opacity: 0.2; stroke: #00008b; stroke-opacity: 0.2"/>
     <use xlink:href="#m4081705269" x="139.602228" y="133.85123" style="fill: #00008b; fill-opacity: 0.2; stroke: #00008b; stroke-opacity: 0.2"/>
     <use xlink:href="#m4081705269" x="139.602228" y="143.361729" style="fill: #00008b; fill-opacity: 0.2; stroke: #00008b; stroke-opacity: 0.2"/>
     <use xlink:href="#m4081705269" x="139.602228" y="110.358701" style="fill: #00008b; fill-opacity: 0.2; stroke: #00008b; stroke-opacity: 0.2"/>
     <use xlink:href="#m4081705269" x="139.602228" y="128.958186" style="fill: #00008b; fill-opacity: 0.2; stroke: #00008b; stroke-opacity: 0.2"/>
     <use xlink:href="#m4081705269" x="139.602228" y="143.30146" style="fill: #00008b; fill-opacity: 0.2; stroke: #00008b; stroke-opacity: 0.2"/>
     <use xlink:href="#m4081705269" x="139.602228" y="169.779184" style="fill: #00008b; fill-opacity: 0.2; stroke: #00008b; stroke-opacity: 0.2"/>
     <use xlink:href="#m4081705269" x="139.602228" y="150.909269" style="fill: #00008b; fill-opacity: 0.2; stroke: #00008b; stroke-opacity: 0.2"/>
     <use xlink:href="#m4081705269" x="139.602228" y="216.968814" style="fill: #00008b; fill-opacity: 0.2; stroke: #00008b; stroke-opacity: 0.2"/>
     <use xlink:href="#m4081705269" x="139.602228" y="109.27626" style="fill: #00008b; fill-opacity: 0.2; stroke: #00008b; stroke-opacity: 0.2"/>
    </g>
   </g>
   <g id="PathCollection_4">
    <g clip-path="url(#pdf8023f8f4)">
     <use xlink:href="#m4081705269" x="180.718018" y="86.454613" style="fill: #00008b; fill-opacity: 0.2; stroke: #00008b; stroke-opacity: 0.2"/>
     <use xlink:href="#m4081705269" x="180.718018" y="158.941212" style="fill: #00008b; fill-opacity: 0.2; stroke: #00008b; stroke-opacity: 0.2"/>
     <use xlink:href="#m4081705269" x="180.718018" y="159.547162" style="fill: #00008b; fill-opacity: 0.2; stroke: #00008b; stroke-opacity: 0.2"/>
     <use xlink:href="#m4081705269" x="180.718018" y="185.444927" style="fill: #00008b; fill-opacity: 0.2; stroke: #00008b; stroke-opacity: 0.2"/>
     <use xlink:href="#m4081705269" x="180.718018" y="110.71526" style="fill: #00008b; fill-opacity: 0.2; stroke: #00008b; stroke-opacity: 0.2"/>
     <use xlink:href="#m4081705269" x="180.718018" y="213.925376" style="fill: #00008b; fill-opacity: 0.2; stroke: #00008b; stroke-opacity: 0.2"/>
     <use xlink:href="#m4081705269" x="180.718018" y="196.894385" style="fill: #00008b; fill-opacity: 0.2; stroke: #00008b; stroke-opacity: 0.2"/>
     <use xlink:href="#m4081705269" x="180.718018" y="213.169667" style="fill: #00008b; fill-opacity: 0.2; stroke: #00008b; stroke-opacity: 0.2"/>
     <use xlink:href="#m4081705269" x="180.718018" y="201.090717" style="fill: #00008b; fill-opacity: 0.2; stroke: #00008b; stroke-opacity: 0.2"/>
     <use xlink:href="#m4081705269" x="180.718018" y="129.86862" style="fill: #00008b; fill-opacity: 0.2; stroke: #00008b; stroke-opacity: 0.2"/>
     <use xlink:href="#m4081705269" x="180.718018" y="233.223062" style="fill: #00008b; fill-opacity: 0.2; stroke: #00008b; stroke-opacity: 0.2"/>
     <use xlink:href="#m4081705269" x="180.718018" y="178.588148" style="fill: #00008b; fill-opacity: 0.2; stroke: #00008b; stroke-opacity: 0.2"/>
     <use xlink:href="#m4081705269" x="180.718018" y="191.942829" style="fill: #00008b; fill-opacity: 0.2; stroke: #00008b; stroke-opacity: 0.2"/>
     <use xlink:href="#m4081705269" x="180.718018" y="161.19889" style="fill: #00008b; fill-opacity: 0.2; stroke: #00008b; stroke-opacity: 0.2"/>
     <use xlink:href="#m4081705269" x="180.718018" y="143.526934" style="fill: #00008b; fill-opacity: 0.2; stroke: #00008b; stroke-opacity: 0.2"/>
     <use xlink:href="#m4081705269" x="180.718018" y="148.270466" style="fill: #00008b; fill-opacity: 0.2; stroke: #00008b; stroke-opacity: 0.2"/>
     <use xlink:href="#m4081705269" x="180.718018" y="194.354046" style="fill: #00008b; fill-opacity: 0.2; stroke: #00008b; stroke-opacity: 0.2"/>
     <use xlink:href="#m4081705269" x="180.718018" y="189.884457" style="fill: #00008b; fill-opacity: 0.2; stroke: #00008b; stroke-opacity: 0.2"/>
     <use xlink:href="#m4081705269" x="180.718018" y="199.308804" style="fill: #00008b; fill-opacity: 0.2; stroke: #00008b; stroke-opacity: 0.2"/>
     <use xlink:href="#m4081705269" x="180.718018" y="159.631661" style="fill: #00008b; fill-opacity: 0.2; stroke: #00008b; stroke-opacity: 0.2"/>
     <use xlink:href="#m4081705269" x="180.718018" y="201.380624" style="fill: #00008b; fill-opacity: 0.2; stroke: #00008b; stroke-opacity: 0.2"/>
     <use xlink:href="#m4081705269" x="180.718018" y="199.281618" style="fill: #00008b; fill-opacity: 0.2; stroke: #00008b; stroke-opacity: 0.2"/>
     <use xlink:href="#m4081705269" x="180.718018" y="237.729283" style="fill: #00008b; fill-opacity: 0.2; stroke: #00008b; stroke-opacity: 0.2"/>
     <use xlink:href="#m4081705269" x="180.718018" y="169.807421" style="fill: #00008b; fill-opacity: 0.2; stroke: #00008b; stroke-opacity: 0.2"/>
     <use xlink:href="#m4081705269" x="180.718018" y="154.908406" style="fill: #00008b; fill-opacity: 0.2; stroke: #00008b; stroke-opacity: 0.2"/>
     <use xlink:href="#m4081705269" x="180.718018" y="154.984325" style="fill: #00008b; fill-opacity: 0.2; stroke: #00008b; stroke-opacity: 0.2"/>
     <use xlink:href="#m4081705269" x="180.718018" y="121.488276" style="fill: #00008b; fill-opacity: 0.2; stroke: #00008b; stroke-opacity: 0.2"/>
     <use xlink:href="#m4081705269" x="180.718018" y="222.451933" style="fill: #00008b; fill-opacity: 0.2; stroke: #00008b; stroke-opacity: 0.2"/>
     <use xlink:href="#m4081705269" x="180.718018" y="162.381439" style="fill: #00008b; fill-opacity: 0.2; stroke: #00008b; stroke-opacity: 0.2"/>
     <use xlink:href="#m4081705269" x="180.718018" y="186.011886" style="fill: #00008b; fill-opacity: 0.2; stroke: #00008b; stroke-opacity: 0.2"/>
    </g>
   </g>
   <g id="PathCollection_5">
    <g clip-path="url(#pdf8023f8f4)">
     <use xlink:href="#m4081705269" x="221.833807" y="169.885096" style="fill: #00008b; fill-opacity: 0.2; stroke: #00008b; stroke-opacity: 0.2"/>
     <use xlink:href="#m4081705269" x="221.833807" y="163.820793" style="fill: #00008b; fill-opacity: 0.2; stroke: #00008b; stroke-opacity: 0.2"/>
     <use xlink:href="#m4081705269" x="221.833807" y="107.327947" style="fill: #00008b; fill-opacity: 0.2; stroke: #00008b; stroke-opacity: 0.2"/>
     <use xlink:href="#m4081705269" x="221.833807" y="119.757308" style="fill: #00008b; fill-opacity: 0.2; stroke: #00008b; stroke-opacity: 0.2"/>
     <use xlink:href="#m4081705269" x="221.833807" y="158.069445" style="fill: #00008b; fill-opacity: 0.2; stroke: #00008b; stroke-opacity: 0.2"/>
     <use xlink:href="#m4081705269" x="221.833807" y="137.208474" style="fill: #00008b; fill-opacity: 0.2; stroke: #00008b; stroke-opacity: 0.2"/>
     <use xlink:href="#m4081705269" x="221.833807" y="185.629664" style="fill: #00008b; fill-opacity: 0.2; stroke: #00008b; stroke-opacity: 0.2"/>
     <use xlink:href="#m4081705269" x="221.833807" y="150.58703" style="fill: #00008b; fill-opacity: 0.2; stroke: #00008b; stroke-opacity: 0.2"/>
     <use xlink:href="#m4081705269" x="221.833807" y="91.305215" style="fill: #00008b; fill-opacity: 0.2; stroke: #00008b; stroke-opacity: 0.2"/>
     <use xlink:href="#m4081705269" x="221.833807" y="146.052924" style="fill: #00008b; fill-opacity: 0.2; stroke: #00008b; stroke-opacity: 0.2"/>
     <use xlink:href="#m4081705269" x="221.833807" y="180.889087" style="fill: #00008b; fill-opacity: 0.2; stroke: #00008b; stroke-opacity: 0.2"/>
     <use xlink:href="#m4081705269" x="221.833807" y="197.058712" style="fill: #00008b; fill-opacity: 0.2; stroke: #00008b; stroke-opacity: 0.2"/>
     <use xlink:href="#m4081705269" x="221.833807" y="195.864651" style="fill: #00008b; fill-opacity: 0.2; stroke: #00008b; stroke-opacity: 0.2"/>
     <use xlink:href="#m4081705269" x="221.833807" y="156.419123" style="fill: #00008b; fill-opacity: 0.2; stroke: #00008b; stroke-opacity: 0.2"/>
    </g>
   </g>
   <g id="PathCollection_6">
    <g clip-path="url(#pdf8023f8f4)">
     <use xlink:href="#m4081705269" x="262.949597" y="200.771685" style="fill: #00008b; fill-opacity: 0.2; stroke: #00008b; stroke-opacity: 0.2"/>
     <use xlink:href="#m4081705269" x="262.949597" y="172.960565" style="fill: #00008b; fill-opacity: 0.2; stroke: #00008b; stroke-opacity: 0.2"/>
     <use xlink:href="#m4081705269" x="262.949597" y="173.649436" style="fill: #00008b; fill-opacity: 0.2; stroke: #00008b; stroke-opacity: 0.2"/>
    </g>
   </g>
   <g id="PathCollection_7">
    <g clip-path="url(#pdf8023f8f4)">
     <use xlink:href="#m4081705269" x="304.065386" y="137.89556" style="fill: #00008b; fill-opacity: 0.2; stroke: #00008b; stroke-opacity: 0.2"/>
     <use xlink:href="#m4081705269" x="304.065386" y="140.482305" style="fill: #00008b; fill-opacity: 0.2; stroke: #00008b; stroke-opacity: 0.2"/>
     <use xlink:href="#m4081705269" x="304.065386" y="190.387874" style="fill: #00008b; fill-opacity: 0.2; stroke: #00008b; stroke-opacity: 0.2"/>
     <use xlink:href="#m4081705269" x="304.065386" y="105.408166" style="fill: #00008b; fill-opacity: 0.2; stroke: #00008b; stroke-opacity: 0.2"/>
     <use xlink:href="#m4081705269" x="304.065386" y="150.301616" style="fill: #00008b; fill-opacity: 0.2; stroke: #00008b; stroke-opacity: 0.2"/>
     <use xlink:href="#m4081705269" x="304.065386" y="167.272886" style="fill: #00008b; fill-opacity: 0.2; stroke: #00008b; stroke-opacity: 0.2"/>
     <use xlink:href="#m4081705269" x="304.065386" y="155.201169" style="fill: #00008b; fill-opacity: 0.2; stroke: #00008b; stroke-opacity: 0.2"/>
     <use xlink:href="#m4081705269" x="304.065386" y="216.150739" style="fill: #00008b; fill-opacity: 0.2; stroke: #00008b; stroke-opacity: 0.2"/>
    </g>
   </g>
   <g id="PathCollection_8">
    <g clip-path="url(#pdf8023f8f4)">
     <use xlink:href="#m4081705269" x="345.181176" y="222.861097" style="fill: #00008b; fill-opacity: 0.2; stroke: #00008b; stroke-opacity: 0.2"/>
     <use xlink:href="#m4081705269" x="345.181176" y="129.511529" style="fill: #00008b; fill-opacity: 0.2; stroke: #00008b; stroke-opacity: 0.2"/>
     <use xlink:href="#m4081705269" x="345.181176" y="120.962491" style="fill: #00008b; fill-opacity: 0.2; stroke: #00008b; stroke-opacity: 0.2"/>
     <use xlink:href="#m4081705269" x="345.181176" y="198.504087" style="fill: #00008b; fill-opacity: 0.2; stroke: #00008b; stroke-opacity: 0.2"/>
     <use xlink:href="#m4081705269" x="345.181176" y="51.261353" style="fill: #00008b; fill-opacity: 0.2; stroke: #00008b; stroke-opacity: 0.2"/>
     <use xlink:href="#m4081705269" x="345.181176" y="237.624471" style="fill: #00008b; fill-opacity: 0.2; stroke: #00008b; stroke-opacity: 0.2"/>
     <use xlink:href="#m4081705269" x="345.181176" y="256.811209" style="fill: #00008b; fill-opacity: 0.2; stroke: #00008b; stroke-opacity: 0.2"/>
     <use xlink:href="#m4081705269" x="345.181176" y="251.676281" style="fill: #00008b; fill-opacity: 0.2; stroke: #00008b; stroke-opacity: 0.2"/>
     <use xlink:href="#m4081705269" x="345.181176" y="157.618689" style="fill: #00008b; fill-opacity: 0.2; stroke: #00008b; stroke-opacity: 0.2"/>
     <use xlink:href="#m4081705269" x="345.181176" y="132.776346" style="fill: #00008b; fill-opacity: 0.2; stroke: #00008b; stroke-opacity: 0.2"/>
     <use xlink:href="#m4081705269" x="345.181176" y="129.701242" style="fill: #00008b; fill-opacity: 0.2; stroke: #00008b; stroke-opacity: 0.2"/>
     <use xlink:href="#m4081705269" x="345.181176" y="225.832874" style="fill: #00008b; fill-opacity: 0.2; stroke: #00008b; stroke-opacity: 0.2"/>
     <use xlink:href="#m4081705269" x="345.181176" y="203.703377" style="fill: #00008b; fill-opacity: 0.2; stroke: #00008b; stroke-opacity: 0.2"/>
     <use xlink:href="#m4081705269" x="345.181176" y="163.828975" style="fill: #00008b; fill-opacity: 0.2; stroke: #00008b; stroke-opacity: 0.2"/>
     <use xlink:href="#m4081705269" x="345.181176" y="173.599068" style="fill: #00008b; fill-opacity: 0.2; stroke: #00008b; stroke-opacity: 0.2"/>
     <use xlink:href="#m4081705269" x="345.181176" y="223.900683" style="fill: #00008b; fill-opacity: 0.2; stroke: #00008b; stroke-opacity: 0.2"/>
     <use xlink:href="#m4081705269" x="345.181176" y="240.212674" style="fill: #00008b; fill-opacity: 0.2; stroke: #00008b; stroke-opacity: 0.2"/>
     <use xlink:href="#m4081705269" x="345.181176" y="193.340446" style="fill: #00008b; fill-opacity: 0.2; stroke: #00008b; stroke-opacity: 0.2"/>
     <use xlink:href="#m4081705269" x="345.181176" y="165.424941" style="fill: #00008b; fill-opacity: 0.2; stroke: #00008b; stroke-opacity: 0.2"/>
     <use xlink:href="#m4081705269" x="345.181176" y="200.307618" style="fill: #00008b; fill-opacity: 0.2; stroke: #00008b; stroke-opacity: 0.2"/>
     <use xlink:href="#m4081705269" x="345.181176" y="217.940424" style="fill: #00008b; fill-opacity: 0.2; stroke: #00008b; stroke-opacity: 0.2"/>
    </g>
   </g>
   <g id="PathCollection_9">
    <g clip-path="url(#pdf8023f8f4)">
     <use xlink:href="#m4081705269" x="386.296965" y="137.241464" style="fill: #00008b; fill-opacity: 0.2; stroke: #00008b; stroke-opacity: 0.2"/>
     <use xlink:href="#m4081705269" x="386.296965" y="111.017693" style="fill: #00008b; fill-opacity: 0.2; stroke: #00008b; stroke-opacity: 0.2"/>
     <use xlink:href="#m4081705269" x="386.296965" y="176.316831" style="fill: #00008b; fill-opacity: 0.2; stroke: #00008b; stroke-opacity: 0.2"/>
     <use xlink:href="#m4081705269" x="386.296965" y="216.691024" style="fill: #00008b; fill-opacity: 0.2; stroke: #00008b; stroke-opacity: 0.2"/>
     <use xlink:href="#m4081705269" x="386.296965" y="109.477426" style="fill: #00008b; fill-opacity: 0.2; stroke: #00008b; stroke-opacity: 0.2"/>
     <use xlink:href="#m4081705269" x="386.296965" y="154.090064" style="fill: #00008b; fill-opacity: 0.2; stroke: #00008b; stroke-opacity: 0.2"/>
     <use xlink:href="#m4081705269" x="386.296965" y="149.678531" style="fill: #00008b; fill-opacity: 0.2; stroke: #00008b; stroke-opacity: 0.2"/>
     <use xlink:href="#m4081705269" x="386.296965" y="140.282868" style="fill: #00008b; fill-opacity: 0.2; stroke: #00008b; stroke-opacity: 0.2"/>
     <use xlink:href="#m4081705269" x="386.296965" y="179.766227" style="fill: #00008b; fill-opacity: 0.2; stroke: #00008b; stroke-opacity: 0.2"/>
    </g>
   </g>
   <g id="PathCollection_10">
    <g clip-path="url(#pdf8023f8f4)">
     <use xlink:href="#m4081705269" x="427.412755" y="204.537167" style="fill: #00008b; fill-opacity: 0.2; stroke: #00008b; stroke-opacity: 0.2"/>
     <use xlink:href="#m4081705269" x="427.412755" y="168.726372" style="fill: #00008b; fill-opacity: 0.2; stroke: #00008b; stroke-opacity: 0.2"/>
     <use xlink:href="#m4081705269" x="427.412755" y="203.340557" style="fill: #00008b; fill-opacity: 0.2; stroke: #00008b; stroke-opacity: 0.2"/>
     <use xlink:href="#m4081705269" x="427.412755" y="148.395472" style="fill: #00008b; fill-opacity: 0.2; stroke: #00008b; stroke-opacity: 0.2"/>
     <use xlink:href="#m4081705269" x="427.412755" y="235.582714" style="fill: #00008b; fill-opacity: 0.2; stroke: #00008b; stroke-opacity: 0.2"/>
     <use xlink:href="#m4081705269" x="427.412755" y="160.819161" style="fill: #00008b; fill-opacity: 0.2; stroke: #00008b; stroke-opacity: 0.2"/>
     <use xlink:href="#m4081705269" x="427.412755" y="170.975808" style="fill: #00008b; fill-opacity: 0.2; stroke: #00008b; stroke-opacity: 0.2"/>
     <use xlink:href="#m4081705269" x="427.412755" y="166.945089" style="fill: #00008b; fill-opacity: 0.2; stroke: #00008b; stroke-opacity: 0.2"/>
     <use xlink:href="#m4081705269" x="427.412755" y="160.566638" style="fill: #00008b; fill-opacity: 0.2; stroke: #00008b; stroke-opacity: 0.2"/>
     <use xlink:href="#m4081705269" x="427.412755" y="303.261353" style="fill: #00008b; fill-opacity: 0.2; stroke: #00008b; stroke-opacity: 0.2"/>
     <use xlink:href="#m4081705269" x="427.412755" y="164.186664" style="fill: #00008b; fill-opacity: 0.2; stroke: #00008b; stroke-opacity: 0.2"/>
     <use xlink:href="#m4081705269" x="427.412755" y="251.549666" style="fill: #00008b; fill-opacity: 0.2; stroke: #00008b; stroke-opacity: 0.2"/>
     <use xlink:href="#m4081705269" x="427.412755" y="225.864969" style="fill: #00008b; fill-opacity: 0.2; stroke: #00008b; stroke-opacity: 0.2"/>
     <use xlink:href="#m4081705269" x="427.412755" y="198.792397" style="fill: #00008b; fill-opacity: 0.2; stroke: #00008b; stroke-opacity: 0.2"/>
     <use xlink:href="#m4081705269" x="427.412755" y="203.220761" style="fill: #00008b; fill-opacity: 0.2; stroke: #00008b; stroke-opacity: 0.2"/>
     <use xlink:href="#m4081705269" x="427.412755" y="248.186799" style="fill: #00008b; fill-opacity: 0.2; stroke: #00008b; stroke-opacity: 0.2"/>
     <use xlink:href="#m4081705269" x="427.412755" y="194.578903" style="fill: #00008b; fill-opacity: 0.2; stroke: #00008b; stroke-opacity: 0.2"/>
     <use xlink:href="#m4081705269" x="427.412755" y="183.641658" style="fill: #00008b; fill-opacity: 0.2; stroke: #00008b; stroke-opacity: 0.2"/>
     <use xlink:href="#m4081705269" x="427.412755" y="215.333472" style="fill: #00008b; fill-opacity: 0.2; stroke: #00008b; stroke-opacity: 0.2"/>
     <use xlink:href="#m4081705269" x="427.412755" y="171.164418" style="fill: #00008b; fill-opacity: 0.2; stroke: #00008b; stroke-opacity: 0.2"/>
     <use xlink:href="#m4081705269" x="427.412755" y="228.993017" style="fill: #00008b; fill-opacity: 0.2; stroke: #00008b; stroke-opacity: 0.2"/>
     <use xlink:href="#m4081705269" x="427.412755" y="202.720417" style="fill: #00008b; fill-opacity: 0.2; stroke: #00008b; stroke-opacity: 0.2"/>
    </g>
   </g>
   <g id="matplotlib.axis_1">
    <g id="xtick_1">
     <g id="line2d_1">
      <path d="M 57.370649 315.861353 
L 57.370649 38.661353 
" clip-path="url(#pdf8023f8f4)" style="fill: none; stroke: #808080; stroke-width: 0.5; stroke-linecap: square"/>
     </g>
     <g id="line2d_2">
      <defs>
       <path id="m6214c52839" d="M 0 0 
L 0 3.5 
" style="stroke: #000000; stroke-width: 0.8"/>
      </defs>
      <g>
       <use xlink:href="#m6214c52839" x="57.370649" y="315.861353" style="stroke: #000000; stroke-width: 0.8"/>
      </g>
     </g>
     <g id="text_1">
      <!-- $\mathdefault{1}$ -->
      <g transform="translate(54.879982 329.959673) scale(0.1 -0.1)">
       <defs>
        <path id="CMR17-31" d="M 1702 4083 
C 1702 4217 1696 4224 1606 4224 
C 1357 3927 979 3833 621 3820 
C 602 3820 570 3820 563 3808 
C 557 3795 557 3782 557 3648 
C 755 3648 1088 3686 1344 3839 
L 1344 467 
C 1344 243 1331 166 781 166 
L 589 166 
L 589 0 
C 896 6 1216 12 1523 12 
C 1830 12 2150 6 2458 0 
L 2458 166 
L 2266 166 
C 1715 166 1702 236 1702 467 
L 1702 4083 
z
" transform="scale(0.015625)"/>
       </defs>
       <use xlink:href="#CMR17-31" transform="scale(0.996264)"/>
      </g>
     </g>
    </g>
    <g id="xtick_2">
     <g id="line2d_3">
      <path d="M 98.486439 315.861353 
L 98.486439 38.661353 
" clip-path="url(#pdf8023f8f4)" style="fill: none; stroke: #808080; stroke-width: 0.5; stroke-linecap: square"/>
     </g>
     <g id="line2d_4">
      <g>
       <use xlink:href="#m6214c52839" x="98.486439" y="315.861353" style="stroke: #000000; stroke-width: 0.8"/>
      </g>
     </g>
     <g id="text_2">
      <!-- $\mathdefault{2}$ -->
      <g transform="translate(95.995771 329.959673) scale(0.1 -0.1)">
       <defs>
        <path id="CMR17-32" d="M 2669 990 
L 2554 990 
C 2490 537 2438 460 2413 422 
C 2381 371 1920 371 1830 371 
L 602 371 
C 832 620 1280 1073 1824 1596 
C 2214 1966 2669 2400 2669 3033 
C 2669 3788 2067 4224 1395 4224 
C 691 4224 262 3603 262 3027 
C 262 2777 448 2745 525 2745 
C 589 2745 781 2783 781 3007 
C 781 3206 614 3264 525 3264 
C 486 3264 448 3257 422 3244 
C 544 3788 915 4057 1306 4057 
C 1862 4057 2227 3616 2227 3033 
C 2227 2477 1901 1998 1536 1583 
L 262 147 
L 262 0 
L 2515 0 
L 2669 990 
z
" transform="scale(0.015625)"/>
       </defs>
       <use xlink:href="#CMR17-32" transform="scale(0.996264)"/>
      </g>
     </g>
    </g>
    <g id="xtick_3">
     <g id="line2d_5">
      <path d="M 139.602228 315.861353 
L 139.602228 38.661353 
" clip-path="url(#pdf8023f8f4)" style="fill: none; stroke: #808080; stroke-width: 0.5; stroke-linecap: square"/>
     </g>
     <g id="line2d_6">
      <g>
       <use xlink:href="#m6214c52839" x="139.602228" y="315.861353" style="stroke: #000000; stroke-width: 0.8"/>
      </g>
     </g>
     <g id="text_3">
      <!-- $\mathdefault{3}$ -->
      <g transform="translate(137.111561 329.959673) scale(0.1 -0.1)">
       <defs>
        <path id="CMR17-33" d="M 1414 2176 
C 1984 2176 2234 1673 2234 1094 
C 2234 322 1824 25 1453 25 
C 1114 25 563 193 390 691 
C 422 678 454 678 486 678 
C 640 678 755 780 755 947 
C 755 1132 614 1216 486 1216 
C 378 1216 211 1164 211 927 
C 211 335 787 -128 1466 -128 
C 2176 -128 2720 432 2720 1087 
C 2720 1718 2208 2176 1600 2246 
C 2086 2347 2554 2776 2554 3353 
C 2554 3856 2048 4224 1472 4224 
C 890 4224 378 3862 378 3347 
C 378 3123 544 3084 627 3084 
C 762 3084 877 3167 877 3334 
C 877 3500 762 3584 627 3584 
C 602 3584 570 3584 544 3571 
C 730 3999 1235 4076 1459 4076 
C 1683 4076 2106 3966 2106 3347 
C 2106 3167 2080 2851 1862 2574 
C 1670 2329 1453 2316 1242 2297 
C 1210 2297 1062 2284 1037 2284 
C 992 2278 966 2272 966 2227 
C 966 2182 973 2176 1101 2176 
L 1414 2176 
z
" transform="scale(0.015625)"/>
       </defs>
       <use xlink:href="#CMR17-33" transform="scale(0.996264)"/>
      </g>
     </g>
    </g>
    <g id="xtick_4">
     <g id="line2d_7">
      <path d="M 180.718018 315.861353 
L 180.718018 38.661353 
" clip-path="url(#pdf8023f8f4)" style="fill: none; stroke: #808080; stroke-width: 0.5; stroke-linecap: square"/>
     </g>
     <g id="line2d_8">
      <g>
       <use xlink:href="#m6214c52839" x="180.718018" y="315.861353" style="stroke: #000000; stroke-width: 0.8"/>
      </g>
     </g>
     <g id="text_4">
      <!-- $\mathdefault{4}$ -->
      <g transform="translate(178.22735 329.959673) scale(0.1 -0.1)">
       <defs>
        <path id="CMR17-34" d="M 2150 4147 
C 2150 4281 2144 4288 2029 4288 
L 128 1254 
L 128 1088 
L 1779 1088 
L 1779 460 
C 1779 230 1766 166 1318 166 
L 1197 166 
L 1197 0 
C 1402 12 1747 12 1965 12 
C 2182 12 2528 12 2733 0 
L 2733 166 
L 2611 166 
C 2163 166 2150 230 2150 460 
L 2150 1088 
L 2803 1088 
L 2803 1254 
L 2150 1254 
L 2150 4147 
z
M 1798 3723 
L 1798 1254 
L 256 1254 
L 1798 3723 
z
" transform="scale(0.015625)"/>
       </defs>
       <use xlink:href="#CMR17-34" transform="scale(0.996264)"/>
      </g>
     </g>
    </g>
    <g id="xtick_5">
     <g id="line2d_9">
      <path d="M 221.833807 315.861353 
L 221.833807 38.661353 
" clip-path="url(#pdf8023f8f4)" style="fill: none; stroke: #808080; stroke-width: 0.5; stroke-linecap: square"/>
     </g>
     <g id="line2d_10">
      <g>
       <use xlink:href="#m6214c52839" x="221.833807" y="315.861353" style="stroke: #000000; stroke-width: 0.8"/>
      </g>
     </g>
     <g id="text_5">
      <!-- $\mathdefault{5}$ -->
      <g transform="translate(219.34314 329.959673) scale(0.1 -0.1)">
       <defs>
        <path id="CMR17-35" d="M 730 3750 
C 794 3724 1056 3641 1325 3641 
C 1920 3641 2246 3961 2432 4140 
C 2432 4191 2432 4224 2394 4224 
C 2387 4224 2374 4224 2323 4198 
C 2099 4102 1837 4032 1517 4032 
C 1325 4032 1037 4055 723 4191 
C 653 4224 640 4224 634 4224 
C 602 4224 595 4217 595 4090 
L 595 2231 
C 595 2113 595 2080 659 2080 
C 691 2080 704 2093 736 2139 
C 941 2435 1222 2560 1542 2560 
C 1766 2560 2246 2415 2246 1293 
C 2246 1087 2246 716 2054 422 
C 1894 159 1645 25 1370 25 
C 947 25 518 319 403 812 
C 429 806 480 793 506 793 
C 589 793 749 838 749 1036 
C 749 1209 627 1280 506 1280 
C 358 1280 262 1190 262 1011 
C 262 454 704 -128 1382 -128 
C 2042 -128 2669 441 2669 1267 
C 2669 2054 2170 2662 1549 2662 
C 1222 2662 947 2540 730 2304 
L 730 3750 
z
" transform="scale(0.015625)"/>
       </defs>
       <use xlink:href="#CMR17-35" transform="scale(0.996264)"/>
      </g>
     </g>
    </g>
    <g id="xtick_6">
     <g id="line2d_11">
      <path d="M 262.949597 315.861353 
L 262.949597 38.661353 
" clip-path="url(#pdf8023f8f4)" style="fill: none; stroke: #808080; stroke-width: 0.5; stroke-linecap: square"/>
     </g>
     <g id="line2d_12">
      <g>
       <use xlink:href="#m6214c52839" x="262.949597" y="315.861353" style="stroke: #000000; stroke-width: 0.8"/>
      </g>
     </g>
     <g id="text_6">
      <!-- $\mathdefault{6}$ -->
      <g transform="translate(260.458929 329.959673) scale(0.1 -0.1)">
       <defs>
        <path id="CMR17-36" d="M 678 2198 
C 678 3712 1395 4076 1811 4076 
C 1946 4076 2272 4049 2400 3782 
C 2298 3782 2106 3782 2106 3558 
C 2106 3385 2246 3328 2336 3328 
C 2394 3328 2566 3353 2566 3571 
C 2566 3987 2246 4224 1805 4224 
C 1043 4224 243 3411 243 2011 
C 243 257 966 -128 1478 -128 
C 2099 -128 2688 431 2688 1295 
C 2688 2101 2170 2688 1517 2688 
C 1126 2688 838 2430 678 1979 
L 678 2198 
z
M 1478 25 
C 691 25 691 1212 691 1450 
C 691 1914 909 2585 1504 2585 
C 1613 2585 1926 2585 2138 2140 
C 2253 1889 2253 1624 2253 1302 
C 2253 954 2253 696 2118 438 
C 1978 173 1773 25 1478 25 
z
" transform="scale(0.015625)"/>
       </defs>
       <use xlink:href="#CMR17-36" transform="scale(0.996264)"/>
      </g>
     </g>
    </g>
    <g id="xtick_7">
     <g id="line2d_13">
      <path d="M 304.065386 315.861353 
L 304.065386 38.661353 
" clip-path="url(#pdf8023f8f4)" style="fill: none; stroke: #808080; stroke-width: 0.5; stroke-linecap: square"/>
     </g>
     <g id="line2d_14">
      <g>
       <use xlink:href="#m6214c52839" x="304.065386" y="315.861353" style="stroke: #000000; stroke-width: 0.8"/>
      </g>
     </g>
     <g id="text_7">
      <!-- $\mathdefault{7}$ -->
      <g transform="translate(301.574718 329.959673) scale(0.1 -0.1)">
       <defs>
        <path id="CMR17-37" d="M 2886 3955 
L 2886 4096 
L 1382 4096 
C 634 4096 621 4166 595 4288 
L 480 4288 
L 294 3104 
L 410 3104 
C 429 3226 474 3552 550 3673 
C 589 3724 1062 3724 1171 3724 
L 2579 3724 
L 1869 2670 
C 1395 1961 1069 1003 1069 166 
C 1069 89 1069 -128 1299 -128 
C 1530 -128 1530 89 1530 172 
L 1530 466 
C 1530 1514 1709 2204 2003 2644 
L 2886 3955 
z
" transform="scale(0.015625)"/>
       </defs>
       <use xlink:href="#CMR17-37" transform="scale(0.996264)"/>
      </g>
     </g>
    </g>
    <g id="xtick_8">
     <g id="line2d_15">
      <path d="M 345.181176 315.861353 
L 345.181176 38.661353 
" clip-path="url(#pdf8023f8f4)" style="fill: none; stroke: #808080; stroke-width: 0.5; stroke-linecap: square"/>
     </g>
     <g id="line2d_16">
      <g>
       <use xlink:href="#m6214c52839" x="345.181176" y="315.861353" style="stroke: #000000; stroke-width: 0.8"/>
      </g>
     </g>
     <g id="text_8">
      <!-- $\mathdefault{8}$ -->
      <g transform="translate(342.690508 329.959673) scale(0.1 -0.1)">
       <defs>
        <path id="CMR17-38" d="M 1741 2289 
C 2144 2494 2554 2803 2554 3298 
C 2554 3884 1990 4224 1472 4224 
C 890 4224 378 3800 378 3215 
C 378 3054 416 2777 666 2533 
C 730 2469 998 2276 1171 2154 
C 883 2006 211 1652 211 945 
C 211 282 838 -128 1459 -128 
C 2144 -128 2720 366 2720 1022 
C 2720 1607 2330 1877 2074 2051 
L 1741 2289 
z
M 902 2855 
C 851 2887 595 3086 595 3388 
C 595 3781 998 4076 1459 4076 
C 1965 4076 2336 3716 2336 3298 
C 2336 2700 1670 2359 1638 2359 
C 1632 2359 1626 2359 1574 2398 
L 902 2855 
z
M 2080 1536 
C 2176 1466 2483 1253 2483 861 
C 2483 385 2010 25 1472 25 
C 890 25 448 443 448 951 
C 448 1459 838 1884 1280 2083 
L 2080 1536 
z
" transform="scale(0.015625)"/>
       </defs>
       <use xlink:href="#CMR17-38" transform="scale(0.996264)"/>
      </g>
     </g>
    </g>
    <g id="xtick_9">
     <g id="line2d_17">
      <path d="M 386.296965 315.861353 
L 386.296965 38.661353 
" clip-path="url(#pdf8023f8f4)" style="fill: none; stroke: #808080; stroke-width: 0.5; stroke-linecap: square"/>
     </g>
     <g id="line2d_18">
      <g>
       <use xlink:href="#m6214c52839" x="386.296965" y="315.861353" style="stroke: #000000; stroke-width: 0.8"/>
      </g>
     </g>
     <g id="text_9">
      <!-- $\mathdefault{9}$ -->
      <g transform="translate(383.806297 329.959673) scale(0.1 -0.1)">
       <defs>
        <path id="CMR17-39" d="M 2253 1871 
C 2253 448 1670 25 1190 25 
C 1043 25 685 43 538 281 
C 704 256 826 345 826 505 
C 826 678 685 736 595 736 
C 538 736 365 710 365 492 
C 365 68 742 -128 1203 -128 
C 1939 -128 2688 665 2688 2090 
C 2688 3857 1971 4224 1485 4224 
C 851 4224 243 3664 243 2800 
C 243 2000 762 1408 1414 1408 
C 1952 1408 2189 1910 2253 2122 
L 2253 1871 
z
M 1427 1510 
C 1254 1510 1011 1542 813 1929 
C 678 2181 678 2477 678 2793 
C 678 3174 678 3438 858 3722 
C 947 3857 1114 4076 1485 4076 
C 2240 4076 2240 2909 2240 2651 
C 2240 2193 2035 1510 1427 1510 
z
" transform="scale(0.015625)"/>
       </defs>
       <use xlink:href="#CMR17-39" transform="scale(0.996264)"/>
      </g>
     </g>
    </g>
    <g id="xtick_10">
     <g id="line2d_19">
      <path d="M 427.412755 315.861353 
L 427.412755 38.661353 
" clip-path="url(#pdf8023f8f4)" style="fill: none; stroke: #808080; stroke-width: 0.5; stroke-linecap: square"/>
     </g>
     <g id="line2d_20">
      <g>
       <use xlink:href="#m6214c52839" x="427.412755" y="315.861353" style="stroke: #000000; stroke-width: 0.8"/>
      </g>
     </g>
     <g id="text_10">
      <!-- $\mathdefault{10}$ -->
      <g transform="translate(422.431419 329.959673) scale(0.1 -0.1)">
       <defs>
        <path id="CMR17-30" d="M 2688 2038 
C 2688 2430 2682 3099 2413 3613 
C 2176 4063 1798 4224 1466 4224 
C 1158 4224 768 4082 525 3620 
C 269 3137 243 2539 243 2038 
C 243 1671 250 1112 448 623 
C 723 -39 1216 -128 1466 -128 
C 1760 -128 2208 -7 2470 604 
C 2662 1048 2688 1568 2688 2038 
z
M 1466 -26 
C 1056 -26 813 328 723 816 
C 653 1196 653 1749 653 2109 
C 653 2604 653 3015 736 3407 
C 858 3954 1216 4121 1466 4121 
C 1728 4121 2067 3947 2189 3420 
C 2272 3054 2278 2623 2278 2109 
C 2278 1691 2278 1176 2202 797 
C 2067 96 1690 -26 1466 -26 
z
" transform="scale(0.015625)"/>
       </defs>
       <use xlink:href="#CMR17-31" transform="scale(0.996264)"/>
       <use xlink:href="#CMR17-30" transform="translate(45.690477 0) scale(0.996264)"/>
      </g>
     </g>
    </g>
    <g id="text_11">
     <!-- $data set$ -->
     <g transform="translate(220.361347 346.019308) scale(0.14 -0.14)">
      <defs>
       <path id="CMMI12-64" d="M 3219 4255 
C 3226 4281 3238 4319 3238 4351 
C 3238 4416 3174 4416 3162 4416 
C 3155 4416 2842 4390 2810 4383 
C 2701 4377 2605 4364 2490 4358 
C 2330 4345 2285 4339 2285 4223 
C 2285 4159 2336 4159 2426 4159 
C 2739 4159 2746 4103 2746 4040 
C 2746 4002 2733 3951 2726 3932 
L 2336 2394 
C 2266 2560 2093 2816 1760 2816 
C 1037 2816 256 1883 256 938 
C 256 306 627 -64 1062 -64 
C 1414 -64 1715 210 1894 421 
C 1958 44 2259 -64 2451 -64 
C 2643 -64 2797 51 2912 281 
C 3014 498 3104 887 3104 913 
C 3104 945 3078 970 3040 970 
C 2982 970 2976 938 2950 842 
C 2854 466 2733 64 2470 64 
C 2285 64 2272 230 2272 357 
C 2272 383 2272 517 2317 696 
L 3219 4255 
z
M 1926 759 
C 1894 651 1894 638 1805 517 
C 1664 338 1382 64 1082 64 
C 819 64 672 300 672 676 
C 672 1028 870 1743 992 2011 
C 1210 2458 1510 2687 1760 2687 
C 2182 2687 2266 2164 2266 2113 
C 2266 2107 2246 2024 2240 2011 
L 1926 759 
z
" transform="scale(0.015625)"/>
       <path id="CMMI12-61" d="M 1926 759 
C 1894 651 1894 638 1805 517 
C 1664 338 1382 64 1082 64 
C 819 64 672 300 672 676 
C 672 1028 870 1743 992 2011 
C 1210 2458 1510 2687 1760 2687 
C 2182 2687 2266 2164 2266 2113 
C 2266 2107 2246 2024 2240 2011 
L 1926 759 
z
M 2336 2394 
C 2266 2560 2093 2816 1760 2816 
C 1037 2816 256 1883 256 938 
C 256 306 627 -64 1062 -64 
C 1414 -64 1715 210 1894 421 
C 1958 44 2259 -64 2451 -64 
C 2643 -64 2797 51 2912 280 
C 3014 496 3104 885 3104 910 
C 3104 942 3078 968 3040 968 
C 2982 968 2976 936 2950 840 
C 2854 465 2733 64 2470 64 
C 2285 64 2272 229 2272 356 
C 2272 503 2291 573 2349 821 
C 2394 980 2426 1120 2477 1305 
C 2714 2260 2771 2489 2771 2528 
C 2771 2617 2701 2688 2605 2688 
C 2400 2688 2349 2464 2336 2388 
L 2336 2394 
z
" transform="scale(0.015625)"/>
       <path id="CMMI12-74" d="M 1286 2566 
L 1875 2566 
C 1997 2566 2061 2566 2061 2681 
C 2061 2752 2022 2752 1894 2752 
L 1331 2752 
L 1568 3664 
C 1594 3752 1594 3764 1594 3808 
C 1594 3910 1510 3968 1427 3968 
C 1376 3968 1229 3948 1178 3746 
L 928 2752 
L 326 2752 
C 198 2752 141 2752 141 2630 
C 141 2566 186 2566 307 2566 
L 877 2566 
L 454 881 
C 403 657 384 593 384 510 
C 384 210 595 -64 954 -64 
C 1600 -64 1946 868 1946 913 
C 1946 951 1920 970 1882 970 
C 1869 970 1843 970 1830 944 
C 1824 938 1818 932 1773 830 
C 1638 510 1344 64 973 64 
C 781 64 768 223 768 364 
C 768 370 768 491 787 568 
L 1286 2566 
z
" transform="scale(0.015625)"/>
       <path id="CMMI12-73" d="M 1459 1290 
C 1568 1271 1741 1233 1779 1227 
C 1862 1201 2150 1099 2150 793 
C 2150 595 1971 64 1229 64 
C 1094 64 614 83 486 447 
C 742 414 870 614 870 755 
C 870 889 781 960 653 960 
C 512 960 326 851 326 563 
C 326 176 710 -64 1222 -64 
C 2195 -64 2483 665 2483 998 
C 2483 1093 2483 1271 2278 1475 
C 2118 1627 1965 1659 1619 1729 
C 1446 1767 1171 1824 1171 2111 
C 1171 2239 1286 2687 1894 2687 
C 2163 2687 2426 2589 2490 2368 
C 2208 2368 2195 2124 2195 2118 
C 2195 1983 2317 1945 2374 1945 
C 2464 1945 2643 2015 2643 2284 
C 2643 2546 2400 2816 1901 2816 
C 1062 2816 838 2169 838 1907 
C 838 1424 1312 1322 1459 1290 
z
" transform="scale(0.015625)"/>
       <path id="CMMI12-65" d="M 1146 1472 
C 1318 1472 1754 1484 2061 1600 
C 2547 1786 2592 2160 2592 2275 
C 2592 2559 2349 2816 1926 2816 
C 1254 2816 288 2205 288 1066 
C 288 400 672 -64 1254 -64 
C 2125 -64 2675 609 2675 691 
C 2675 729 2637 761 2611 761 
C 2592 761 2586 755 2528 698 
C 2118 159 1510 64 1267 64 
C 902 64 710 349 710 818 
C 710 907 710 1066 806 1472 
L 1146 1472 
z
M 838 1600 
C 1114 2591 1722 2687 1926 2687 
C 2208 2687 2400 2520 2400 2275 
C 2400 1600 1376 1600 1107 1600 
L 838 1600 
z
" transform="scale(0.015625)"/>
      </defs>
      <use xlink:href="#CMMI12-64" transform="scale(0.996264)"/>
      <use xlink:href="#CMMI12-61" transform="translate(50.689097 0) scale(0.996264)"/>
      <use xlink:href="#CMMI12-74" transform="translate(101.896954 0) scale(0.996264)"/>
      <use xlink:href="#CMMI12-61" transform="translate(137.123285 0) scale(0.996264)"/>
      <use xlink:href="#CMMI12-73" transform="translate(188.331142 0) scale(0.996264)"/>
      <use xlink:href="#CMMI12-65" transform="translate(234.28119 0) scale(0.996264)"/>
      <use xlink:href="#CMMI12-74" transform="translate(279.493191 0) scale(0.996264)"/>
     </g>
    </g>
   </g>
   <g id="matplotlib.axis_2">
    <g id="ytick_1">
     <g id="line2d_21">
      <path d="M 47.091702 290.03419 
L 437.691702 290.03419 
" clip-path="url(#pdf8023f8f4)" style="fill: none; stroke: #808080; stroke-width: 0.5; stroke-linecap: square"/>
     </g>
     <g id="line2d_22">
      <defs>
       <path id="m100670f935" d="M 0 0 
L -3.5 0 
" style="stroke: #000000; stroke-width: 0.8"/>
      </defs>
      <g>
       <use xlink:href="#m100670f935" x="47.091702" y="290.03419" style="stroke: #000000; stroke-width: 0.8"/>
      </g>
     </g>
     <g id="text_12">
      <!-- $\mathdefault{40}$ -->
      <g transform="translate(30.129031 293.58335) scale(0.1 -0.1)">
       <use xlink:href="#CMR17-34" transform="scale(0.996264)"/>
       <use xlink:href="#CMR17-30" transform="translate(45.690477 0) scale(0.996264)"/>
      </g>
     </g>
    </g>
    <g id="ytick_2">
     <g id="line2d_23">
      <path d="M 47.091702 243.154598 
L 437.691702 243.154598 
" clip-path="url(#pdf8023f8f4)" style="fill: none; stroke: #808080; stroke-width: 0.5; stroke-linecap: square"/>
     </g>
     <g id="line2d_24">
      <g>
       <use xlink:href="#m100670f935" x="47.091702" y="243.154598" style="stroke: #000000; stroke-width: 0.8"/>
      </g>
     </g>
     <g id="text_13">
      <!-- $\mathdefault{60}$ -->
      <g transform="translate(30.129031 246.703758) scale(0.1 -0.1)">
       <use xlink:href="#CMR17-36" transform="scale(0.996264)"/>
       <use xlink:href="#CMR17-30" transform="translate(45.690477 0) scale(0.996264)"/>
      </g>
     </g>
    </g>
    <g id="ytick_3">
     <g id="line2d_25">
      <path d="M 47.091702 196.275005 
L 437.691702 196.275005 
" clip-path="url(#pdf8023f8f4)" style="fill: none; stroke: #808080; stroke-width: 0.5; stroke-linecap: square"/>
     </g>
     <g id="line2d_26">
      <g>
       <use xlink:href="#m100670f935" x="47.091702" y="196.275005" style="stroke: #000000; stroke-width: 0.8"/>
      </g>
     </g>
     <g id="text_14">
      <!-- $\mathdefault{80}$ -->
      <g transform="translate(30.129031 199.824165) scale(0.1 -0.1)">
       <use xlink:href="#CMR17-38" transform="scale(0.996264)"/>
       <use xlink:href="#CMR17-30" transform="translate(45.690477 0) scale(0.996264)"/>
      </g>
     </g>
    </g>
    <g id="ytick_4">
     <g id="line2d_27">
      <path d="M 47.091702 149.395413 
L 437.691702 149.395413 
" clip-path="url(#pdf8023f8f4)" style="fill: none; stroke: #808080; stroke-width: 0.5; stroke-linecap: square"/>
     </g>
     <g id="line2d_28">
      <g>
       <use xlink:href="#m100670f935" x="47.091702" y="149.395413" style="stroke: #000000; stroke-width: 0.8"/>
      </g>
     </g>
     <g id="text_15">
      <!-- $\mathdefault{100}$ -->
      <g transform="translate(25.147696 152.944573) scale(0.1 -0.1)">
       <use xlink:href="#CMR17-31" transform="scale(0.996264)"/>
       <use xlink:href="#CMR17-30" transform="translate(45.690477 0) scale(0.996264)"/>
       <use xlink:href="#CMR17-30" transform="translate(91.380954 0) scale(0.996264)"/>
      </g>
     </g>
    </g>
    <g id="ytick_5">
     <g id="line2d_29">
      <path d="M 47.091702 102.51582 
L 437.691702 102.51582 
" clip-path="url(#pdf8023f8f4)" style="fill: none; stroke: #808080; stroke-width: 0.5; stroke-linecap: square"/>
     </g>
     <g id="line2d_30">
      <g>
       <use xlink:href="#m100670f935" x="47.091702" y="102.51582" style="stroke: #000000; stroke-width: 0.8"/>
      </g>
     </g>
     <g id="text_16">
      <!-- $\mathdefault{120}$ -->
      <g transform="translate(25.147696 106.06498) scale(0.1 -0.1)">
       <use xlink:href="#CMR17-31" transform="scale(0.996264)"/>
       <use xlink:href="#CMR17-32" transform="translate(45.690477 0) scale(0.996264)"/>
       <use xlink:href="#CMR17-30" transform="translate(91.380954 0) scale(0.996264)"/>
      </g>
     </g>
    </g>
    <g id="ytick_6">
     <g id="line2d_31">
      <path d="M 47.091702 55.636227 
L 437.691702 55.636227 
" clip-path="url(#pdf8023f8f4)" style="fill: none; stroke: #808080; stroke-width: 0.5; stroke-linecap: square"/>
     </g>
     <g id="line2d_32">
      <g>
       <use xlink:href="#m100670f935" x="47.091702" y="55.636227" style="stroke: #000000; stroke-width: 0.8"/>
      </g>
     </g>
     <g id="text_17">
      <!-- $\mathdefault{140}$ -->
      <g transform="translate(25.147696 59.185388) scale(0.1 -0.1)">
       <use xlink:href="#CMR17-31" transform="scale(0.996264)"/>
       <use xlink:href="#CMR17-34" transform="translate(45.690477 0) scale(0.996264)"/>
       <use xlink:href="#CMR17-30" transform="translate(91.380954 0) scale(0.996264)"/>
      </g>
     </g>
    </g>
    <g id="text_18">
     <!-- $v_{0}\ [km/h]$ -->
     <g transform="translate(17.660772 206.156042) rotate(-90) scale(0.14 -0.14)">
      <defs>
       <path id="CMMI12-76" d="M 2925 2388 
C 2925 2790 2720 2816 2669 2816 
C 2515 2816 2374 2662 2374 2534 
C 2374 2458 2419 2413 2445 2388 
C 2509 2330 2675 2158 2675 1826 
C 2675 1558 2291 64 1523 64 
C 1133 64 1056 389 1056 625 
C 1056 945 1203 1392 1376 1851 
C 1478 2113 1504 2177 1504 2305 
C 1504 2573 1312 2816 998 2816 
C 410 2816 173 1890 173 1838 
C 173 1813 198 1781 243 1781 
C 301 1781 307 1807 333 1896 
C 486 2445 736 2687 979 2687 
C 1037 2687 1146 2687 1146 2477 
C 1146 2311 1075 2126 979 1883 
C 672 1066 672 868 672 715 
C 672 574 691 313 890 134 
C 1120 -64 1440 -64 1498 -64 
C 2560 -64 2925 2024 2925 2388 
z
" transform="scale(0.015625)"/>
       <path id="CMR17-5b" d="M 1504 -1600 
L 1504 -1376 
L 902 -1376 
L 902 4575 
L 1504 4575 
L 1504 4800 
L 678 4800 
L 678 -1600 
L 1504 -1600 
z
" transform="scale(0.015625)"/>
       <path id="CMMI12-6b" d="M 1798 4255 
C 1805 4281 1818 4319 1818 4351 
C 1818 4416 1754 4416 1741 4416 
C 1734 4416 1504 4396 1389 4383 
C 1280 4377 1184 4364 1069 4358 
C 915 4345 870 4339 870 4223 
C 870 4159 934 4159 998 4159 
C 1325 4159 1325 4103 1325 4040 
C 1325 4014 1325 4002 1293 3888 
L 378 250 
C 352 153 352 141 352 102 
C 352 -39 461 -64 525 -64 
C 704 -64 742 76 794 275 
L 1094 1476 
C 1555 1425 1830 1232 1830 924 
C 1830 885 1830 860 1811 763 
C 1786 667 1786 590 1786 558 
C 1786 185 2029 -64 2355 -64 
C 2650 -64 2803 205 2854 295 
C 2989 532 3072 892 3072 917 
C 3072 949 3046 975 3008 975 
C 2950 975 2944 949 2918 847 
C 2829 513 2694 64 2368 64 
C 2240 64 2157 128 2157 372 
C 2157 494 2182 635 2208 731 
C 2234 847 2234 853 2234 930 
C 2234 1309 1894 1521 1306 1598 
C 1536 1739 1766 1989 1856 2086 
C 2221 2495 2470 2687 2765 2687 
C 2912 2687 2950 2655 2995 2624 
C 2758 2598 2669 2431 2669 2303 
C 2669 2150 2790 2099 2880 2099 
C 3053 2099 3206 2246 3206 2451 
C 3206 2634 3059 2816 2771 2816 
C 2419 2816 2131 2579 1677 2067 
C 1613 1989 1376 1746 1139 1656 
L 1798 4255 
z
" transform="scale(0.015625)"/>
       <path id="CMMI12-6d" d="M 1318 1870 
C 1331 1909 1491 2228 1728 2432 
C 1894 2585 2112 2687 2362 2687 
C 2618 2687 2707 2496 2707 2241 
C 2707 2202 2707 2075 2630 1775 
L 2470 1117 
C 2419 925 2298 453 2285 383 
C 2259 287 2221 121 2221 95 
C 2221 6 2291 -64 2387 -64 
C 2579 -64 2611 83 2669 313 
L 3053 1838 
C 3066 1890 3398 2687 4102 2687 
C 4358 2687 4448 2496 4448 2241 
C 4448 1883 4198 1187 4058 804 
C 4000 651 3968 568 3968 453 
C 3968 166 4166 -64 4474 -64 
C 5069 -64 5293 874 5293 913 
C 5293 945 5267 970 5229 970 
C 5171 970 5165 951 5133 842 
C 4986 332 4749 64 4493 64 
C 4429 64 4326 70 4326 274 
C 4326 440 4403 645 4429 715 
C 4544 1021 4832 1775 4832 2145 
C 4832 2528 4608 2816 4122 2816 
C 3693 2816 3347 2573 3091 2196 
C 3072 2541 2861 2816 2381 2816 
C 1811 2816 1510 2413 1395 2253 
C 1376 2617 1114 2816 832 2816 
C 646 2816 499 2726 378 2483 
C 262 2253 173 1864 173 1838 
C 173 1813 198 1781 243 1781 
C 294 1781 301 1787 339 1934 
C 435 2311 557 2687 813 2687 
C 960 2687 1011 2585 1011 2394 
C 1011 2253 947 2004 902 1807 
L 723 1117 
C 698 996 627 708 595 593 
C 550 427 480 127 480 95 
C 480 6 550 -64 646 -64 
C 723 -64 813 -26 864 70 
C 877 102 934 325 966 453 
L 1107 1028 
L 1318 1870 
z
" transform="scale(0.015625)"/>
       <path id="CMMI12-3d" d="M 2746 4563 
C 2746 4569 2784 4665 2784 4678 
C 2784 4755 2720 4800 2669 4800 
C 2637 4800 2579 4800 2528 4659 
L 384 -1364 
C 384 -1370 346 -1466 346 -1479 
C 346 -1556 410 -1600 461 -1600 
C 499 -1600 557 -1594 602 -1460 
L 2746 4563 
z
" transform="scale(0.015625)"/>
       <path id="CMMI12-68" d="M 1798 4255 
C 1805 4281 1818 4319 1818 4351 
C 1818 4416 1754 4416 1741 4416 
C 1734 4416 1421 4390 1389 4383 
C 1280 4377 1184 4364 1069 4358 
C 909 4345 864 4339 864 4223 
C 864 4159 915 4159 1005 4159 
C 1318 4159 1325 4103 1325 4040 
C 1325 4002 1312 3951 1306 3932 
L 378 249 
C 352 153 352 140 352 102 
C 352 -39 461 -64 525 -64 
C 634 -64 717 19 749 89 
L 1037 1245 
C 1069 1385 1107 1519 1139 1660 
C 1210 1928 1210 1934 1331 2119 
C 1453 2305 1741 2687 2234 2687 
C 2490 2687 2579 2496 2579 2241 
C 2579 1883 2330 1187 2189 804 
C 2131 651 2099 568 2099 453 
C 2099 166 2298 -64 2605 -64 
C 3200 -64 3424 874 3424 913 
C 3424 945 3398 970 3360 970 
C 3302 970 3296 951 3264 842 
C 3117 332 2880 64 2624 64 
C 2560 64 2458 70 2458 274 
C 2458 440 2534 645 2560 715 
C 2675 1021 2963 1775 2963 2145 
C 2963 2528 2739 2816 2253 2816 
C 1888 2816 1568 2643 1306 2311 
L 1798 4255 
z
" transform="scale(0.015625)"/>
       <path id="CMR17-5d" d="M 915 4800 
L 90 4800 
L 90 4575 
L 691 4575 
L 691 -1376 
L 90 -1376 
L 90 -1600 
L 915 -1600 
L 915 4800 
z
" transform="scale(0.015625)"/>
      </defs>
      <use xlink:href="#CMMI12-76" transform="scale(0.996264)"/>
      <use xlink:href="#CMR17-30" transform="translate(47.160581 -14.943915) scale(0.697382)"/>
      <use xlink:href="#CMR17-5b" transform="translate(107.337064 0) scale(0.996264)"/>
      <use xlink:href="#CMMI12-6b" transform="translate(132.208123 0) scale(0.996264)"/>
      <use xlink:href="#CMMI12-6d" transform="translate(186.287323 0) scale(0.996264)"/>
      <use xlink:href="#CMMI12-3d" transform="translate(271.614548 0) scale(0.996264)"/>
      <use xlink:href="#CMMI12-68" transform="translate(320.389467 0) scale(0.996264)"/>
      <use xlink:href="#CMR17-5d" transform="translate(376.544091 0) scale(0.996264)"/>
     </g>
    </g>
   </g>
   <g id="line2d_33">
    <path d="M 57.370649 139.649858 
" clip-path="url(#pdf8023f8f4)" style="fill: none; stroke: #ff0000; stroke-width: 1.5; stroke-linecap: square"/>
    <defs>
     <path id="m2ca4eb55d3" d="M -3 3 
L 3 -3 
M -3 -3 
L 3 3 
" style="stroke: #ff0000"/>
    </defs>
    <g clip-path="url(#pdf8023f8f4)">
     <use xlink:href="#m2ca4eb55d3" x="57.370649" y="139.649858" style="fill: #ff0000; stroke: #ff0000"/>
    </g>
   </g>
   <g id="line2d_34">
    <path d="M 98.486439 201.795603 
" clip-path="url(#pdf8023f8f4)" style="fill: none; stroke: #ff0000; stroke-width: 1.5; stroke-linecap: square"/>
    <g clip-path="url(#pdf8023f8f4)">
     <use xlink:href="#m2ca4eb55d3" x="98.486439" y="201.795603" style="fill: #ff0000; stroke: #ff0000"/>
    </g>
   </g>
   <g id="line2d_35">
    <path d="M 139.602228 142.849382 
" clip-path="url(#pdf8023f8f4)" style="fill: none; stroke: #ff0000; stroke-width: 1.5; stroke-linecap: square"/>
    <g clip-path="url(#pdf8023f8f4)">
     <use xlink:href="#m2ca4eb55d3" x="139.602228" y="142.849382" style="fill: #ff0000; stroke: #ff0000"/>
    </g>
   </g>
   <g id="line2d_36">
    <path d="M 180.718018 175.546882 
" clip-path="url(#pdf8023f8f4)" style="fill: none; stroke: #ff0000; stroke-width: 1.5; stroke-linecap: square"/>
    <g clip-path="url(#pdf8023f8f4)">
     <use xlink:href="#m2ca4eb55d3" x="180.718018" y="175.546882" style="fill: #ff0000; stroke: #ff0000"/>
    </g>
   </g>
   <g id="line2d_37">
    <path d="M 221.833807 154.276819 
" clip-path="url(#pdf8023f8f4)" style="fill: none; stroke: #ff0000; stroke-width: 1.5; stroke-linecap: square"/>
    <g clip-path="url(#pdf8023f8f4)">
     <use xlink:href="#m2ca4eb55d3" x="221.833807" y="154.276819" style="fill: #ff0000; stroke: #ff0000"/>
    </g>
   </g>
   <g id="line2d_38">
    <path d="M 262.949597 182.460562 
" clip-path="url(#pdf8023f8f4)" style="fill: none; stroke: #ff0000; stroke-width: 1.5; stroke-linecap: square"/>
    <g clip-path="url(#pdf8023f8f4)">
     <use xlink:href="#m2ca4eb55d3" x="262.949597" y="182.460562" style="fill: #ff0000; stroke: #ff0000"/>
    </g>
   </g>
   <g id="line2d_39">
    <path d="M 304.065386 157.887539 
" clip-path="url(#pdf8023f8f4)" style="fill: none; stroke: #ff0000; stroke-width: 1.5; stroke-linecap: square"/>
    <g clip-path="url(#pdf8023f8f4)">
     <use xlink:href="#m2ca4eb55d3" x="304.065386" y="157.887539" style="fill: #ff0000; stroke: #ff0000"/>
    </g>
   </g>
   <g id="line2d_40">
    <path d="M 345.181176 185.59047 
" clip-path="url(#pdf8023f8f4)" style="fill: none; stroke: #ff0000; stroke-width: 1.5; stroke-linecap: square"/>
    <g clip-path="url(#pdf8023f8f4)">
     <use xlink:href="#m2ca4eb55d3" x="345.181176" y="185.59047" style="fill: #ff0000; stroke: #ff0000"/>
    </g>
   </g>
   <g id="line2d_41">
    <path d="M 386.296965 152.729125 
" clip-path="url(#pdf8023f8f4)" style="fill: none; stroke: #ff0000; stroke-width: 1.5; stroke-linecap: square"/>
    <g clip-path="url(#pdf8023f8f4)">
     <use xlink:href="#m2ca4eb55d3" x="386.296965" y="152.729125" style="fill: #ff0000; stroke: #ff0000"/>
    </g>
   </g>
   <g id="line2d_42">
    <path d="M 427.412755 200.51743 
" clip-path="url(#pdf8023f8f4)" style="fill: none; stroke: #ff0000; stroke-width: 1.5; stroke-linecap: square"/>
    <g clip-path="url(#pdf8023f8f4)">
     <use xlink:href="#m2ca4eb55d3" x="427.412755" y="200.51743" style="fill: #ff0000; stroke: #ff0000"/>
    </g>
   </g>
   <g id="line2d_43">
    <path d="M 57.370649 169.330367 
L 98.486439 169.330367 
L 139.602228 169.330367 
L 180.718018 169.330367 
L 221.833807 169.330367 
L 262.949597 169.330367 
L 304.065386 169.330367 
L 345.181176 169.330367 
L 386.296965 169.330367 
L 427.412755 169.330367 
" clip-path="url(#pdf8023f8f4)" style="fill: none; stroke: #ff0000; stroke-width: 1.5; stroke-linecap: square"/>
   </g>
   <g id="patch_3">
    <path d="M 47.091702 315.861353 
L 47.091702 38.661353 
" style="fill: none; stroke: #000000; stroke-width: 0.8; stroke-linejoin: miter; stroke-linecap: square"/>
   </g>
   <g id="patch_4">
    <path d="M 437.691702 315.861353 
L 437.691702 38.661353 
" style="fill: none; stroke: #000000; stroke-width: 0.8; stroke-linejoin: miter; stroke-linecap: square"/>
   </g>
   <g id="patch_5">
    <path d="M 47.091702 315.861353 
L 437.691702 315.861353 
" style="fill: none; stroke: #000000; stroke-width: 0.8; stroke-linejoin: miter; stroke-linecap: square"/>
   </g>
   <g id="patch_6">
    <path d="M 47.091702 38.661353 
L 437.691702 38.661353 
" style="fill: none; stroke: #000000; stroke-width: 0.8; stroke-linejoin: miter; stroke-linecap: square"/>
   </g>
   <g id="text_19">
    <!-- $Time\ taken:\ 1160.10s$ -->
    <g transform="translate(311.260649 349.827364) scale(0.12 -0.12)">
     <defs>
      <path id="CMMI12-54" d="M 2669 3886 
C 2707 4038 2720 4096 2816 4121 
C 2867 4134 3078 4134 3213 4134 
C 3853 4134 4154 4109 4154 3612 
C 4154 3516 4128 3274 4090 3038 
L 4083 2962 
C 4083 2937 4109 2898 4147 2898 
C 4211 2898 4211 2930 4230 3032 
L 4416 4159 
C 4429 4217 4429 4230 4429 4249 
C 4429 4319 4390 4319 4262 4319 
L 762 4319 
C 614 4319 608 4313 570 4198 
L 179 3051 
C 173 3038 154 2968 154 2962 
C 154 2930 179 2898 218 2898 
C 269 2898 282 2924 307 3007 
C 576 3777 710 4134 1562 4134 
L 1990 4134 
C 2144 4134 2208 4134 2208 4064 
C 2208 4045 2208 4032 2176 3917 
L 1318 497 
C 1254 249 1242 185 563 185 
C 403 185 358 185 358 64 
C 358 0 429 0 461 0 
C 621 0 787 12 947 12 
L 1946 12 
C 2106 12 2278 0 2438 0 
C 2509 0 2573 0 2573 121 
C 2573 185 2528 185 2362 185 
C 1786 185 1786 242 1786 338 
C 1786 344 1786 389 1811 491 
L 2669 3886 
z
" transform="scale(0.015625)"/>
      <path id="CMMI12-69" d="M 1811 913 
C 1811 945 1786 970 1747 970 
C 1690 970 1683 951 1651 842 
C 1485 261 1222 64 1011 64 
C 934 64 845 83 845 274 
C 845 447 922 638 992 830 
L 1440 2017 
C 1459 2068 1504 2183 1504 2305 
C 1504 2573 1312 2816 998 2816 
C 410 2816 173 1890 173 1838 
C 173 1813 198 1781 243 1781 
C 301 1781 307 1807 333 1896 
C 486 2432 730 2687 979 2687 
C 1037 2687 1146 2681 1146 2477 
C 1146 2311 1062 2100 1011 1960 
L 563 772 
C 525 670 486 568 486 453 
C 486 166 685 -64 992 -64 
C 1581 -64 1811 868 1811 913 
z
M 1760 4012 
C 1760 4108 1683 4224 1542 4224 
C 1395 4224 1229 4083 1229 3916 
C 1229 3756 1363 3705 1440 3705 
C 1613 3705 1760 3871 1760 4012 
z
" transform="scale(0.015625)"/>
      <path id="CMMI12-6e" d="M 1318 1870 
C 1331 1909 1491 2228 1728 2432 
C 1894 2585 2112 2687 2362 2687 
C 2618 2687 2707 2496 2707 2241 
C 2707 1877 2445 1149 2317 804 
C 2259 651 2227 568 2227 453 
C 2227 166 2426 -64 2733 -64 
C 3328 -64 3552 874 3552 913 
C 3552 945 3526 970 3488 970 
C 3430 970 3424 951 3392 842 
C 3245 319 3002 64 2752 64 
C 2688 64 2586 70 2586 274 
C 2586 434 2656 625 2694 715 
C 2822 1066 3091 1781 3091 2145 
C 3091 2528 2867 2816 2381 2816 
C 1811 2816 1510 2413 1395 2253 
C 1376 2617 1114 2816 832 2816 
C 627 2816 486 2694 378 2477 
C 262 2247 173 1864 173 1838 
C 173 1813 198 1781 243 1781 
C 294 1781 301 1787 339 1934 
C 442 2324 557 2687 813 2687 
C 960 2687 1011 2585 1011 2394 
C 1011 2253 947 2004 902 1807 
L 723 1117 
C 698 996 627 708 595 593 
C 550 427 480 127 480 95 
C 480 6 550 -64 646 -64 
C 723 -64 813 -26 864 70 
C 877 102 934 325 966 453 
L 1107 1028 
L 1318 1870 
z
" transform="scale(0.015625)"/>
      <path id="CMR17-3a" d="M 1062 2489 
C 1062 2649 934 2752 800 2752 
C 672 2752 538 2649 538 2489 
C 538 2329 666 2227 800 2227 
C 928 2227 1062 2329 1062 2489 
z
M 1062 262 
C 1062 422 934 524 800 524 
C 672 524 538 422 538 262 
C 538 102 666 0 800 0 
C 928 0 1062 102 1062 262 
z
" transform="scale(0.015625)"/>
      <path id="CMMI12-3a" d="M 1178 307 
C 1178 492 1024 620 870 620 
C 685 620 557 467 557 313 
C 557 128 710 0 864 0 
C 1050 0 1178 153 1178 307 
z
" transform="scale(0.015625)"/>
     </defs>
     <use xlink:href="#CMMI12-54" transform="scale(0.996264)"/>
     <use xlink:href="#CMMI12-69" transform="translate(70.723632 0) scale(0.996264)"/>
     <use xlink:href="#CMMI12-6d" transform="translate(104.002234 0) scale(0.996264)"/>
     <use xlink:href="#CMMI12-65" transform="translate(189.329459 0) scale(0.996264)"/>
     <use xlink:href="#CMMI12-74" transform="translate(262.236629 0) scale(0.996264)"/>
     <use xlink:href="#CMMI12-61" transform="translate(297.462959 0) scale(0.996264)"/>
     <use xlink:href="#CMMI12-6b" transform="translate(348.670817 0) scale(0.996264)"/>
     <use xlink:href="#CMMI12-65" transform="translate(402.750018 0) scale(0.996264)"/>
     <use xlink:href="#CMMI12-6e" transform="translate(447.962019 0) scale(0.996264)"/>
     <use xlink:href="#CMR17-3a" transform="translate(533.866075 0) scale(0.996264)"/>
     <use xlink:href="#CMR17-31" transform="translate(614.106312 0) scale(0.996264)"/>
     <use xlink:href="#CMR17-31" transform="translate(659.796789 0) scale(0.996264)"/>
     <use xlink:href="#CMR17-36" transform="translate(705.487266 0) scale(0.996264)"/>
     <use xlink:href="#CMR17-30" transform="translate(751.177743 0) scale(0.996264)"/>
     <use xlink:href="#CMMI12-3a" transform="translate(796.86822 0) scale(0.996264)"/>
     <use xlink:href="#CMR17-31" transform="translate(823.965397 0) scale(0.996264)"/>
     <use xlink:href="#CMR17-30" transform="translate(869.655874 0) scale(0.996264)"/>
     <use xlink:href="#CMMI12-73" transform="translate(915.346351 0) scale(0.996264)"/>
    </g>
   </g>
   <g id="text_20">
    <!-- $Velocities\ v_0\ of\ the\ leading\ car$ -->
    <g transform="translate(147.095491 17.137648) scale(0.14 -0.14)">
     <defs>
      <path id="CMMI12-56" d="M 3962 3644 
C 4179 3987 4378 4140 4704 4166 
C 4768 4172 4819 4172 4819 4287 
C 4819 4313 4806 4352 4749 4352 
C 4634 4352 4358 4339 4243 4339 
C 4058 4339 3866 4352 3686 4352 
C 3635 4352 3571 4352 3571 4230 
C 3571 4172 3629 4166 3654 4166 
C 3891 4146 3917 4032 3917 3956 
C 3917 3860 3827 3714 3821 3708 
L 1811 540 
L 1363 3968 
C 1363 4153 1696 4166 1766 4166 
C 1862 4166 1920 4166 1920 4287 
C 1920 4352 1850 4352 1830 4352 
C 1722 4352 1594 4339 1485 4339 
L 1126 4339 
C 659 4339 467 4352 461 4352 
C 422 4352 346 4352 346 4236 
C 346 4166 390 4166 493 4166 
C 819 4166 838 4108 858 3949 
L 1370 25 
C 1389 -109 1389 -128 1478 -128 
C 1555 -128 1587 -109 1651 -7 
L 3962 3644 
z
" transform="scale(0.015625)"/>
      <path id="CMMI12-6c" d="M 1626 4255 
C 1632 4281 1645 4319 1645 4351 
C 1645 4416 1581 4416 1568 4416 
C 1562 4416 1331 4396 1216 4383 
C 1107 4377 1011 4364 896 4358 
C 742 4345 698 4339 698 4223 
C 698 4159 762 4159 826 4159 
C 1152 4159 1152 4102 1152 4039 
C 1152 4013 1152 4001 1120 3886 
L 326 731 
C 307 661 294 610 294 509 
C 294 191 531 -64 858 -64 
C 1069 -64 1210 76 1312 273 
C 1421 483 1510 884 1510 909 
C 1510 941 1485 967 1446 967 
C 1389 967 1382 935 1357 839 
C 1242 401 1126 64 870 64 
C 678 64 678 267 678 356 
C 678 382 678 515 723 693 
L 1626 4255 
z
" transform="scale(0.015625)"/>
      <path id="CMMI12-6f" d="M 2918 1755 
C 2918 2362 2522 2816 1939 2816 
C 1094 2816 262 1896 262 996 
C 262 389 659 -64 1242 -64 
C 2093 -64 2918 855 2918 1755 
z
M 1248 64 
C 928 64 691 319 691 766 
C 691 1060 845 1711 1024 2030 
C 1312 2522 1670 2687 1933 2687 
C 2246 2687 2490 2432 2490 1985 
C 2490 1730 2355 1047 2112 657 
C 1850 230 1498 64 1248 64 
z
" transform="scale(0.015625)"/>
      <path id="CMMI12-63" d="M 2502 2432 
C 2381 2432 2323 2432 2234 2355 
C 2195 2323 2125 2227 2125 2124 
C 2125 1996 2221 1919 2342 1919 
C 2496 1919 2669 2047 2669 2303 
C 2669 2591 2374 2816 1933 2816 
C 1094 2816 256 1932 256 1011 
C 256 446 602 -64 1254 -64 
C 2125 -64 2675 622 2675 706 
C 2675 745 2637 777 2611 777 
C 2592 777 2586 771 2528 712 
C 2118 161 1510 64 1267 64 
C 826 64 685 453 685 777 
C 685 1004 794 1634 1024 2073 
C 1190 2374 1536 2687 1939 2687 
C 2022 2687 2374 2676 2502 2432 
z
" transform="scale(0.015625)"/>
      <path id="CMMI12-66" d="M 2854 2566 
C 2982 2566 3034 2566 3034 2687 
C 3034 2752 2982 2752 2867 2752 
L 2349 2752 
C 2470 3398 2560 3846 2611 4051 
C 2650 4204 2784 4351 2950 4351 
C 3085 4351 3219 4294 3283 4236 
C 3034 4211 2957 4025 2957 3916 
C 2957 3788 3053 3712 3174 3712 
C 3302 3712 3494 3820 3494 4064 
C 3494 4332 3226 4480 2944 4480 
C 2669 4480 2400 4275 2272 4025 
C 2157 3801 2093 3573 1946 2752 
L 1517 2752 
C 1395 2752 1331 2752 1331 2636 
C 1331 2566 1370 2566 1498 2566 
L 1907 2566 
C 1792 1977 1530 545 1382 -132 
C 1274 -685 1178 -1152 858 -1152 
C 838 -1152 653 -1152 538 -1031 
C 864 -1005 864 -724 864 -717 
C 864 -589 768 -512 646 -512 
C 518 -512 326 -621 326 -865 
C 326 -1140 608 -1280 858 -1280 
C 1510 -1280 1779 -113 1850 203 
C 1965 691 2278 2376 2310 2566 
L 2854 2566 
z
" transform="scale(0.015625)"/>
      <path id="CMMI12-67" d="M 2163 811 
C 2138 708 2125 683 2042 587 
C 1779 249 1510 128 1312 128 
C 1101 128 902 293 902 734 
C 902 1072 1094 1787 1235 2075 
C 1421 2432 1709 2687 1978 2687 
C 2400 2687 2483 2164 2483 2126 
L 2464 2036 
L 2163 811 
z
M 2560 2394 
C 2477 2579 2298 2816 1978 2816 
C 1280 2816 486 1941 486 989 
C 486 325 890 0 1299 0 
C 1638 0 1939 268 2054 396 
L 1914 -176 
C 1824 -520 1786 -677 1555 -896 
C 1293 -1152 1050 -1152 909 -1152 
C 717 -1152 557 -1140 397 -1090 
C 602 -1034 653 -858 653 -789 
C 653 -689 576 -589 435 -589 
C 282 -589 115 -714 115 -921 
C 115 -1178 378 -1280 922 -1280 
C 1747 -1280 2176 -758 2259 -420 
L 2970 2426 
C 2989 2502 2989 2515 2989 2528 
C 2989 2617 2918 2688 2822 2688 
C 2669 2688 2579 2560 2560 2388 
L 2560 2394 
z
" transform="scale(0.015625)"/>
      <path id="CMMI12-72" d="M 2490 2633 
C 2291 2598 2189 2457 2189 2316 
C 2189 2163 2310 2111 2400 2111 
C 2579 2111 2726 2265 2726 2457 
C 2726 2651 2528 2816 2208 2816 
C 1952 2816 1658 2700 1389 2335 
C 1344 2660 1088 2816 832 2816 
C 582 2816 454 2642 378 2508 
C 269 2278 173 1892 173 1860 
C 173 1834 198 1801 243 1801 
C 294 1801 301 1808 339 1957 
C 435 2342 557 2687 813 2687 
C 966 2687 1011 2604 1011 2419 
C 1011 2278 947 2028 902 1827 
L 723 1130 
C 698 1007 627 716 595 600 
C 550 432 480 128 480 96 
C 480 6 550 -64 646 -64 
C 717 -64 838 -20 877 109 
C 896 160 1133 1136 1171 1285 
C 1203 1427 1242 1562 1274 1705 
C 1299 1795 1325 1898 1344 1982 
C 1363 2040 1536 2355 1696 2495 
C 1773 2566 1939 2687 2202 2687 
C 2304 2687 2406 2674 2490 2633 
z
" transform="scale(0.015625)"/>
     </defs>
     <use xlink:href="#CMMI12-56" transform="scale(0.996264)"/>
     <use xlink:href="#CMMI12-65" transform="translate(78.547321 0) scale(0.996264)"/>
     <use xlink:href="#CMMI12-6c" transform="translate(123.759322 0) scale(0.996264)"/>
     <use xlink:href="#CMMI12-6f" transform="translate(155.007726 0) scale(0.996264)"/>
     <use xlink:href="#CMMI12-63" transform="translate(201.903035 0) scale(0.996264)"/>
     <use xlink:href="#CMMI12-69" transform="translate(243.886269 0) scale(0.996264)"/>
     <use xlink:href="#CMMI12-74" transform="translate(277.164871 0) scale(0.996264)"/>
     <use xlink:href="#CMMI12-69" transform="translate(312.391201 0) scale(0.996264)"/>
     <use xlink:href="#CMMI12-65" transform="translate(345.669803 0) scale(0.996264)"/>
     <use xlink:href="#CMMI12-73" transform="translate(390.881804 0) scale(0.996264)"/>
     <use xlink:href="#CMMI12-76" transform="translate(464.527021 0) scale(0.996264)"/>
     <use xlink:href="#CMR17-30" transform="translate(511.687602 -14.943915) scale(0.697382)"/>
     <use xlink:href="#CMMI12-6f" transform="translate(571.864085 0) scale(0.996264)"/>
     <use xlink:href="#CMMI12-66" transform="translate(618.759395 0) scale(0.996264)"/>
     <use xlink:href="#CMMI12-74" transform="translate(705.174869 0) scale(0.996264)"/>
     <use xlink:href="#CMMI12-68" transform="translate(740.401199 0) scale(0.996264)"/>
     <use xlink:href="#CMMI12-65" transform="translate(796.555823 0) scale(0.996264)"/>
     <use xlink:href="#CMMI12-6c" transform="translate(869.462994 0) scale(0.996264)"/>
     <use xlink:href="#CMMI12-65" transform="translate(900.711398 0) scale(0.996264)"/>
     <use xlink:href="#CMMI12-61" transform="translate(945.923399 0) scale(0.996264)"/>
     <use xlink:href="#CMMI12-64" transform="translate(997.131256 0) scale(0.996264)"/>
     <use xlink:href="#CMMI12-69" transform="translate(1047.820353 0) scale(0.996264)"/>
     <use xlink:href="#CMMI12-6e" transform="translate(1081.098955 0) scale(0.996264)"/>
     <use xlink:href="#CMMI12-67" transform="translate(1139.329002 0) scale(0.996264)"/>
     <use xlink:href="#CMMI12-63" transform="translate(1217.309662 0) scale(0.996264)"/>
     <use xlink:href="#CMMI12-61" transform="translate(1259.292895 0) scale(0.996264)"/>
     <use xlink:href="#CMMI12-72" transform="translate(1310.500753 0) scale(0.996264)"/>
    </g>
    <!-- $with\ 200\ epochs\ and\ NN\ structure\ [1, 2, 1]$ -->
    <g transform="translate(114.446106 32.661353) scale(0.14 -0.14)">
     <defs>
      <path id="CMMI12-77" d="M 2202 389 
C 2342 6 2739 -64 2982 -64 
C 3469 -64 3757 357 3936 798 
C 4083 1168 4320 2011 4320 2388 
C 4320 2777 4122 2816 4064 2816 
C 3910 2816 3770 2662 3770 2534 
C 3770 2458 3814 2413 3846 2388 
C 3904 2330 4070 2158 4070 1826 
C 4070 1609 3891 1008 3757 708 
C 3578 319 3341 64 3008 64 
C 2650 64 2534 332 2534 625 
C 2534 810 2592 1034 2618 1142 
L 2886 2215 
C 2918 2343 2976 2566 2976 2591 
C 2976 2687 2899 2752 2803 2752 
C 2618 2752 2573 2591 2534 2438 
C 2470 2189 2202 1110 2176 970 
C 2150 861 2150 791 2150 651 
C 2150 498 1946 255 1939 242 
C 1869 172 1766 64 1568 64 
C 1062 64 1062 542 1062 651 
C 1062 855 1107 1136 1395 1896 
C 1472 2094 1504 2177 1504 2305 
C 1504 2573 1312 2816 998 2816 
C 410 2816 173 1890 173 1838 
C 173 1813 198 1781 243 1781 
C 301 1781 307 1807 333 1896 
C 493 2458 742 2687 979 2687 
C 1043 2687 1146 2681 1146 2477 
C 1146 2445 1146 2311 1037 2030 
C 736 1232 672 970 672 728 
C 672 57 1222 -64 1549 -64 
C 1658 -64 1946 -64 2202 389 
z
" transform="scale(0.015625)"/>
      <path id="CMMI12-70" d="M 275 -794 
C 230 -981 205 -1031 -58 -1031 
C -135 -1031 -199 -1031 -199 -1152 
C -199 -1165 -192 -1216 -122 -1216 
C -39 -1216 51 -1204 134 -1204 
L 410 -1204 
C 544 -1204 870 -1216 1005 -1216 
C 1043 -1216 1120 -1216 1120 -1101 
C 1120 -1031 1075 -1031 966 -1031 
C 672 -1031 653 -987 653 -937 
C 653 -863 941 217 979 364 
C 1050 185 1222 -64 1555 -64 
C 2278 -64 3059 874 3059 1813 
C 3059 2400 2726 2816 2246 2816 
C 1837 2816 1491 2419 1421 2330 
C 1370 2649 1120 2816 864 2816 
C 678 2816 531 2726 410 2483 
C 294 2253 205 1864 205 1838 
C 205 1813 230 1781 275 1781 
C 326 1781 333 1787 371 1934 
C 467 2311 589 2687 845 2687 
C 992 2687 1043 2585 1043 2394 
C 1043 2241 1024 2177 998 2062 
L 275 -794 
z
M 1382 1992 
C 1427 2170 1606 2356 1709 2445 
C 1779 2509 1990 2687 2234 2687 
C 2515 2687 2643 2407 2643 2075 
C 2643 1768 2464 1047 2304 715 
C 2144 370 1850 64 1555 64 
C 1120 64 1050 613 1050 638 
C 1050 657 1062 708 1069 740 
L 1382 1992 
z
" transform="scale(0.015625)"/>
      <path id="CMMI12-4e" d="M 4736 3682 
C 4806 3956 4909 4147 5395 4166 
C 5414 4166 5491 4172 5491 4281 
C 5491 4352 5434 4352 5408 4352 
C 5280 4352 4954 4339 4826 4339 
L 4518 4339 
C 4429 4339 4314 4352 4224 4352 
C 4186 4352 4109 4352 4109 4230 
C 4109 4166 4160 4166 4205 4166 
C 4589 4153 4614 4007 4614 3892 
C 4614 3835 4608 3816 4589 3726 
L 3866 854 
L 2496 4243 
C 2451 4345 2445 4352 2304 4352 
L 1523 4352 
C 1395 4352 1338 4352 1338 4230 
C 1338 4166 1382 4166 1504 4166 
C 1536 4166 1914 4166 1914 4109 
C 1914 4096 1901 4045 1894 4026 
L 1043 650 
C 966 338 813 204 390 185 
C 358 185 294 179 294 64 
C 294 0 358 0 378 0 
C 506 0 832 12 960 12 
L 1267 12 
C 1357 12 1466 0 1555 0 
C 1600 0 1670 0 1670 121 
C 1670 179 1606 185 1581 185 
C 1370 191 1165 230 1165 459 
C 1165 510 1178 567 1190 618 
L 2054 4026 
C 2093 3962 2093 3949 2118 3892 
L 3642 115 
C 3674 38 3686 0 3744 0 
C 3808 0 3814 19 3840 128 
L 4736 3682 
z
" transform="scale(0.015625)"/>
      <path id="CMMI12-75" d="M 2182 370 
C 2266 12 2573 -64 2726 -64 
C 2931 -64 3085 70 3187 287 
C 3296 517 3379 893 3379 913 
C 3379 944 3354 970 3315 970 
C 3258 970 3251 938 3226 842 
C 3110 402 2995 64 2739 64 
C 2547 64 2547 274 2547 357 
C 2547 504 2566 568 2630 836 
C 2675 1008 2720 1181 2758 1359 
L 3021 2400 
C 3066 2560 3066 2572 3066 2591 
C 3066 2687 2989 2752 2893 2752 
C 2707 2752 2662 2591 2624 2432 
C 2560 2183 2214 810 2170 587 
C 2163 587 1914 64 1446 64 
C 1114 64 1050 351 1050 587 
C 1050 951 1229 1462 1395 1890 
C 1472 2094 1504 2177 1504 2305 
C 1504 2579 1306 2816 998 2816 
C 410 2816 173 1890 173 1838 
C 173 1813 198 1781 243 1781 
C 301 1781 307 1807 333 1896 
C 486 2445 736 2687 979 2687 
C 1043 2687 1146 2681 1146 2477 
C 1146 2311 1075 2126 979 1883 
C 698 1123 666 881 666 689 
C 666 38 1158 -64 1421 -64 
C 1830 -64 2054 217 2182 370 
z
" transform="scale(0.015625)"/>
      <path id="CMMI12-3b" d="M 1248 -26 
C 1248 345 1126 620 864 620 
C 659 620 557 454 557 313 
C 557 172 653 0 870 0 
C 954 0 1024 25 1082 83 
C 1094 96 1101 96 1107 96 
C 1120 96 1120 6 1120 -26 
C 1120 -233 1082 -642 710 -1051 
C 640 -1127 640 -1140 640 -1152 
C 640 -1184 672 -1216 704 -1216 
C 755 -1216 1248 -749 1248 -26 
z
" transform="scale(0.015625)"/>
     </defs>
     <use xlink:href="#CMMI12-77" transform="scale(0.996264)"/>
     <use xlink:href="#CMMI12-69" transform="translate(72.412915 0) scale(0.996264)"/>
     <use xlink:href="#CMMI12-74" transform="translate(105.691517 0) scale(0.996264)"/>
     <use xlink:href="#CMMI12-68" transform="translate(140.917847 0) scale(0.996264)"/>
     <use xlink:href="#CMR17-32" transform="translate(224.767641 0) scale(0.996264)"/>
     <use xlink:href="#CMR17-30" transform="translate(270.458118 0) scale(0.996264)"/>
     <use xlink:href="#CMR17-30" transform="translate(316.148595 0) scale(0.996264)"/>
     <use xlink:href="#CMMI12-65" transform="translate(389.534242 0) scale(0.996264)"/>
     <use xlink:href="#CMMI12-70" transform="translate(434.746243 0) scale(0.996264)"/>
     <use xlink:href="#CMMI12-6f" transform="translate(483.705757 0) scale(0.996264)"/>
     <use xlink:href="#CMMI12-63" transform="translate(530.601066 0) scale(0.996264)"/>
     <use xlink:href="#CMMI12-68" transform="translate(572.5843 0) scale(0.996264)"/>
     <use xlink:href="#CMMI12-73" transform="translate(628.738924 0) scale(0.996264)"/>
     <use xlink:href="#CMMI12-61" transform="translate(702.384141 0) scale(0.996264)"/>
     <use xlink:href="#CMMI12-6e" transform="translate(753.591999 0) scale(0.996264)"/>
     <use xlink:href="#CMMI12-64" transform="translate(811.822046 0) scale(0.996264)"/>
     <use xlink:href="#CMMI12-4e" transform="translate(890.206313 0) scale(0.996264)"/>
     <use xlink:href="#CMMI12-4e" transform="translate(978.728085 0) scale(0.996264)"/>
     <use xlink:href="#CMMI12-73" transform="translate(1094.945027 0) scale(0.996264)"/>
     <use xlink:href="#CMMI12-74" transform="translate(1140.895075 0) scale(0.996264)"/>
     <use xlink:href="#CMMI12-72" transform="translate(1176.121405 0) scale(0.996264)"/>
     <use xlink:href="#CMMI12-75" transform="translate(1222.792017 0) scale(0.996264)"/>
     <use xlink:href="#CMMI12-63" transform="translate(1278.312347 0) scale(0.996264)"/>
     <use xlink:href="#CMMI12-74" transform="translate(1320.29558 0) scale(0.996264)"/>
     <use xlink:href="#CMMI12-75" transform="translate(1355.521911 0) scale(0.996264)"/>
     <use xlink:href="#CMMI12-72" transform="translate(1411.04224 0) scale(0.996264)"/>
     <use xlink:href="#CMMI12-65" transform="translate(1457.712852 0) scale(0.996264)"/>
     <use xlink:href="#CMR17-5b" transform="translate(1530.620023 0) scale(0.996264)"/>
     <use xlink:href="#CMR17-31" transform="translate(1555.491081 0) scale(0.996264)"/>
     <use xlink:href="#CMMI12-3b" transform="translate(1601.181559 0) scale(0.996264)"/>
     <use xlink:href="#CMR17-32" transform="translate(1644.883141 0) scale(0.996264)"/>
     <use xlink:href="#CMMI12-3b" transform="translate(1690.573618 0) scale(0.996264)"/>
     <use xlink:href="#CMR17-31" transform="translate(1734.2752 0) scale(0.996264)"/>
     <use xlink:href="#CMR17-5d" transform="translate(1779.965677 0) scale(0.996264)"/>
    </g>
   </g>
  </g>
 </g>
 <defs>
  <clipPath id="pdf8023f8f4">
   <rect x="47.091702" y="38.661353" width="390.6" height="277.2"/>
  </clipPath>
 </defs>
</svg>
