<?xml version="1.0" encoding="utf-8" standalone="no"?>
<!DOCTYPE svg PUBLIC "-//W3C//DTD SVG 1.1//EN"
  "http://www.w3.org/Graphics/SVG/1.1/DTD/svg11.dtd">
<svg xmlns:xlink="http://www.w3.org/1999/xlink" width="444.891702pt" height="340.666381pt" viewBox="0 0 444.891702 340.666381" xmlns="http://www.w3.org/2000/svg" version="1.1">
 <metadata>
  <rdf:RDF xmlns:dc="http://purl.org/dc/elements/1.1/" xmlns:cc="http://creativecommons.org/ns#" xmlns:rdf="http://www.w3.org/1999/02/22-rdf-syntax-ns#">
   <cc:Work>
    <dc:type rdf:resource="http://purl.org/dc/dcmitype/StillImage"/>
    <dc:date>2023-09-09T02:13:27.182599</dc:date>
    <dc:format>image/svg+xml</dc:format>
    <dc:creator>
     <cc:Agent>
      <dc:title>Matplotlib v3.7.1, https://matplotlib.org/</dc:title>
     </cc:Agent>
    </dc:creator>
   </cc:Work>
  </rdf:RDF>
 </metadata>
 <defs>
  <style type="text/css">*{stroke-linejoin: round; stroke-linecap: butt}</style>
 </defs>
 <g id="figure_1">
  <g id="patch_1">
   <path d="M 0 340.666381 
L 444.891702 340.666381 
L 444.891702 0 
L 0 0 
z
" style="fill: #ffffff"/>
  </g>
  <g id="axes_1">
   <g id="patch_2">
    <path d="M 47.091702 300.337648 
L 437.691702 300.337648 
L 437.691702 23.137648 
L 47.091702 23.137648 
z
" style="fill: #ffffff"/>
   </g>
   <g id="PathCollection_1">
    <path d="M 57.370649 39.507433 
C 58.166259 39.507433 58.929389 39.191334 59.49197 38.628753 
C 60.05455 38.066172 60.370649 37.303042 60.370649 36.507433 
C 60.370649 35.711823 60.05455 34.948693 59.49197 34.386112 
C 58.929389 33.823532 58.166259 33.507433 57.370649 33.507433 
C 56.57504 33.507433 55.81191 33.823532 55.249329 34.386112 
C 54.686748 34.948693 54.370649 35.711823 54.370649 36.507433 
C 54.370649 37.303042 54.686748 38.066172 55.249329 38.628753 
C 55.81191 39.191334 56.57504 39.507433 57.370649 39.507433 
L 57.370649 39.507433 
z
" clip-path="url(#p8ce0df40ef)" style="fill: none; stroke: #000000"/>
   </g>
   <g id="PathCollection_2">
    <path d="M 98.486439 290.737648 
C 99.282048 290.737648 100.045178 290.421549 100.607759 289.858969 
C 101.17034 289.296388 101.486439 288.533258 101.486439 287.737648 
C 101.486439 286.942039 101.17034 286.178909 100.607759 285.616328 
C 100.045178 285.053747 99.282048 284.737648 98.486439 284.737648 
C 97.690829 284.737648 96.927699 285.053747 96.365118 285.616328 
C 95.802538 286.178909 95.486439 286.942039 95.486439 287.737648 
C 95.486439 288.533258 95.802538 289.296388 96.365118 289.858969 
C 96.927699 290.421549 97.690829 290.737648 98.486439 290.737648 
L 98.486439 290.737648 
z
" clip-path="url(#p8ce0df40ef)" style="fill: none; stroke: #000000"/>
   </g>
   <g id="PathCollection_3">
    <path d="M 139.602228 52.243425 
C 140.397838 52.243425 141.160968 51.927326 141.723549 51.364745 
C 142.286129 50.802165 142.602228 50.039034 142.602228 49.243425 
C 142.602228 48.447816 142.286129 47.684685 141.723549 47.122105 
C 141.160968 46.559524 140.397838 46.243425 139.602228 46.243425 
C 138.806619 46.243425 138.043489 46.559524 137.480908 47.122105 
C 136.918327 47.684685 136.602228 48.447816 136.602228 49.243425 
C 136.602228 50.039034 136.918327 50.802165 137.480908 51.364745 
C 138.043489 51.927326 138.806619 52.243425 139.602228 52.243425 
L 139.602228 52.243425 
z
" clip-path="url(#p8ce0df40ef)" style="fill: none; stroke: #000000"/>
   </g>
   <g id="PathCollection_4">
    <path d="M 180.718018 185.104772 
C 181.513627 185.104772 182.276757 184.788673 182.839338 184.226092 
C 183.401919 183.663512 183.718018 182.900381 183.718018 182.104772 
C 183.718018 181.309163 183.401919 180.546032 182.839338 179.983452 
C 182.276757 179.420871 181.513627 179.104772 180.718018 179.104772 
C 179.922408 179.104772 179.159278 179.420871 178.596697 179.983452 
C 178.034117 180.546032 177.718018 181.309163 177.718018 182.104772 
C 177.718018 182.900381 178.034117 183.663512 178.596697 184.226092 
C 179.159278 184.788673 179.922408 185.104772 180.718018 185.104772 
L 180.718018 185.104772 
z
" clip-path="url(#p8ce0df40ef)" style="fill: none; stroke: #000000"/>
   </g>
   <g id="PathCollection_5">
    <path d="M 221.833807 99.132145 
C 222.629416 99.132145 223.392547 98.816046 223.955128 98.253465 
C 224.517708 97.690884 224.833807 96.927754 224.833807 96.132145 
C 224.833807 95.336535 224.517708 94.573405 223.955128 94.010824 
C 223.392547 93.448244 222.629416 93.132145 221.833807 93.132145 
C 221.038198 93.132145 220.275068 93.448244 219.712487 94.010824 
C 219.149906 94.573405 218.833807 95.336535 218.833807 96.132145 
C 218.833807 96.927754 219.149906 97.690884 219.712487 98.253465 
C 220.275068 98.816046 221.038198 99.132145 221.833807 99.132145 
L 221.833807 99.132145 
z
" clip-path="url(#p8ce0df40ef)" style="fill: none; stroke: #000000"/>
   </g>
   <g id="PathCollection_6">
    <path d="M 262.949597 215.398457 
C 263.745206 215.398457 264.508336 215.082358 265.070917 214.519777 
C 265.633498 213.957197 265.949597 213.194066 265.949597 212.398457 
C 265.949597 211.602848 265.633498 210.839717 265.070917 210.277137 
C 264.508336 209.714556 263.745206 209.398457 262.949597 209.398457 
C 262.153987 209.398457 261.390857 209.714556 260.828276 210.277137 
C 260.265696 210.839717 259.949597 211.602848 259.949597 212.398457 
C 259.949597 213.194066 260.265696 213.957197 260.828276 214.519777 
C 261.390857 215.082358 262.153987 215.398457 262.949597 215.398457 
L 262.949597 215.398457 
z
" clip-path="url(#p8ce0df40ef)" style="fill: none; stroke: #000000"/>
   </g>
   <g id="PathCollection_7">
    <path d="M 304.065386 113.602582 
C 304.860995 113.602582 305.624126 113.286483 306.186706 112.723902 
C 306.749287 112.161321 307.065386 111.398191 307.065386 110.602582 
C 307.065386 109.806972 306.749287 109.043842 306.186706 108.481261 
C 305.624126 107.91868 304.860995 107.602582 304.065386 107.602582 
C 303.269777 107.602582 302.506646 107.91868 301.944066 108.481261 
C 301.381485 109.043842 301.065386 109.806972 301.065386 110.602582 
C 301.065386 111.398191 301.381485 112.161321 301.944066 112.723902 
C 302.506646 113.286483 303.269777 113.602582 304.065386 113.602582 
L 304.065386 113.602582 
z
" clip-path="url(#p8ce0df40ef)" style="fill: none; stroke: #000000"/>
   </g>
   <g id="PathCollection_8">
    <path d="M 345.181176 224.979048 
C 345.976785 224.979048 346.739915 224.662949 347.302496 224.100369 
C 347.865077 223.537788 348.181176 222.774658 348.181176 221.979048 
C 348.181176 221.183439 347.865077 220.420309 347.302496 219.857728 
C 346.739915 219.295147 345.976785 218.979048 345.181176 218.979048 
C 344.385566 218.979048 343.622436 219.295147 343.059855 219.857728 
C 342.497275 220.420309 342.181176 221.183439 342.181176 221.979048 
C 342.181176 222.774658 342.497275 223.537788 343.059855 224.100369 
C 343.622436 224.662949 344.385566 224.979048 345.181176 224.979048 
L 345.181176 224.979048 
z
" clip-path="url(#p8ce0df40ef)" style="fill: none; stroke: #000000"/>
   </g>
   <g id="PathCollection_9">
    <path d="M 386.296965 91.966535 
C 387.092574 91.966535 387.855705 91.650436 388.418285 91.087856 
C 388.980866 90.525275 389.296965 89.762145 389.296965 88.966535 
C 389.296965 88.170926 388.980866 87.407796 388.418285 86.845215 
C 387.855705 86.282634 387.092574 85.966535 386.296965 85.966535 
C 385.501356 85.966535 384.738225 86.282634 384.175645 86.845215 
C 383.613064 87.407796 383.296965 88.170926 383.296965 88.966535 
C 383.296965 89.762145 383.613064 90.525275 384.175645 91.087856 
C 384.738225 91.650436 385.501356 91.966535 386.296965 91.966535 
L 386.296965 91.966535 
z
" clip-path="url(#p8ce0df40ef)" style="fill: none; stroke: #000000"/>
   </g>
   <g id="PathCollection_10">
    <path d="M 427.412755 285.796763 
C 428.208364 285.796763 428.971494 285.480664 429.534075 284.918083 
C 430.096656 284.355503 430.412755 283.592372 430.412755 282.796763 
C 430.412755 282.001154 430.096656 281.238023 429.534075 280.675443 
C 428.971494 280.112862 428.208364 279.796763 427.412755 279.796763 
C 426.617145 279.796763 425.854015 280.112862 425.291434 280.675443 
C 424.728853 281.238023 424.412755 282.001154 424.412755 282.796763 
C 424.412755 283.592372 424.728853 284.355503 425.291434 284.918083 
C 425.854015 285.480664 426.617145 285.796763 427.412755 285.796763 
L 427.412755 285.796763 
z
" clip-path="url(#p8ce0df40ef)" style="fill: none; stroke: #000000"/>
   </g>
   <g id="PathCollection_11">
    <path d="M 57.370649 39.263919 
C 58.166259 39.263919 58.929389 38.94782 59.49197 38.385239 
C 60.05455 37.822658 60.370649 37.059528 60.370649 36.263919 
C 60.370649 35.46831 60.05455 34.705179 59.49197 34.142599 
C 58.929389 33.580018 58.166259 33.263919 57.370649 33.263919 
C 56.57504 33.263919 55.81191 33.580018 55.249329 34.142599 
C 54.686748 34.705179 54.370649 35.46831 54.370649 36.263919 
C 54.370649 37.059528 54.686748 37.822658 55.249329 38.385239 
C 55.81191 38.94782 56.57504 39.263919 57.370649 39.263919 
L 57.370649 39.263919 
z
" clip-path="url(#p8ce0df40ef)" style="fill: none; stroke: #4169e1"/>
   </g>
   <g id="PathCollection_12">
    <path d="M 98.486439 290.276281 
C 99.282048 290.276281 100.045178 289.960182 100.607759 289.397602 
C 101.17034 288.835021 101.486439 288.071891 101.486439 287.276281 
C 101.486439 286.480672 101.17034 285.717542 100.607759 285.154961 
C 100.045178 284.59238 99.282048 284.276281 98.486439 284.276281 
C 97.690829 284.276281 96.927699 284.59238 96.365118 285.154961 
C 95.802538 285.717542 95.486439 286.480672 95.486439 287.276281 
C 95.486439 288.071891 95.802538 288.835021 96.365118 289.397602 
C 96.927699 289.960182 97.690829 290.276281 98.486439 290.276281 
L 98.486439 290.276281 
z
" clip-path="url(#p8ce0df40ef)" style="fill: none; stroke: #4169e1"/>
   </g>
   <g id="PathCollection_13">
    <path d="M 139.602228 52.390458 
C 140.397838 52.390458 141.160968 52.074359 141.723549 51.511778 
C 142.286129 50.949197 142.602228 50.186067 142.602228 49.390458 
C 142.602228 48.594849 142.286129 47.831718 141.723549 47.269138 
C 141.160968 46.706557 140.397838 46.390458 139.602228 46.390458 
C 138.806619 46.390458 138.043489 46.706557 137.480908 47.269138 
C 136.918327 47.831718 136.602228 48.594849 136.602228 49.390458 
C 136.602228 50.186067 136.918327 50.949197 137.480908 51.511778 
C 138.043489 52.074359 138.806619 52.390458 139.602228 52.390458 
L 139.602228 52.390458 
z
" clip-path="url(#p8ce0df40ef)" style="fill: none; stroke: #4169e1"/>
   </g>
   <g id="PathCollection_14">
    <path d="M 180.718018 184.315688 
C 181.513627 184.315688 182.276757 183.99959 182.839338 183.437009 
C 183.401919 182.874428 183.718018 182.111298 183.718018 181.315688 
C 183.718018 180.520079 183.401919 179.756949 182.839338 179.194368 
C 182.276757 178.631787 181.513627 178.315688 180.718018 178.315688 
C 179.922408 178.315688 179.159278 178.631787 178.596697 179.194368 
C 178.034117 179.756949 177.718018 180.520079 177.718018 181.315688 
C 177.718018 182.111298 178.034117 182.874428 178.596697 183.437009 
C 179.159278 183.99959 179.922408 184.315688 180.718018 184.315688 
L 180.718018 184.315688 
z
" clip-path="url(#p8ce0df40ef)" style="fill: none; stroke: #4169e1"/>
   </g>
   <g id="PathCollection_15">
    <path d="M 221.833807 96.043664 
C 222.629416 96.043664 223.392547 95.727566 223.955128 95.164985 
C 224.517708 94.602404 224.833807 93.839274 224.833807 93.043664 
C 224.833807 92.248055 224.517708 91.484925 223.955128 90.922344 
C 223.392547 90.359763 222.629416 90.043664 221.833807 90.043664 
C 221.038198 90.043664 220.275068 90.359763 219.712487 90.922344 
C 219.149906 91.484925 218.833807 92.248055 218.833807 93.043664 
C 218.833807 93.839274 219.149906 94.602404 219.712487 95.164985 
C 220.275068 95.727566 221.038198 96.043664 221.833807 96.043664 
L 221.833807 96.043664 
z
" clip-path="url(#p8ce0df40ef)" style="fill: none; stroke: #4169e1"/>
   </g>
   <g id="PathCollection_16">
    <path d="M 262.949597 215.398457 
C 263.745206 215.398457 264.508336 215.082358 265.070917 214.519777 
C 265.633498 213.957197 265.949597 213.194066 265.949597 212.398457 
C 265.949597 211.602848 265.633498 210.839717 265.070917 210.277137 
C 264.508336 209.714556 263.745206 209.398457 262.949597 209.398457 
C 262.153987 209.398457 261.390857 209.714556 260.828276 210.277137 
C 260.265696 210.839717 259.949597 211.602848 259.949597 212.398457 
C 259.949597 213.194066 260.265696 213.957197 260.828276 214.519777 
C 261.390857 215.082358 262.153987 215.398457 262.949597 215.398457 
L 262.949597 215.398457 
z
" clip-path="url(#p8ce0df40ef)" style="fill: none; stroke: #4169e1"/>
   </g>
   <g id="PathCollection_17">
    <path d="M 304.065386 113.487611 
C 304.860995 113.487611 305.624126 113.171512 306.186706 112.608931 
C 306.749287 112.046351 307.065386 111.28322 307.065386 110.487611 
C 307.065386 109.692002 306.749287 108.928871 306.186706 108.366291 
C 305.624126 107.80371 304.860995 107.487611 304.065386 107.487611 
C 303.269777 107.487611 302.506646 107.80371 301.944066 108.366291 
C 301.381485 108.928871 301.065386 109.692002 301.065386 110.487611 
C 301.065386 111.28322 301.381485 112.046351 301.944066 112.608931 
C 302.506646 113.171512 303.269777 113.487611 304.065386 113.487611 
L 304.065386 113.487611 
z
" clip-path="url(#p8ce0df40ef)" style="fill: none; stroke: #4169e1"/>
   </g>
   <g id="PathCollection_18">
    <path d="M 345.181176 224.940211 
C 345.976785 224.940211 346.739915 224.624112 347.302496 224.061531 
C 347.865077 223.49895 348.181176 222.73582 348.181176 221.940211 
C 348.181176 221.144601 347.865077 220.381471 347.302496 219.81889 
C 346.739915 219.256309 345.976785 218.940211 345.181176 218.940211 
C 344.385566 218.940211 343.622436 219.256309 343.059855 219.81889 
C 342.497275 220.381471 342.181176 221.144601 342.181176 221.940211 
C 342.181176 222.73582 342.497275 223.49895 343.059855 224.061531 
C 343.622436 224.624112 344.385566 224.940211 345.181176 224.940211 
L 345.181176 224.940211 
z
" clip-path="url(#p8ce0df40ef)" style="fill: none; stroke: #4169e1"/>
   </g>
   <g id="PathCollection_19">
    <path d="M 386.296965 92.12551 
C 387.092574 92.12551 387.855705 91.809411 388.418285 91.24683 
C 388.980866 90.68425 389.296965 89.921119 389.296965 89.12551 
C 389.296965 88.329901 388.980866 87.56677 388.418285 87.00419 
C 387.855705 86.441609 387.092574 86.12551 386.296965 86.12551 
C 385.501356 86.12551 384.738225 86.441609 384.175645 87.00419 
C 383.613064 87.56677 383.296965 88.329901 383.296965 89.12551 
C 383.296965 89.921119 383.613064 90.68425 384.175645 91.24683 
C 384.738225 91.809411 385.501356 92.12551 386.296965 92.12551 
L 386.296965 92.12551 
z
" clip-path="url(#p8ce0df40ef)" style="fill: none; stroke: #4169e1"/>
   </g>
   <g id="PathCollection_20">
    <path d="M 427.412755 285.324812 
C 428.208364 285.324812 428.971494 285.008713 429.534075 284.446132 
C 430.096656 283.883551 430.412755 283.120421 430.412755 282.324812 
C 430.412755 281.529202 430.096656 280.766072 429.534075 280.203491 
C 428.971494 279.640911 428.208364 279.324812 427.412755 279.324812 
C 426.617145 279.324812 425.854015 279.640911 425.291434 280.203491 
C 424.728853 280.766072 424.412755 281.529202 424.412755 282.324812 
C 424.412755 283.120421 424.728853 283.883551 425.291434 284.446132 
C 425.854015 285.008713 426.617145 285.324812 427.412755 285.324812 
L 427.412755 285.324812 
z
" clip-path="url(#p8ce0df40ef)" style="fill: none; stroke: #4169e1"/>
   </g>
   <g id="PathCollection_21">
    <path d="M 57.370649 38.737648 
C 58.166259 38.737648 58.929389 38.421549 59.49197 37.858969 
C 60.05455 37.296388 60.370649 36.533258 60.370649 35.737648 
C 60.370649 34.942039 60.05455 34.178909 59.49197 33.616328 
C 58.929389 33.053747 58.166259 32.737648 57.370649 32.737648 
C 56.57504 32.737648 55.81191 33.053747 55.249329 33.616328 
C 54.686748 34.178909 54.370649 34.942039 54.370649 35.737648 
C 54.370649 36.533258 54.686748 37.296388 55.249329 37.858969 
C 55.81191 38.421549 56.57504 38.737648 57.370649 38.737648 
L 57.370649 38.737648 
z
" clip-path="url(#p8ce0df40ef)" style="fill: none; stroke: #ff7f50"/>
   </g>
   <g id="PathCollection_22">
    <path d="M 98.486439 290.60356 
C 99.282048 290.60356 100.045178 290.287461 100.607759 289.72488 
C 101.17034 289.162299 101.486439 288.399169 101.486439 287.60356 
C 101.486439 286.80795 101.17034 286.04482 100.607759 285.482239 
C 100.045178 284.919659 99.282048 284.60356 98.486439 284.60356 
C 97.690829 284.60356 96.927699 284.919659 96.365118 285.482239 
C 95.802538 286.04482 95.486439 286.80795 95.486439 287.60356 
C 95.486439 288.399169 95.802538 289.162299 96.365118 289.72488 
C 96.927699 290.287461 97.690829 290.60356 98.486439 290.60356 
L 98.486439 290.60356 
z
" clip-path="url(#p8ce0df40ef)" style="fill: none; stroke: #ff7f50"/>
   </g>
   <g id="PathCollection_23">
    <path d="M 139.602228 52.473845 
C 140.397838 52.473845 141.160968 52.157746 141.723549 51.595165 
C 142.286129 51.032584 142.602228 50.269454 142.602228 49.473845 
C 142.602228 48.678235 142.286129 47.915105 141.723549 47.352524 
C 141.160968 46.789944 140.397838 46.473845 139.602228 46.473845 
C 138.806619 46.473845 138.043489 46.789944 137.480908 47.352524 
C 136.918327 47.915105 136.602228 48.678235 136.602228 49.473845 
C 136.602228 50.269454 136.918327 51.032584 137.480908 51.595165 
C 138.043489 52.157746 138.806619 52.473845 139.602228 52.473845 
L 139.602228 52.473845 
z
" clip-path="url(#p8ce0df40ef)" style="fill: none; stroke: #ff7f50"/>
   </g>
   <g id="PathCollection_24">
    <path d="M 180.718018 185.083543 
C 181.513627 185.083543 182.276757 184.767444 182.839338 184.204863 
C 183.401919 183.642283 183.718018 182.879152 183.718018 182.083543 
C 183.718018 181.287934 183.401919 180.524803 182.839338 179.962223 
C 182.276757 179.399642 181.513627 179.083543 180.718018 179.083543 
C 179.922408 179.083543 179.159278 179.399642 178.596697 179.962223 
C 178.034117 180.524803 177.718018 181.287934 177.718018 182.083543 
C 177.718018 182.879152 178.034117 183.642283 178.596697 184.204863 
C 179.159278 184.767444 179.922408 185.083543 180.718018 185.083543 
L 180.718018 185.083543 
z
" clip-path="url(#p8ce0df40ef)" style="fill: none; stroke: #ff7f50"/>
   </g>
   <g id="PathCollection_25">
    <path d="M 221.833807 98.047304 
C 222.629416 98.047304 223.392547 97.731205 223.955128 97.168625 
C 224.517708 96.606044 224.833807 95.842914 224.833807 95.047304 
C 224.833807 94.251695 224.517708 93.488565 223.955128 92.925984 
C 223.392547 92.363403 222.629416 92.047304 221.833807 92.047304 
C 221.038198 92.047304 220.275068 92.363403 219.712487 92.925984 
C 219.149906 93.488565 218.833807 94.251695 218.833807 95.047304 
C 218.833807 95.842914 219.149906 96.606044 219.712487 97.168625 
C 220.275068 97.731205 221.038198 98.047304 221.833807 98.047304 
L 221.833807 98.047304 
z
" clip-path="url(#p8ce0df40ef)" style="fill: none; stroke: #ff7f50"/>
   </g>
   <g id="PathCollection_26">
    <path d="M 262.949597 215.398457 
C 263.745206 215.398457 264.508336 215.082358 265.070917 214.519777 
C 265.633498 213.957197 265.949597 213.194066 265.949597 212.398457 
C 265.949597 211.602848 265.633498 210.839717 265.070917 210.277137 
C 264.508336 209.714556 263.745206 209.398457 262.949597 209.398457 
C 262.153987 209.398457 261.390857 209.714556 260.828276 210.277137 
C 260.265696 210.839717 259.949597 211.602848 259.949597 212.398457 
C 259.949597 213.194066 260.265696 213.957197 260.828276 214.519777 
C 261.390857 215.082358 262.153987 215.398457 262.949597 215.398457 
L 262.949597 215.398457 
z
" clip-path="url(#p8ce0df40ef)" style="fill: none; stroke: #ff7f50"/>
   </g>
   <g id="PathCollection_27">
    <path d="M 304.065386 113.800208 
C 304.860995 113.800208 305.624126 113.484109 306.186706 112.921528 
C 306.749287 112.358947 307.065386 111.595817 307.065386 110.800208 
C 307.065386 110.004598 306.749287 109.241468 306.186706 108.678887 
C 305.624126 108.116306 304.860995 107.800208 304.065386 107.800208 
C 303.269777 107.800208 302.506646 108.116306 301.944066 108.678887 
C 301.381485 109.241468 301.065386 110.004598 301.065386 110.800208 
C 301.065386 111.595817 301.381485 112.358947 301.944066 112.921528 
C 302.506646 113.484109 303.269777 113.800208 304.065386 113.800208 
L 304.065386 113.800208 
z
" clip-path="url(#p8ce0df40ef)" style="fill: none; stroke: #ff7f50"/>
   </g>
   <g id="PathCollection_28">
    <path d="M 345.181176 224.020864 
C 345.976785 224.020864 346.739915 223.704766 347.302496 223.142185 
C 347.865077 222.579604 348.181176 221.816474 348.181176 221.020864 
C 348.181176 220.225255 347.865077 219.462125 347.302496 218.899544 
C 346.739915 218.336963 345.976785 218.020864 345.181176 218.020864 
C 344.385566 218.020864 343.622436 218.336963 343.059855 218.899544 
C 342.497275 219.462125 342.181176 220.225255 342.181176 221.020864 
C 342.181176 221.816474 342.497275 222.579604 343.059855 223.142185 
C 343.622436 223.704766 344.385566 224.020864 345.181176 224.020864 
L 345.181176 224.020864 
z
" clip-path="url(#p8ce0df40ef)" style="fill: none; stroke: #ff7f50"/>
   </g>
   <g id="PathCollection_29">
    <path d="M 386.296965 91.987744 
C 387.092574 91.987744 387.855705 91.671645 388.418285 91.109064 
C 388.980866 90.546484 389.296965 89.783353 389.296965 88.987744 
C 389.296965 88.192135 388.980866 87.429004 388.418285 86.866424 
C 387.855705 86.303843 387.092574 85.987744 386.296965 85.987744 
C 385.501356 85.987744 384.738225 86.303843 384.175645 86.866424 
C 383.613064 87.429004 383.296965 88.192135 383.296965 88.987744 
C 383.296965 89.783353 383.613064 90.546484 384.175645 91.109064 
C 384.738225 91.671645 385.501356 91.987744 386.296965 91.987744 
L 386.296965 91.987744 
z
" clip-path="url(#p8ce0df40ef)" style="fill: none; stroke: #ff7f50"/>
   </g>
   <g id="PathCollection_30">
    <path d="M 427.412755 286.322809 
C 428.208364 286.322809 428.971494 286.006711 429.534075 285.44413 
C 430.096656 284.881549 430.412755 284.118419 430.412755 283.322809 
C 430.412755 282.5272 430.096656 281.76407 429.534075 281.201489 
C 428.971494 280.638908 428.208364 280.322809 427.412755 280.322809 
C 426.617145 280.322809 425.854015 280.638908 425.291434 281.201489 
C 424.728853 281.76407 424.412755 282.5272 424.412755 283.322809 
C 424.412755 284.118419 424.728853 284.881549 425.291434 285.44413 
C 425.854015 286.006711 426.617145 286.322809 427.412755 286.322809 
L 427.412755 286.322809 
z
" clip-path="url(#p8ce0df40ef)" style="fill: none; stroke: #ff7f50"/>
   </g>
   <g id="matplotlib.axis_1">
    <g id="xtick_1">
     <g id="line2d_1">
      <path d="M 57.370649 300.337648 
L 57.370649 23.137648 
" clip-path="url(#p8ce0df40ef)" style="fill: none; stroke: #808080; stroke-width: 0.5; stroke-linecap: square"/>
     </g>
     <g id="line2d_2">
      <defs>
       <path id="med83909398" d="M 0 0 
L 0 3.5 
" style="stroke: #000000; stroke-width: 0.8"/>
      </defs>
      <g>
       <use xlink:href="#med83909398" x="57.370649" y="300.337648" style="stroke: #000000; stroke-width: 0.8"/>
      </g>
     </g>
     <g id="text_1">
      <!-- $\mathdefault{1}$ -->
      <g transform="translate(54.879982 314.435969) scale(0.1 -0.1)">
       <defs>
        <path id="CMR17-31" d="M 1702 4083 
C 1702 4217 1696 4224 1606 4224 
C 1357 3927 979 3833 621 3820 
C 602 3820 570 3820 563 3808 
C 557 3795 557 3782 557 3648 
C 755 3648 1088 3686 1344 3839 
L 1344 467 
C 1344 243 1331 166 781 166 
L 589 166 
L 589 0 
C 896 6 1216 12 1523 12 
C 1830 12 2150 6 2458 0 
L 2458 166 
L 2266 166 
C 1715 166 1702 236 1702 467 
L 1702 4083 
z
" transform="scale(0.015625)"/>
       </defs>
       <use xlink:href="#CMR17-31" transform="scale(0.996264)"/>
      </g>
     </g>
    </g>
    <g id="xtick_2">
     <g id="line2d_3">
      <path d="M 98.486439 300.337648 
L 98.486439 23.137648 
" clip-path="url(#p8ce0df40ef)" style="fill: none; stroke: #808080; stroke-width: 0.5; stroke-linecap: square"/>
     </g>
     <g id="line2d_4">
      <g>
       <use xlink:href="#med83909398" x="98.486439" y="300.337648" style="stroke: #000000; stroke-width: 0.8"/>
      </g>
     </g>
     <g id="text_2">
      <!-- $\mathdefault{2}$ -->
      <g transform="translate(95.995771 314.435969) scale(0.1 -0.1)">
       <defs>
        <path id="CMR17-32" d="M 2669 990 
L 2554 990 
C 2490 537 2438 460 2413 422 
C 2381 371 1920 371 1830 371 
L 602 371 
C 832 620 1280 1073 1824 1596 
C 2214 1966 2669 2400 2669 3033 
C 2669 3788 2067 4224 1395 4224 
C 691 4224 262 3603 262 3027 
C 262 2777 448 2745 525 2745 
C 589 2745 781 2783 781 3007 
C 781 3206 614 3264 525 3264 
C 486 3264 448 3257 422 3244 
C 544 3788 915 4057 1306 4057 
C 1862 4057 2227 3616 2227 3033 
C 2227 2477 1901 1998 1536 1583 
L 262 147 
L 262 0 
L 2515 0 
L 2669 990 
z
" transform="scale(0.015625)"/>
       </defs>
       <use xlink:href="#CMR17-32" transform="scale(0.996264)"/>
      </g>
     </g>
    </g>
    <g id="xtick_3">
     <g id="line2d_5">
      <path d="M 139.602228 300.337648 
L 139.602228 23.137648 
" clip-path="url(#p8ce0df40ef)" style="fill: none; stroke: #808080; stroke-width: 0.5; stroke-linecap: square"/>
     </g>
     <g id="line2d_6">
      <g>
       <use xlink:href="#med83909398" x="139.602228" y="300.337648" style="stroke: #000000; stroke-width: 0.8"/>
      </g>
     </g>
     <g id="text_3">
      <!-- $\mathdefault{3}$ -->
      <g transform="translate(137.111561 314.435969) scale(0.1 -0.1)">
       <defs>
        <path id="CMR17-33" d="M 1414 2176 
C 1984 2176 2234 1673 2234 1094 
C 2234 322 1824 25 1453 25 
C 1114 25 563 193 390 691 
C 422 678 454 678 486 678 
C 640 678 755 780 755 947 
C 755 1132 614 1216 486 1216 
C 378 1216 211 1164 211 927 
C 211 335 787 -128 1466 -128 
C 2176 -128 2720 432 2720 1087 
C 2720 1718 2208 2176 1600 2246 
C 2086 2347 2554 2776 2554 3353 
C 2554 3856 2048 4224 1472 4224 
C 890 4224 378 3862 378 3347 
C 378 3123 544 3084 627 3084 
C 762 3084 877 3167 877 3334 
C 877 3500 762 3584 627 3584 
C 602 3584 570 3584 544 3571 
C 730 3999 1235 4076 1459 4076 
C 1683 4076 2106 3966 2106 3347 
C 2106 3167 2080 2851 1862 2574 
C 1670 2329 1453 2316 1242 2297 
C 1210 2297 1062 2284 1037 2284 
C 992 2278 966 2272 966 2227 
C 966 2182 973 2176 1101 2176 
L 1414 2176 
z
" transform="scale(0.015625)"/>
       </defs>
       <use xlink:href="#CMR17-33" transform="scale(0.996264)"/>
      </g>
     </g>
    </g>
    <g id="xtick_4">
     <g id="line2d_7">
      <path d="M 180.718018 300.337648 
L 180.718018 23.137648 
" clip-path="url(#p8ce0df40ef)" style="fill: none; stroke: #808080; stroke-width: 0.5; stroke-linecap: square"/>
     </g>
     <g id="line2d_8">
      <g>
       <use xlink:href="#med83909398" x="180.718018" y="300.337648" style="stroke: #000000; stroke-width: 0.8"/>
      </g>
     </g>
     <g id="text_4">
      <!-- $\mathdefault{4}$ -->
      <g transform="translate(178.22735 314.435969) scale(0.1 -0.1)">
       <defs>
        <path id="CMR17-34" d="M 2150 4147 
C 2150 4281 2144 4288 2029 4288 
L 128 1254 
L 128 1088 
L 1779 1088 
L 1779 460 
C 1779 230 1766 166 1318 166 
L 1197 166 
L 1197 0 
C 1402 12 1747 12 1965 12 
C 2182 12 2528 12 2733 0 
L 2733 166 
L 2611 166 
C 2163 166 2150 230 2150 460 
L 2150 1088 
L 2803 1088 
L 2803 1254 
L 2150 1254 
L 2150 4147 
z
M 1798 3723 
L 1798 1254 
L 256 1254 
L 1798 3723 
z
" transform="scale(0.015625)"/>
       </defs>
       <use xlink:href="#CMR17-34" transform="scale(0.996264)"/>
      </g>
     </g>
    </g>
    <g id="xtick_5">
     <g id="line2d_9">
      <path d="M 221.833807 300.337648 
L 221.833807 23.137648 
" clip-path="url(#p8ce0df40ef)" style="fill: none; stroke: #808080; stroke-width: 0.5; stroke-linecap: square"/>
     </g>
     <g id="line2d_10">
      <g>
       <use xlink:href="#med83909398" x="221.833807" y="300.337648" style="stroke: #000000; stroke-width: 0.8"/>
      </g>
     </g>
     <g id="text_5">
      <!-- $\mathdefault{5}$ -->
      <g transform="translate(219.34314 314.435969) scale(0.1 -0.1)">
       <defs>
        <path id="CMR17-35" d="M 730 3750 
C 794 3724 1056 3641 1325 3641 
C 1920 3641 2246 3961 2432 4140 
C 2432 4191 2432 4224 2394 4224 
C 2387 4224 2374 4224 2323 4198 
C 2099 4102 1837 4032 1517 4032 
C 1325 4032 1037 4055 723 4191 
C 653 4224 640 4224 634 4224 
C 602 4224 595 4217 595 4090 
L 595 2231 
C 595 2113 595 2080 659 2080 
C 691 2080 704 2093 736 2139 
C 941 2435 1222 2560 1542 2560 
C 1766 2560 2246 2415 2246 1293 
C 2246 1087 2246 716 2054 422 
C 1894 159 1645 25 1370 25 
C 947 25 518 319 403 812 
C 429 806 480 793 506 793 
C 589 793 749 838 749 1036 
C 749 1209 627 1280 506 1280 
C 358 1280 262 1190 262 1011 
C 262 454 704 -128 1382 -128 
C 2042 -128 2669 441 2669 1267 
C 2669 2054 2170 2662 1549 2662 
C 1222 2662 947 2540 730 2304 
L 730 3750 
z
" transform="scale(0.015625)"/>
       </defs>
       <use xlink:href="#CMR17-35" transform="scale(0.996264)"/>
      </g>
     </g>
    </g>
    <g id="xtick_6">
     <g id="line2d_11">
      <path d="M 262.949597 300.337648 
L 262.949597 23.137648 
" clip-path="url(#p8ce0df40ef)" style="fill: none; stroke: #808080; stroke-width: 0.5; stroke-linecap: square"/>
     </g>
     <g id="line2d_12">
      <g>
       <use xlink:href="#med83909398" x="262.949597" y="300.337648" style="stroke: #000000; stroke-width: 0.8"/>
      </g>
     </g>
     <g id="text_6">
      <!-- $\mathdefault{6}$ -->
      <g transform="translate(260.458929 314.435969) scale(0.1 -0.1)">
       <defs>
        <path id="CMR17-36" d="M 678 2198 
C 678 3712 1395 4076 1811 4076 
C 1946 4076 2272 4049 2400 3782 
C 2298 3782 2106 3782 2106 3558 
C 2106 3385 2246 3328 2336 3328 
C 2394 3328 2566 3353 2566 3571 
C 2566 3987 2246 4224 1805 4224 
C 1043 4224 243 3411 243 2011 
C 243 257 966 -128 1478 -128 
C 2099 -128 2688 431 2688 1295 
C 2688 2101 2170 2688 1517 2688 
C 1126 2688 838 2430 678 1979 
L 678 2198 
z
M 1478 25 
C 691 25 691 1212 691 1450 
C 691 1914 909 2585 1504 2585 
C 1613 2585 1926 2585 2138 2140 
C 2253 1889 2253 1624 2253 1302 
C 2253 954 2253 696 2118 438 
C 1978 173 1773 25 1478 25 
z
" transform="scale(0.015625)"/>
       </defs>
       <use xlink:href="#CMR17-36" transform="scale(0.996264)"/>
      </g>
     </g>
    </g>
    <g id="xtick_7">
     <g id="line2d_13">
      <path d="M 304.065386 300.337648 
L 304.065386 23.137648 
" clip-path="url(#p8ce0df40ef)" style="fill: none; stroke: #808080; stroke-width: 0.5; stroke-linecap: square"/>
     </g>
     <g id="line2d_14">
      <g>
       <use xlink:href="#med83909398" x="304.065386" y="300.337648" style="stroke: #000000; stroke-width: 0.8"/>
      </g>
     </g>
     <g id="text_7">
      <!-- $\mathdefault{7}$ -->
      <g transform="translate(301.574718 314.435969) scale(0.1 -0.1)">
       <defs>
        <path id="CMR17-37" d="M 2886 3955 
L 2886 4096 
L 1382 4096 
C 634 4096 621 4166 595 4288 
L 480 4288 
L 294 3104 
L 410 3104 
C 429 3226 474 3552 550 3673 
C 589 3724 1062 3724 1171 3724 
L 2579 3724 
L 1869 2670 
C 1395 1961 1069 1003 1069 166 
C 1069 89 1069 -128 1299 -128 
C 1530 -128 1530 89 1530 172 
L 1530 466 
C 1530 1514 1709 2204 2003 2644 
L 2886 3955 
z
" transform="scale(0.015625)"/>
       </defs>
       <use xlink:href="#CMR17-37" transform="scale(0.996264)"/>
      </g>
     </g>
    </g>
    <g id="xtick_8">
     <g id="line2d_15">
      <path d="M 345.181176 300.337648 
L 345.181176 23.137648 
" clip-path="url(#p8ce0df40ef)" style="fill: none; stroke: #808080; stroke-width: 0.5; stroke-linecap: square"/>
     </g>
     <g id="line2d_16">
      <g>
       <use xlink:href="#med83909398" x="345.181176" y="300.337648" style="stroke: #000000; stroke-width: 0.8"/>
      </g>
     </g>
     <g id="text_8">
      <!-- $\mathdefault{8}$ -->
      <g transform="translate(342.690508 314.435969) scale(0.1 -0.1)">
       <defs>
        <path id="CMR17-38" d="M 1741 2289 
C 2144 2494 2554 2803 2554 3298 
C 2554 3884 1990 4224 1472 4224 
C 890 4224 378 3800 378 3215 
C 378 3054 416 2777 666 2533 
C 730 2469 998 2276 1171 2154 
C 883 2006 211 1652 211 945 
C 211 282 838 -128 1459 -128 
C 2144 -128 2720 366 2720 1022 
C 2720 1607 2330 1877 2074 2051 
L 1741 2289 
z
M 902 2855 
C 851 2887 595 3086 595 3388 
C 595 3781 998 4076 1459 4076 
C 1965 4076 2336 3716 2336 3298 
C 2336 2700 1670 2359 1638 2359 
C 1632 2359 1626 2359 1574 2398 
L 902 2855 
z
M 2080 1536 
C 2176 1466 2483 1253 2483 861 
C 2483 385 2010 25 1472 25 
C 890 25 448 443 448 951 
C 448 1459 838 1884 1280 2083 
L 2080 1536 
z
" transform="scale(0.015625)"/>
       </defs>
       <use xlink:href="#CMR17-38" transform="scale(0.996264)"/>
      </g>
     </g>
    </g>
    <g id="xtick_9">
     <g id="line2d_17">
      <path d="M 386.296965 300.337648 
L 386.296965 23.137648 
" clip-path="url(#p8ce0df40ef)" style="fill: none; stroke: #808080; stroke-width: 0.5; stroke-linecap: square"/>
     </g>
     <g id="line2d_18">
      <g>
       <use xlink:href="#med83909398" x="386.296965" y="300.337648" style="stroke: #000000; stroke-width: 0.8"/>
      </g>
     </g>
     <g id="text_9">
      <!-- $\mathdefault{9}$ -->
      <g transform="translate(383.806297 314.435969) scale(0.1 -0.1)">
       <defs>
        <path id="CMR17-39" d="M 2253 1871 
C 2253 448 1670 25 1190 25 
C 1043 25 685 43 538 281 
C 704 256 826 345 826 505 
C 826 678 685 736 595 736 
C 538 736 365 710 365 492 
C 365 68 742 -128 1203 -128 
C 1939 -128 2688 665 2688 2090 
C 2688 3857 1971 4224 1485 4224 
C 851 4224 243 3664 243 2800 
C 243 2000 762 1408 1414 1408 
C 1952 1408 2189 1910 2253 2122 
L 2253 1871 
z
M 1427 1510 
C 1254 1510 1011 1542 813 1929 
C 678 2181 678 2477 678 2793 
C 678 3174 678 3438 858 3722 
C 947 3857 1114 4076 1485 4076 
C 2240 4076 2240 2909 2240 2651 
C 2240 2193 2035 1510 1427 1510 
z
" transform="scale(0.015625)"/>
       </defs>
       <use xlink:href="#CMR17-39" transform="scale(0.996264)"/>
      </g>
     </g>
    </g>
    <g id="xtick_10">
     <g id="line2d_19">
      <path d="M 427.412755 300.337648 
L 427.412755 23.137648 
" clip-path="url(#p8ce0df40ef)" style="fill: none; stroke: #808080; stroke-width: 0.5; stroke-linecap: square"/>
     </g>
     <g id="line2d_20">
      <g>
       <use xlink:href="#med83909398" x="427.412755" y="300.337648" style="stroke: #000000; stroke-width: 0.8"/>
      </g>
     </g>
     <g id="text_10">
      <!-- $\mathdefault{10}$ -->
      <g transform="translate(422.431419 314.435969) scale(0.1 -0.1)">
       <defs>
        <path id="CMR17-30" d="M 2688 2038 
C 2688 2430 2682 3099 2413 3613 
C 2176 4063 1798 4224 1466 4224 
C 1158 4224 768 4082 525 3620 
C 269 3137 243 2539 243 2038 
C 243 1671 250 1112 448 623 
C 723 -39 1216 -128 1466 -128 
C 1760 -128 2208 -7 2470 604 
C 2662 1048 2688 1568 2688 2038 
z
M 1466 -26 
C 1056 -26 813 328 723 816 
C 653 1196 653 1749 653 2109 
C 653 2604 653 3015 736 3407 
C 858 3954 1216 4121 1466 4121 
C 1728 4121 2067 3947 2189 3420 
C 2272 3054 2278 2623 2278 2109 
C 2278 1691 2278 1176 2202 797 
C 2067 96 1690 -26 1466 -26 
z
" transform="scale(0.015625)"/>
       </defs>
       <use xlink:href="#CMR17-31" transform="scale(0.996264)"/>
       <use xlink:href="#CMR17-30" transform="translate(45.690477 0) scale(0.996264)"/>
      </g>
     </g>
    </g>
    <g id="text_11">
     <!-- $data set$ -->
     <g transform="translate(220.361347 330.495603) scale(0.14 -0.14)">
      <defs>
       <path id="CMMI12-64" d="M 3219 4255 
C 3226 4281 3238 4319 3238 4351 
C 3238 4416 3174 4416 3162 4416 
C 3155 4416 2842 4390 2810 4383 
C 2701 4377 2605 4364 2490 4358 
C 2330 4345 2285 4339 2285 4223 
C 2285 4159 2336 4159 2426 4159 
C 2739 4159 2746 4103 2746 4040 
C 2746 4002 2733 3951 2726 3932 
L 2336 2394 
C 2266 2560 2093 2816 1760 2816 
C 1037 2816 256 1883 256 938 
C 256 306 627 -64 1062 -64 
C 1414 -64 1715 210 1894 421 
C 1958 44 2259 -64 2451 -64 
C 2643 -64 2797 51 2912 281 
C 3014 498 3104 887 3104 913 
C 3104 945 3078 970 3040 970 
C 2982 970 2976 938 2950 842 
C 2854 466 2733 64 2470 64 
C 2285 64 2272 230 2272 357 
C 2272 383 2272 517 2317 696 
L 3219 4255 
z
M 1926 759 
C 1894 651 1894 638 1805 517 
C 1664 338 1382 64 1082 64 
C 819 64 672 300 672 676 
C 672 1028 870 1743 992 2011 
C 1210 2458 1510 2687 1760 2687 
C 2182 2687 2266 2164 2266 2113 
C 2266 2107 2246 2024 2240 2011 
L 1926 759 
z
" transform="scale(0.015625)"/>
       <path id="CMMI12-61" d="M 1926 759 
C 1894 651 1894 638 1805 517 
C 1664 338 1382 64 1082 64 
C 819 64 672 300 672 676 
C 672 1028 870 1743 992 2011 
C 1210 2458 1510 2687 1760 2687 
C 2182 2687 2266 2164 2266 2113 
C 2266 2107 2246 2024 2240 2011 
L 1926 759 
z
M 2336 2394 
C 2266 2560 2093 2816 1760 2816 
C 1037 2816 256 1883 256 938 
C 256 306 627 -64 1062 -64 
C 1414 -64 1715 210 1894 421 
C 1958 44 2259 -64 2451 -64 
C 2643 -64 2797 51 2912 280 
C 3014 496 3104 885 3104 910 
C 3104 942 3078 968 3040 968 
C 2982 968 2976 936 2950 840 
C 2854 465 2733 64 2470 64 
C 2285 64 2272 229 2272 356 
C 2272 503 2291 573 2349 821 
C 2394 980 2426 1120 2477 1305 
C 2714 2260 2771 2489 2771 2528 
C 2771 2617 2701 2688 2605 2688 
C 2400 2688 2349 2464 2336 2388 
L 2336 2394 
z
" transform="scale(0.015625)"/>
       <path id="CMMI12-74" d="M 1286 2566 
L 1875 2566 
C 1997 2566 2061 2566 2061 2681 
C 2061 2752 2022 2752 1894 2752 
L 1331 2752 
L 1568 3664 
C 1594 3752 1594 3764 1594 3808 
C 1594 3910 1510 3968 1427 3968 
C 1376 3968 1229 3948 1178 3746 
L 928 2752 
L 326 2752 
C 198 2752 141 2752 141 2630 
C 141 2566 186 2566 307 2566 
L 877 2566 
L 454 881 
C 403 657 384 593 384 510 
C 384 210 595 -64 954 -64 
C 1600 -64 1946 868 1946 913 
C 1946 951 1920 970 1882 970 
C 1869 970 1843 970 1830 944 
C 1824 938 1818 932 1773 830 
C 1638 510 1344 64 973 64 
C 781 64 768 223 768 364 
C 768 370 768 491 787 568 
L 1286 2566 
z
" transform="scale(0.015625)"/>
       <path id="CMMI12-73" d="M 1459 1290 
C 1568 1271 1741 1233 1779 1227 
C 1862 1201 2150 1099 2150 793 
C 2150 595 1971 64 1229 64 
C 1094 64 614 83 486 447 
C 742 414 870 614 870 755 
C 870 889 781 960 653 960 
C 512 960 326 851 326 563 
C 326 176 710 -64 1222 -64 
C 2195 -64 2483 665 2483 998 
C 2483 1093 2483 1271 2278 1475 
C 2118 1627 1965 1659 1619 1729 
C 1446 1767 1171 1824 1171 2111 
C 1171 2239 1286 2687 1894 2687 
C 2163 2687 2426 2589 2490 2368 
C 2208 2368 2195 2124 2195 2118 
C 2195 1983 2317 1945 2374 1945 
C 2464 1945 2643 2015 2643 2284 
C 2643 2546 2400 2816 1901 2816 
C 1062 2816 838 2169 838 1907 
C 838 1424 1312 1322 1459 1290 
z
" transform="scale(0.015625)"/>
       <path id="CMMI12-65" d="M 1146 1472 
C 1318 1472 1754 1484 2061 1600 
C 2547 1786 2592 2160 2592 2275 
C 2592 2559 2349 2816 1926 2816 
C 1254 2816 288 2205 288 1066 
C 288 400 672 -64 1254 -64 
C 2125 -64 2675 609 2675 691 
C 2675 729 2637 761 2611 761 
C 2592 761 2586 755 2528 698 
C 2118 159 1510 64 1267 64 
C 902 64 710 349 710 818 
C 710 907 710 1066 806 1472 
L 1146 1472 
z
M 838 1600 
C 1114 2591 1722 2687 1926 2687 
C 2208 2687 2400 2520 2400 2275 
C 2400 1600 1376 1600 1107 1600 
L 838 1600 
z
" transform="scale(0.015625)"/>
      </defs>
      <use xlink:href="#CMMI12-64" transform="scale(0.996264)"/>
      <use xlink:href="#CMMI12-61" transform="translate(50.689097 0) scale(0.996264)"/>
      <use xlink:href="#CMMI12-74" transform="translate(101.896954 0) scale(0.996264)"/>
      <use xlink:href="#CMMI12-61" transform="translate(137.123285 0) scale(0.996264)"/>
      <use xlink:href="#CMMI12-73" transform="translate(188.331142 0) scale(0.996264)"/>
      <use xlink:href="#CMMI12-65" transform="translate(234.28119 0) scale(0.996264)"/>
      <use xlink:href="#CMMI12-74" transform="translate(279.493191 0) scale(0.996264)"/>
     </g>
    </g>
   </g>
   <g id="matplotlib.axis_2">
    <g id="ytick_1">
     <g id="line2d_21">
      <path d="M 47.091702 290.810155 
L 437.691702 290.810155 
" clip-path="url(#p8ce0df40ef)" style="fill: none; stroke: #808080; stroke-width: 0.5; stroke-linecap: square"/>
     </g>
     <g id="line2d_22">
      <defs>
       <path id="mf2ab4faef9" d="M 0 0 
L -3.5 0 
" style="stroke: #000000; stroke-width: 0.8"/>
      </defs>
      <g>
       <use xlink:href="#mf2ab4faef9" x="47.091702" y="290.810155" style="stroke: #000000; stroke-width: 0.8"/>
      </g>
     </g>
     <g id="text_12">
      <!-- $\mathdefault{75}$ -->
      <g transform="translate(30.129031 294.359315) scale(0.1 -0.1)">
       <use xlink:href="#CMR17-37" transform="scale(0.996264)"/>
       <use xlink:href="#CMR17-35" transform="translate(45.690477 0) scale(0.996264)"/>
      </g>
     </g>
    </g>
    <g id="ytick_2">
     <g id="line2d_23">
      <path d="M 47.091702 246.697861 
L 437.691702 246.697861 
" clip-path="url(#p8ce0df40ef)" style="fill: none; stroke: #808080; stroke-width: 0.5; stroke-linecap: square"/>
     </g>
     <g id="line2d_24">
      <g>
       <use xlink:href="#mf2ab4faef9" x="47.091702" y="246.697861" style="stroke: #000000; stroke-width: 0.8"/>
      </g>
     </g>
     <g id="text_13">
      <!-- $\mathdefault{80}$ -->
      <g transform="translate(30.129031 250.247022) scale(0.1 -0.1)">
       <use xlink:href="#CMR17-38" transform="scale(0.996264)"/>
       <use xlink:href="#CMR17-30" transform="translate(45.690477 0) scale(0.996264)"/>
      </g>
     </g>
    </g>
    <g id="ytick_3">
     <g id="line2d_25">
      <path d="M 47.091702 202.585568 
L 437.691702 202.585568 
" clip-path="url(#p8ce0df40ef)" style="fill: none; stroke: #808080; stroke-width: 0.5; stroke-linecap: square"/>
     </g>
     <g id="line2d_26">
      <g>
       <use xlink:href="#mf2ab4faef9" x="47.091702" y="202.585568" style="stroke: #000000; stroke-width: 0.8"/>
      </g>
     </g>
     <g id="text_14">
      <!-- $\mathdefault{85}$ -->
      <g transform="translate(30.129031 206.134728) scale(0.1 -0.1)">
       <use xlink:href="#CMR17-38" transform="scale(0.996264)"/>
       <use xlink:href="#CMR17-35" transform="translate(45.690477 0) scale(0.996264)"/>
      </g>
     </g>
    </g>
    <g id="ytick_4">
     <g id="line2d_27">
      <path d="M 47.091702 158.473274 
L 437.691702 158.473274 
" clip-path="url(#p8ce0df40ef)" style="fill: none; stroke: #808080; stroke-width: 0.5; stroke-linecap: square"/>
     </g>
     <g id="line2d_28">
      <g>
       <use xlink:href="#mf2ab4faef9" x="47.091702" y="158.473274" style="stroke: #000000; stroke-width: 0.8"/>
      </g>
     </g>
     <g id="text_15">
      <!-- $\mathdefault{90}$ -->
      <g transform="translate(30.129031 162.022434) scale(0.1 -0.1)">
       <use xlink:href="#CMR17-39" transform="scale(0.996264)"/>
       <use xlink:href="#CMR17-30" transform="translate(45.690477 0) scale(0.996264)"/>
      </g>
     </g>
    </g>
    <g id="ytick_5">
     <g id="line2d_29">
      <path d="M 47.091702 114.36098 
L 437.691702 114.36098 
" clip-path="url(#p8ce0df40ef)" style="fill: none; stroke: #808080; stroke-width: 0.5; stroke-linecap: square"/>
     </g>
     <g id="line2d_30">
      <g>
       <use xlink:href="#mf2ab4faef9" x="47.091702" y="114.36098" style="stroke: #000000; stroke-width: 0.8"/>
      </g>
     </g>
     <g id="text_16">
      <!-- $\mathdefault{95}$ -->
      <g transform="translate(30.129031 117.91014) scale(0.1 -0.1)">
       <use xlink:href="#CMR17-39" transform="scale(0.996264)"/>
       <use xlink:href="#CMR17-35" transform="translate(45.690477 0) scale(0.996264)"/>
      </g>
     </g>
    </g>
    <g id="ytick_6">
     <g id="line2d_31">
      <path d="M 47.091702 70.248686 
L 437.691702 70.248686 
" clip-path="url(#p8ce0df40ef)" style="fill: none; stroke: #808080; stroke-width: 0.5; stroke-linecap: square"/>
     </g>
     <g id="line2d_32">
      <g>
       <use xlink:href="#mf2ab4faef9" x="47.091702" y="70.248686" style="stroke: #000000; stroke-width: 0.8"/>
      </g>
     </g>
     <g id="text_17">
      <!-- $\mathdefault{100}$ -->
      <g transform="translate(25.147696 73.797846) scale(0.1 -0.1)">
       <use xlink:href="#CMR17-31" transform="scale(0.996264)"/>
       <use xlink:href="#CMR17-30" transform="translate(45.690477 0) scale(0.996264)"/>
       <use xlink:href="#CMR17-30" transform="translate(91.380954 0) scale(0.996264)"/>
      </g>
     </g>
    </g>
    <g id="ytick_7">
     <g id="line2d_33">
      <path d="M 47.091702 26.136392 
L 437.691702 26.136392 
" clip-path="url(#p8ce0df40ef)" style="fill: none; stroke: #808080; stroke-width: 0.5; stroke-linecap: square"/>
     </g>
     <g id="line2d_34">
      <g>
       <use xlink:href="#mf2ab4faef9" x="47.091702" y="26.136392" style="stroke: #000000; stroke-width: 0.8"/>
      </g>
     </g>
     <g id="text_18">
      <!-- $\mathdefault{105}$ -->
      <g transform="translate(25.147696 29.685552) scale(0.1 -0.1)">
       <use xlink:href="#CMR17-31" transform="scale(0.996264)"/>
       <use xlink:href="#CMR17-30" transform="translate(45.690477 0) scale(0.996264)"/>
       <use xlink:href="#CMR17-35" transform="translate(91.380954 0) scale(0.996264)"/>
      </g>
     </g>
    </g>
    <g id="text_19">
     <!-- $v_{0}\ [km/h]$ -->
     <g transform="translate(17.660772 190.632337) rotate(-90) scale(0.14 -0.14)">
      <defs>
       <path id="CMMI12-76" d="M 2925 2388 
C 2925 2790 2720 2816 2669 2816 
C 2515 2816 2374 2662 2374 2534 
C 2374 2458 2419 2413 2445 2388 
C 2509 2330 2675 2158 2675 1826 
C 2675 1558 2291 64 1523 64 
C 1133 64 1056 389 1056 625 
C 1056 945 1203 1392 1376 1851 
C 1478 2113 1504 2177 1504 2305 
C 1504 2573 1312 2816 998 2816 
C 410 2816 173 1890 173 1838 
C 173 1813 198 1781 243 1781 
C 301 1781 307 1807 333 1896 
C 486 2445 736 2687 979 2687 
C 1037 2687 1146 2687 1146 2477 
C 1146 2311 1075 2126 979 1883 
C 672 1066 672 868 672 715 
C 672 574 691 313 890 134 
C 1120 -64 1440 -64 1498 -64 
C 2560 -64 2925 2024 2925 2388 
z
" transform="scale(0.015625)"/>
       <path id="CMR17-5b" d="M 1504 -1600 
L 1504 -1376 
L 902 -1376 
L 902 4575 
L 1504 4575 
L 1504 4800 
L 678 4800 
L 678 -1600 
L 1504 -1600 
z
" transform="scale(0.015625)"/>
       <path id="CMMI12-6b" d="M 1798 4255 
C 1805 4281 1818 4319 1818 4351 
C 1818 4416 1754 4416 1741 4416 
C 1734 4416 1504 4396 1389 4383 
C 1280 4377 1184 4364 1069 4358 
C 915 4345 870 4339 870 4223 
C 870 4159 934 4159 998 4159 
C 1325 4159 1325 4103 1325 4040 
C 1325 4014 1325 4002 1293 3888 
L 378 250 
C 352 153 352 141 352 102 
C 352 -39 461 -64 525 -64 
C 704 -64 742 76 794 275 
L 1094 1476 
C 1555 1425 1830 1232 1830 924 
C 1830 885 1830 860 1811 763 
C 1786 667 1786 590 1786 558 
C 1786 185 2029 -64 2355 -64 
C 2650 -64 2803 205 2854 295 
C 2989 532 3072 892 3072 917 
C 3072 949 3046 975 3008 975 
C 2950 975 2944 949 2918 847 
C 2829 513 2694 64 2368 64 
C 2240 64 2157 128 2157 372 
C 2157 494 2182 635 2208 731 
C 2234 847 2234 853 2234 930 
C 2234 1309 1894 1521 1306 1598 
C 1536 1739 1766 1989 1856 2086 
C 2221 2495 2470 2687 2765 2687 
C 2912 2687 2950 2655 2995 2624 
C 2758 2598 2669 2431 2669 2303 
C 2669 2150 2790 2099 2880 2099 
C 3053 2099 3206 2246 3206 2451 
C 3206 2634 3059 2816 2771 2816 
C 2419 2816 2131 2579 1677 2067 
C 1613 1989 1376 1746 1139 1656 
L 1798 4255 
z
" transform="scale(0.015625)"/>
       <path id="CMMI12-6d" d="M 1318 1870 
C 1331 1909 1491 2228 1728 2432 
C 1894 2585 2112 2687 2362 2687 
C 2618 2687 2707 2496 2707 2241 
C 2707 2202 2707 2075 2630 1775 
L 2470 1117 
C 2419 925 2298 453 2285 383 
C 2259 287 2221 121 2221 95 
C 2221 6 2291 -64 2387 -64 
C 2579 -64 2611 83 2669 313 
L 3053 1838 
C 3066 1890 3398 2687 4102 2687 
C 4358 2687 4448 2496 4448 2241 
C 4448 1883 4198 1187 4058 804 
C 4000 651 3968 568 3968 453 
C 3968 166 4166 -64 4474 -64 
C 5069 -64 5293 874 5293 913 
C 5293 945 5267 970 5229 970 
C 5171 970 5165 951 5133 842 
C 4986 332 4749 64 4493 64 
C 4429 64 4326 70 4326 274 
C 4326 440 4403 645 4429 715 
C 4544 1021 4832 1775 4832 2145 
C 4832 2528 4608 2816 4122 2816 
C 3693 2816 3347 2573 3091 2196 
C 3072 2541 2861 2816 2381 2816 
C 1811 2816 1510 2413 1395 2253 
C 1376 2617 1114 2816 832 2816 
C 646 2816 499 2726 378 2483 
C 262 2253 173 1864 173 1838 
C 173 1813 198 1781 243 1781 
C 294 1781 301 1787 339 1934 
C 435 2311 557 2687 813 2687 
C 960 2687 1011 2585 1011 2394 
C 1011 2253 947 2004 902 1807 
L 723 1117 
C 698 996 627 708 595 593 
C 550 427 480 127 480 95 
C 480 6 550 -64 646 -64 
C 723 -64 813 -26 864 70 
C 877 102 934 325 966 453 
L 1107 1028 
L 1318 1870 
z
" transform="scale(0.015625)"/>
       <path id="CMMI12-3d" d="M 2746 4563 
C 2746 4569 2784 4665 2784 4678 
C 2784 4755 2720 4800 2669 4800 
C 2637 4800 2579 4800 2528 4659 
L 384 -1364 
C 384 -1370 346 -1466 346 -1479 
C 346 -1556 410 -1600 461 -1600 
C 499 -1600 557 -1594 602 -1460 
L 2746 4563 
z
" transform="scale(0.015625)"/>
       <path id="CMMI12-68" d="M 1798 4255 
C 1805 4281 1818 4319 1818 4351 
C 1818 4416 1754 4416 1741 4416 
C 1734 4416 1421 4390 1389 4383 
C 1280 4377 1184 4364 1069 4358 
C 909 4345 864 4339 864 4223 
C 864 4159 915 4159 1005 4159 
C 1318 4159 1325 4103 1325 4040 
C 1325 4002 1312 3951 1306 3932 
L 378 249 
C 352 153 352 140 352 102 
C 352 -39 461 -64 525 -64 
C 634 -64 717 19 749 89 
L 1037 1245 
C 1069 1385 1107 1519 1139 1660 
C 1210 1928 1210 1934 1331 2119 
C 1453 2305 1741 2687 2234 2687 
C 2490 2687 2579 2496 2579 2241 
C 2579 1883 2330 1187 2189 804 
C 2131 651 2099 568 2099 453 
C 2099 166 2298 -64 2605 -64 
C 3200 -64 3424 874 3424 913 
C 3424 945 3398 970 3360 970 
C 3302 970 3296 951 3264 842 
C 3117 332 2880 64 2624 64 
C 2560 64 2458 70 2458 274 
C 2458 440 2534 645 2560 715 
C 2675 1021 2963 1775 2963 2145 
C 2963 2528 2739 2816 2253 2816 
C 1888 2816 1568 2643 1306 2311 
L 1798 4255 
z
" transform="scale(0.015625)"/>
       <path id="CMR17-5d" d="M 915 4800 
L 90 4800 
L 90 4575 
L 691 4575 
L 691 -1376 
L 90 -1376 
L 90 -1600 
L 915 -1600 
L 915 4800 
z
" transform="scale(0.015625)"/>
      </defs>
      <use xlink:href="#CMMI12-76" transform="scale(0.996264)"/>
      <use xlink:href="#CMR17-30" transform="translate(47.160581 -14.943915) scale(0.697382)"/>
      <use xlink:href="#CMR17-5b" transform="translate(107.337064 0) scale(0.996264)"/>
      <use xlink:href="#CMMI12-6b" transform="translate(132.208123 0) scale(0.996264)"/>
      <use xlink:href="#CMMI12-6d" transform="translate(186.287323 0) scale(0.996264)"/>
      <use xlink:href="#CMMI12-3d" transform="translate(271.614548 0) scale(0.996264)"/>
      <use xlink:href="#CMMI12-68" transform="translate(320.389467 0) scale(0.996264)"/>
      <use xlink:href="#CMR17-5d" transform="translate(376.544091 0) scale(0.996264)"/>
     </g>
    </g>
   </g>
   <g id="line2d_35">
    <path d="M 57.370649 156.846881 
L 98.486439 156.846881 
L 139.602228 156.846881 
L 180.718018 156.846881 
L 221.833807 156.846881 
L 262.949597 156.846881 
L 304.065386 156.846881 
L 345.181176 156.846881 
L 386.296965 156.846881 
L 427.412755 156.846881 
" clip-path="url(#p8ce0df40ef)" style="fill: none; stroke: #000000; stroke-width: 1.5; stroke-linecap: square"/>
   </g>
   <g id="line2d_36">
    <path d="M 57.370649 156.356661 
L 98.486439 156.356661 
L 139.602228 156.356661 
L 180.718018 156.356661 
L 221.833807 156.356661 
L 262.949597 156.356661 
L 304.065386 156.356661 
L 345.181176 156.356661 
L 386.296965 156.356661 
L 427.412755 156.356661 
" clip-path="url(#p8ce0df40ef)" style="fill: none; stroke: #4169e1; stroke-width: 1.5; stroke-linecap: square"/>
   </g>
   <g id="line2d_37">
    <path d="M 57.370649 156.647598 
L 98.486439 156.647598 
L 139.602228 156.647598 
L 180.718018 156.647598 
L 221.833807 156.647598 
L 262.949597 156.647598 
L 304.065386 156.647598 
L 345.181176 156.647598 
L 386.296965 156.647598 
L 427.412755 156.647598 
" clip-path="url(#p8ce0df40ef)" style="fill: none; stroke: #ff7f50; stroke-width: 1.5; stroke-linecap: square"/>
   </g>
   <g id="patch_3">
    <path d="M 47.091702 300.337648 
L 47.091702 23.137648 
" style="fill: none; stroke: #000000; stroke-width: 0.8; stroke-linejoin: miter; stroke-linecap: square"/>
   </g>
   <g id="patch_4">
    <path d="M 437.691702 300.337648 
L 437.691702 23.137648 
" style="fill: none; stroke: #000000; stroke-width: 0.8; stroke-linejoin: miter; stroke-linecap: square"/>
   </g>
   <g id="patch_5">
    <path d="M 47.091702 300.337648 
L 437.691702 300.337648 
" style="fill: none; stroke: #000000; stroke-width: 0.8; stroke-linejoin: miter; stroke-linecap: square"/>
   </g>
   <g id="patch_6">
    <path d="M 47.091702 23.137648 
L 437.691702 23.137648 
" style="fill: none; stroke: #000000; stroke-width: 0.8; stroke-linejoin: miter; stroke-linecap: square"/>
   </g>
   <g id="text_20">
    <!-- $Velocities\ v_0\ of\ the\ leading\ car, with\ 350\ iter$ -->
    <g transform="translate(105.273517 17.137648) scale(0.14 -0.14)">
     <defs>
      <path id="CMMI12-56" d="M 3962 3644 
C 4179 3987 4378 4140 4704 4166 
C 4768 4172 4819 4172 4819 4287 
C 4819 4313 4806 4352 4749 4352 
C 4634 4352 4358 4339 4243 4339 
C 4058 4339 3866 4352 3686 4352 
C 3635 4352 3571 4352 3571 4230 
C 3571 4172 3629 4166 3654 4166 
C 3891 4146 3917 4032 3917 3956 
C 3917 3860 3827 3714 3821 3708 
L 1811 540 
L 1363 3968 
C 1363 4153 1696 4166 1766 4166 
C 1862 4166 1920 4166 1920 4287 
C 1920 4352 1850 4352 1830 4352 
C 1722 4352 1594 4339 1485 4339 
L 1126 4339 
C 659 4339 467 4352 461 4352 
C 422 4352 346 4352 346 4236 
C 346 4166 390 4166 493 4166 
C 819 4166 838 4108 858 3949 
L 1370 25 
C 1389 -109 1389 -128 1478 -128 
C 1555 -128 1587 -109 1651 -7 
L 3962 3644 
z
" transform="scale(0.015625)"/>
      <path id="CMMI12-6c" d="M 1626 4255 
C 1632 4281 1645 4319 1645 4351 
C 1645 4416 1581 4416 1568 4416 
C 1562 4416 1331 4396 1216 4383 
C 1107 4377 1011 4364 896 4358 
C 742 4345 698 4339 698 4223 
C 698 4159 762 4159 826 4159 
C 1152 4159 1152 4102 1152 4039 
C 1152 4013 1152 4001 1120 3886 
L 326 731 
C 307 661 294 610 294 509 
C 294 191 531 -64 858 -64 
C 1069 -64 1210 76 1312 273 
C 1421 483 1510 884 1510 909 
C 1510 941 1485 967 1446 967 
C 1389 967 1382 935 1357 839 
C 1242 401 1126 64 870 64 
C 678 64 678 267 678 356 
C 678 382 678 515 723 693 
L 1626 4255 
z
" transform="scale(0.015625)"/>
      <path id="CMMI12-6f" d="M 2918 1755 
C 2918 2362 2522 2816 1939 2816 
C 1094 2816 262 1896 262 996 
C 262 389 659 -64 1242 -64 
C 2093 -64 2918 855 2918 1755 
z
M 1248 64 
C 928 64 691 319 691 766 
C 691 1060 845 1711 1024 2030 
C 1312 2522 1670 2687 1933 2687 
C 2246 2687 2490 2432 2490 1985 
C 2490 1730 2355 1047 2112 657 
C 1850 230 1498 64 1248 64 
z
" transform="scale(0.015625)"/>
      <path id="CMMI12-63" d="M 2502 2432 
C 2381 2432 2323 2432 2234 2355 
C 2195 2323 2125 2227 2125 2124 
C 2125 1996 2221 1919 2342 1919 
C 2496 1919 2669 2047 2669 2303 
C 2669 2591 2374 2816 1933 2816 
C 1094 2816 256 1932 256 1011 
C 256 446 602 -64 1254 -64 
C 2125 -64 2675 622 2675 706 
C 2675 745 2637 777 2611 777 
C 2592 777 2586 771 2528 712 
C 2118 161 1510 64 1267 64 
C 826 64 685 453 685 777 
C 685 1004 794 1634 1024 2073 
C 1190 2374 1536 2687 1939 2687 
C 2022 2687 2374 2676 2502 2432 
z
" transform="scale(0.015625)"/>
      <path id="CMMI12-69" d="M 1811 913 
C 1811 945 1786 970 1747 970 
C 1690 970 1683 951 1651 842 
C 1485 261 1222 64 1011 64 
C 934 64 845 83 845 274 
C 845 447 922 638 992 830 
L 1440 2017 
C 1459 2068 1504 2183 1504 2305 
C 1504 2573 1312 2816 998 2816 
C 410 2816 173 1890 173 1838 
C 173 1813 198 1781 243 1781 
C 301 1781 307 1807 333 1896 
C 486 2432 730 2687 979 2687 
C 1037 2687 1146 2681 1146 2477 
C 1146 2311 1062 2100 1011 1960 
L 563 772 
C 525 670 486 568 486 453 
C 486 166 685 -64 992 -64 
C 1581 -64 1811 868 1811 913 
z
M 1760 4012 
C 1760 4108 1683 4224 1542 4224 
C 1395 4224 1229 4083 1229 3916 
C 1229 3756 1363 3705 1440 3705 
C 1613 3705 1760 3871 1760 4012 
z
" transform="scale(0.015625)"/>
      <path id="CMMI12-66" d="M 2854 2566 
C 2982 2566 3034 2566 3034 2687 
C 3034 2752 2982 2752 2867 2752 
L 2349 2752 
C 2470 3398 2560 3846 2611 4051 
C 2650 4204 2784 4351 2950 4351 
C 3085 4351 3219 4294 3283 4236 
C 3034 4211 2957 4025 2957 3916 
C 2957 3788 3053 3712 3174 3712 
C 3302 3712 3494 3820 3494 4064 
C 3494 4332 3226 4480 2944 4480 
C 2669 4480 2400 4275 2272 4025 
C 2157 3801 2093 3573 1946 2752 
L 1517 2752 
C 1395 2752 1331 2752 1331 2636 
C 1331 2566 1370 2566 1498 2566 
L 1907 2566 
C 1792 1977 1530 545 1382 -132 
C 1274 -685 1178 -1152 858 -1152 
C 838 -1152 653 -1152 538 -1031 
C 864 -1005 864 -724 864 -717 
C 864 -589 768 -512 646 -512 
C 518 -512 326 -621 326 -865 
C 326 -1140 608 -1280 858 -1280 
C 1510 -1280 1779 -113 1850 203 
C 1965 691 2278 2376 2310 2566 
L 2854 2566 
z
" transform="scale(0.015625)"/>
      <path id="CMMI12-6e" d="M 1318 1870 
C 1331 1909 1491 2228 1728 2432 
C 1894 2585 2112 2687 2362 2687 
C 2618 2687 2707 2496 2707 2241 
C 2707 1877 2445 1149 2317 804 
C 2259 651 2227 568 2227 453 
C 2227 166 2426 -64 2733 -64 
C 3328 -64 3552 874 3552 913 
C 3552 945 3526 970 3488 970 
C 3430 970 3424 951 3392 842 
C 3245 319 3002 64 2752 64 
C 2688 64 2586 70 2586 274 
C 2586 434 2656 625 2694 715 
C 2822 1066 3091 1781 3091 2145 
C 3091 2528 2867 2816 2381 2816 
C 1811 2816 1510 2413 1395 2253 
C 1376 2617 1114 2816 832 2816 
C 627 2816 486 2694 378 2477 
C 262 2247 173 1864 173 1838 
C 173 1813 198 1781 243 1781 
C 294 1781 301 1787 339 1934 
C 442 2324 557 2687 813 2687 
C 960 2687 1011 2585 1011 2394 
C 1011 2253 947 2004 902 1807 
L 723 1117 
C 698 996 627 708 595 593 
C 550 427 480 127 480 95 
C 480 6 550 -64 646 -64 
C 723 -64 813 -26 864 70 
C 877 102 934 325 966 453 
L 1107 1028 
L 1318 1870 
z
" transform="scale(0.015625)"/>
      <path id="CMMI12-67" d="M 2163 811 
C 2138 708 2125 683 2042 587 
C 1779 249 1510 128 1312 128 
C 1101 128 902 293 902 734 
C 902 1072 1094 1787 1235 2075 
C 1421 2432 1709 2687 1978 2687 
C 2400 2687 2483 2164 2483 2126 
L 2464 2036 
L 2163 811 
z
M 2560 2394 
C 2477 2579 2298 2816 1978 2816 
C 1280 2816 486 1941 486 989 
C 486 325 890 0 1299 0 
C 1638 0 1939 268 2054 396 
L 1914 -176 
C 1824 -520 1786 -677 1555 -896 
C 1293 -1152 1050 -1152 909 -1152 
C 717 -1152 557 -1140 397 -1090 
C 602 -1034 653 -858 653 -789 
C 653 -689 576 -589 435 -589 
C 282 -589 115 -714 115 -921 
C 115 -1178 378 -1280 922 -1280 
C 1747 -1280 2176 -758 2259 -420 
L 2970 2426 
C 2989 2502 2989 2515 2989 2528 
C 2989 2617 2918 2688 2822 2688 
C 2669 2688 2579 2560 2560 2388 
L 2560 2394 
z
" transform="scale(0.015625)"/>
      <path id="CMMI12-72" d="M 2490 2633 
C 2291 2598 2189 2457 2189 2316 
C 2189 2163 2310 2111 2400 2111 
C 2579 2111 2726 2265 2726 2457 
C 2726 2651 2528 2816 2208 2816 
C 1952 2816 1658 2700 1389 2335 
C 1344 2660 1088 2816 832 2816 
C 582 2816 454 2642 378 2508 
C 269 2278 173 1892 173 1860 
C 173 1834 198 1801 243 1801 
C 294 1801 301 1808 339 1957 
C 435 2342 557 2687 813 2687 
C 966 2687 1011 2604 1011 2419 
C 1011 2278 947 2028 902 1827 
L 723 1130 
C 698 1007 627 716 595 600 
C 550 432 480 128 480 96 
C 480 6 550 -64 646 -64 
C 717 -64 838 -20 877 109 
C 896 160 1133 1136 1171 1285 
C 1203 1427 1242 1562 1274 1705 
C 1299 1795 1325 1898 1344 1982 
C 1363 2040 1536 2355 1696 2495 
C 1773 2566 1939 2687 2202 2687 
C 2304 2687 2406 2674 2490 2633 
z
" transform="scale(0.015625)"/>
      <path id="CMMI12-3b" d="M 1248 -26 
C 1248 345 1126 620 864 620 
C 659 620 557 454 557 313 
C 557 172 653 0 870 0 
C 954 0 1024 25 1082 83 
C 1094 96 1101 96 1107 96 
C 1120 96 1120 6 1120 -26 
C 1120 -233 1082 -642 710 -1051 
C 640 -1127 640 -1140 640 -1152 
C 640 -1184 672 -1216 704 -1216 
C 755 -1216 1248 -749 1248 -26 
z
" transform="scale(0.015625)"/>
      <path id="CMMI12-77" d="M 2202 389 
C 2342 6 2739 -64 2982 -64 
C 3469 -64 3757 357 3936 798 
C 4083 1168 4320 2011 4320 2388 
C 4320 2777 4122 2816 4064 2816 
C 3910 2816 3770 2662 3770 2534 
C 3770 2458 3814 2413 3846 2388 
C 3904 2330 4070 2158 4070 1826 
C 4070 1609 3891 1008 3757 708 
C 3578 319 3341 64 3008 64 
C 2650 64 2534 332 2534 625 
C 2534 810 2592 1034 2618 1142 
L 2886 2215 
C 2918 2343 2976 2566 2976 2591 
C 2976 2687 2899 2752 2803 2752 
C 2618 2752 2573 2591 2534 2438 
C 2470 2189 2202 1110 2176 970 
C 2150 861 2150 791 2150 651 
C 2150 498 1946 255 1939 242 
C 1869 172 1766 64 1568 64 
C 1062 64 1062 542 1062 651 
C 1062 855 1107 1136 1395 1896 
C 1472 2094 1504 2177 1504 2305 
C 1504 2573 1312 2816 998 2816 
C 410 2816 173 1890 173 1838 
C 173 1813 198 1781 243 1781 
C 301 1781 307 1807 333 1896 
C 493 2458 742 2687 979 2687 
C 1043 2687 1146 2681 1146 2477 
C 1146 2445 1146 2311 1037 2030 
C 736 1232 672 970 672 728 
C 672 57 1222 -64 1549 -64 
C 1658 -64 1946 -64 2202 389 
z
" transform="scale(0.015625)"/>
     </defs>
     <use xlink:href="#CMMI12-56" transform="scale(0.996264)"/>
     <use xlink:href="#CMMI12-65" transform="translate(78.547321 0) scale(0.996264)"/>
     <use xlink:href="#CMMI12-6c" transform="translate(123.759322 0) scale(0.996264)"/>
     <use xlink:href="#CMMI12-6f" transform="translate(155.007726 0) scale(0.996264)"/>
     <use xlink:href="#CMMI12-63" transform="translate(201.903035 0) scale(0.996264)"/>
     <use xlink:href="#CMMI12-69" transform="translate(243.886269 0) scale(0.996264)"/>
     <use xlink:href="#CMMI12-74" transform="translate(277.164871 0) scale(0.996264)"/>
     <use xlink:href="#CMMI12-69" transform="translate(312.391201 0) scale(0.996264)"/>
     <use xlink:href="#CMMI12-65" transform="translate(345.669803 0) scale(0.996264)"/>
     <use xlink:href="#CMMI12-73" transform="translate(390.881804 0) scale(0.996264)"/>
     <use xlink:href="#CMMI12-76" transform="translate(464.527021 0) scale(0.996264)"/>
     <use xlink:href="#CMR17-30" transform="translate(511.687602 -14.943915) scale(0.697382)"/>
     <use xlink:href="#CMMI12-6f" transform="translate(571.864085 0) scale(0.996264)"/>
     <use xlink:href="#CMMI12-66" transform="translate(618.759395 0) scale(0.996264)"/>
     <use xlink:href="#CMMI12-74" transform="translate(705.174869 0) scale(0.996264)"/>
     <use xlink:href="#CMMI12-68" transform="translate(740.401199 0) scale(0.996264)"/>
     <use xlink:href="#CMMI12-65" transform="translate(796.555823 0) scale(0.996264)"/>
     <use xlink:href="#CMMI12-6c" transform="translate(869.462994 0) scale(0.996264)"/>
     <use xlink:href="#CMMI12-65" transform="translate(900.711398 0) scale(0.996264)"/>
     <use xlink:href="#CMMI12-61" transform="translate(945.923399 0) scale(0.996264)"/>
     <use xlink:href="#CMMI12-64" transform="translate(997.131256 0) scale(0.996264)"/>
     <use xlink:href="#CMMI12-69" transform="translate(1047.820353 0) scale(0.996264)"/>
     <use xlink:href="#CMMI12-6e" transform="translate(1081.098955 0) scale(0.996264)"/>
     <use xlink:href="#CMMI12-67" transform="translate(1139.329002 0) scale(0.996264)"/>
     <use xlink:href="#CMMI12-63" transform="translate(1217.309662 0) scale(0.996264)"/>
     <use xlink:href="#CMMI12-61" transform="translate(1259.292895 0) scale(0.996264)"/>
     <use xlink:href="#CMMI12-72" transform="translate(1310.500753 0) scale(0.996264)"/>
     <use xlink:href="#CMMI12-3b" transform="translate(1351.751929 0) scale(0.996264)"/>
     <use xlink:href="#CMMI12-77" transform="translate(1395.453512 0) scale(0.996264)"/>
     <use xlink:href="#CMMI12-69" transform="translate(1467.866427 0) scale(0.996264)"/>
     <use xlink:href="#CMMI12-74" transform="translate(1501.145029 0) scale(0.996264)"/>
     <use xlink:href="#CMMI12-68" transform="translate(1536.371359 0) scale(0.996264)"/>
     <use xlink:href="#CMR17-33" transform="translate(1620.221152 0) scale(0.996264)"/>
     <use xlink:href="#CMR17-35" transform="translate(1665.91163 0) scale(0.996264)"/>
     <use xlink:href="#CMR17-30" transform="translate(1711.602107 0) scale(0.996264)"/>
     <use xlink:href="#CMMI12-69" transform="translate(1784.987753 0) scale(0.996264)"/>
     <use xlink:href="#CMMI12-74" transform="translate(1818.266355 0) scale(0.996264)"/>
     <use xlink:href="#CMMI12-65" transform="translate(1853.492686 0) scale(0.996264)"/>
     <use xlink:href="#CMMI12-72" transform="translate(1898.704687 0) scale(0.996264)"/>
    </g>
   </g>
   <g id="legend_1">
    <g id="patch_7">
     <path d="M 359.918005 73.798568 
L 430.691702 73.798568 
Q 432.691702 73.798568 432.691702 71.798568 
L 432.691702 30.137648 
Q 432.691702 28.137648 430.691702 28.137648 
L 359.918005 28.137648 
Q 357.918005 28.137648 357.918005 30.137648 
L 357.918005 71.798568 
Q 357.918005 73.798568 359.918005 73.798568 
z
" style="fill: #ffffff; opacity: 0.8; stroke: #cccccc; stroke-linejoin: miter"/>
    </g>
    <g id="line2d_38">
     <path d="M 361.918005 35.735969 
L 371.918005 35.735969 
L 381.918005 35.735969 
" style="fill: none; stroke: #000000; stroke-width: 1.5; stroke-linecap: square"/>
    </g>
    <g id="text_21">
     <!-- [1, 2, 1] -->
     <g transform="translate(389.918005 39.235969) scale(0.1 -0.1)">
      <defs>
       <path id="NimbusSanL-Regu-5b" d="M 1600 4672 
L 410 4672 
L 410 -1357 
L 1600 -1357 
L 1600 -896 
L 941 -896 
L 941 4211 
L 1600 4211 
L 1600 4672 
z
" transform="scale(0.015625)"/>
       <path id="NimbusSanL-Regu-31" d="M 1658 3232 
L 1658 0 
L 2221 0 
L 2221 4537 
L 1850 4537 
C 1651 3840 1523 3744 653 3635 
L 653 3232 
L 1658 3232 
z
" transform="scale(0.015625)"/>
       <path id="NimbusSanL-Regu-2c" d="M 557 665 
L 557 0 
L 941 0 
L 941 -116 
C 941 -557 858 -685 557 -698 
L 557 -941 
C 1005 -941 1229 -653 1229 -103 
L 1229 665 
L 557 665 
z
" transform="scale(0.015625)"/>
       <path id="NimbusSanL-Regu-32" d="M 3238 556 
L 851 556 
C 909 928 1114 1165 1670 1493 
L 2310 1839 
C 2944 2185 3270 2653 3270 3211 
C 3270 3589 3117 3942 2848 4185 
C 2579 4428 2246 4544 1818 4544 
C 1242 4544 813 4339 563 3955 
C 403 3711 333 3429 320 2967 
L 883 2967 
C 902 3275 941 3461 1018 3608 
C 1165 3884 1459 4051 1798 4051 
C 2310 4051 2694 3685 2694 3198 
C 2694 2839 2483 2531 2080 2300 
L 1491 1967 
C 544 1428 269 999 218 0 
L 3238 0 
L 3238 556 
z
" transform="scale(0.015625)"/>
       <path id="NimbusSanL-Regu-5d" d="M 147 -1357 
L 1338 -1357 
L 1338 4672 
L 147 4672 
L 147 4211 
L 806 4211 
L 806 -896 
L 147 -896 
L 147 -1357 
z
" transform="scale(0.015625)"/>
      </defs>
      <use xlink:href="#NimbusSanL-Regu-5b" transform="scale(0.996264)"/>
      <use xlink:href="#NimbusSanL-Regu-31" transform="translate(27.69517 0) scale(0.996264)"/>
      <use xlink:href="#NimbusSanL-Regu-2c" transform="translate(83.086847 0) scale(0.996264)"/>
      <use xlink:href="#NimbusSanL-Regu-32" transform="translate(138.477186 0) scale(0.996264)"/>
      <use xlink:href="#NimbusSanL-Regu-2c" transform="translate(193.868863 0) scale(0.996264)"/>
      <use xlink:href="#NimbusSanL-Regu-31" transform="translate(249.259202 0) scale(0.996264)"/>
      <use xlink:href="#NimbusSanL-Regu-5d" transform="translate(304.650879 0) scale(0.996264)"/>
     </g>
    </g>
    <g id="line2d_39">
     <path d="M 361.918005 49.956275 
L 371.918005 49.956275 
L 381.918005 49.956275 
" style="fill: none; stroke: #4169e1; stroke-width: 1.5; stroke-linecap: square"/>
    </g>
    <g id="text_22">
     <!-- [1, 4, 1] -->
     <g transform="translate(389.918005 53.456275) scale(0.1 -0.1)">
      <defs>
       <path id="NimbusSanL-Regu-34" d="M 2093 1088 
L 2093 0 
L 2656 0 
L 2656 1088 
L 3328 1088 
L 3328 1593 
L 2656 1593 
L 2656 4537 
L 2240 4537 
L 179 1683 
L 179 1088 
L 2093 1088 
z
M 2093 1593 
L 672 1593 
L 2093 3577 
L 2093 1593 
z
" transform="scale(0.015625)"/>
      </defs>
      <use xlink:href="#NimbusSanL-Regu-5b" transform="scale(0.996264)"/>
      <use xlink:href="#NimbusSanL-Regu-31" transform="translate(27.69517 0) scale(0.996264)"/>
      <use xlink:href="#NimbusSanL-Regu-2c" transform="translate(83.086847 0) scale(0.996264)"/>
      <use xlink:href="#NimbusSanL-Regu-34" transform="translate(138.477186 0) scale(0.996264)"/>
      <use xlink:href="#NimbusSanL-Regu-2c" transform="translate(193.868863 0) scale(0.996264)"/>
      <use xlink:href="#NimbusSanL-Regu-31" transform="translate(249.259202 0) scale(0.996264)"/>
      <use xlink:href="#NimbusSanL-Regu-5d" transform="translate(304.650879 0) scale(0.996264)"/>
     </g>
    </g>
    <g id="line2d_40">
     <path d="M 361.918005 64.176582 
L 371.918005 64.176582 
L 381.918005 64.176582 
" style="fill: none; stroke: #ff7f50; stroke-width: 1.5; stroke-linecap: square"/>
    </g>
    <g id="text_23">
     <!-- [1, 10, 1] -->
     <g transform="translate(389.918005 67.676582) scale(0.1 -0.1)">
      <defs>
       <path id="NimbusSanL-Regu-30" d="M 1760 4544 
C 1338 4544 954 4358 717 4044 
C 422 3649 275 3043 275 2207 
C 275 683 787 -128 1760 -128 
C 2720 -128 3245 683 3245 2169 
C 3245 3049 3104 3636 2803 4044 
C 2566 4364 2189 4544 1760 4544 
z
M 1760 4044 
C 2368 4044 2669 3432 2669 2220 
C 2669 938 2374 339 1747 339 
C 1152 339 851 964 851 2201 
C 851 3438 1152 4044 1760 4044 
z
" transform="scale(0.015625)"/>
      </defs>
      <use xlink:href="#NimbusSanL-Regu-5b" transform="scale(0.996264)"/>
      <use xlink:href="#NimbusSanL-Regu-31" transform="translate(27.69517 0) scale(0.996264)"/>
      <use xlink:href="#NimbusSanL-Regu-2c" transform="translate(83.086847 0) scale(0.996264)"/>
      <use xlink:href="#NimbusSanL-Regu-31" transform="translate(138.477186 0) scale(0.996264)"/>
      <use xlink:href="#NimbusSanL-Regu-30" transform="translate(193.868863 0) scale(0.996264)"/>
      <use xlink:href="#NimbusSanL-Regu-2c" transform="translate(249.26054 0) scale(0.996264)"/>
      <use xlink:href="#NimbusSanL-Regu-31" transform="translate(304.650879 0) scale(0.996264)"/>
      <use xlink:href="#NimbusSanL-Regu-5d" transform="translate(360.042556 0) scale(0.996264)"/>
     </g>
    </g>
   </g>
  </g>
 </g>
 <defs>
  <clipPath id="p8ce0df40ef">
   <rect x="47.091702" y="23.137648" width="390.6" height="277.2"/>
  </clipPath>
 </defs>
</svg>
