<?xml version="1.0" encoding="utf-8" standalone="no"?>
<!DOCTYPE svg PUBLIC "-//W3C//DTD SVG 1.1//EN"
  "http://www.w3.org/Graphics/SVG/1.1/DTD/svg11.dtd">
<svg xmlns:xlink="http://www.w3.org/1999/xlink" width="444.891702pt" height="340.666381pt" viewBox="0 0 444.891702 340.666381" xmlns="http://www.w3.org/2000/svg" version="1.1">
 <metadata>
  <rdf:RDF xmlns:dc="http://purl.org/dc/elements/1.1/" xmlns:cc="http://creativecommons.org/ns#" xmlns:rdf="http://www.w3.org/1999/02/22-rdf-syntax-ns#">
   <cc:Work>
    <dc:type rdf:resource="http://purl.org/dc/dcmitype/StillImage"/>
    <dc:date>2023-09-11T00:12:14.054747</dc:date>
    <dc:format>image/svg+xml</dc:format>
    <dc:creator>
     <cc:Agent>
      <dc:title>Matplotlib v3.7.1, https://matplotlib.org/</dc:title>
     </cc:Agent>
    </dc:creator>
   </cc:Work>
  </rdf:RDF>
 </metadata>
 <defs>
  <style type="text/css">*{stroke-linejoin: round; stroke-linecap: butt}</style>
 </defs>
 <g id="figure_1">
  <g id="patch_1">
   <path d="M 0 340.666381 
L 444.891702 340.666381 
L 444.891702 0 
L 0 0 
z
" style="fill: #ffffff"/>
  </g>
  <g id="axes_1">
   <g id="patch_2">
    <path d="M 47.091702 300.337648 
L 437.691702 300.337648 
L 437.691702 23.137648 
L 47.091702 23.137648 
z
" style="fill: #ffffff"/>
   </g>
   <g id="PathCollection_1">
    <path d="M 57.370649 90.564415 
C 58.166259 90.564415 58.929389 90.248316 59.49197 89.685735 
C 60.05455 89.123155 60.370649 88.360024 60.370649 87.564415 
C 60.370649 86.768806 60.05455 86.005675 59.49197 85.443095 
C 58.929389 84.880514 58.166259 84.564415 57.370649 84.564415 
C 56.57504 84.564415 55.81191 84.880514 55.249329 85.443095 
C 54.686748 86.005675 54.370649 86.768806 54.370649 87.564415 
C 54.370649 88.360024 54.686748 89.123155 55.249329 89.685735 
C 55.81191 90.248316 56.57504 90.564415 57.370649 90.564415 
L 57.370649 90.564415 
z
" clip-path="url(#p08a00a762c)" style="fill: none; stroke: #000000"/>
   </g>
   <g id="PathCollection_2">
    <path d="M 98.486439 282.614857 
C 99.282048 282.614857 100.045178 282.298758 100.607759 281.736177 
C 101.17034 281.173597 101.486439 280.410466 101.486439 279.614857 
C 101.486439 278.819248 101.17034 278.056117 100.607759 277.493537 
C 100.045178 276.930956 99.282048 276.614857 98.486439 276.614857 
C 97.690829 276.614857 96.927699 276.930956 96.365118 277.493537 
C 95.802538 278.056117 95.486439 278.819248 95.486439 279.614857 
C 95.486439 280.410466 95.802538 281.173597 96.365118 281.736177 
C 96.927699 282.298758 97.690829 282.614857 98.486439 282.614857 
L 98.486439 282.614857 
z
" clip-path="url(#p08a00a762c)" style="fill: none; stroke: #000000"/>
   </g>
   <g id="PathCollection_3">
    <path d="M 139.602228 100.337659 
C 140.397838 100.337659 141.160968 100.02156 141.723549 99.458979 
C 142.286129 98.896398 142.602228 98.133268 142.602228 97.337659 
C 142.602228 96.542049 142.286129 95.778919 141.723549 95.216338 
C 141.160968 94.653758 140.397838 94.337659 139.602228 94.337659 
C 138.806619 94.337659 138.043489 94.653758 137.480908 95.216338 
C 136.918327 95.778919 136.602228 96.542049 136.602228 97.337659 
C 136.602228 98.133268 136.918327 98.896398 137.480908 99.458979 
C 138.043489 100.02156 138.806619 100.337659 139.602228 100.337659 
L 139.602228 100.337659 
z
" clip-path="url(#p08a00a762c)" style="fill: none; stroke: #000000"/>
   </g>
   <g id="PathCollection_4">
    <path d="M 180.718018 201.960347 
C 181.513627 201.960347 182.276757 201.644248 182.839338 201.081667 
C 183.401919 200.519086 183.718018 199.755956 183.718018 198.960347 
C 183.718018 198.164737 183.401919 197.401607 182.839338 196.839026 
C 182.276757 196.276446 181.513627 195.960347 180.718018 195.960347 
C 179.922408 195.960347 179.159278 196.276446 178.596697 196.839026 
C 178.034117 197.401607 177.718018 198.164737 177.718018 198.960347 
C 177.718018 199.755956 178.034117 200.519086 178.596697 201.081667 
C 179.159278 201.644248 179.922408 201.960347 180.718018 201.960347 
L 180.718018 201.960347 
z
" clip-path="url(#p08a00a762c)" style="fill: none; stroke: #000000"/>
   </g>
   <g id="PathCollection_5">
    <path d="M 221.833807 135.990874 
C 222.629416 135.990874 223.392547 135.674775 223.955128 135.112194 
C 224.517708 134.549613 224.833807 133.786483 224.833807 132.990874 
C 224.833807 132.195264 224.517708 131.432134 223.955128 130.869553 
C 223.392547 130.306973 222.629416 129.990874 221.833807 129.990874 
C 221.038198 129.990874 220.275068 130.306973 219.712487 130.869553 
C 219.149906 131.432134 218.833807 132.195264 218.833807 132.990874 
C 218.833807 133.786483 219.149906 134.549613 219.712487 135.112194 
C 220.275068 135.674775 221.038198 135.990874 221.833807 135.990874 
L 221.833807 135.990874 
z
" clip-path="url(#p08a00a762c)" style="fill: none; stroke: #000000"/>
   </g>
   <g id="PathCollection_6">
    <path d="M 262.949597 225.140877 
C 263.745206 225.140877 264.508336 224.824778 265.070917 224.262197 
C 265.633498 223.699616 265.949597 222.936486 265.949597 222.140877 
C 265.949597 221.345267 265.633498 220.582137 265.070917 220.019556 
C 264.508336 219.456976 263.745206 219.140877 262.949597 219.140877 
C 262.153987 219.140877 261.390857 219.456976 260.828276 220.019556 
C 260.265696 220.582137 259.949597 221.345267 259.949597 222.140877 
C 259.949597 222.936486 260.265696 223.699616 260.828276 224.262197 
C 261.390857 224.824778 262.153987 225.140877 262.949597 225.140877 
L 262.949597 225.140877 
z
" clip-path="url(#p08a00a762c)" style="fill: none; stroke: #000000"/>
   </g>
   <g id="PathCollection_7">
    <path d="M 304.065386 148.544651 
C 304.860995 148.544651 305.624126 148.228552 306.186706 147.665972 
C 306.749287 147.103391 307.065386 146.340261 307.065386 145.544651 
C 307.065386 144.749042 306.749287 143.985912 306.186706 143.423331 
C 305.624126 142.86075 304.860995 142.544651 304.065386 142.544651 
C 303.269777 142.544651 302.506646 142.86075 301.944066 143.423331 
C 301.381485 143.985912 301.065386 144.749042 301.065386 145.544651 
C 301.065386 146.340261 301.381485 147.103391 301.944066 147.665972 
C 302.506646 148.228552 303.269777 148.544651 304.065386 148.544651 
L 304.065386 148.544651 
z
" clip-path="url(#p08a00a762c)" style="fill: none; stroke: #000000"/>
   </g>
   <g id="PathCollection_8">
    <path d="M 345.181176 232.022992 
C 345.976785 232.022992 346.739915 231.706893 347.302496 231.144312 
C 347.865077 230.581731 348.181176 229.818601 348.181176 229.022992 
C 348.181176 228.227383 347.865077 227.464252 347.302496 226.901672 
C 346.739915 226.339091 345.976785 226.022992 345.181176 226.022992 
C 344.385566 226.022992 343.622436 226.339091 343.059855 226.901672 
C 342.497275 227.464252 342.181176 228.227383 342.181176 229.022992 
C 342.181176 229.818601 342.497275 230.581731 343.059855 231.144312 
C 343.622436 231.706893 344.385566 232.022992 345.181176 232.022992 
L 345.181176 232.022992 
z
" clip-path="url(#p08a00a762c)" style="fill: none; stroke: #000000"/>
   </g>
   <g id="PathCollection_9">
    <path d="M 386.296965 131.464648 
C 387.092574 131.464648 387.855705 131.148549 388.418285 130.585969 
C 388.980866 130.023388 389.296965 129.260258 389.296965 128.464648 
C 389.296965 127.669039 388.980866 126.905909 388.418285 126.343328 
C 387.855705 125.780747 387.092574 125.464648 386.296965 125.464648 
C 385.501356 125.464648 384.738225 125.780747 384.175645 126.343328 
C 383.613064 126.905909 383.296965 127.669039 383.296965 128.464648 
C 383.296965 129.260258 383.613064 130.023388 384.175645 130.585969 
C 384.738225 131.148549 385.501356 131.464648 386.296965 131.464648 
L 386.296965 131.464648 
z
" clip-path="url(#p08a00a762c)" style="fill: none; stroke: #000000"/>
   </g>
   <g id="PathCollection_10">
    <path d="M 427.412755 277.448232 
C 428.208364 277.448232 428.971494 277.132134 429.534075 276.569553 
C 430.096656 276.006972 430.412755 275.243842 430.412755 274.448232 
C 430.412755 273.652623 430.096656 272.889493 429.534075 272.326912 
C 428.971494 271.764331 428.208364 271.448232 427.412755 271.448232 
C 426.617145 271.448232 425.854015 271.764331 425.291434 272.326912 
C 424.728853 272.889493 424.412755 273.652623 424.412755 274.448232 
C 424.412755 275.243842 424.728853 276.006972 425.291434 276.569553 
C 425.854015 277.132134 426.617145 277.448232 427.412755 277.448232 
L 427.412755 277.448232 
z
" clip-path="url(#p08a00a762c)" style="fill: none; stroke: #000000"/>
   </g>
   <g id="PathCollection_11">
    <path d="M 57.370649 90.629699 
C 58.166259 90.629699 58.929389 90.3136 59.49197 89.75102 
C 60.05455 89.188439 60.370649 88.425309 60.370649 87.629699 
C 60.370649 86.83409 60.05455 86.07096 59.49197 85.508379 
C 58.929389 84.945798 58.166259 84.629699 57.370649 84.629699 
C 56.57504 84.629699 55.81191 84.945798 55.249329 85.508379 
C 54.686748 86.07096 54.370649 86.83409 54.370649 87.629699 
C 54.370649 88.425309 54.686748 89.188439 55.249329 89.75102 
C 55.81191 90.3136 56.57504 90.629699 57.370649 90.629699 
L 57.370649 90.629699 
z
" clip-path="url(#p08a00a762c)" style="fill: none; stroke: #4169e1"/>
   </g>
   <g id="PathCollection_12">
    <path d="M 98.486439 283.343588 
C 99.282048 283.343588 100.045178 283.027489 100.607759 282.464908 
C 101.17034 281.902328 101.486439 281.139197 101.486439 280.343588 
C 101.486439 279.547979 101.17034 278.784848 100.607759 278.222268 
C 100.045178 277.659687 99.282048 277.343588 98.486439 277.343588 
C 97.690829 277.343588 96.927699 277.659687 96.365118 278.222268 
C 95.802538 278.784848 95.486439 279.547979 95.486439 280.343588 
C 95.486439 281.139197 95.802538 281.902328 96.365118 282.464908 
C 96.927699 283.027489 97.690829 283.343588 98.486439 283.343588 
L 98.486439 283.343588 
z
" clip-path="url(#p08a00a762c)" style="fill: none; stroke: #4169e1"/>
   </g>
   <g id="PathCollection_13">
    <path d="M 139.602228 101.306707 
C 140.397838 101.306707 141.160968 100.990608 141.723549 100.428028 
C 142.286129 99.865447 142.602228 99.102317 142.602228 98.306707 
C 142.602228 97.511098 142.286129 96.747968 141.723549 96.185387 
C 141.160968 95.622806 140.397838 95.306707 139.602228 95.306707 
C 138.806619 95.306707 138.043489 95.622806 137.480908 96.185387 
C 136.918327 96.747968 136.602228 97.511098 136.602228 98.306707 
C 136.602228 99.102317 136.918327 99.865447 137.480908 100.428028 
C 138.043489 100.990608 138.806619 101.306707 139.602228 101.306707 
L 139.602228 101.306707 
z
" clip-path="url(#p08a00a762c)" style="fill: none; stroke: #4169e1"/>
   </g>
   <g id="PathCollection_14">
    <path d="M 180.718018 201.846256 
C 181.513627 201.846256 182.276757 201.530157 182.839338 200.967576 
C 183.401919 200.404995 183.718018 199.641865 183.718018 198.846256 
C 183.718018 198.050646 183.401919 197.287516 182.839338 196.724935 
C 182.276757 196.162354 181.513627 195.846256 180.718018 195.846256 
C 179.922408 195.846256 179.159278 196.162354 178.596697 196.724935 
C 178.034117 197.287516 177.718018 198.050646 177.718018 198.846256 
C 177.718018 199.641865 178.034117 200.404995 178.596697 200.967576 
C 179.159278 201.530157 179.922408 201.846256 180.718018 201.846256 
L 180.718018 201.846256 
z
" clip-path="url(#p08a00a762c)" style="fill: none; stroke: #4169e1"/>
   </g>
   <g id="PathCollection_15">
    <path d="M 221.833807 135.746561 
C 222.629416 135.746561 223.392547 135.430462 223.955128 134.867882 
C 224.517708 134.305301 224.833807 133.542171 224.833807 132.746561 
C 224.833807 131.950952 224.517708 131.187822 223.955128 130.625241 
C 223.392547 130.06266 222.629416 129.746561 221.833807 129.746561 
C 221.038198 129.746561 220.275068 130.06266 219.712487 130.625241 
C 219.149906 131.187822 218.833807 131.950952 218.833807 132.746561 
C 218.833807 133.542171 219.149906 134.305301 219.712487 134.867882 
C 220.275068 135.430462 221.038198 135.746561 221.833807 135.746561 
L 221.833807 135.746561 
z
" clip-path="url(#p08a00a762c)" style="fill: none; stroke: #4169e1"/>
   </g>
   <g id="PathCollection_16">
    <path d="M 262.949597 226.277262 
C 263.745206 226.277262 264.508336 225.961163 265.070917 225.398582 
C 265.633498 224.836002 265.949597 224.072871 265.949597 223.277262 
C 265.949597 222.481653 265.633498 221.718522 265.070917 221.155942 
C 264.508336 220.593361 263.745206 220.277262 262.949597 220.277262 
C 262.153987 220.277262 261.390857 220.593361 260.828276 221.155942 
C 260.265696 221.718522 259.949597 222.481653 259.949597 223.277262 
C 259.949597 224.072871 260.265696 224.836002 260.828276 225.398582 
C 261.390857 225.961163 262.153987 226.277262 262.949597 226.277262 
L 262.949597 226.277262 
z
" clip-path="url(#p08a00a762c)" style="fill: none; stroke: #4169e1"/>
   </g>
   <g id="PathCollection_17">
    <path d="M 304.065386 148.285875 
C 304.860995 148.285875 305.624126 147.969776 306.186706 147.407196 
C 306.749287 146.844615 307.065386 146.081485 307.065386 145.285875 
C 307.065386 144.490266 306.749287 143.727136 306.186706 143.164555 
C 305.624126 142.601974 304.860995 142.285875 304.065386 142.285875 
C 303.269777 142.285875 302.506646 142.601974 301.944066 143.164555 
C 301.381485 143.727136 301.065386 144.490266 301.065386 145.285875 
C 301.065386 146.081485 301.381485 146.844615 301.944066 147.407196 
C 302.506646 147.969776 303.269777 148.285875 304.065386 148.285875 
L 304.065386 148.285875 
z
" clip-path="url(#p08a00a762c)" style="fill: none; stroke: #4169e1"/>
   </g>
   <g id="PathCollection_18">
    <path d="M 345.181176 232.790564 
C 345.976785 232.790564 346.739915 232.474465 347.302496 231.911884 
C 347.865077 231.349303 348.181176 230.586173 348.181176 229.790564 
C 348.181176 228.994954 347.865077 228.231824 347.302496 227.669243 
C 346.739915 227.106663 345.976785 226.790564 345.181176 226.790564 
C 344.385566 226.790564 343.622436 227.106663 343.059855 227.669243 
C 342.497275 228.231824 342.181176 228.994954 342.181176 229.790564 
C 342.181176 230.586173 342.497275 231.349303 343.059855 231.911884 
C 343.622436 232.474465 344.385566 232.790564 345.181176 232.790564 
L 345.181176 232.790564 
z
" clip-path="url(#p08a00a762c)" style="fill: none; stroke: #4169e1"/>
   </g>
   <g id="PathCollection_19">
    <path d="M 386.296965 129.42841 
C 387.092574 129.42841 387.855705 129.112311 388.418285 128.549731 
C 388.980866 127.98715 389.296965 127.22402 389.296965 126.42841 
C 389.296965 125.632801 388.980866 124.869671 388.418285 124.30709 
C 387.855705 123.744509 387.092574 123.42841 386.296965 123.42841 
C 385.501356 123.42841 384.738225 123.744509 384.175645 124.30709 
C 383.613064 124.869671 383.296965 125.632801 383.296965 126.42841 
C 383.296965 127.22402 383.613064 127.98715 384.175645 128.549731 
C 384.738225 129.112311 385.501356 129.42841 386.296965 129.42841 
L 386.296965 129.42841 
z
" clip-path="url(#p08a00a762c)" style="fill: none; stroke: #4169e1"/>
   </g>
   <g id="PathCollection_20">
    <path d="M 427.412755 279.78848 
C 428.208364 279.78848 428.971494 279.472381 429.534075 278.9098 
C 430.096656 278.34722 430.412755 277.584089 430.412755 276.78848 
C 430.412755 275.992871 430.096656 275.22974 429.534075 274.66716 
C 428.971494 274.104579 428.208364 273.78848 427.412755 273.78848 
C 426.617145 273.78848 425.854015 274.104579 425.291434 274.66716 
C 424.728853 275.22974 424.412755 275.992871 424.412755 276.78848 
C 424.412755 277.584089 424.728853 278.34722 425.291434 278.9098 
C 425.854015 279.472381 426.617145 279.78848 427.412755 279.78848 
L 427.412755 279.78848 
z
" clip-path="url(#p08a00a762c)" style="fill: none; stroke: #4169e1"/>
   </g>
   <g id="PathCollection_21">
    <path d="M 57.370649 91.06673 
C 58.166259 91.06673 58.929389 90.750631 59.49197 90.18805 
C 60.05455 89.625469 60.370649 88.862339 60.370649 88.06673 
C 60.370649 87.271121 60.05455 86.50799 59.49197 85.945409 
C 58.929389 85.382829 58.166259 85.06673 57.370649 85.06673 
C 56.57504 85.06673 55.81191 85.382829 55.249329 85.945409 
C 54.686748 86.50799 54.370649 87.271121 54.370649 88.06673 
C 54.370649 88.862339 54.686748 89.625469 55.249329 90.18805 
C 55.81191 90.750631 56.57504 91.06673 57.370649 91.06673 
L 57.370649 91.06673 
z
" clip-path="url(#p08a00a762c)" style="fill: none; stroke: #ff7f50"/>
   </g>
   <g id="PathCollection_22">
    <path d="M 98.486439 282.621674 
C 99.282048 282.621674 100.045178 282.305575 100.607759 281.742995 
C 101.17034 281.180414 101.486439 280.417283 101.486439 279.621674 
C 101.486439 278.826065 101.17034 278.062935 100.607759 277.500354 
C 100.045178 276.937773 99.282048 276.621674 98.486439 276.621674 
C 97.690829 276.621674 96.927699 276.937773 96.365118 277.500354 
C 95.802538 278.062935 95.486439 278.826065 95.486439 279.621674 
C 95.486439 280.417283 95.802538 281.180414 96.365118 281.742995 
C 96.927699 282.305575 97.690829 282.621674 98.486439 282.621674 
L 98.486439 282.621674 
z
" clip-path="url(#p08a00a762c)" style="fill: none; stroke: #ff7f50"/>
   </g>
   <g id="PathCollection_23">
    <path d="M 139.602228 101.272885 
C 140.397838 101.272885 141.160968 100.956786 141.723549 100.394206 
C 142.286129 99.831625 142.602228 99.068495 142.602228 98.272885 
C 142.602228 97.477276 142.286129 96.714146 141.723549 96.151565 
C 141.160968 95.588984 140.397838 95.272885 139.602228 95.272885 
C 138.806619 95.272885 138.043489 95.588984 137.480908 96.151565 
C 136.918327 96.714146 136.602228 97.477276 136.602228 98.272885 
C 136.602228 99.068495 136.918327 99.831625 137.480908 100.394206 
C 138.043489 100.956786 138.806619 101.272885 139.602228 101.272885 
L 139.602228 101.272885 
z
" clip-path="url(#p08a00a762c)" style="fill: none; stroke: #ff7f50"/>
   </g>
   <g id="PathCollection_24">
    <path d="M 180.718018 202.193518 
C 181.513627 202.193518 182.276757 201.877419 182.839338 201.314838 
C 183.401919 200.752257 183.718018 199.989127 183.718018 199.193518 
C 183.718018 198.397908 183.401919 197.634778 182.839338 197.072197 
C 182.276757 196.509617 181.513627 196.193518 180.718018 196.193518 
C 179.922408 196.193518 179.159278 196.509617 178.596697 197.072197 
C 178.034117 197.634778 177.718018 198.397908 177.718018 199.193518 
C 177.718018 199.989127 178.034117 200.752257 178.596697 201.314838 
C 179.159278 201.877419 179.922408 202.193518 180.718018 202.193518 
L 180.718018 202.193518 
z
" clip-path="url(#p08a00a762c)" style="fill: none; stroke: #ff7f50"/>
   </g>
   <g id="PathCollection_25">
    <path d="M 221.833807 136.056037 
C 222.629416 136.056037 223.392547 135.739939 223.955128 135.177358 
C 224.517708 134.614777 224.833807 133.851647 224.833807 133.056037 
C 224.833807 132.260428 224.517708 131.497298 223.955128 130.934717 
C 223.392547 130.372136 222.629416 130.056037 221.833807 130.056037 
C 221.038198 130.056037 220.275068 130.372136 219.712487 130.934717 
C 219.149906 131.497298 218.833807 132.260428 218.833807 133.056037 
C 218.833807 133.851647 219.149906 134.614777 219.712487 135.177358 
C 220.275068 135.739939 221.038198 136.056037 221.833807 136.056037 
L 221.833807 136.056037 
z
" clip-path="url(#p08a00a762c)" style="fill: none; stroke: #ff7f50"/>
   </g>
   <g id="PathCollection_26">
    <path d="M 262.949597 226.357341 
C 263.745206 226.357341 264.508336 226.041242 265.070917 225.478661 
C 265.633498 224.916081 265.949597 224.15295 265.949597 223.357341 
C 265.949597 222.561732 265.633498 221.798602 265.070917 221.236021 
C 264.508336 220.67344 263.745206 220.357341 262.949597 220.357341 
C 262.153987 220.357341 261.390857 220.67344 260.828276 221.236021 
C 260.265696 221.798602 259.949597 222.561732 259.949597 223.357341 
C 259.949597 224.15295 260.265696 224.916081 260.828276 225.478661 
C 261.390857 226.041242 262.153987 226.357341 262.949597 226.357341 
L 262.949597 226.357341 
z
" clip-path="url(#p08a00a762c)" style="fill: none; stroke: #ff7f50"/>
   </g>
   <g id="PathCollection_27">
    <path d="M 304.065386 148.544651 
C 304.860995 148.544651 305.624126 148.228552 306.186706 147.665972 
C 306.749287 147.103391 307.065386 146.340261 307.065386 145.544651 
C 307.065386 144.749042 306.749287 143.985912 306.186706 143.423331 
C 305.624126 142.86075 304.860995 142.544651 304.065386 142.544651 
C 303.269777 142.544651 302.506646 142.86075 301.944066 143.423331 
C 301.381485 143.985912 301.065386 144.749042 301.065386 145.544651 
C 301.065386 146.340261 301.381485 147.103391 301.944066 147.665972 
C 302.506646 148.228552 303.269777 148.544651 304.065386 148.544651 
L 304.065386 148.544651 
z
" clip-path="url(#p08a00a762c)" style="fill: none; stroke: #ff7f50"/>
   </g>
   <g id="PathCollection_28">
    <path d="M 345.181176 231.570807 
C 345.976785 231.570807 346.739915 231.254708 347.302496 230.692127 
C 347.865077 230.129547 348.181176 229.366416 348.181176 228.570807 
C 348.181176 227.775198 347.865077 227.012068 347.302496 226.449487 
C 346.739915 225.886906 345.976785 225.570807 345.181176 225.570807 
C 344.385566 225.570807 343.622436 225.886906 343.059855 226.449487 
C 342.497275 227.012068 342.181176 227.775198 342.181176 228.570807 
C 342.181176 229.366416 342.497275 230.129547 343.059855 230.692127 
C 343.622436 231.254708 344.385566 231.570807 345.181176 231.570807 
L 345.181176 231.570807 
z
" clip-path="url(#p08a00a762c)" style="fill: none; stroke: #ff7f50"/>
   </g>
   <g id="PathCollection_29">
    <path d="M 386.296965 131.392149 
C 387.092574 131.392149 387.855705 131.07605 388.418285 130.51347 
C 388.980866 129.950889 389.296965 129.187759 389.296965 128.392149 
C 389.296965 127.59654 388.980866 126.83341 388.418285 126.270829 
C 387.855705 125.708248 387.092574 125.392149 386.296965 125.392149 
C 385.501356 125.392149 384.738225 125.708248 384.175645 126.270829 
C 383.613064 126.83341 383.296965 127.59654 383.296965 128.392149 
C 383.296965 129.187759 383.613064 129.950889 384.175645 130.51347 
C 384.738225 131.07605 385.501356 131.392149 386.296965 131.392149 
L 386.296965 131.392149 
z
" clip-path="url(#p08a00a762c)" style="fill: none; stroke: #ff7f50"/>
   </g>
   <g id="PathCollection_30">
    <path d="M 427.412755 278.962859 
C 428.208364 278.962859 428.971494 278.64676 429.534075 278.08418 
C 430.096656 277.521599 430.412755 276.758469 430.412755 275.962859 
C 430.412755 275.16725 430.096656 274.40412 429.534075 273.841539 
C 428.971494 273.278958 428.208364 272.962859 427.412755 272.962859 
C 426.617145 272.962859 425.854015 273.278958 425.291434 273.841539 
C 424.728853 274.40412 424.412755 275.16725 424.412755 275.962859 
C 424.412755 276.758469 424.728853 277.521599 425.291434 278.08418 
C 425.854015 278.64676 426.617145 278.962859 427.412755 278.962859 
L 427.412755 278.962859 
z
" clip-path="url(#p08a00a762c)" style="fill: none; stroke: #ff7f50"/>
   </g>
   <g id="PathCollection_31">
    <path d="M 57.370649 42.822172 
C 58.166259 42.822172 58.929389 42.506073 59.49197 41.943492 
C 60.05455 41.380911 60.370649 40.617781 60.370649 39.822172 
C 60.370649 39.026562 60.05455 38.263432 59.49197 37.700851 
C 58.929389 37.138271 58.166259 36.822172 57.370649 36.822172 
C 56.57504 36.822172 55.81191 37.138271 55.249329 37.700851 
C 54.686748 38.263432 54.370649 39.026562 54.370649 39.822172 
C 54.370649 40.617781 54.686748 41.380911 55.249329 41.943492 
C 55.81191 42.506073 56.57504 42.822172 57.370649 42.822172 
L 57.370649 42.822172 
z
" clip-path="url(#p08a00a762c)" style="fill: none; stroke: #ffd700"/>
   </g>
   <g id="PathCollection_32">
    <path d="M 98.486439 229.011643 
C 99.282048 229.011643 100.045178 228.695544 100.607759 228.132964 
C 101.17034 227.570383 101.486439 226.807253 101.486439 226.011643 
C 101.486439 225.216034 101.17034 224.452904 100.607759 223.890323 
C 100.045178 223.327742 99.282048 223.011643 98.486439 223.011643 
C 97.690829 223.011643 96.927699 223.327742 96.365118 223.890323 
C 95.802538 224.452904 95.486439 225.216034 95.486439 226.011643 
C 95.486439 226.807253 95.802538 227.570383 96.365118 228.132964 
C 96.927699 228.695544 97.690829 229.011643 98.486439 229.011643 
L 98.486439 229.011643 
z
" clip-path="url(#p08a00a762c)" style="fill: none; stroke: #ffd700"/>
   </g>
   <g id="PathCollection_33">
    <path d="M 139.602228 38.737648 
C 140.397838 38.737648 141.160968 38.421549 141.723549 37.858969 
C 142.286129 37.296388 142.602228 36.533258 142.602228 35.737648 
C 142.602228 34.942039 142.286129 34.178909 141.723549 33.616328 
C 141.160968 33.053747 140.397838 32.737648 139.602228 32.737648 
C 138.806619 32.737648 138.043489 33.053747 137.480908 33.616328 
C 136.918327 34.178909 136.602228 34.942039 136.602228 35.737648 
C 136.602228 36.533258 136.918327 37.296388 137.480908 37.858969 
C 138.043489 38.421549 138.806619 38.737648 139.602228 38.737648 
L 139.602228 38.737648 
z
" clip-path="url(#p08a00a762c)" style="fill: none; stroke: #ffd700"/>
   </g>
   <g id="PathCollection_34">
    <path d="M 180.718018 183.970955 
C 181.513627 183.970955 182.276757 183.654856 182.839338 183.092275 
C 183.401919 182.529694 183.718018 181.766564 183.718018 180.970955 
C 183.718018 180.175345 183.401919 179.412215 182.839338 178.849634 
C 182.276757 178.287054 181.513627 177.970955 180.718018 177.970955 
C 179.922408 177.970955 179.159278 178.287054 178.596697 178.849634 
C 178.034117 179.412215 177.718018 180.175345 177.718018 180.970955 
C 177.718018 181.766564 178.034117 182.529694 178.596697 183.092275 
C 179.159278 183.654856 179.922408 183.970955 180.718018 183.970955 
L 180.718018 183.970955 
z
" clip-path="url(#p08a00a762c)" style="fill: none; stroke: #ffd700"/>
   </g>
   <g id="PathCollection_35">
    <path d="M 221.833807 87.781505 
C 222.629416 87.781505 223.392547 87.465406 223.955128 86.902826 
C 224.517708 86.340245 224.833807 85.577115 224.833807 84.781505 
C 224.833807 83.985896 224.517708 83.222766 223.955128 82.660185 
C 223.392547 82.097604 222.629416 81.781505 221.833807 81.781505 
C 221.038198 81.781505 220.275068 82.097604 219.712487 82.660185 
C 219.149906 83.222766 218.833807 83.985896 218.833807 84.781505 
C 218.833807 85.577115 219.149906 86.340245 219.712487 86.902826 
C 220.275068 87.465406 221.038198 87.781505 221.833807 87.781505 
L 221.833807 87.781505 
z
" clip-path="url(#p08a00a762c)" style="fill: none; stroke: #ffd700"/>
   </g>
   <g id="PathCollection_36">
    <path d="M 262.949597 212.471758 
C 263.745206 212.471758 264.508336 212.155659 265.070917 211.593078 
C 265.633498 211.030498 265.949597 210.267367 265.949597 209.471758 
C 265.949597 208.676149 265.633498 207.913018 265.070917 207.350438 
C 264.508336 206.787857 263.745206 206.471758 262.949597 206.471758 
C 262.153987 206.471758 261.390857 206.787857 260.828276 207.350438 
C 260.265696 207.913018 259.949597 208.676149 259.949597 209.471758 
C 259.949597 210.267367 260.265696 211.030498 260.828276 211.593078 
C 261.390857 212.155659 262.153987 212.471758 262.949597 212.471758 
L 262.949597 212.471758 
z
" clip-path="url(#p08a00a762c)" style="fill: none; stroke: #ffd700"/>
   </g>
   <g id="PathCollection_37">
    <path d="M 304.065386 88.275216 
C 304.860995 88.275216 305.624126 87.959118 306.186706 87.396537 
C 306.749287 86.833956 307.065386 86.070826 307.065386 85.275216 
C 307.065386 84.479607 306.749287 83.716477 306.186706 83.153896 
C 305.624126 82.591315 304.860995 82.275216 304.065386 82.275216 
C 303.269777 82.275216 302.506646 82.591315 301.944066 83.153896 
C 301.381485 83.716477 301.065386 84.479607 301.065386 85.275216 
C 301.065386 86.070826 301.381485 86.833956 301.944066 87.396537 
C 302.506646 87.959118 303.269777 88.275216 304.065386 88.275216 
L 304.065386 88.275216 
z
" clip-path="url(#p08a00a762c)" style="fill: none; stroke: #ffd700"/>
   </g>
   <g id="PathCollection_38">
    <path d="M 345.181176 214.38256 
C 345.976785 214.38256 346.739915 214.066461 347.302496 213.50388 
C 347.865077 212.941299 348.181176 212.178169 348.181176 211.38256 
C 348.181176 210.58695 347.865077 209.82382 347.302496 209.261239 
C 346.739915 208.698659 345.976785 208.38256 345.181176 208.38256 
C 344.385566 208.38256 343.622436 208.698659 343.059855 209.261239 
C 342.497275 209.82382 342.181176 210.58695 342.181176 211.38256 
C 342.181176 212.178169 342.497275 212.941299 343.059855 213.50388 
C 343.622436 214.066461 344.385566 214.38256 345.181176 214.38256 
L 345.181176 214.38256 
z
" clip-path="url(#p08a00a762c)" style="fill: none; stroke: #ffd700"/>
   </g>
   <g id="PathCollection_39">
    <path d="M 386.296965 140.001236 
C 387.092574 140.001236 387.855705 139.685137 388.418285 139.122556 
C 388.980866 138.559976 389.296965 137.796845 389.296965 137.001236 
C 389.296965 136.205627 388.980866 135.442496 388.418285 134.879916 
C 387.855705 134.317335 387.092574 134.001236 386.296965 134.001236 
C 385.501356 134.001236 384.738225 134.317335 384.175645 134.879916 
C 383.613064 135.442496 383.296965 136.205627 383.296965 137.001236 
C 383.296965 137.796845 383.613064 138.559976 384.175645 139.122556 
C 384.738225 139.685137 385.501356 140.001236 386.296965 140.001236 
L 386.296965 140.001236 
z
" clip-path="url(#p08a00a762c)" style="fill: none; stroke: #ffd700"/>
   </g>
   <g id="PathCollection_40">
    <path d="M 427.412755 250.640377 
C 428.208364 250.640377 428.971494 250.324279 429.534075 249.761698 
C 430.096656 249.199117 430.412755 248.435987 430.412755 247.640377 
C 430.412755 246.844768 430.096656 246.081638 429.534075 245.519057 
C 428.971494 244.956476 428.208364 244.640377 427.412755 244.640377 
C 426.617145 244.640377 425.854015 244.956476 425.291434 245.519057 
C 424.728853 246.081638 424.412755 246.844768 424.412755 247.640377 
C 424.412755 248.435987 424.728853 249.199117 425.291434 249.761698 
C 425.854015 250.324279 426.617145 250.640377 427.412755 250.640377 
L 427.412755 250.640377 
z
" clip-path="url(#p08a00a762c)" style="fill: none; stroke: #ffd700"/>
   </g>
   <g id="PathCollection_41">
    <path d="M 57.370649 128.045662 
C 58.166259 128.045662 58.929389 127.729563 59.49197 127.166982 
C 60.05455 126.604401 60.370649 125.841271 60.370649 125.045662 
C 60.370649 124.250052 60.05455 123.486922 59.49197 122.924341 
C 58.929389 122.361761 58.166259 122.045662 57.370649 122.045662 
C 56.57504 122.045662 55.81191 122.361761 55.249329 122.924341 
C 54.686748 123.486922 54.370649 124.250052 54.370649 125.045662 
C 54.370649 125.841271 54.686748 126.604401 55.249329 127.166982 
C 55.81191 127.729563 56.57504 128.045662 57.370649 128.045662 
L 57.370649 128.045662 
z
" clip-path="url(#p08a00a762c)" style="fill: none; stroke: #00ff00"/>
   </g>
   <g id="PathCollection_42">
    <path d="M 98.486439 284.492944 
C 99.282048 284.492944 100.045178 284.176845 100.607759 283.614264 
C 101.17034 283.051683 101.486439 282.288553 101.486439 281.492944 
C 101.486439 280.697335 101.17034 279.934204 100.607759 279.371624 
C 100.045178 278.809043 99.282048 278.492944 98.486439 278.492944 
C 97.690829 278.492944 96.927699 278.809043 96.365118 279.371624 
C 95.802538 279.934204 95.486439 280.697335 95.486439 281.492944 
C 95.486439 282.288553 95.802538 283.051683 96.365118 283.614264 
C 96.927699 284.176845 97.690829 284.492944 98.486439 284.492944 
L 98.486439 284.492944 
z
" clip-path="url(#p08a00a762c)" style="fill: none; stroke: #00ff00"/>
   </g>
   <g id="PathCollection_43">
    <path d="M 139.602228 135.093766 
C 140.397838 135.093766 141.160968 134.777667 141.723549 134.215086 
C 142.286129 133.652505 142.602228 132.889375 142.602228 132.093766 
C 142.602228 131.298156 142.286129 130.535026 141.723549 129.972445 
C 141.160968 129.409865 140.397838 129.093766 139.602228 129.093766 
C 138.806619 129.093766 138.043489 129.409865 137.480908 129.972445 
C 136.918327 130.535026 136.602228 131.298156 136.602228 132.093766 
C 136.602228 132.889375 136.918327 133.652505 137.480908 134.215086 
C 138.043489 134.777667 138.806619 135.093766 139.602228 135.093766 
L 139.602228 135.093766 
z
" clip-path="url(#p08a00a762c)" style="fill: none; stroke: #00ff00"/>
   </g>
   <g id="PathCollection_44">
    <path d="M 180.718018 251.953151 
C 181.513627 251.953151 182.276757 251.637052 182.839338 251.074471 
C 183.401919 250.51189 183.718018 249.74876 183.718018 248.953151 
C 183.718018 248.157541 183.401919 247.394411 182.839338 246.83183 
C 182.276757 246.26925 181.513627 245.953151 180.718018 245.953151 
C 179.922408 245.953151 179.159278 246.26925 178.596697 246.83183 
C 178.034117 247.394411 177.718018 248.157541 177.718018 248.953151 
C 177.718018 249.74876 178.034117 250.51189 178.596697 251.074471 
C 179.159278 251.637052 179.922408 251.953151 180.718018 251.953151 
L 180.718018 251.953151 
z
" clip-path="url(#p08a00a762c)" style="fill: none; stroke: #00ff00"/>
   </g>
   <g id="PathCollection_45">
    <path d="M 221.833807 129.470149 
C 222.629416 129.470149 223.392547 129.15405 223.955128 128.59147 
C 224.517708 128.028889 224.833807 127.265759 224.833807 126.470149 
C 224.833807 125.67454 224.517708 124.91141 223.955128 124.348829 
C 223.392547 123.786248 222.629416 123.470149 221.833807 123.470149 
C 221.038198 123.470149 220.275068 123.786248 219.712487 124.348829 
C 219.149906 124.91141 218.833807 125.67454 218.833807 126.470149 
C 218.833807 127.265759 219.149906 128.028889 219.712487 128.59147 
C 220.275068 129.15405 221.038198 129.470149 221.833807 129.470149 
L 221.833807 129.470149 
z
" clip-path="url(#p08a00a762c)" style="fill: none; stroke: #00ff00"/>
   </g>
   <g id="PathCollection_46">
    <path d="M 262.949597 257.306907 
C 263.745206 257.306907 264.508336 256.990808 265.070917 256.428227 
C 265.633498 255.865647 265.949597 255.102516 265.949597 254.306907 
C 265.949597 253.511298 265.633498 252.748167 265.070917 252.185587 
C 264.508336 251.623006 263.745206 251.306907 262.949597 251.306907 
C 262.153987 251.306907 261.390857 251.623006 260.828276 252.185587 
C 260.265696 252.748167 259.949597 253.511298 259.949597 254.306907 
C 259.949597 255.102516 260.265696 255.865647 260.828276 256.428227 
C 261.390857 256.990808 262.153987 257.306907 262.949597 257.306907 
L 262.949597 257.306907 
z
" clip-path="url(#p08a00a762c)" style="fill: none; stroke: #00ff00"/>
   </g>
   <g id="PathCollection_47">
    <path d="M 304.065386 156.444331 
C 304.860995 156.444331 305.624126 156.128232 306.186706 155.565651 
C 306.749287 155.003071 307.065386 154.23994 307.065386 153.444331 
C 307.065386 152.648722 306.749287 151.885591 306.186706 151.323011 
C 305.624126 150.76043 304.860995 150.444331 304.065386 150.444331 
C 303.269777 150.444331 302.506646 150.76043 301.944066 151.323011 
C 301.381485 151.885591 301.065386 152.648722 301.065386 153.444331 
C 301.065386 154.23994 301.381485 155.003071 301.944066 155.565651 
C 302.506646 156.128232 303.269777 156.444331 304.065386 156.444331 
L 304.065386 156.444331 
z
" clip-path="url(#p08a00a762c)" style="fill: none; stroke: #00ff00"/>
   </g>
   <g id="PathCollection_48">
    <path d="M 345.181176 268.262426 
C 345.976785 268.262426 346.739915 267.946327 347.302496 267.383746 
C 347.865077 266.821165 348.181176 266.058035 348.181176 265.262426 
C 348.181176 264.466816 347.865077 263.703686 347.302496 263.141105 
C 346.739915 262.578525 345.976785 262.262426 345.181176 262.262426 
C 344.385566 262.262426 343.622436 262.578525 343.059855 263.141105 
C 342.497275 263.703686 342.181176 264.466816 342.181176 265.262426 
C 342.181176 266.058035 342.497275 266.821165 343.059855 267.383746 
C 343.622436 267.946327 344.385566 268.262426 345.181176 268.262426 
L 345.181176 268.262426 
z
" clip-path="url(#p08a00a762c)" style="fill: none; stroke: #00ff00"/>
   </g>
   <g id="PathCollection_49">
    <path d="M 386.296965 191.891367 
C 387.092574 191.891367 387.855705 191.575268 388.418285 191.012687 
C 388.980866 190.450106 389.296965 189.686976 389.296965 188.891367 
C 389.296965 188.095757 388.980866 187.332627 388.418285 186.770046 
C 387.855705 186.207466 387.092574 185.891367 386.296965 185.891367 
C 385.501356 185.891367 384.738225 186.207466 384.175645 186.770046 
C 383.613064 187.332627 383.296965 188.095757 383.296965 188.891367 
C 383.296965 189.686976 383.613064 190.450106 384.175645 191.012687 
C 384.738225 191.575268 385.501356 191.891367 386.296965 191.891367 
L 386.296965 191.891367 
z
" clip-path="url(#p08a00a762c)" style="fill: none; stroke: #00ff00"/>
   </g>
   <g id="PathCollection_50">
    <path d="M 427.412755 290.737648 
C 428.208364 290.737648 428.971494 290.421549 429.534075 289.858969 
C 430.096656 289.296388 430.412755 288.533258 430.412755 287.737648 
C 430.412755 286.942039 430.096656 286.178909 429.534075 285.616328 
C 428.971494 285.053747 428.208364 284.737648 427.412755 284.737648 
C 426.617145 284.737648 425.854015 285.053747 425.291434 285.616328 
C 424.728853 286.178909 424.412755 286.942039 424.412755 287.737648 
C 424.412755 288.533258 424.728853 289.296388 425.291434 289.858969 
C 425.854015 290.421549 426.617145 290.737648 427.412755 290.737648 
L 427.412755 290.737648 
z
" clip-path="url(#p08a00a762c)" style="fill: none; stroke: #00ff00"/>
   </g>
   <g id="matplotlib.axis_1">
    <g id="xtick_1">
     <g id="line2d_1">
      <path d="M 57.370649 300.337648 
L 57.370649 23.137648 
" clip-path="url(#p08a00a762c)" style="fill: none; stroke: #808080; stroke-width: 0.5; stroke-linecap: square"/>
     </g>
     <g id="line2d_2">
      <defs>
       <path id="m3f88530540" d="M 0 0 
L 0 3.5 
" style="stroke: #000000; stroke-width: 0.8"/>
      </defs>
      <g>
       <use xlink:href="#m3f88530540" x="57.370649" y="300.337648" style="stroke: #000000; stroke-width: 0.8"/>
      </g>
     </g>
     <g id="text_1">
      <!-- $\mathdefault{1}$ -->
      <g transform="translate(54.879982 314.435969) scale(0.1 -0.1)">
       <defs>
        <path id="CMR17-31" d="M 1702 4083 
C 1702 4217 1696 4224 1606 4224 
C 1357 3927 979 3833 621 3820 
C 602 3820 570 3820 563 3808 
C 557 3795 557 3782 557 3648 
C 755 3648 1088 3686 1344 3839 
L 1344 467 
C 1344 243 1331 166 781 166 
L 589 166 
L 589 0 
C 896 6 1216 12 1523 12 
C 1830 12 2150 6 2458 0 
L 2458 166 
L 2266 166 
C 1715 166 1702 236 1702 467 
L 1702 4083 
z
" transform="scale(0.015625)"/>
       </defs>
       <use xlink:href="#CMR17-31" transform="scale(0.996264)"/>
      </g>
     </g>
    </g>
    <g id="xtick_2">
     <g id="line2d_3">
      <path d="M 98.486439 300.337648 
L 98.486439 23.137648 
" clip-path="url(#p08a00a762c)" style="fill: none; stroke: #808080; stroke-width: 0.5; stroke-linecap: square"/>
     </g>
     <g id="line2d_4">
      <g>
       <use xlink:href="#m3f88530540" x="98.486439" y="300.337648" style="stroke: #000000; stroke-width: 0.8"/>
      </g>
     </g>
     <g id="text_2">
      <!-- $\mathdefault{2}$ -->
      <g transform="translate(95.995771 314.435969) scale(0.1 -0.1)">
       <defs>
        <path id="CMR17-32" d="M 2669 990 
L 2554 990 
C 2490 537 2438 460 2413 422 
C 2381 371 1920 371 1830 371 
L 602 371 
C 832 620 1280 1073 1824 1596 
C 2214 1966 2669 2400 2669 3033 
C 2669 3788 2067 4224 1395 4224 
C 691 4224 262 3603 262 3027 
C 262 2777 448 2745 525 2745 
C 589 2745 781 2783 781 3007 
C 781 3206 614 3264 525 3264 
C 486 3264 448 3257 422 3244 
C 544 3788 915 4057 1306 4057 
C 1862 4057 2227 3616 2227 3033 
C 2227 2477 1901 1998 1536 1583 
L 262 147 
L 262 0 
L 2515 0 
L 2669 990 
z
" transform="scale(0.015625)"/>
       </defs>
       <use xlink:href="#CMR17-32" transform="scale(0.996264)"/>
      </g>
     </g>
    </g>
    <g id="xtick_3">
     <g id="line2d_5">
      <path d="M 139.602228 300.337648 
L 139.602228 23.137648 
" clip-path="url(#p08a00a762c)" style="fill: none; stroke: #808080; stroke-width: 0.5; stroke-linecap: square"/>
     </g>
     <g id="line2d_6">
      <g>
       <use xlink:href="#m3f88530540" x="139.602228" y="300.337648" style="stroke: #000000; stroke-width: 0.8"/>
      </g>
     </g>
     <g id="text_3">
      <!-- $\mathdefault{3}$ -->
      <g transform="translate(137.111561 314.435969) scale(0.1 -0.1)">
       <defs>
        <path id="CMR17-33" d="M 1414 2176 
C 1984 2176 2234 1673 2234 1094 
C 2234 322 1824 25 1453 25 
C 1114 25 563 193 390 691 
C 422 678 454 678 486 678 
C 640 678 755 780 755 947 
C 755 1132 614 1216 486 1216 
C 378 1216 211 1164 211 927 
C 211 335 787 -128 1466 -128 
C 2176 -128 2720 432 2720 1087 
C 2720 1718 2208 2176 1600 2246 
C 2086 2347 2554 2776 2554 3353 
C 2554 3856 2048 4224 1472 4224 
C 890 4224 378 3862 378 3347 
C 378 3123 544 3084 627 3084 
C 762 3084 877 3167 877 3334 
C 877 3500 762 3584 627 3584 
C 602 3584 570 3584 544 3571 
C 730 3999 1235 4076 1459 4076 
C 1683 4076 2106 3966 2106 3347 
C 2106 3167 2080 2851 1862 2574 
C 1670 2329 1453 2316 1242 2297 
C 1210 2297 1062 2284 1037 2284 
C 992 2278 966 2272 966 2227 
C 966 2182 973 2176 1101 2176 
L 1414 2176 
z
" transform="scale(0.015625)"/>
       </defs>
       <use xlink:href="#CMR17-33" transform="scale(0.996264)"/>
      </g>
     </g>
    </g>
    <g id="xtick_4">
     <g id="line2d_7">
      <path d="M 180.718018 300.337648 
L 180.718018 23.137648 
" clip-path="url(#p08a00a762c)" style="fill: none; stroke: #808080; stroke-width: 0.5; stroke-linecap: square"/>
     </g>
     <g id="line2d_8">
      <g>
       <use xlink:href="#m3f88530540" x="180.718018" y="300.337648" style="stroke: #000000; stroke-width: 0.8"/>
      </g>
     </g>
     <g id="text_4">
      <!-- $\mathdefault{4}$ -->
      <g transform="translate(178.22735 314.435969) scale(0.1 -0.1)">
       <defs>
        <path id="CMR17-34" d="M 2150 4147 
C 2150 4281 2144 4288 2029 4288 
L 128 1254 
L 128 1088 
L 1779 1088 
L 1779 460 
C 1779 230 1766 166 1318 166 
L 1197 166 
L 1197 0 
C 1402 12 1747 12 1965 12 
C 2182 12 2528 12 2733 0 
L 2733 166 
L 2611 166 
C 2163 166 2150 230 2150 460 
L 2150 1088 
L 2803 1088 
L 2803 1254 
L 2150 1254 
L 2150 4147 
z
M 1798 3723 
L 1798 1254 
L 256 1254 
L 1798 3723 
z
" transform="scale(0.015625)"/>
       </defs>
       <use xlink:href="#CMR17-34" transform="scale(0.996264)"/>
      </g>
     </g>
    </g>
    <g id="xtick_5">
     <g id="line2d_9">
      <path d="M 221.833807 300.337648 
L 221.833807 23.137648 
" clip-path="url(#p08a00a762c)" style="fill: none; stroke: #808080; stroke-width: 0.5; stroke-linecap: square"/>
     </g>
     <g id="line2d_10">
      <g>
       <use xlink:href="#m3f88530540" x="221.833807" y="300.337648" style="stroke: #000000; stroke-width: 0.8"/>
      </g>
     </g>
     <g id="text_5">
      <!-- $\mathdefault{5}$ -->
      <g transform="translate(219.34314 314.435969) scale(0.1 -0.1)">
       <defs>
        <path id="CMR17-35" d="M 730 3750 
C 794 3724 1056 3641 1325 3641 
C 1920 3641 2246 3961 2432 4140 
C 2432 4191 2432 4224 2394 4224 
C 2387 4224 2374 4224 2323 4198 
C 2099 4102 1837 4032 1517 4032 
C 1325 4032 1037 4055 723 4191 
C 653 4224 640 4224 634 4224 
C 602 4224 595 4217 595 4090 
L 595 2231 
C 595 2113 595 2080 659 2080 
C 691 2080 704 2093 736 2139 
C 941 2435 1222 2560 1542 2560 
C 1766 2560 2246 2415 2246 1293 
C 2246 1087 2246 716 2054 422 
C 1894 159 1645 25 1370 25 
C 947 25 518 319 403 812 
C 429 806 480 793 506 793 
C 589 793 749 838 749 1036 
C 749 1209 627 1280 506 1280 
C 358 1280 262 1190 262 1011 
C 262 454 704 -128 1382 -128 
C 2042 -128 2669 441 2669 1267 
C 2669 2054 2170 2662 1549 2662 
C 1222 2662 947 2540 730 2304 
L 730 3750 
z
" transform="scale(0.015625)"/>
       </defs>
       <use xlink:href="#CMR17-35" transform="scale(0.996264)"/>
      </g>
     </g>
    </g>
    <g id="xtick_6">
     <g id="line2d_11">
      <path d="M 262.949597 300.337648 
L 262.949597 23.137648 
" clip-path="url(#p08a00a762c)" style="fill: none; stroke: #808080; stroke-width: 0.5; stroke-linecap: square"/>
     </g>
     <g id="line2d_12">
      <g>
       <use xlink:href="#m3f88530540" x="262.949597" y="300.337648" style="stroke: #000000; stroke-width: 0.8"/>
      </g>
     </g>
     <g id="text_6">
      <!-- $\mathdefault{6}$ -->
      <g transform="translate(260.458929 314.435969) scale(0.1 -0.1)">
       <defs>
        <path id="CMR17-36" d="M 678 2198 
C 678 3712 1395 4076 1811 4076 
C 1946 4076 2272 4049 2400 3782 
C 2298 3782 2106 3782 2106 3558 
C 2106 3385 2246 3328 2336 3328 
C 2394 3328 2566 3353 2566 3571 
C 2566 3987 2246 4224 1805 4224 
C 1043 4224 243 3411 243 2011 
C 243 257 966 -128 1478 -128 
C 2099 -128 2688 431 2688 1295 
C 2688 2101 2170 2688 1517 2688 
C 1126 2688 838 2430 678 1979 
L 678 2198 
z
M 1478 25 
C 691 25 691 1212 691 1450 
C 691 1914 909 2585 1504 2585 
C 1613 2585 1926 2585 2138 2140 
C 2253 1889 2253 1624 2253 1302 
C 2253 954 2253 696 2118 438 
C 1978 173 1773 25 1478 25 
z
" transform="scale(0.015625)"/>
       </defs>
       <use xlink:href="#CMR17-36" transform="scale(0.996264)"/>
      </g>
     </g>
    </g>
    <g id="xtick_7">
     <g id="line2d_13">
      <path d="M 304.065386 300.337648 
L 304.065386 23.137648 
" clip-path="url(#p08a00a762c)" style="fill: none; stroke: #808080; stroke-width: 0.5; stroke-linecap: square"/>
     </g>
     <g id="line2d_14">
      <g>
       <use xlink:href="#m3f88530540" x="304.065386" y="300.337648" style="stroke: #000000; stroke-width: 0.8"/>
      </g>
     </g>
     <g id="text_7">
      <!-- $\mathdefault{7}$ -->
      <g transform="translate(301.574718 314.435969) scale(0.1 -0.1)">
       <defs>
        <path id="CMR17-37" d="M 2886 3955 
L 2886 4096 
L 1382 4096 
C 634 4096 621 4166 595 4288 
L 480 4288 
L 294 3104 
L 410 3104 
C 429 3226 474 3552 550 3673 
C 589 3724 1062 3724 1171 3724 
L 2579 3724 
L 1869 2670 
C 1395 1961 1069 1003 1069 166 
C 1069 89 1069 -128 1299 -128 
C 1530 -128 1530 89 1530 172 
L 1530 466 
C 1530 1514 1709 2204 2003 2644 
L 2886 3955 
z
" transform="scale(0.015625)"/>
       </defs>
       <use xlink:href="#CMR17-37" transform="scale(0.996264)"/>
      </g>
     </g>
    </g>
    <g id="xtick_8">
     <g id="line2d_15">
      <path d="M 345.181176 300.337648 
L 345.181176 23.137648 
" clip-path="url(#p08a00a762c)" style="fill: none; stroke: #808080; stroke-width: 0.5; stroke-linecap: square"/>
     </g>
     <g id="line2d_16">
      <g>
       <use xlink:href="#m3f88530540" x="345.181176" y="300.337648" style="stroke: #000000; stroke-width: 0.8"/>
      </g>
     </g>
     <g id="text_8">
      <!-- $\mathdefault{8}$ -->
      <g transform="translate(342.690508 314.435969) scale(0.1 -0.1)">
       <defs>
        <path id="CMR17-38" d="M 1741 2289 
C 2144 2494 2554 2803 2554 3298 
C 2554 3884 1990 4224 1472 4224 
C 890 4224 378 3800 378 3215 
C 378 3054 416 2777 666 2533 
C 730 2469 998 2276 1171 2154 
C 883 2006 211 1652 211 945 
C 211 282 838 -128 1459 -128 
C 2144 -128 2720 366 2720 1022 
C 2720 1607 2330 1877 2074 2051 
L 1741 2289 
z
M 902 2855 
C 851 2887 595 3086 595 3388 
C 595 3781 998 4076 1459 4076 
C 1965 4076 2336 3716 2336 3298 
C 2336 2700 1670 2359 1638 2359 
C 1632 2359 1626 2359 1574 2398 
L 902 2855 
z
M 2080 1536 
C 2176 1466 2483 1253 2483 861 
C 2483 385 2010 25 1472 25 
C 890 25 448 443 448 951 
C 448 1459 838 1884 1280 2083 
L 2080 1536 
z
" transform="scale(0.015625)"/>
       </defs>
       <use xlink:href="#CMR17-38" transform="scale(0.996264)"/>
      </g>
     </g>
    </g>
    <g id="xtick_9">
     <g id="line2d_17">
      <path d="M 386.296965 300.337648 
L 386.296965 23.137648 
" clip-path="url(#p08a00a762c)" style="fill: none; stroke: #808080; stroke-width: 0.5; stroke-linecap: square"/>
     </g>
     <g id="line2d_18">
      <g>
       <use xlink:href="#m3f88530540" x="386.296965" y="300.337648" style="stroke: #000000; stroke-width: 0.8"/>
      </g>
     </g>
     <g id="text_9">
      <!-- $\mathdefault{9}$ -->
      <g transform="translate(383.806297 314.435969) scale(0.1 -0.1)">
       <defs>
        <path id="CMR17-39" d="M 2253 1871 
C 2253 448 1670 25 1190 25 
C 1043 25 685 43 538 281 
C 704 256 826 345 826 505 
C 826 678 685 736 595 736 
C 538 736 365 710 365 492 
C 365 68 742 -128 1203 -128 
C 1939 -128 2688 665 2688 2090 
C 2688 3857 1971 4224 1485 4224 
C 851 4224 243 3664 243 2800 
C 243 2000 762 1408 1414 1408 
C 1952 1408 2189 1910 2253 2122 
L 2253 1871 
z
M 1427 1510 
C 1254 1510 1011 1542 813 1929 
C 678 2181 678 2477 678 2793 
C 678 3174 678 3438 858 3722 
C 947 3857 1114 4076 1485 4076 
C 2240 4076 2240 2909 2240 2651 
C 2240 2193 2035 1510 1427 1510 
z
" transform="scale(0.015625)"/>
       </defs>
       <use xlink:href="#CMR17-39" transform="scale(0.996264)"/>
      </g>
     </g>
    </g>
    <g id="xtick_10">
     <g id="line2d_19">
      <path d="M 427.412755 300.337648 
L 427.412755 23.137648 
" clip-path="url(#p08a00a762c)" style="fill: none; stroke: #808080; stroke-width: 0.5; stroke-linecap: square"/>
     </g>
     <g id="line2d_20">
      <g>
       <use xlink:href="#m3f88530540" x="427.412755" y="300.337648" style="stroke: #000000; stroke-width: 0.8"/>
      </g>
     </g>
     <g id="text_10">
      <!-- $\mathdefault{10}$ -->
      <g transform="translate(422.431419 314.435969) scale(0.1 -0.1)">
       <defs>
        <path id="CMR17-30" d="M 2688 2038 
C 2688 2430 2682 3099 2413 3613 
C 2176 4063 1798 4224 1466 4224 
C 1158 4224 768 4082 525 3620 
C 269 3137 243 2539 243 2038 
C 243 1671 250 1112 448 623 
C 723 -39 1216 -128 1466 -128 
C 1760 -128 2208 -7 2470 604 
C 2662 1048 2688 1568 2688 2038 
z
M 1466 -26 
C 1056 -26 813 328 723 816 
C 653 1196 653 1749 653 2109 
C 653 2604 653 3015 736 3407 
C 858 3954 1216 4121 1466 4121 
C 1728 4121 2067 3947 2189 3420 
C 2272 3054 2278 2623 2278 2109 
C 2278 1691 2278 1176 2202 797 
C 2067 96 1690 -26 1466 -26 
z
" transform="scale(0.015625)"/>
       </defs>
       <use xlink:href="#CMR17-31" transform="scale(0.996264)"/>
       <use xlink:href="#CMR17-30" transform="translate(45.690477 0) scale(0.996264)"/>
      </g>
     </g>
    </g>
    <g id="text_11">
     <!-- $data set$ -->
     <g transform="translate(220.361347 330.495603) scale(0.14 -0.14)">
      <defs>
       <path id="CMMI12-64" d="M 3219 4255 
C 3226 4281 3238 4319 3238 4351 
C 3238 4416 3174 4416 3162 4416 
C 3155 4416 2842 4390 2810 4383 
C 2701 4377 2605 4364 2490 4358 
C 2330 4345 2285 4339 2285 4223 
C 2285 4159 2336 4159 2426 4159 
C 2739 4159 2746 4103 2746 4040 
C 2746 4002 2733 3951 2726 3932 
L 2336 2394 
C 2266 2560 2093 2816 1760 2816 
C 1037 2816 256 1883 256 938 
C 256 306 627 -64 1062 -64 
C 1414 -64 1715 210 1894 421 
C 1958 44 2259 -64 2451 -64 
C 2643 -64 2797 51 2912 281 
C 3014 498 3104 887 3104 913 
C 3104 945 3078 970 3040 970 
C 2982 970 2976 938 2950 842 
C 2854 466 2733 64 2470 64 
C 2285 64 2272 230 2272 357 
C 2272 383 2272 517 2317 696 
L 3219 4255 
z
M 1926 759 
C 1894 651 1894 638 1805 517 
C 1664 338 1382 64 1082 64 
C 819 64 672 300 672 676 
C 672 1028 870 1743 992 2011 
C 1210 2458 1510 2687 1760 2687 
C 2182 2687 2266 2164 2266 2113 
C 2266 2107 2246 2024 2240 2011 
L 1926 759 
z
" transform="scale(0.015625)"/>
       <path id="CMMI12-61" d="M 1926 759 
C 1894 651 1894 638 1805 517 
C 1664 338 1382 64 1082 64 
C 819 64 672 300 672 676 
C 672 1028 870 1743 992 2011 
C 1210 2458 1510 2687 1760 2687 
C 2182 2687 2266 2164 2266 2113 
C 2266 2107 2246 2024 2240 2011 
L 1926 759 
z
M 2336 2394 
C 2266 2560 2093 2816 1760 2816 
C 1037 2816 256 1883 256 938 
C 256 306 627 -64 1062 -64 
C 1414 -64 1715 210 1894 421 
C 1958 44 2259 -64 2451 -64 
C 2643 -64 2797 51 2912 280 
C 3014 496 3104 885 3104 910 
C 3104 942 3078 968 3040 968 
C 2982 968 2976 936 2950 840 
C 2854 465 2733 64 2470 64 
C 2285 64 2272 229 2272 356 
C 2272 503 2291 573 2349 821 
C 2394 980 2426 1120 2477 1305 
C 2714 2260 2771 2489 2771 2528 
C 2771 2617 2701 2688 2605 2688 
C 2400 2688 2349 2464 2336 2388 
L 2336 2394 
z
" transform="scale(0.015625)"/>
       <path id="CMMI12-74" d="M 1286 2566 
L 1875 2566 
C 1997 2566 2061 2566 2061 2681 
C 2061 2752 2022 2752 1894 2752 
L 1331 2752 
L 1568 3664 
C 1594 3752 1594 3764 1594 3808 
C 1594 3910 1510 3968 1427 3968 
C 1376 3968 1229 3948 1178 3746 
L 928 2752 
L 326 2752 
C 198 2752 141 2752 141 2630 
C 141 2566 186 2566 307 2566 
L 877 2566 
L 454 881 
C 403 657 384 593 384 510 
C 384 210 595 -64 954 -64 
C 1600 -64 1946 868 1946 913 
C 1946 951 1920 970 1882 970 
C 1869 970 1843 970 1830 944 
C 1824 938 1818 932 1773 830 
C 1638 510 1344 64 973 64 
C 781 64 768 223 768 364 
C 768 370 768 491 787 568 
L 1286 2566 
z
" transform="scale(0.015625)"/>
       <path id="CMMI12-73" d="M 1459 1290 
C 1568 1271 1741 1233 1779 1227 
C 1862 1201 2150 1099 2150 793 
C 2150 595 1971 64 1229 64 
C 1094 64 614 83 486 447 
C 742 414 870 614 870 755 
C 870 889 781 960 653 960 
C 512 960 326 851 326 563 
C 326 176 710 -64 1222 -64 
C 2195 -64 2483 665 2483 998 
C 2483 1093 2483 1271 2278 1475 
C 2118 1627 1965 1659 1619 1729 
C 1446 1767 1171 1824 1171 2111 
C 1171 2239 1286 2687 1894 2687 
C 2163 2687 2426 2589 2490 2368 
C 2208 2368 2195 2124 2195 2118 
C 2195 1983 2317 1945 2374 1945 
C 2464 1945 2643 2015 2643 2284 
C 2643 2546 2400 2816 1901 2816 
C 1062 2816 838 2169 838 1907 
C 838 1424 1312 1322 1459 1290 
z
" transform="scale(0.015625)"/>
       <path id="CMMI12-65" d="M 1146 1472 
C 1318 1472 1754 1484 2061 1600 
C 2547 1786 2592 2160 2592 2275 
C 2592 2559 2349 2816 1926 2816 
C 1254 2816 288 2205 288 1066 
C 288 400 672 -64 1254 -64 
C 2125 -64 2675 609 2675 691 
C 2675 729 2637 761 2611 761 
C 2592 761 2586 755 2528 698 
C 2118 159 1510 64 1267 64 
C 902 64 710 349 710 818 
C 710 907 710 1066 806 1472 
L 1146 1472 
z
M 838 1600 
C 1114 2591 1722 2687 1926 2687 
C 2208 2687 2400 2520 2400 2275 
C 2400 1600 1376 1600 1107 1600 
L 838 1600 
z
" transform="scale(0.015625)"/>
      </defs>
      <use xlink:href="#CMMI12-64" transform="scale(0.996264)"/>
      <use xlink:href="#CMMI12-61" transform="translate(50.689097 0) scale(0.996264)"/>
      <use xlink:href="#CMMI12-74" transform="translate(101.896954 0) scale(0.996264)"/>
      <use xlink:href="#CMMI12-61" transform="translate(137.123285 0) scale(0.996264)"/>
      <use xlink:href="#CMMI12-73" transform="translate(188.331142 0) scale(0.996264)"/>
      <use xlink:href="#CMMI12-65" transform="translate(234.28119 0) scale(0.996264)"/>
      <use xlink:href="#CMMI12-74" transform="translate(279.493191 0) scale(0.996264)"/>
     </g>
    </g>
   </g>
   <g id="matplotlib.axis_2">
    <g id="ytick_1">
     <g id="line2d_21">
      <path d="M 47.091702 276.113081 
L 437.691702 276.113081 
" clip-path="url(#p08a00a762c)" style="fill: none; stroke: #808080; stroke-width: 0.5; stroke-linecap: square"/>
     </g>
     <g id="line2d_22">
      <defs>
       <path id="mdde5459470" d="M 0 0 
L -3.5 0 
" style="stroke: #000000; stroke-width: 0.8"/>
      </defs>
      <g>
       <use xlink:href="#mdde5459470" x="47.091702" y="276.113081" style="stroke: #000000; stroke-width: 0.8"/>
      </g>
     </g>
     <g id="text_12">
      <!-- $\mathdefault{75}$ -->
      <g transform="translate(30.129031 279.662241) scale(0.1 -0.1)">
       <use xlink:href="#CMR17-37" transform="scale(0.996264)"/>
       <use xlink:href="#CMR17-35" transform="translate(45.690477 0) scale(0.996264)"/>
      </g>
     </g>
    </g>
    <g id="ytick_2">
     <g id="line2d_23">
      <path d="M 47.091702 243.418802 
L 437.691702 243.418802 
" clip-path="url(#p08a00a762c)" style="fill: none; stroke: #808080; stroke-width: 0.5; stroke-linecap: square"/>
     </g>
     <g id="line2d_24">
      <g>
       <use xlink:href="#mdde5459470" x="47.091702" y="243.418802" style="stroke: #000000; stroke-width: 0.8"/>
      </g>
     </g>
     <g id="text_13">
      <!-- $\mathdefault{80}$ -->
      <g transform="translate(30.129031 246.967963) scale(0.1 -0.1)">
       <use xlink:href="#CMR17-38" transform="scale(0.996264)"/>
       <use xlink:href="#CMR17-30" transform="translate(45.690477 0) scale(0.996264)"/>
      </g>
     </g>
    </g>
    <g id="ytick_3">
     <g id="line2d_25">
      <path d="M 47.091702 210.724524 
L 437.691702 210.724524 
" clip-path="url(#p08a00a762c)" style="fill: none; stroke: #808080; stroke-width: 0.5; stroke-linecap: square"/>
     </g>
     <g id="line2d_26">
      <g>
       <use xlink:href="#mdde5459470" x="47.091702" y="210.724524" style="stroke: #000000; stroke-width: 0.8"/>
      </g>
     </g>
     <g id="text_14">
      <!-- $\mathdefault{85}$ -->
      <g transform="translate(30.129031 214.273684) scale(0.1 -0.1)">
       <use xlink:href="#CMR17-38" transform="scale(0.996264)"/>
       <use xlink:href="#CMR17-35" transform="translate(45.690477 0) scale(0.996264)"/>
      </g>
     </g>
    </g>
    <g id="ytick_4">
     <g id="line2d_27">
      <path d="M 47.091702 178.030246 
L 437.691702 178.030246 
" clip-path="url(#p08a00a762c)" style="fill: none; stroke: #808080; stroke-width: 0.5; stroke-linecap: square"/>
     </g>
     <g id="line2d_28">
      <g>
       <use xlink:href="#mdde5459470" x="47.091702" y="178.030246" style="stroke: #000000; stroke-width: 0.8"/>
      </g>
     </g>
     <g id="text_15">
      <!-- $\mathdefault{90}$ -->
      <g transform="translate(30.129031 181.579406) scale(0.1 -0.1)">
       <use xlink:href="#CMR17-39" transform="scale(0.996264)"/>
       <use xlink:href="#CMR17-30" transform="translate(45.690477 0) scale(0.996264)"/>
      </g>
     </g>
    </g>
    <g id="ytick_5">
     <g id="line2d_29">
      <path d="M 47.091702 145.335967 
L 437.691702 145.335967 
" clip-path="url(#p08a00a762c)" style="fill: none; stroke: #808080; stroke-width: 0.5; stroke-linecap: square"/>
     </g>
     <g id="line2d_30">
      <g>
       <use xlink:href="#mdde5459470" x="47.091702" y="145.335967" style="stroke: #000000; stroke-width: 0.8"/>
      </g>
     </g>
     <g id="text_16">
      <!-- $\mathdefault{95}$ -->
      <g transform="translate(30.129031 148.885127) scale(0.1 -0.1)">
       <use xlink:href="#CMR17-39" transform="scale(0.996264)"/>
       <use xlink:href="#CMR17-35" transform="translate(45.690477 0) scale(0.996264)"/>
      </g>
     </g>
    </g>
    <g id="ytick_6">
     <g id="line2d_31">
      <path d="M 47.091702 112.641689 
L 437.691702 112.641689 
" clip-path="url(#p08a00a762c)" style="fill: none; stroke: #808080; stroke-width: 0.5; stroke-linecap: square"/>
     </g>
     <g id="line2d_32">
      <g>
       <use xlink:href="#mdde5459470" x="47.091702" y="112.641689" style="stroke: #000000; stroke-width: 0.8"/>
      </g>
     </g>
     <g id="text_17">
      <!-- $\mathdefault{100}$ -->
      <g transform="translate(25.147696 116.190849) scale(0.1 -0.1)">
       <use xlink:href="#CMR17-31" transform="scale(0.996264)"/>
       <use xlink:href="#CMR17-30" transform="translate(45.690477 0) scale(0.996264)"/>
       <use xlink:href="#CMR17-30" transform="translate(91.380954 0) scale(0.996264)"/>
      </g>
     </g>
    </g>
    <g id="ytick_7">
     <g id="line2d_33">
      <path d="M 47.091702 79.94741 
L 437.691702 79.94741 
" clip-path="url(#p08a00a762c)" style="fill: none; stroke: #808080; stroke-width: 0.5; stroke-linecap: square"/>
     </g>
     <g id="line2d_34">
      <g>
       <use xlink:href="#mdde5459470" x="47.091702" y="79.94741" style="stroke: #000000; stroke-width: 0.8"/>
      </g>
     </g>
     <g id="text_18">
      <!-- $\mathdefault{105}$ -->
      <g transform="translate(25.147696 83.49657) scale(0.1 -0.1)">
       <use xlink:href="#CMR17-31" transform="scale(0.996264)"/>
       <use xlink:href="#CMR17-30" transform="translate(45.690477 0) scale(0.996264)"/>
       <use xlink:href="#CMR17-35" transform="translate(91.380954 0) scale(0.996264)"/>
      </g>
     </g>
    </g>
    <g id="ytick_8">
     <g id="line2d_35">
      <path d="M 47.091702 47.253132 
L 437.691702 47.253132 
" clip-path="url(#p08a00a762c)" style="fill: none; stroke: #808080; stroke-width: 0.5; stroke-linecap: square"/>
     </g>
     <g id="line2d_36">
      <g>
       <use xlink:href="#mdde5459470" x="47.091702" y="47.253132" style="stroke: #000000; stroke-width: 0.8"/>
      </g>
     </g>
     <g id="text_19">
      <!-- $\mathdefault{110}$ -->
      <g transform="translate(25.147696 50.802292) scale(0.1 -0.1)">
       <use xlink:href="#CMR17-31" transform="scale(0.996264)"/>
       <use xlink:href="#CMR17-31" transform="translate(45.690477 0) scale(0.996264)"/>
       <use xlink:href="#CMR17-30" transform="translate(91.380954 0) scale(0.996264)"/>
      </g>
     </g>
    </g>
    <g id="text_20">
     <!-- $v_{0}\ [km/h]$ -->
     <g transform="translate(17.660772 190.632337) rotate(-90) scale(0.14 -0.14)">
      <defs>
       <path id="CMMI12-76" d="M 2925 2388 
C 2925 2790 2720 2816 2669 2816 
C 2515 2816 2374 2662 2374 2534 
C 2374 2458 2419 2413 2445 2388 
C 2509 2330 2675 2158 2675 1826 
C 2675 1558 2291 64 1523 64 
C 1133 64 1056 389 1056 625 
C 1056 945 1203 1392 1376 1851 
C 1478 2113 1504 2177 1504 2305 
C 1504 2573 1312 2816 998 2816 
C 410 2816 173 1890 173 1838 
C 173 1813 198 1781 243 1781 
C 301 1781 307 1807 333 1896 
C 486 2445 736 2687 979 2687 
C 1037 2687 1146 2687 1146 2477 
C 1146 2311 1075 2126 979 1883 
C 672 1066 672 868 672 715 
C 672 574 691 313 890 134 
C 1120 -64 1440 -64 1498 -64 
C 2560 -64 2925 2024 2925 2388 
z
" transform="scale(0.015625)"/>
       <path id="CMR17-5b" d="M 1504 -1600 
L 1504 -1376 
L 902 -1376 
L 902 4575 
L 1504 4575 
L 1504 4800 
L 678 4800 
L 678 -1600 
L 1504 -1600 
z
" transform="scale(0.015625)"/>
       <path id="CMMI12-6b" d="M 1798 4255 
C 1805 4281 1818 4319 1818 4351 
C 1818 4416 1754 4416 1741 4416 
C 1734 4416 1504 4396 1389 4383 
C 1280 4377 1184 4364 1069 4358 
C 915 4345 870 4339 870 4223 
C 870 4159 934 4159 998 4159 
C 1325 4159 1325 4103 1325 4040 
C 1325 4014 1325 4002 1293 3888 
L 378 250 
C 352 153 352 141 352 102 
C 352 -39 461 -64 525 -64 
C 704 -64 742 76 794 275 
L 1094 1476 
C 1555 1425 1830 1232 1830 924 
C 1830 885 1830 860 1811 763 
C 1786 667 1786 590 1786 558 
C 1786 185 2029 -64 2355 -64 
C 2650 -64 2803 205 2854 295 
C 2989 532 3072 892 3072 917 
C 3072 949 3046 975 3008 975 
C 2950 975 2944 949 2918 847 
C 2829 513 2694 64 2368 64 
C 2240 64 2157 128 2157 372 
C 2157 494 2182 635 2208 731 
C 2234 847 2234 853 2234 930 
C 2234 1309 1894 1521 1306 1598 
C 1536 1739 1766 1989 1856 2086 
C 2221 2495 2470 2687 2765 2687 
C 2912 2687 2950 2655 2995 2624 
C 2758 2598 2669 2431 2669 2303 
C 2669 2150 2790 2099 2880 2099 
C 3053 2099 3206 2246 3206 2451 
C 3206 2634 3059 2816 2771 2816 
C 2419 2816 2131 2579 1677 2067 
C 1613 1989 1376 1746 1139 1656 
L 1798 4255 
z
" transform="scale(0.015625)"/>
       <path id="CMMI12-6d" d="M 1318 1870 
C 1331 1909 1491 2228 1728 2432 
C 1894 2585 2112 2687 2362 2687 
C 2618 2687 2707 2496 2707 2241 
C 2707 2202 2707 2075 2630 1775 
L 2470 1117 
C 2419 925 2298 453 2285 383 
C 2259 287 2221 121 2221 95 
C 2221 6 2291 -64 2387 -64 
C 2579 -64 2611 83 2669 313 
L 3053 1838 
C 3066 1890 3398 2687 4102 2687 
C 4358 2687 4448 2496 4448 2241 
C 4448 1883 4198 1187 4058 804 
C 4000 651 3968 568 3968 453 
C 3968 166 4166 -64 4474 -64 
C 5069 -64 5293 874 5293 913 
C 5293 945 5267 970 5229 970 
C 5171 970 5165 951 5133 842 
C 4986 332 4749 64 4493 64 
C 4429 64 4326 70 4326 274 
C 4326 440 4403 645 4429 715 
C 4544 1021 4832 1775 4832 2145 
C 4832 2528 4608 2816 4122 2816 
C 3693 2816 3347 2573 3091 2196 
C 3072 2541 2861 2816 2381 2816 
C 1811 2816 1510 2413 1395 2253 
C 1376 2617 1114 2816 832 2816 
C 646 2816 499 2726 378 2483 
C 262 2253 173 1864 173 1838 
C 173 1813 198 1781 243 1781 
C 294 1781 301 1787 339 1934 
C 435 2311 557 2687 813 2687 
C 960 2687 1011 2585 1011 2394 
C 1011 2253 947 2004 902 1807 
L 723 1117 
C 698 996 627 708 595 593 
C 550 427 480 127 480 95 
C 480 6 550 -64 646 -64 
C 723 -64 813 -26 864 70 
C 877 102 934 325 966 453 
L 1107 1028 
L 1318 1870 
z
" transform="scale(0.015625)"/>
       <path id="CMMI12-3d" d="M 2746 4563 
C 2746 4569 2784 4665 2784 4678 
C 2784 4755 2720 4800 2669 4800 
C 2637 4800 2579 4800 2528 4659 
L 384 -1364 
C 384 -1370 346 -1466 346 -1479 
C 346 -1556 410 -1600 461 -1600 
C 499 -1600 557 -1594 602 -1460 
L 2746 4563 
z
" transform="scale(0.015625)"/>
       <path id="CMMI12-68" d="M 1798 4255 
C 1805 4281 1818 4319 1818 4351 
C 1818 4416 1754 4416 1741 4416 
C 1734 4416 1421 4390 1389 4383 
C 1280 4377 1184 4364 1069 4358 
C 909 4345 864 4339 864 4223 
C 864 4159 915 4159 1005 4159 
C 1318 4159 1325 4103 1325 4040 
C 1325 4002 1312 3951 1306 3932 
L 378 249 
C 352 153 352 140 352 102 
C 352 -39 461 -64 525 -64 
C 634 -64 717 19 749 89 
L 1037 1245 
C 1069 1385 1107 1519 1139 1660 
C 1210 1928 1210 1934 1331 2119 
C 1453 2305 1741 2687 2234 2687 
C 2490 2687 2579 2496 2579 2241 
C 2579 1883 2330 1187 2189 804 
C 2131 651 2099 568 2099 453 
C 2099 166 2298 -64 2605 -64 
C 3200 -64 3424 874 3424 913 
C 3424 945 3398 970 3360 970 
C 3302 970 3296 951 3264 842 
C 3117 332 2880 64 2624 64 
C 2560 64 2458 70 2458 274 
C 2458 440 2534 645 2560 715 
C 2675 1021 2963 1775 2963 2145 
C 2963 2528 2739 2816 2253 2816 
C 1888 2816 1568 2643 1306 2311 
L 1798 4255 
z
" transform="scale(0.015625)"/>
       <path id="CMR17-5d" d="M 915 4800 
L 90 4800 
L 90 4575 
L 691 4575 
L 691 -1376 
L 90 -1376 
L 90 -1600 
L 915 -1600 
L 915 4800 
z
" transform="scale(0.015625)"/>
      </defs>
      <use xlink:href="#CMMI12-76" transform="scale(0.996264)"/>
      <use xlink:href="#CMR17-30" transform="translate(47.160581 -14.943915) scale(0.697382)"/>
      <use xlink:href="#CMR17-5b" transform="translate(107.337064 0) scale(0.996264)"/>
      <use xlink:href="#CMMI12-6b" transform="translate(132.208123 0) scale(0.996264)"/>
      <use xlink:href="#CMMI12-6d" transform="translate(186.287323 0) scale(0.996264)"/>
      <use xlink:href="#CMMI12-3d" transform="translate(271.614548 0) scale(0.996264)"/>
      <use xlink:href="#CMMI12-68" transform="translate(320.389467 0) scale(0.996264)"/>
      <use xlink:href="#CMR17-5d" transform="translate(376.544091 0) scale(0.996264)"/>
     </g>
    </g>
   </g>
   <g id="line2d_37">
    <path d="M 57.370649 179.608955 
L 98.486439 179.608955 
L 139.602228 179.608955 
L 180.718018 179.608955 
L 221.833807 179.608955 
L 262.949597 179.608955 
L 304.065386 179.608955 
L 345.181176 179.608955 
L 386.296965 179.608955 
L 427.412755 179.608955 
" clip-path="url(#p08a00a762c)" style="fill: none; stroke: #000000; stroke-width: 1.5; stroke-linecap: square"/>
   </g>
   <g id="line2d_38">
    <path d="M 57.370649 179.94434 
L 98.486439 179.94434 
L 139.602228 179.94434 
L 180.718018 179.94434 
L 221.833807 179.94434 
L 262.949597 179.94434 
L 304.065386 179.94434 
L 345.181176 179.94434 
L 386.296965 179.94434 
L 427.412755 179.94434 
" clip-path="url(#p08a00a762c)" style="fill: none; stroke: #4169e1; stroke-width: 1.5; stroke-linecap: square"/>
   </g>
   <g id="line2d_39">
    <path d="M 57.370649 180.003865 
L 98.486439 180.003865 
L 139.602228 180.003865 
L 180.718018 180.003865 
L 221.833807 180.003865 
L 262.949597 180.003865 
L 304.065386 180.003865 
L 345.181176 180.003865 
L 386.296965 180.003865 
L 427.412755 180.003865 
" clip-path="url(#p08a00a762c)" style="fill: none; stroke: #ff7f50; stroke-width: 1.5; stroke-linecap: square"/>
   </g>
   <g id="line2d_40">
    <path d="M 57.370649 137.003917 
L 98.486439 137.003917 
L 139.602228 137.003917 
L 180.718018 137.003917 
L 221.833807 137.003917 
L 262.949597 137.003917 
L 304.065386 137.003917 
L 345.181176 137.003917 
L 386.296965 137.003917 
L 427.412755 137.003917 
" clip-path="url(#p08a00a762c)" style="fill: none; stroke: #ffd700; stroke-width: 1.5; stroke-linecap: square"/>
   </g>
   <g id="line2d_41">
    <path d="M 57.370649 201.864585 
L 98.486439 201.864585 
L 139.602228 201.864585 
L 180.718018 201.864585 
L 221.833807 201.864585 
L 262.949597 201.864585 
L 304.065386 201.864585 
L 345.181176 201.864585 
L 386.296965 201.864585 
L 427.412755 201.864585 
" clip-path="url(#p08a00a762c)" style="fill: none; stroke: #00ff00; stroke-width: 1.5; stroke-linecap: square"/>
   </g>
   <g id="patch_3">
    <path d="M 47.091702 300.337648 
L 47.091702 23.137648 
" style="fill: none; stroke: #000000; stroke-width: 0.8; stroke-linejoin: miter; stroke-linecap: square"/>
   </g>
   <g id="patch_4">
    <path d="M 437.691702 300.337648 
L 437.691702 23.137648 
" style="fill: none; stroke: #000000; stroke-width: 0.8; stroke-linejoin: miter; stroke-linecap: square"/>
   </g>
   <g id="patch_5">
    <path d="M 47.091702 300.337648 
L 437.691702 300.337648 
" style="fill: none; stroke: #000000; stroke-width: 0.8; stroke-linejoin: miter; stroke-linecap: square"/>
   </g>
   <g id="patch_6">
    <path d="M 47.091702 23.137648 
L 437.691702 23.137648 
" style="fill: none; stroke: #000000; stroke-width: 0.8; stroke-linejoin: miter; stroke-linecap: square"/>
   </g>
   <g id="text_21">
    <!-- $Velocities\ v_0\ of\ the\ leading\ car$ -->
    <g transform="translate(147.095491 17.137648) scale(0.14 -0.14)">
     <defs>
      <path id="CMMI12-56" d="M 3962 3644 
C 4179 3987 4378 4140 4704 4166 
C 4768 4172 4819 4172 4819 4287 
C 4819 4313 4806 4352 4749 4352 
C 4634 4352 4358 4339 4243 4339 
C 4058 4339 3866 4352 3686 4352 
C 3635 4352 3571 4352 3571 4230 
C 3571 4172 3629 4166 3654 4166 
C 3891 4146 3917 4032 3917 3956 
C 3917 3860 3827 3714 3821 3708 
L 1811 540 
L 1363 3968 
C 1363 4153 1696 4166 1766 4166 
C 1862 4166 1920 4166 1920 4287 
C 1920 4352 1850 4352 1830 4352 
C 1722 4352 1594 4339 1485 4339 
L 1126 4339 
C 659 4339 467 4352 461 4352 
C 422 4352 346 4352 346 4236 
C 346 4166 390 4166 493 4166 
C 819 4166 838 4108 858 3949 
L 1370 25 
C 1389 -109 1389 -128 1478 -128 
C 1555 -128 1587 -109 1651 -7 
L 3962 3644 
z
" transform="scale(0.015625)"/>
      <path id="CMMI12-6c" d="M 1626 4255 
C 1632 4281 1645 4319 1645 4351 
C 1645 4416 1581 4416 1568 4416 
C 1562 4416 1331 4396 1216 4383 
C 1107 4377 1011 4364 896 4358 
C 742 4345 698 4339 698 4223 
C 698 4159 762 4159 826 4159 
C 1152 4159 1152 4102 1152 4039 
C 1152 4013 1152 4001 1120 3886 
L 326 731 
C 307 661 294 610 294 509 
C 294 191 531 -64 858 -64 
C 1069 -64 1210 76 1312 273 
C 1421 483 1510 884 1510 909 
C 1510 941 1485 967 1446 967 
C 1389 967 1382 935 1357 839 
C 1242 401 1126 64 870 64 
C 678 64 678 267 678 356 
C 678 382 678 515 723 693 
L 1626 4255 
z
" transform="scale(0.015625)"/>
      <path id="CMMI12-6f" d="M 2918 1755 
C 2918 2362 2522 2816 1939 2816 
C 1094 2816 262 1896 262 996 
C 262 389 659 -64 1242 -64 
C 2093 -64 2918 855 2918 1755 
z
M 1248 64 
C 928 64 691 319 691 766 
C 691 1060 845 1711 1024 2030 
C 1312 2522 1670 2687 1933 2687 
C 2246 2687 2490 2432 2490 1985 
C 2490 1730 2355 1047 2112 657 
C 1850 230 1498 64 1248 64 
z
" transform="scale(0.015625)"/>
      <path id="CMMI12-63" d="M 2502 2432 
C 2381 2432 2323 2432 2234 2355 
C 2195 2323 2125 2227 2125 2124 
C 2125 1996 2221 1919 2342 1919 
C 2496 1919 2669 2047 2669 2303 
C 2669 2591 2374 2816 1933 2816 
C 1094 2816 256 1932 256 1011 
C 256 446 602 -64 1254 -64 
C 2125 -64 2675 622 2675 706 
C 2675 745 2637 777 2611 777 
C 2592 777 2586 771 2528 712 
C 2118 161 1510 64 1267 64 
C 826 64 685 453 685 777 
C 685 1004 794 1634 1024 2073 
C 1190 2374 1536 2687 1939 2687 
C 2022 2687 2374 2676 2502 2432 
z
" transform="scale(0.015625)"/>
      <path id="CMMI12-69" d="M 1811 913 
C 1811 945 1786 970 1747 970 
C 1690 970 1683 951 1651 842 
C 1485 261 1222 64 1011 64 
C 934 64 845 83 845 274 
C 845 447 922 638 992 830 
L 1440 2017 
C 1459 2068 1504 2183 1504 2305 
C 1504 2573 1312 2816 998 2816 
C 410 2816 173 1890 173 1838 
C 173 1813 198 1781 243 1781 
C 301 1781 307 1807 333 1896 
C 486 2432 730 2687 979 2687 
C 1037 2687 1146 2681 1146 2477 
C 1146 2311 1062 2100 1011 1960 
L 563 772 
C 525 670 486 568 486 453 
C 486 166 685 -64 992 -64 
C 1581 -64 1811 868 1811 913 
z
M 1760 4012 
C 1760 4108 1683 4224 1542 4224 
C 1395 4224 1229 4083 1229 3916 
C 1229 3756 1363 3705 1440 3705 
C 1613 3705 1760 3871 1760 4012 
z
" transform="scale(0.015625)"/>
      <path id="CMMI12-66" d="M 2854 2566 
C 2982 2566 3034 2566 3034 2687 
C 3034 2752 2982 2752 2867 2752 
L 2349 2752 
C 2470 3398 2560 3846 2611 4051 
C 2650 4204 2784 4351 2950 4351 
C 3085 4351 3219 4294 3283 4236 
C 3034 4211 2957 4025 2957 3916 
C 2957 3788 3053 3712 3174 3712 
C 3302 3712 3494 3820 3494 4064 
C 3494 4332 3226 4480 2944 4480 
C 2669 4480 2400 4275 2272 4025 
C 2157 3801 2093 3573 1946 2752 
L 1517 2752 
C 1395 2752 1331 2752 1331 2636 
C 1331 2566 1370 2566 1498 2566 
L 1907 2566 
C 1792 1977 1530 545 1382 -132 
C 1274 -685 1178 -1152 858 -1152 
C 838 -1152 653 -1152 538 -1031 
C 864 -1005 864 -724 864 -717 
C 864 -589 768 -512 646 -512 
C 518 -512 326 -621 326 -865 
C 326 -1140 608 -1280 858 -1280 
C 1510 -1280 1779 -113 1850 203 
C 1965 691 2278 2376 2310 2566 
L 2854 2566 
z
" transform="scale(0.015625)"/>
      <path id="CMMI12-6e" d="M 1318 1870 
C 1331 1909 1491 2228 1728 2432 
C 1894 2585 2112 2687 2362 2687 
C 2618 2687 2707 2496 2707 2241 
C 2707 1877 2445 1149 2317 804 
C 2259 651 2227 568 2227 453 
C 2227 166 2426 -64 2733 -64 
C 3328 -64 3552 874 3552 913 
C 3552 945 3526 970 3488 970 
C 3430 970 3424 951 3392 842 
C 3245 319 3002 64 2752 64 
C 2688 64 2586 70 2586 274 
C 2586 434 2656 625 2694 715 
C 2822 1066 3091 1781 3091 2145 
C 3091 2528 2867 2816 2381 2816 
C 1811 2816 1510 2413 1395 2253 
C 1376 2617 1114 2816 832 2816 
C 627 2816 486 2694 378 2477 
C 262 2247 173 1864 173 1838 
C 173 1813 198 1781 243 1781 
C 294 1781 301 1787 339 1934 
C 442 2324 557 2687 813 2687 
C 960 2687 1011 2585 1011 2394 
C 1011 2253 947 2004 902 1807 
L 723 1117 
C 698 996 627 708 595 593 
C 550 427 480 127 480 95 
C 480 6 550 -64 646 -64 
C 723 -64 813 -26 864 70 
C 877 102 934 325 966 453 
L 1107 1028 
L 1318 1870 
z
" transform="scale(0.015625)"/>
      <path id="CMMI12-67" d="M 2163 811 
C 2138 708 2125 683 2042 587 
C 1779 249 1510 128 1312 128 
C 1101 128 902 293 902 734 
C 902 1072 1094 1787 1235 2075 
C 1421 2432 1709 2687 1978 2687 
C 2400 2687 2483 2164 2483 2126 
L 2464 2036 
L 2163 811 
z
M 2560 2394 
C 2477 2579 2298 2816 1978 2816 
C 1280 2816 486 1941 486 989 
C 486 325 890 0 1299 0 
C 1638 0 1939 268 2054 396 
L 1914 -176 
C 1824 -520 1786 -677 1555 -896 
C 1293 -1152 1050 -1152 909 -1152 
C 717 -1152 557 -1140 397 -1090 
C 602 -1034 653 -858 653 -789 
C 653 -689 576 -589 435 -589 
C 282 -589 115 -714 115 -921 
C 115 -1178 378 -1280 922 -1280 
C 1747 -1280 2176 -758 2259 -420 
L 2970 2426 
C 2989 2502 2989 2515 2989 2528 
C 2989 2617 2918 2688 2822 2688 
C 2669 2688 2579 2560 2560 2388 
L 2560 2394 
z
" transform="scale(0.015625)"/>
      <path id="CMMI12-72" d="M 2490 2633 
C 2291 2598 2189 2457 2189 2316 
C 2189 2163 2310 2111 2400 2111 
C 2579 2111 2726 2265 2726 2457 
C 2726 2651 2528 2816 2208 2816 
C 1952 2816 1658 2700 1389 2335 
C 1344 2660 1088 2816 832 2816 
C 582 2816 454 2642 378 2508 
C 269 2278 173 1892 173 1860 
C 173 1834 198 1801 243 1801 
C 294 1801 301 1808 339 1957 
C 435 2342 557 2687 813 2687 
C 966 2687 1011 2604 1011 2419 
C 1011 2278 947 2028 902 1827 
L 723 1130 
C 698 1007 627 716 595 600 
C 550 432 480 128 480 96 
C 480 6 550 -64 646 -64 
C 717 -64 838 -20 877 109 
C 896 160 1133 1136 1171 1285 
C 1203 1427 1242 1562 1274 1705 
C 1299 1795 1325 1898 1344 1982 
C 1363 2040 1536 2355 1696 2495 
C 1773 2566 1939 2687 2202 2687 
C 2304 2687 2406 2674 2490 2633 
z
" transform="scale(0.015625)"/>
     </defs>
     <use xlink:href="#CMMI12-56" transform="scale(0.996264)"/>
     <use xlink:href="#CMMI12-65" transform="translate(78.547321 0) scale(0.996264)"/>
     <use xlink:href="#CMMI12-6c" transform="translate(123.759322 0) scale(0.996264)"/>
     <use xlink:href="#CMMI12-6f" transform="translate(155.007726 0) scale(0.996264)"/>
     <use xlink:href="#CMMI12-63" transform="translate(201.903035 0) scale(0.996264)"/>
     <use xlink:href="#CMMI12-69" transform="translate(243.886269 0) scale(0.996264)"/>
     <use xlink:href="#CMMI12-74" transform="translate(277.164871 0) scale(0.996264)"/>
     <use xlink:href="#CMMI12-69" transform="translate(312.391201 0) scale(0.996264)"/>
     <use xlink:href="#CMMI12-65" transform="translate(345.669803 0) scale(0.996264)"/>
     <use xlink:href="#CMMI12-73" transform="translate(390.881804 0) scale(0.996264)"/>
     <use xlink:href="#CMMI12-76" transform="translate(464.527021 0) scale(0.996264)"/>
     <use xlink:href="#CMR17-30" transform="translate(511.687602 -14.943915) scale(0.697382)"/>
     <use xlink:href="#CMMI12-6f" transform="translate(571.864085 0) scale(0.996264)"/>
     <use xlink:href="#CMMI12-66" transform="translate(618.759395 0) scale(0.996264)"/>
     <use xlink:href="#CMMI12-74" transform="translate(705.174869 0) scale(0.996264)"/>
     <use xlink:href="#CMMI12-68" transform="translate(740.401199 0) scale(0.996264)"/>
     <use xlink:href="#CMMI12-65" transform="translate(796.555823 0) scale(0.996264)"/>
     <use xlink:href="#CMMI12-6c" transform="translate(869.462994 0) scale(0.996264)"/>
     <use xlink:href="#CMMI12-65" transform="translate(900.711398 0) scale(0.996264)"/>
     <use xlink:href="#CMMI12-61" transform="translate(945.923399 0) scale(0.996264)"/>
     <use xlink:href="#CMMI12-64" transform="translate(997.131256 0) scale(0.996264)"/>
     <use xlink:href="#CMMI12-69" transform="translate(1047.820353 0) scale(0.996264)"/>
     <use xlink:href="#CMMI12-6e" transform="translate(1081.098955 0) scale(0.996264)"/>
     <use xlink:href="#CMMI12-67" transform="translate(1139.329002 0) scale(0.996264)"/>
     <use xlink:href="#CMMI12-63" transform="translate(1217.309662 0) scale(0.996264)"/>
     <use xlink:href="#CMMI12-61" transform="translate(1259.292895 0) scale(0.996264)"/>
     <use xlink:href="#CMMI12-72" transform="translate(1310.500753 0) scale(0.996264)"/>
    </g>
   </g>
   <g id="legend_1">
    <g id="patch_7">
     <path d="M 337.233009 102.239182 
L 430.691702 102.239182 
Q 432.691702 102.239182 432.691702 100.239182 
L 432.691702 30.137648 
Q 432.691702 28.137648 430.691702 28.137648 
L 337.233009 28.137648 
Q 335.233009 28.137648 335.233009 30.137648 
L 335.233009 100.239182 
Q 335.233009 102.239182 337.233009 102.239182 
z
" style="fill: #ffffff; opacity: 0.8; stroke: #cccccc; stroke-linejoin: miter"/>
    </g>
    <g id="line2d_42">
     <path d="M 339.233009 35.735969 
L 349.233009 35.735969 
L 359.233009 35.735969 
" style="fill: none; stroke: #000000; stroke-width: 1.5; stroke-linecap: square"/>
    </g>
    <g id="text_22">
     <!-- NN2 500 iter -->
     <g transform="translate(367.233009 39.235969) scale(0.1 -0.1)">
      <defs>
       <path id="NimbusSanL-Regu-4e" d="M 4134 4672 
L 3571 4672 
L 3571 852 
L 1133 4672 
L 486 4672 
L 486 0 
L 1050 0 
L 1050 3787 
L 3462 0 
L 4134 0 
L 4134 4672 
z
" transform="scale(0.015625)"/>
       <path id="NimbusSanL-Regu-32" d="M 3238 556 
L 851 556 
C 909 928 1114 1165 1670 1493 
L 2310 1839 
C 2944 2185 3270 2653 3270 3211 
C 3270 3589 3117 3942 2848 4185 
C 2579 4428 2246 4544 1818 4544 
C 1242 4544 813 4339 563 3955 
C 403 3711 333 3429 320 2967 
L 883 2967 
C 902 3275 941 3461 1018 3608 
C 1165 3884 1459 4051 1798 4051 
C 2310 4051 2694 3685 2694 3198 
C 2694 2839 2483 2531 2080 2300 
L 1491 1967 
C 544 1428 269 999 218 0 
L 3238 0 
L 3238 556 
z
" transform="scale(0.015625)"/>
       <path id="NimbusSanL-Regu-35" d="M 3046 4544 
L 704 4544 
L 365 2076 
L 883 2076 
C 1146 2387 1363 2496 1715 2496 
C 2323 2496 2707 2082 2707 1414 
C 2707 765 2330 371 1715 371 
C 1222 371 922 619 787 1128 
L 224 1128 
C 301 759 365 581 499 415 
C 755 70 1216 -128 1728 -128 
C 2643 -128 3283 536 3283 1490 
C 3283 2381 2688 2995 1818 2995 
C 1498 2995 1242 2912 979 2720 
L 1158 3987 
L 3046 3987 
L 3046 4544 
z
" transform="scale(0.015625)"/>
       <path id="NimbusSanL-Regu-30" d="M 1760 4544 
C 1338 4544 954 4358 717 4044 
C 422 3649 275 3043 275 2207 
C 275 683 787 -128 1760 -128 
C 2720 -128 3245 683 3245 2169 
C 3245 3049 3104 3636 2803 4044 
C 2566 4364 2189 4544 1760 4544 
z
M 1760 4044 
C 2368 4044 2669 3432 2669 2220 
C 2669 938 2374 339 1747 339 
C 1152 339 851 964 851 2201 
C 851 3438 1152 4044 1760 4044 
z
" transform="scale(0.015625)"/>
       <path id="NimbusSanL-Regu-69" d="M 960 3358 
L 429 3358 
L 429 0 
L 960 0 
L 960 3358 
z
M 960 4672 
L 422 4672 
L 422 3999 
L 960 3999 
L 960 4672 
z
" transform="scale(0.015625)"/>
       <path id="NimbusSanL-Regu-74" d="M 1626 3328 
L 1075 3328 
L 1075 4249 
L 544 4249 
L 544 3328 
L 90 3328 
L 90 2892 
L 544 2892 
L 544 402 
C 544 64 774 -128 1190 -128 
C 1318 -128 1446 -116 1626 -84 
L 1626 364 
C 1555 345 1472 339 1370 339 
C 1139 339 1075 402 1075 634 
L 1075 2892 
L 1626 2892 
L 1626 3328 
z
" transform="scale(0.015625)"/>
       <path id="NimbusSanL-Regu-65" d="M 3283 1484 
C 3283 1998 3245 2311 3149 2565 
C 2931 3123 2419 3456 1792 3456 
C 858 3456 256 2734 256 1619 
C 256 545 838 -128 1779 -128 
C 2547 -128 3078 307 3213 1018 
L 2675 1018 
C 2528 588 2227 364 1798 364 
C 1459 364 1171 514 992 787 
C 864 974 819 1161 813 1484 
L 3283 1484 
z
M 826 1920 
C 870 2552 1248 2963 1786 2963 
C 2310 2963 2714 2519 2714 1959 
C 2714 1946 2714 1933 2707 1920 
L 826 1920 
z
" transform="scale(0.015625)"/>
       <path id="NimbusSanL-Regu-72" d="M 442 3328 
L 442 0 
L 979 0 
L 979 1727 
C 979 2203 1101 2514 1357 2698 
C 1523 2819 1683 2857 2054 2863 
L 2054 3404 
C 1965 3449 1920 3456 1850 3456 
C 1504 3456 1242 3251 934 2750 
L 934 3328 
L 442 3328 
z
" transform="scale(0.015625)"/>
      </defs>
      <use xlink:href="#NimbusSanL-Regu-4e" transform="scale(0.996264)"/>
      <use xlink:href="#NimbusSanL-Regu-4e" transform="translate(71.929985 0) scale(0.996264)"/>
      <use xlink:href="#NimbusSanL-Regu-32" transform="translate(143.85997 0) scale(0.996264)"/>
      <use xlink:href="#NimbusSanL-Regu-35" transform="translate(226.946816 0) scale(0.996264)"/>
      <use xlink:href="#NimbusSanL-Regu-30" transform="translate(282.338493 0) scale(0.996264)"/>
      <use xlink:href="#NimbusSanL-Regu-30" transform="translate(337.73017 0) scale(0.996264)"/>
      <use xlink:href="#NimbusSanL-Regu-69" transform="translate(420.817017 0) scale(0.996264)"/>
      <use xlink:href="#NimbusSanL-Regu-74" transform="translate(442.933801 0) scale(0.996264)"/>
      <use xlink:href="#NimbusSanL-Regu-65" transform="translate(470.628971 0) scale(0.996264)"/>
      <use xlink:href="#NimbusSanL-Regu-72" transform="translate(526.020648 0) scale(0.996264)"/>
     </g>
    </g>
    <g id="line2d_43">
     <path d="M 339.233009 49.956275 
L 349.233009 49.956275 
L 359.233009 49.956275 
" style="fill: none; stroke: #4169e1; stroke-width: 1.5; stroke-linecap: square"/>
    </g>
    <g id="text_23">
     <!-- NN4 500 iter -->
     <g transform="translate(367.233009 53.456275) scale(0.1 -0.1)">
      <defs>
       <path id="NimbusSanL-Regu-34" d="M 2093 1088 
L 2093 0 
L 2656 0 
L 2656 1088 
L 3328 1088 
L 3328 1593 
L 2656 1593 
L 2656 4537 
L 2240 4537 
L 179 1683 
L 179 1088 
L 2093 1088 
z
M 2093 1593 
L 672 1593 
L 2093 3577 
L 2093 1593 
z
" transform="scale(0.015625)"/>
      </defs>
      <use xlink:href="#NimbusSanL-Regu-4e" transform="scale(0.996264)"/>
      <use xlink:href="#NimbusSanL-Regu-4e" transform="translate(71.929985 0) scale(0.996264)"/>
      <use xlink:href="#NimbusSanL-Regu-34" transform="translate(143.85997 0) scale(0.996264)"/>
      <use xlink:href="#NimbusSanL-Regu-35" transform="translate(226.946816 0) scale(0.996264)"/>
      <use xlink:href="#NimbusSanL-Regu-30" transform="translate(282.338493 0) scale(0.996264)"/>
      <use xlink:href="#NimbusSanL-Regu-30" transform="translate(337.73017 0) scale(0.996264)"/>
      <use xlink:href="#NimbusSanL-Regu-69" transform="translate(420.817017 0) scale(0.996264)"/>
      <use xlink:href="#NimbusSanL-Regu-74" transform="translate(442.933801 0) scale(0.996264)"/>
      <use xlink:href="#NimbusSanL-Regu-65" transform="translate(470.628971 0) scale(0.996264)"/>
      <use xlink:href="#NimbusSanL-Regu-72" transform="translate(526.020648 0) scale(0.996264)"/>
     </g>
    </g>
    <g id="line2d_44">
     <path d="M 339.233009 64.176582 
L 349.233009 64.176582 
L 359.233009 64.176582 
" style="fill: none; stroke: #ff7f50; stroke-width: 1.5; stroke-linecap: square"/>
    </g>
    <g id="text_24">
     <!-- NN10 500 iter -->
     <g transform="translate(367.233009 67.676582) scale(0.1 -0.1)">
      <defs>
       <path id="NimbusSanL-Regu-31" d="M 1658 3232 
L 1658 0 
L 2221 0 
L 2221 4537 
L 1850 4537 
C 1651 3840 1523 3744 653 3635 
L 653 3232 
L 1658 3232 
z
" transform="scale(0.015625)"/>
      </defs>
      <use xlink:href="#NimbusSanL-Regu-4e" transform="scale(0.996264)"/>
      <use xlink:href="#NimbusSanL-Regu-4e" transform="translate(71.929985 0) scale(0.996264)"/>
      <use xlink:href="#NimbusSanL-Regu-31" transform="translate(143.85997 0) scale(0.996264)"/>
      <use xlink:href="#NimbusSanL-Regu-30" transform="translate(199.251647 0) scale(0.996264)"/>
      <use xlink:href="#NimbusSanL-Regu-35" transform="translate(282.338493 0) scale(0.996264)"/>
      <use xlink:href="#NimbusSanL-Regu-30" transform="translate(337.73017 0) scale(0.996264)"/>
      <use xlink:href="#NimbusSanL-Regu-30" transform="translate(393.121847 0) scale(0.996264)"/>
      <use xlink:href="#NimbusSanL-Regu-69" transform="translate(476.208694 0) scale(0.996264)"/>
      <use xlink:href="#NimbusSanL-Regu-74" transform="translate(498.325478 0) scale(0.996264)"/>
      <use xlink:href="#NimbusSanL-Regu-65" transform="translate(526.020648 0) scale(0.996264)"/>
      <use xlink:href="#NimbusSanL-Regu-72" transform="translate(581.412325 0) scale(0.996264)"/>
     </g>
    </g>
    <g id="line2d_45">
     <path d="M 339.233009 78.396889 
L 349.233009 78.396889 
L 359.233009 78.396889 
" style="fill: none; stroke: #ffd700; stroke-width: 1.5; stroke-linecap: square"/>
    </g>
    <g id="text_25">
     <!-- Lin -->
     <g transform="translate(367.233009 81.896889) scale(0.1 -0.1)">
      <defs>
       <path id="NimbusSanL-Regu-4c" d="M 1107 4672 
L 512 4672 
L 512 0 
L 3411 0 
L 3411 524 
L 1107 524 
L 1107 4672 
z
" transform="scale(0.015625)"/>
       <path id="NimbusSanL-Regu-6e" d="M 448 3328 
L 448 0 
L 986 0 
L 986 1835 
C 986 2539 1344 2988 1894 2988 
C 2317 2988 2586 2732 2586 2328 
L 2586 0 
L 3117 0 
L 3117 2539 
C 3117 3097 2701 3456 2054 3456 
C 1555 3456 1235 3263 941 2796 
L 941 3328 
L 448 3328 
z
" transform="scale(0.015625)"/>
      </defs>
      <use xlink:href="#NimbusSanL-Regu-4c" transform="scale(0.996264)"/>
      <use xlink:href="#NimbusSanL-Regu-69" transform="translate(55.391677 0) scale(0.996264)"/>
      <use xlink:href="#NimbusSanL-Regu-6e" transform="translate(77.508461 0) scale(0.996264)"/>
     </g>
    </g>
    <g id="line2d_46">
     <path d="M 339.233009 92.617195 
L 349.233009 92.617195 
L 359.233009 92.617195 
" style="fill: none; stroke: #00ff00; stroke-width: 1.5; stroke-linecap: square"/>
    </g>
    <g id="text_26">
     <!-- Log -->
     <g transform="translate(367.233009 96.117195) scale(0.1 -0.1)">
      <defs>
       <path id="NimbusSanL-Regu-6f" d="M 1741 3456 
C 800 3456 230 2784 230 1663 
C 230 543 794 -128 1747 -128 
C 2688 -128 3264 543 3264 1638 
C 3264 2791 2707 3456 1741 3456 
z
M 1747 2963 
C 2349 2963 2707 2472 2707 1644 
C 2707 861 2336 364 1747 364 
C 1152 364 787 855 787 1663 
C 787 2466 1152 2963 1747 2963 
z
" transform="scale(0.015625)"/>
       <path id="NimbusSanL-Regu-67" d="M 2637 3359 
L 2637 2873 
C 2368 3270 2042 3456 1613 3456 
C 762 3456 186 2714 186 1632 
C 186 1084 333 638 608 320 
C 858 38 1216 -128 1568 -128 
C 1990 -128 2285 51 2586 473 
L 2586 300 
C 2586 -155 2528 -441 2394 -634 
C 2253 -841 1978 -960 1651 -960 
C 1408 -960 1190 -894 1043 -774 
C 922 -674 870 -581 838 -375 
L 294 -375 
C 352 -1031 845 -1408 1632 -1408 
C 2131 -1408 2560 -1248 2778 -980 
C 3034 -661 3130 -222 3130 568 
L 3130 3359 
L 2637 3359 
z
M 1670 2963 
C 2246 2963 2586 2479 2586 1644 
C 2586 848 2240 364 1677 364 
C 1094 364 742 855 742 1663 
C 742 2466 1101 2963 1670 2963 
z
" transform="scale(0.015625)"/>
      </defs>
      <use xlink:href="#NimbusSanL-Regu-4c" transform="scale(0.996264)"/>
      <use xlink:href="#NimbusSanL-Regu-6f" transform="translate(55.391677 0) scale(0.996264)"/>
      <use xlink:href="#NimbusSanL-Regu-67" transform="translate(110.783354 0) scale(0.996264)"/>
     </g>
    </g>
   </g>
  </g>
 </g>
 <defs>
  <clipPath id="p08a00a762c">
   <rect x="47.091702" y="23.137648" width="390.6" height="277.2"/>
  </clipPath>
 </defs>
</svg>
