<?xml version="1.0" encoding="utf-8" standalone="no"?>
<!DOCTYPE svg PUBLIC "-//W3C//DTD SVG 1.1//EN"
  "http://www.w3.org/Graphics/SVG/1.1/DTD/svg11.dtd">
<svg xmlns:xlink="http://www.w3.org/1999/xlink" width="444.891702pt" height="340.666381pt" viewBox="0 0 444.891702 340.666381" xmlns="http://www.w3.org/2000/svg" version="1.1">
 <metadata>
  <rdf:RDF xmlns:dc="http://purl.org/dc/elements/1.1/" xmlns:cc="http://creativecommons.org/ns#" xmlns:rdf="http://www.w3.org/1999/02/22-rdf-syntax-ns#">
   <cc:Work>
    <dc:type rdf:resource="http://purl.org/dc/dcmitype/StillImage"/>
    <dc:date>2023-09-12T22:17:04.783142</dc:date>
    <dc:format>image/svg+xml</dc:format>
    <dc:creator>
     <cc:Agent>
      <dc:title>Matplotlib v3.7.1, https://matplotlib.org/</dc:title>
     </cc:Agent>
    </dc:creator>
   </cc:Work>
  </rdf:RDF>
 </metadata>
 <defs>
  <style type="text/css">*{stroke-linejoin: round; stroke-linecap: butt}</style>
 </defs>
 <g id="figure_1">
  <g id="patch_1">
   <path d="M 0 340.666381 
L 444.891702 340.666381 
L 444.891702 0 
L 0 0 
z
" style="fill: #ffffff"/>
  </g>
  <g id="axes_1">
   <g id="patch_2">
    <path d="M 47.091702 300.337648 
L 437.691702 300.337648 
L 437.691702 23.137648 
L 47.091702 23.137648 
z
" style="fill: #ffffff"/>
   </g>
   <g id="PathCollection_1">
    <path d="M 57.370649 95.650605 
C 58.166259 95.650605 58.929389 95.334506 59.49197 94.771925 
C 60.05455 94.209345 60.370649 93.446214 60.370649 92.650605 
C 60.370649 91.854996 60.05455 91.091865 59.49197 90.529285 
C 58.929389 89.966704 58.166259 89.650605 57.370649 89.650605 
C 56.57504 89.650605 55.81191 89.966704 55.249329 90.529285 
C 54.686748 91.091865 54.370649 91.854996 54.370649 92.650605 
C 54.370649 93.446214 54.686748 94.209345 55.249329 94.771925 
C 55.81191 95.334506 56.57504 95.650605 57.370649 95.650605 
L 57.370649 95.650605 
z
" clip-path="url(#p033d692fd3)" style="fill: none; stroke: #000000"/>
   </g>
   <g id="PathCollection_2">
    <path d="M 98.486439 275.221382 
C 99.282048 275.221382 100.045178 274.905283 100.607759 274.342702 
C 101.17034 273.780122 101.486439 273.016991 101.486439 272.221382 
C 101.486439 271.425773 101.17034 270.662642 100.607759 270.100062 
C 100.045178 269.537481 99.282048 269.221382 98.486439 269.221382 
C 97.690829 269.221382 96.927699 269.537481 96.365118 270.100062 
C 95.802538 270.662642 95.486439 271.425773 95.486439 272.221382 
C 95.486439 273.016991 95.802538 273.780122 96.365118 274.342702 
C 96.927699 274.905283 97.690829 275.221382 98.486439 275.221382 
L 98.486439 275.221382 
z
" clip-path="url(#p033d692fd3)" style="fill: none; stroke: #000000"/>
   </g>
   <g id="PathCollection_3">
    <path d="M 139.602228 86.03118 
C 140.397838 86.03118 141.160968 85.715081 141.723549 85.1525 
C 142.286129 84.589919 142.602228 83.826789 142.602228 83.03118 
C 142.602228 82.23557 142.286129 81.47244 141.723549 80.909859 
C 141.160968 80.347278 140.397838 80.03118 139.602228 80.03118 
C 138.806619 80.03118 138.043489 80.347278 137.480908 80.909859 
C 136.918327 81.47244 136.602228 82.23557 136.602228 83.03118 
C 136.602228 83.826789 136.918327 84.589919 137.480908 85.1525 
C 138.043489 85.715081 138.806619 86.03118 139.602228 86.03118 
L 139.602228 86.03118 
z
" clip-path="url(#p033d692fd3)" style="fill: none; stroke: #000000"/>
   </g>
   <g id="PathCollection_4">
    <path d="M 180.718018 227.627062 
C 181.513627 227.627062 182.276757 227.310963 182.839338 226.748383 
C 183.401919 226.185802 183.718018 225.422672 183.718018 224.627062 
C 183.718018 223.831453 183.401919 223.068323 182.839338 222.505742 
C 182.276757 221.943161 181.513627 221.627062 180.718018 221.627062 
C 179.922408 221.627062 179.159278 221.943161 178.596697 222.505742 
C 178.034117 223.068323 177.718018 223.831453 177.718018 224.627062 
C 177.718018 225.422672 178.034117 226.185802 178.596697 226.748383 
C 179.159278 227.310963 179.922408 227.627062 180.718018 227.627062 
L 180.718018 227.627062 
z
" clip-path="url(#p033d692fd3)" style="fill: none; stroke: #000000"/>
   </g>
   <g id="PathCollection_5">
    <path d="M 221.833807 132.263939 
C 222.629416 132.263939 223.392547 131.94784 223.955128 131.38526 
C 224.517708 130.822679 224.833807 130.059549 224.833807 129.263939 
C 224.833807 128.46833 224.517708 127.7052 223.955128 127.142619 
C 223.392547 126.580038 222.629416 126.263939 221.833807 126.263939 
C 221.038198 126.263939 220.275068 126.580038 219.712487 127.142619 
C 219.149906 127.7052 218.833807 128.46833 218.833807 129.263939 
C 218.833807 130.059549 219.149906 130.822679 219.712487 131.38526 
C 220.275068 131.94784 221.038198 132.263939 221.833807 132.263939 
L 221.833807 132.263939 
z
" clip-path="url(#p033d692fd3)" style="fill: none; stroke: #000000"/>
   </g>
   <g id="PathCollection_6">
    <path d="M 262.949597 254.929424 
C 263.745206 254.929424 264.508336 254.613326 265.070917 254.050745 
C 265.633498 253.488164 265.949597 252.725034 265.949597 251.929424 
C 265.949597 251.133815 265.633498 250.370685 265.070917 249.808104 
C 264.508336 249.245523 263.745206 248.929424 262.949597 248.929424 
C 262.153987 248.929424 261.390857 249.245523 260.828276 249.808104 
C 260.265696 250.370685 259.949597 251.133815 259.949597 251.929424 
C 259.949597 252.725034 260.265696 253.488164 260.828276 254.050745 
C 261.390857 254.613326 262.153987 254.929424 262.949597 254.929424 
L 262.949597 254.929424 
z
" clip-path="url(#p033d692fd3)" style="fill: none; stroke: #000000"/>
   </g>
   <g id="PathCollection_7">
    <path d="M 304.065386 143.716929 
C 304.860995 143.716929 305.624126 143.40083 306.186706 142.83825 
C 306.749287 142.275669 307.065386 141.512539 307.065386 140.716929 
C 307.065386 139.92132 306.749287 139.15819 306.186706 138.595609 
C 305.624126 138.033028 304.860995 137.716929 304.065386 137.716929 
C 303.269777 137.716929 302.506646 138.033028 301.944066 138.595609 
C 301.381485 139.15819 301.065386 139.92132 301.065386 140.716929 
C 301.065386 141.512539 301.381485 142.275669 301.944066 142.83825 
C 302.506646 143.40083 303.269777 143.716929 304.065386 143.716929 
L 304.065386 143.716929 
z
" clip-path="url(#p033d692fd3)" style="fill: none; stroke: #000000"/>
   </g>
   <g id="PathCollection_8">
    <path d="M 345.181176 234.930766 
C 345.976785 234.930766 346.739915 234.614667 347.302496 234.052086 
C 347.865077 233.489506 348.181176 232.726375 348.181176 231.930766 
C 348.181176 231.135157 347.865077 230.372026 347.302496 229.809446 
C 346.739915 229.246865 345.976785 228.930766 345.181176 228.930766 
C 344.385566 228.930766 343.622436 229.246865 343.059855 229.809446 
C 342.497275 230.372026 342.181176 231.135157 342.181176 231.930766 
C 342.181176 232.726375 342.497275 233.489506 343.059855 234.052086 
C 343.622436 234.614667 344.385566 234.930766 345.181176 234.930766 
L 345.181176 234.930766 
z
" clip-path="url(#p033d692fd3)" style="fill: none; stroke: #000000"/>
   </g>
   <g id="PathCollection_9">
    <path d="M 386.296965 180.625411 
C 387.092574 180.625411 387.855705 180.309312 388.418285 179.746731 
C 388.980866 179.184151 389.296965 178.42102 389.296965 177.625411 
C 389.296965 176.829802 388.980866 176.066671 388.418285 175.504091 
C 387.855705 174.94151 387.092574 174.625411 386.296965 174.625411 
C 385.501356 174.625411 384.738225 174.94151 384.175645 175.504091 
C 383.613064 176.066671 383.296965 176.829802 383.296965 177.625411 
C 383.296965 178.42102 383.613064 179.184151 384.175645 179.746731 
C 384.738225 180.309312 385.501356 180.625411 386.296965 180.625411 
L 386.296965 180.625411 
z
" clip-path="url(#p033d692fd3)" style="fill: none; stroke: #000000"/>
   </g>
   <g id="PathCollection_10">
    <path d="M 427.412755 283.693073 
C 428.208364 283.693073 428.971494 283.376974 429.534075 282.814394 
C 430.096656 282.251813 430.412755 281.488683 430.412755 280.693073 
C 430.412755 279.897464 430.096656 279.134334 429.534075 278.571753 
C 428.971494 278.009172 428.208364 277.693073 427.412755 277.693073 
C 426.617145 277.693073 425.854015 278.009172 425.291434 278.571753 
C 424.728853 279.134334 424.412755 279.897464 424.412755 280.693073 
C 424.412755 281.488683 424.728853 282.251813 425.291434 282.814394 
C 425.854015 283.376974 426.617145 283.693073 427.412755 283.693073 
L 427.412755 283.693073 
z
" clip-path="url(#p033d692fd3)" style="fill: none; stroke: #000000"/>
   </g>
   <g id="PathCollection_11">
    <path d="M 57.370649 95.633396 
C 58.166259 95.633396 58.929389 95.317297 59.49197 94.754716 
C 60.05455 94.192136 60.370649 93.429005 60.370649 92.633396 
C 60.370649 91.837787 60.05455 91.074656 59.49197 90.512076 
C 58.929389 89.949495 58.166259 89.633396 57.370649 89.633396 
C 56.57504 89.633396 55.81191 89.949495 55.249329 90.512076 
C 54.686748 91.074656 54.370649 91.837787 54.370649 92.633396 
C 54.370649 93.429005 54.686748 94.192136 55.249329 94.754716 
C 55.81191 95.317297 56.57504 95.633396 57.370649 95.633396 
L 57.370649 95.633396 
z
" clip-path="url(#p033d692fd3)" style="fill: none; stroke: #4169e1"/>
   </g>
   <g id="PathCollection_12">
    <path d="M 98.486439 275.680818 
C 99.282048 275.680818 100.045178 275.364719 100.607759 274.802138 
C 101.17034 274.239558 101.486439 273.476427 101.486439 272.680818 
C 101.486439 271.885209 101.17034 271.122078 100.607759 270.559498 
C 100.045178 269.996917 99.282048 269.680818 98.486439 269.680818 
C 97.690829 269.680818 96.927699 269.996917 96.365118 270.559498 
C 95.802538 271.122078 95.486439 271.885209 95.486439 272.680818 
C 95.486439 273.476427 95.802538 274.239558 96.365118 274.802138 
C 96.927699 275.364719 97.690829 275.680818 98.486439 275.680818 
L 98.486439 275.680818 
z
" clip-path="url(#p033d692fd3)" style="fill: none; stroke: #4169e1"/>
   </g>
   <g id="PathCollection_13">
    <path d="M 139.602228 86.082875 
C 140.397838 86.082875 141.160968 85.766776 141.723549 85.204195 
C 142.286129 84.641614 142.602228 83.878484 142.602228 83.082875 
C 142.602228 82.287265 142.286129 81.524135 141.723549 80.961554 
C 141.160968 80.398974 140.397838 80.082875 139.602228 80.082875 
C 138.806619 80.082875 138.043489 80.398974 137.480908 80.961554 
C 136.918327 81.524135 136.602228 82.287265 136.602228 83.082875 
C 136.602228 83.878484 136.918327 84.641614 137.480908 85.204195 
C 138.043489 85.766776 138.806619 86.082875 139.602228 86.082875 
L 139.602228 86.082875 
z
" clip-path="url(#p033d692fd3)" style="fill: none; stroke: #4169e1"/>
   </g>
   <g id="PathCollection_14">
    <path d="M 180.718018 228.013267 
C 181.513627 228.013267 182.276757 227.697168 182.839338 227.134588 
C 183.401919 226.572007 183.718018 225.808877 183.718018 225.013267 
C 183.718018 224.217658 183.401919 223.454528 182.839338 222.891947 
C 182.276757 222.329366 181.513627 222.013267 180.718018 222.013267 
C 179.922408 222.013267 179.159278 222.329366 178.596697 222.891947 
C 178.034117 223.454528 177.718018 224.217658 177.718018 225.013267 
C 177.718018 225.808877 178.034117 226.572007 178.596697 227.134588 
C 179.159278 227.697168 179.922408 228.013267 180.718018 228.013267 
L 180.718018 228.013267 
z
" clip-path="url(#p033d692fd3)" style="fill: none; stroke: #4169e1"/>
   </g>
   <g id="PathCollection_15">
    <path d="M 221.833807 132.577113 
C 222.629416 132.577113 223.392547 132.261014 223.955128 131.698433 
C 224.517708 131.135852 224.833807 130.372722 224.833807 129.577113 
C 224.833807 128.781504 224.517708 128.018373 223.955128 127.455793 
C 223.392547 126.893212 222.629416 126.577113 221.833807 126.577113 
C 221.038198 126.577113 220.275068 126.893212 219.712487 127.455793 
C 219.149906 128.018373 218.833807 128.781504 218.833807 129.577113 
C 218.833807 130.372722 219.149906 131.135852 219.712487 131.698433 
C 220.275068 132.261014 221.038198 132.577113 221.833807 132.577113 
L 221.833807 132.577113 
z
" clip-path="url(#p033d692fd3)" style="fill: none; stroke: #4169e1"/>
   </g>
   <g id="PathCollection_16">
    <path d="M 262.949597 255.054247 
C 263.745206 255.054247 264.508336 254.738148 265.070917 254.175568 
C 265.633498 253.612987 265.949597 252.849857 265.949597 252.054247 
C 265.949597 251.258638 265.633498 250.495508 265.070917 249.932927 
C 264.508336 249.370346 263.745206 249.054247 262.949597 249.054247 
C 262.153987 249.054247 261.390857 249.370346 260.828276 249.932927 
C 260.265696 250.495508 259.949597 251.258638 259.949597 252.054247 
C 259.949597 252.849857 260.265696 253.612987 260.828276 254.175568 
C 261.390857 254.738148 262.153987 255.054247 262.949597 255.054247 
L 262.949597 255.054247 
z
" clip-path="url(#p033d692fd3)" style="fill: none; stroke: #4169e1"/>
   </g>
   <g id="PathCollection_17">
    <path d="M 304.065386 144.213406 
C 304.860995 144.213406 305.624126 143.897307 306.186706 143.334726 
C 306.749287 142.772145 307.065386 142.009015 307.065386 141.213406 
C 307.065386 140.417796 306.749287 139.654666 306.186706 139.092085 
C 305.624126 138.529504 304.860995 138.213406 304.065386 138.213406 
C 303.269777 138.213406 302.506646 138.529504 301.944066 139.092085 
C 301.381485 139.654666 301.065386 140.417796 301.065386 141.213406 
C 301.065386 142.009015 301.381485 142.772145 301.944066 143.334726 
C 302.506646 143.897307 303.269777 144.213406 304.065386 144.213406 
L 304.065386 144.213406 
z
" clip-path="url(#p033d692fd3)" style="fill: none; stroke: #4169e1"/>
   </g>
   <g id="PathCollection_18">
    <path d="M 345.181176 235.091384 
C 345.976785 235.091384 346.739915 234.775285 347.302496 234.212704 
C 347.865077 233.650124 348.181176 232.886993 348.181176 232.091384 
C 348.181176 231.295775 347.865077 230.532645 347.302496 229.970064 
C 346.739915 229.407483 345.976785 229.091384 345.181176 229.091384 
C 344.385566 229.091384 343.622436 229.407483 343.059855 229.970064 
C 342.497275 230.532645 342.181176 231.295775 342.181176 232.091384 
C 342.181176 232.886993 342.497275 233.650124 343.059855 234.212704 
C 343.622436 234.775285 344.385566 235.091384 345.181176 235.091384 
L 345.181176 235.091384 
z
" clip-path="url(#p033d692fd3)" style="fill: none; stroke: #4169e1"/>
   </g>
   <g id="PathCollection_19">
    <path d="M 386.296965 180.897707 
C 387.092574 180.897707 387.855705 180.581608 388.418285 180.019027 
C 388.980866 179.456446 389.296965 178.693316 389.296965 177.897707 
C 389.296965 177.102097 388.980866 176.338967 388.418285 175.776386 
C 387.855705 175.213805 387.092574 174.897707 386.296965 174.897707 
C 385.501356 174.897707 384.738225 175.213805 384.175645 175.776386 
C 383.613064 176.338967 383.296965 177.102097 383.296965 177.897707 
C 383.296965 178.693316 383.613064 179.456446 384.175645 180.019027 
C 384.738225 180.581608 385.501356 180.897707 386.296965 180.897707 
L 386.296965 180.897707 
z
" clip-path="url(#p033d692fd3)" style="fill: none; stroke: #4169e1"/>
   </g>
   <g id="PathCollection_20">
    <path d="M 427.412755 282.102506 
C 428.208364 282.102506 428.971494 281.786407 429.534075 281.223826 
C 430.096656 280.661245 430.412755 279.898115 430.412755 279.102506 
C 430.412755 278.306897 430.096656 277.543766 429.534075 276.981186 
C 428.971494 276.418605 428.208364 276.102506 427.412755 276.102506 
C 426.617145 276.102506 425.854015 276.418605 425.291434 276.981186 
C 424.728853 277.543766 424.412755 278.306897 424.412755 279.102506 
C 424.412755 279.898115 424.728853 280.661245 425.291434 281.223826 
C 425.854015 281.786407 426.617145 282.102506 427.412755 282.102506 
L 427.412755 282.102506 
z
" clip-path="url(#p033d692fd3)" style="fill: none; stroke: #4169e1"/>
   </g>
   <g id="PathCollection_21">
    <path d="M 57.370649 95.676196 
C 58.166259 95.676196 58.929389 95.360097 59.49197 94.797517 
C 60.05455 94.234936 60.370649 93.471806 60.370649 92.676196 
C 60.370649 91.880587 60.05455 91.117457 59.49197 90.554876 
C 58.929389 89.992295 58.166259 89.676196 57.370649 89.676196 
C 56.57504 89.676196 55.81191 89.992295 55.249329 90.554876 
C 54.686748 91.117457 54.370649 91.880587 54.370649 92.676196 
C 54.370649 93.471806 54.686748 94.234936 55.249329 94.797517 
C 55.81191 95.360097 56.57504 95.676196 57.370649 95.676196 
L 57.370649 95.676196 
z
" clip-path="url(#p033d692fd3)" style="fill: none; stroke: #ff7f50"/>
   </g>
   <g id="PathCollection_22">
    <path d="M 98.486439 275.523869 
C 99.282048 275.523869 100.045178 275.20777 100.607759 274.645189 
C 101.17034 274.082608 101.486439 273.319478 101.486439 272.523869 
C 101.486439 271.728259 101.17034 270.965129 100.607759 270.402548 
C 100.045178 269.839967 99.282048 269.523869 98.486439 269.523869 
C 97.690829 269.523869 96.927699 269.839967 96.365118 270.402548 
C 95.802538 270.965129 95.486439 271.728259 95.486439 272.523869 
C 95.486439 273.319478 95.802538 274.082608 96.365118 274.645189 
C 96.927699 275.20777 97.690829 275.523869 98.486439 275.523869 
L 98.486439 275.523869 
z
" clip-path="url(#p033d692fd3)" style="fill: none; stroke: #ff7f50"/>
   </g>
   <g id="PathCollection_23">
    <path d="M 139.602228 86.054833 
C 140.397838 86.054833 141.160968 85.738735 141.723549 85.176154 
C 142.286129 84.613573 142.602228 83.850443 142.602228 83.054833 
C 142.602228 82.259224 142.286129 81.496094 141.723549 80.933513 
C 141.160968 80.370932 140.397838 80.054833 139.602228 80.054833 
C 138.806619 80.054833 138.043489 80.370932 137.480908 80.933513 
C 136.918327 81.496094 136.602228 82.259224 136.602228 83.054833 
C 136.602228 83.850443 136.918327 84.613573 137.480908 85.176154 
C 138.043489 85.738735 138.806619 86.054833 139.602228 86.054833 
L 139.602228 86.054833 
z
" clip-path="url(#p033d692fd3)" style="fill: none; stroke: #ff7f50"/>
   </g>
   <g id="PathCollection_24">
    <path d="M 180.718018 227.878092 
C 181.513627 227.878092 182.276757 227.561993 182.839338 226.999413 
C 183.401919 226.436832 183.718018 225.673701 183.718018 224.878092 
C 183.718018 224.082483 183.401919 223.319353 182.839338 222.756772 
C 182.276757 222.194191 181.513627 221.878092 180.718018 221.878092 
C 179.922408 221.878092 179.159278 222.194191 178.596697 222.756772 
C 178.034117 223.319353 177.718018 224.082483 177.718018 224.878092 
C 177.718018 225.673701 178.034117 226.436832 178.596697 226.999413 
C 179.159278 227.561993 179.922408 227.878092 180.718018 227.878092 
L 180.718018 227.878092 
z
" clip-path="url(#p033d692fd3)" style="fill: none; stroke: #ff7f50"/>
   </g>
   <g id="PathCollection_25">
    <path d="M 221.833807 132.398539 
C 222.629416 132.398539 223.392547 132.08244 223.955128 131.51986 
C 224.517708 130.957279 224.833807 130.194149 224.833807 129.398539 
C 224.833807 128.60293 224.517708 127.8398 223.955128 127.277219 
C 223.392547 126.714638 222.629416 126.398539 221.833807 126.398539 
C 221.038198 126.398539 220.275068 126.714638 219.712487 127.277219 
C 219.149906 127.8398 218.833807 128.60293 218.833807 129.398539 
C 218.833807 130.194149 219.149906 130.957279 219.712487 131.51986 
C 220.275068 132.08244 221.038198 132.398539 221.833807 132.398539 
L 221.833807 132.398539 
z
" clip-path="url(#p033d692fd3)" style="fill: none; stroke: #ff7f50"/>
   </g>
   <g id="PathCollection_26">
    <path d="M 262.949597 255.382735 
C 263.745206 255.382735 264.508336 255.066636 265.070917 254.504055 
C 265.633498 253.941475 265.949597 253.178344 265.949597 252.382735 
C 265.949597 251.587126 265.633498 250.823996 265.070917 250.261415 
C 264.508336 249.698834 263.745206 249.382735 262.949597 249.382735 
C 262.153987 249.382735 261.390857 249.698834 260.828276 250.261415 
C 260.265696 250.823996 259.949597 251.587126 259.949597 252.382735 
C 259.949597 253.178344 260.265696 253.941475 260.828276 254.504055 
C 261.390857 255.066636 262.153987 255.382735 262.949597 255.382735 
L 262.949597 255.382735 
z
" clip-path="url(#p033d692fd3)" style="fill: none; stroke: #ff7f50"/>
   </g>
   <g id="PathCollection_27">
    <path d="M 304.065386 144.285771 
C 304.860995 144.285771 305.624126 143.969672 306.186706 143.407092 
C 306.749287 142.844511 307.065386 142.081381 307.065386 141.285771 
C 307.065386 140.490162 306.749287 139.727032 306.186706 139.164451 
C 305.624126 138.60187 304.860995 138.285771 304.065386 138.285771 
C 303.269777 138.285771 302.506646 138.60187 301.944066 139.164451 
C 301.381485 139.727032 301.065386 140.490162 301.065386 141.285771 
C 301.065386 142.081381 301.381485 142.844511 301.944066 143.407092 
C 302.506646 143.969672 303.269777 144.285771 304.065386 144.285771 
L 304.065386 144.285771 
z
" clip-path="url(#p033d692fd3)" style="fill: none; stroke: #ff7f50"/>
   </g>
   <g id="PathCollection_28">
    <path d="M 345.181176 235.36075 
C 345.976785 235.36075 346.739915 235.044651 347.302496 234.48207 
C 347.865077 233.919489 348.181176 233.156359 348.181176 232.36075 
C 348.181176 231.565141 347.865077 230.80201 347.302496 230.23943 
C 346.739915 229.676849 345.976785 229.36075 345.181176 229.36075 
C 344.385566 229.36075 343.622436 229.676849 343.059855 230.23943 
C 342.497275 230.80201 342.181176 231.565141 342.181176 232.36075 
C 342.181176 233.156359 342.497275 233.919489 343.059855 234.48207 
C 343.622436 235.044651 344.385566 235.36075 345.181176 235.36075 
L 345.181176 235.36075 
z
" clip-path="url(#p033d692fd3)" style="fill: none; stroke: #ff7f50"/>
   </g>
   <g id="PathCollection_29">
    <path d="M 386.296965 180.933418 
C 387.092574 180.933418 387.855705 180.617319 388.418285 180.054738 
C 388.980866 179.492157 389.296965 178.729027 389.296965 177.933418 
C 389.296965 177.137808 388.980866 176.374678 388.418285 175.812097 
C 387.855705 175.249517 387.092574 174.933418 386.296965 174.933418 
C 385.501356 174.933418 384.738225 175.249517 384.175645 175.812097 
C 383.613064 176.374678 383.296965 177.137808 383.296965 177.933418 
C 383.296965 178.729027 383.613064 179.492157 384.175645 180.054738 
C 384.738225 180.617319 385.501356 180.933418 386.296965 180.933418 
L 386.296965 180.933418 
z
" clip-path="url(#p033d692fd3)" style="fill: none; stroke: #ff7f50"/>
   </g>
   <g id="PathCollection_30">
    <path d="M 427.412755 283.656609 
C 428.208364 283.656609 428.971494 283.34051 429.534075 282.777929 
C 430.096656 282.215349 430.412755 281.452218 430.412755 280.656609 
C 430.412755 279.861 430.096656 279.097869 429.534075 278.535289 
C 428.971494 277.972708 428.208364 277.656609 427.412755 277.656609 
C 426.617145 277.656609 425.854015 277.972708 425.291434 278.535289 
C 424.728853 279.097869 424.412755 279.861 424.412755 280.656609 
C 424.412755 281.452218 424.728853 282.215349 425.291434 282.777929 
C 425.854015 283.34051 426.617145 283.656609 427.412755 283.656609 
L 427.412755 283.656609 
z
" clip-path="url(#p033d692fd3)" style="fill: none; stroke: #ff7f50"/>
   </g>
   <g id="PathCollection_31">
    <path d="M 57.370649 47.102537 
C 58.166259 47.102537 58.929389 46.786438 59.49197 46.223857 
C 60.05455 45.661277 60.370649 44.898146 60.370649 44.102537 
C 60.370649 43.306928 60.05455 42.543797 59.49197 41.981217 
C 58.929389 41.418636 58.166259 41.102537 57.370649 41.102537 
C 56.57504 41.102537 55.81191 41.418636 55.249329 41.981217 
C 54.686748 42.543797 54.370649 43.306928 54.370649 44.102537 
C 54.370649 44.898146 54.686748 45.661277 55.249329 46.223857 
C 55.81191 46.786438 56.57504 47.102537 57.370649 47.102537 
L 57.370649 47.102537 
z
" clip-path="url(#p033d692fd3)" style="fill: none; stroke: #ffd700"/>
   </g>
   <g id="PathCollection_32">
    <path d="M 98.486439 237.432625 
C 99.282048 237.432625 100.045178 237.116526 100.607759 236.553945 
C 101.17034 235.991365 101.486439 235.228234 101.486439 234.432625 
C 101.486439 233.637016 101.17034 232.873886 100.607759 232.311305 
C 100.045178 231.748724 99.282048 231.432625 98.486439 231.432625 
C 97.690829 231.432625 96.927699 231.748724 96.365118 232.311305 
C 95.802538 232.873886 95.486439 233.637016 95.486439 234.432625 
C 95.486439 235.228234 95.802538 235.991365 96.365118 236.553945 
C 96.927699 237.116526 97.690829 237.432625 98.486439 237.432625 
L 98.486439 237.432625 
z
" clip-path="url(#p033d692fd3)" style="fill: none; stroke: #ffd700"/>
   </g>
   <g id="PathCollection_33">
    <path d="M 139.602228 38.737648 
C 140.397838 38.737648 141.160968 38.421549 141.723549 37.858969 
C 142.286129 37.296388 142.602228 36.533258 142.602228 35.737648 
C 142.602228 34.942039 142.286129 34.178909 141.723549 33.616328 
C 141.160968 33.053747 140.397838 32.737648 139.602228 32.737648 
C 138.806619 32.737648 138.043489 33.053747 137.480908 33.616328 
C 136.918327 34.178909 136.602228 34.942039 136.602228 35.737648 
C 136.602228 36.533258 136.918327 37.296388 137.480908 37.858969 
C 138.043489 38.421549 138.806619 38.737648 139.602228 38.737648 
L 139.602228 38.737648 
z
" clip-path="url(#p033d692fd3)" style="fill: none; stroke: #ffd700"/>
   </g>
   <g id="PathCollection_34">
    <path d="M 180.718018 198.482146 
C 181.513627 198.482146 182.276757 198.166047 182.839338 197.603466 
C 183.401919 197.040885 183.718018 196.277755 183.718018 195.482146 
C 183.718018 194.686536 183.401919 193.923406 182.839338 193.360825 
C 182.276757 192.798245 181.513627 192.482146 180.718018 192.482146 
C 179.922408 192.482146 179.159278 192.798245 178.596697 193.360825 
C 178.034117 193.923406 177.718018 194.686536 177.718018 195.482146 
C 177.718018 196.277755 178.034117 197.040885 178.596697 197.603466 
C 179.159278 198.166047 179.922408 198.482146 180.718018 198.482146 
L 180.718018 198.482146 
z
" clip-path="url(#p033d692fd3)" style="fill: none; stroke: #ffd700"/>
   </g>
   <g id="PathCollection_35">
    <path d="M 221.833807 89.700869 
C 222.629416 89.700869 223.392547 89.38477 223.955128 88.822189 
C 224.517708 88.259609 224.833807 87.496478 224.833807 86.700869 
C 224.833807 85.90526 224.517708 85.142129 223.955128 84.579549 
C 223.392547 84.016968 222.629416 83.700869 221.833807 83.700869 
C 221.038198 83.700869 220.275068 84.016968 219.712487 84.579549 
C 219.149906 85.142129 218.833807 85.90526 218.833807 86.700869 
C 218.833807 87.496478 219.149906 88.259609 219.712487 88.822189 
C 220.275068 89.38477 221.038198 89.700869 221.833807 89.700869 
L 221.833807 89.700869 
z
" clip-path="url(#p033d692fd3)" style="fill: none; stroke: #ffd700"/>
   </g>
   <g id="PathCollection_36">
    <path d="M 262.949597 219.323945 
C 263.745206 219.323945 264.508336 219.007846 265.070917 218.445265 
C 265.633498 217.882684 265.949597 217.119554 265.949597 216.323945 
C 265.949597 215.528336 265.633498 214.765205 265.070917 214.202624 
C 264.508336 213.640044 263.745206 213.323945 262.949597 213.323945 
C 262.153987 213.323945 261.390857 213.640044 260.828276 214.202624 
C 260.265696 214.765205 259.949597 215.528336 259.949597 216.323945 
C 259.949597 217.119554 260.265696 217.882684 260.828276 218.445265 
C 261.390857 219.007846 262.153987 219.323945 262.949597 219.323945 
L 262.949597 219.323945 
z
" clip-path="url(#p033d692fd3)" style="fill: none; stroke: #ffd700"/>
   </g>
   <g id="PathCollection_37">
    <path d="M 304.065386 95.284313 
C 304.860995 95.284313 305.624126 94.968214 306.186706 94.405633 
C 306.749287 93.843053 307.065386 93.079922 307.065386 92.284313 
C 307.065386 91.488704 306.749287 90.725573 306.186706 90.162993 
C 305.624126 89.600412 304.860995 89.284313 304.065386 89.284313 
C 303.269777 89.284313 302.506646 89.600412 301.944066 90.162993 
C 301.381485 90.725573 301.065386 91.488704 301.065386 92.284313 
C 301.065386 93.079922 301.381485 93.843053 301.944066 94.405633 
C 302.506646 94.968214 303.269777 95.284313 304.065386 95.284313 
L 304.065386 95.284313 
z
" clip-path="url(#p033d692fd3)" style="fill: none; stroke: #ffd700"/>
   </g>
   <g id="PathCollection_38">
    <path d="M 345.181176 213.852593 
C 345.976785 213.852593 346.739915 213.536494 347.302496 212.973913 
C 347.865077 212.411332 348.181176 211.648202 348.181176 210.852593 
C 348.181176 210.056983 347.865077 209.293853 347.302496 208.731272 
C 346.739915 208.168692 345.976785 207.852593 345.181176 207.852593 
C 344.385566 207.852593 343.622436 208.168692 343.059855 208.731272 
C 342.497275 209.293853 342.181176 210.056983 342.181176 210.852593 
C 342.181176 211.648202 342.497275 212.411332 343.059855 212.973913 
C 343.622436 213.536494 344.385566 213.852593 345.181176 213.852593 
L 345.181176 213.852593 
z
" clip-path="url(#p033d692fd3)" style="fill: none; stroke: #ffd700"/>
   </g>
   <g id="PathCollection_39">
    <path d="M 386.296965 160.011384 
C 387.092574 160.011384 387.855705 159.695285 388.418285 159.132704 
C 388.980866 158.570124 389.296965 157.806993 389.296965 157.011384 
C 389.296965 156.215775 388.980866 155.452644 388.418285 154.890064 
C 387.855705 154.327483 387.092574 154.011384 386.296965 154.011384 
C 385.501356 154.011384 384.738225 154.327483 384.175645 154.890064 
C 383.613064 155.452644 383.296965 156.215775 383.296965 157.011384 
C 383.296965 157.806993 383.613064 158.570124 384.175645 159.132704 
C 384.738225 159.695285 385.501356 160.011384 386.296965 160.011384 
L 386.296965 160.011384 
z
" clip-path="url(#p033d692fd3)" style="fill: none; stroke: #ffd700"/>
   </g>
   <g id="PathCollection_40">
    <path d="M 427.412755 252.708573 
C 428.208364 252.708573 428.971494 252.392474 429.534075 251.829894 
C 430.096656 251.267313 430.412755 250.504182 430.412755 249.708573 
C 430.412755 248.912964 430.096656 248.149834 429.534075 247.587253 
C 428.971494 247.024672 428.208364 246.708573 427.412755 246.708573 
C 426.617145 246.708573 425.854015 247.024672 425.291434 247.587253 
C 424.728853 248.149834 424.412755 248.912964 424.412755 249.708573 
C 424.412755 250.504182 424.728853 251.267313 425.291434 251.829894 
C 425.854015 252.392474 426.617145 252.708573 427.412755 252.708573 
L 427.412755 252.708573 
z
" clip-path="url(#p033d692fd3)" style="fill: none; stroke: #ffd700"/>
   </g>
   <g id="PathCollection_41">
    <path d="M 57.370649 119.326999 
C 58.166259 119.326999 58.929389 119.010901 59.49197 118.44832 
C 60.05455 117.885739 60.370649 117.122609 60.370649 116.326999 
C 60.370649 115.53139 60.05455 114.76826 59.49197 114.205679 
C 58.929389 113.643098 58.166259 113.326999 57.370649 113.326999 
C 56.57504 113.326999 55.81191 113.643098 55.249329 114.205679 
C 54.686748 114.76826 54.370649 115.53139 54.370649 116.326999 
C 54.370649 117.122609 54.686748 117.885739 55.249329 118.44832 
C 55.81191 119.010901 56.57504 119.326999 57.370649 119.326999 
L 57.370649 119.326999 
z
" clip-path="url(#p033d692fd3)" style="fill: none; stroke: #00ff00"/>
   </g>
   <g id="PathCollection_42">
    <path d="M 98.486439 285.166538 
C 99.282048 285.166538 100.045178 284.850439 100.607759 284.287858 
C 101.17034 283.725278 101.486439 282.962147 101.486439 282.166538 
C 101.486439 281.370929 101.17034 280.607798 100.607759 280.045218 
C 100.045178 279.482637 99.282048 279.166538 98.486439 279.166538 
C 97.690829 279.166538 96.927699 279.482637 96.365118 280.045218 
C 95.802538 280.607798 95.486439 281.370929 95.486439 282.166538 
C 95.486439 282.962147 95.802538 283.725278 96.365118 284.287858 
C 96.927699 284.850439 97.690829 285.166538 98.486439 285.166538 
L 98.486439 285.166538 
z
" clip-path="url(#p033d692fd3)" style="fill: none; stroke: #00ff00"/>
   </g>
   <g id="PathCollection_43">
    <path d="M 139.602228 123.252564 
C 140.397838 123.252564 141.160968 122.936465 141.723549 122.373885 
C 142.286129 121.811304 142.602228 121.048173 142.602228 120.252564 
C 142.602228 119.456955 142.286129 118.693825 141.723549 118.131244 
C 141.160968 117.568663 140.397838 117.252564 139.602228 117.252564 
C 138.806619 117.252564 138.043489 117.568663 137.480908 118.131244 
C 136.918327 118.693825 136.602228 119.456955 136.602228 120.252564 
C 136.602228 121.048173 136.918327 121.811304 137.480908 122.373885 
C 138.043489 122.936465 138.806619 123.252564 139.602228 123.252564 
L 139.602228 123.252564 
z
" clip-path="url(#p033d692fd3)" style="fill: none; stroke: #00ff00"/>
   </g>
   <g id="PathCollection_44">
    <path d="M 180.718018 255.658693 
C 181.513627 255.658693 182.276757 255.342595 182.839338 254.780014 
C 183.401919 254.217433 183.718018 253.454303 183.718018 252.658693 
C 183.718018 251.863084 183.401919 251.099954 182.839338 250.537373 
C 182.276757 249.974792 181.513627 249.658693 180.718018 249.658693 
C 179.922408 249.658693 179.159278 249.974792 178.596697 250.537373 
C 178.034117 251.099954 177.718018 251.863084 177.718018 252.658693 
C 177.718018 253.454303 178.034117 254.217433 178.596697 254.780014 
C 179.159278 255.342595 179.922408 255.658693 180.718018 255.658693 
L 180.718018 255.658693 
z
" clip-path="url(#p033d692fd3)" style="fill: none; stroke: #00ff00"/>
   </g>
   <g id="PathCollection_45">
    <path d="M 221.833807 129.613898 
C 222.629416 129.613898 223.392547 129.297799 223.955128 128.735218 
C 224.517708 128.172638 224.833807 127.409507 224.833807 126.613898 
C 224.833807 125.818289 224.517708 125.055158 223.955128 124.492578 
C 223.392547 123.929997 222.629416 123.613898 221.833807 123.613898 
C 221.038198 123.613898 220.275068 123.929997 219.712487 124.492578 
C 219.149906 125.055158 218.833807 125.818289 218.833807 126.613898 
C 218.833807 127.409507 219.149906 128.172638 219.712487 128.735218 
C 220.275068 129.297799 221.038198 129.613898 221.833807 129.613898 
L 221.833807 129.613898 
z
" clip-path="url(#p033d692fd3)" style="fill: none; stroke: #00ff00"/>
   </g>
   <g id="PathCollection_46">
    <path d="M 262.949597 260.373859 
C 263.745206 260.373859 264.508336 260.05776 265.070917 259.49518 
C 265.633498 258.932599 265.949597 258.169469 265.949597 257.373859 
C 265.949597 256.57825 265.633498 255.81512 265.070917 255.252539 
C 264.508336 254.689958 263.745206 254.373859 262.949597 254.373859 
C 262.153987 254.373859 261.390857 254.689958 260.828276 255.252539 
C 260.265696 255.81512 259.949597 256.57825 259.949597 257.373859 
C 259.949597 258.169469 260.265696 258.932599 260.828276 259.49518 
C 261.390857 260.05776 262.153987 260.373859 262.949597 260.373859 
L 262.949597 260.373859 
z
" clip-path="url(#p033d692fd3)" style="fill: none; stroke: #00ff00"/>
   </g>
   <g id="PathCollection_47">
    <path d="M 304.065386 150.897166 
C 304.860995 150.897166 305.624126 150.581067 306.186706 150.018486 
C 306.749287 149.455905 307.065386 148.692775 307.065386 147.897166 
C 307.065386 147.101556 306.749287 146.338426 306.186706 145.775845 
C 305.624126 145.213264 304.860995 144.897166 304.065386 144.897166 
C 303.269777 144.897166 302.506646 145.213264 301.944066 145.775845 
C 301.381485 146.338426 301.065386 147.101556 301.065386 147.897166 
C 301.065386 148.692775 301.381485 149.455905 301.944066 150.018486 
C 302.506646 150.581067 303.269777 150.897166 304.065386 150.897166 
L 304.065386 150.897166 
z
" clip-path="url(#p033d692fd3)" style="fill: none; stroke: #00ff00"/>
   </g>
   <g id="PathCollection_48">
    <path d="M 345.181176 259.851363 
C 345.976785 259.851363 346.739915 259.535264 347.302496 258.972684 
C 347.865077 258.410103 348.181176 257.646973 348.181176 256.851363 
C 348.181176 256.055754 347.865077 255.292624 347.302496 254.730043 
C 346.739915 254.167462 345.976785 253.851363 345.181176 253.851363 
C 344.385566 253.851363 343.622436 254.167462 343.059855 254.730043 
C 342.497275 255.292624 342.181176 256.055754 342.181176 256.851363 
C 342.181176 257.646973 342.497275 258.410103 343.059855 258.972684 
C 343.622436 259.535264 344.385566 259.851363 345.181176 259.851363 
L 345.181176 259.851363 
z
" clip-path="url(#p033d692fd3)" style="fill: none; stroke: #00ff00"/>
   </g>
   <g id="PathCollection_49">
    <path d="M 386.296965 198.884783 
C 387.092574 198.884783 387.855705 198.568684 388.418285 198.006104 
C 388.980866 197.443523 389.296965 196.680393 389.296965 195.884783 
C 389.296965 195.089174 388.980866 194.326044 388.418285 193.763463 
C 387.855705 193.200882 387.092574 192.884783 386.296965 192.884783 
C 385.501356 192.884783 384.738225 193.200882 384.175645 193.763463 
C 383.613064 194.326044 383.296965 195.089174 383.296965 195.884783 
C 383.296965 196.680393 383.613064 197.443523 384.175645 198.006104 
C 384.738225 198.568684 385.501356 198.884783 386.296965 198.884783 
L 386.296965 198.884783 
z
" clip-path="url(#p033d692fd3)" style="fill: none; stroke: #00ff00"/>
   </g>
   <g id="PathCollection_50">
    <path d="M 427.412755 290.737648 
C 428.208364 290.737648 428.971494 290.421549 429.534075 289.858969 
C 430.096656 289.296388 430.412755 288.533258 430.412755 287.737648 
C 430.412755 286.942039 430.096656 286.178909 429.534075 285.616328 
C 428.971494 285.053747 428.208364 284.737648 427.412755 284.737648 
C 426.617145 284.737648 425.854015 285.053747 425.291434 285.616328 
C 424.728853 286.178909 424.412755 286.942039 424.412755 287.737648 
C 424.412755 288.533258 424.728853 289.296388 425.291434 289.858969 
C 425.854015 290.421549 426.617145 290.737648 427.412755 290.737648 
L 427.412755 290.737648 
z
" clip-path="url(#p033d692fd3)" style="fill: none; stroke: #00ff00"/>
   </g>
   <g id="matplotlib.axis_1">
    <g id="xtick_1">
     <g id="line2d_1">
      <path d="M 57.370649 300.337648 
L 57.370649 23.137648 
" clip-path="url(#p033d692fd3)" style="fill: none; stroke: #808080; stroke-width: 0.5; stroke-linecap: square"/>
     </g>
     <g id="line2d_2">
      <defs>
       <path id="m760e55bfd7" d="M 0 0 
L 0 3.5 
" style="stroke: #000000; stroke-width: 0.8"/>
      </defs>
      <g>
       <use xlink:href="#m760e55bfd7" x="57.370649" y="300.337648" style="stroke: #000000; stroke-width: 0.8"/>
      </g>
     </g>
     <g id="text_1">
      <!-- $\mathdefault{1}$ -->
      <g transform="translate(54.879982 314.435969) scale(0.1 -0.1)">
       <defs>
        <path id="CMR17-31" d="M 1702 4083 
C 1702 4217 1696 4224 1606 4224 
C 1357 3927 979 3833 621 3820 
C 602 3820 570 3820 563 3808 
C 557 3795 557 3782 557 3648 
C 755 3648 1088 3686 1344 3839 
L 1344 467 
C 1344 243 1331 166 781 166 
L 589 166 
L 589 0 
C 896 6 1216 12 1523 12 
C 1830 12 2150 6 2458 0 
L 2458 166 
L 2266 166 
C 1715 166 1702 236 1702 467 
L 1702 4083 
z
" transform="scale(0.015625)"/>
       </defs>
       <use xlink:href="#CMR17-31" transform="scale(0.996264)"/>
      </g>
     </g>
    </g>
    <g id="xtick_2">
     <g id="line2d_3">
      <path d="M 98.486439 300.337648 
L 98.486439 23.137648 
" clip-path="url(#p033d692fd3)" style="fill: none; stroke: #808080; stroke-width: 0.5; stroke-linecap: square"/>
     </g>
     <g id="line2d_4">
      <g>
       <use xlink:href="#m760e55bfd7" x="98.486439" y="300.337648" style="stroke: #000000; stroke-width: 0.8"/>
      </g>
     </g>
     <g id="text_2">
      <!-- $\mathdefault{2}$ -->
      <g transform="translate(95.995771 314.435969) scale(0.1 -0.1)">
       <defs>
        <path id="CMR17-32" d="M 2669 990 
L 2554 990 
C 2490 537 2438 460 2413 422 
C 2381 371 1920 371 1830 371 
L 602 371 
C 832 620 1280 1073 1824 1596 
C 2214 1966 2669 2400 2669 3033 
C 2669 3788 2067 4224 1395 4224 
C 691 4224 262 3603 262 3027 
C 262 2777 448 2745 525 2745 
C 589 2745 781 2783 781 3007 
C 781 3206 614 3264 525 3264 
C 486 3264 448 3257 422 3244 
C 544 3788 915 4057 1306 4057 
C 1862 4057 2227 3616 2227 3033 
C 2227 2477 1901 1998 1536 1583 
L 262 147 
L 262 0 
L 2515 0 
L 2669 990 
z
" transform="scale(0.015625)"/>
       </defs>
       <use xlink:href="#CMR17-32" transform="scale(0.996264)"/>
      </g>
     </g>
    </g>
    <g id="xtick_3">
     <g id="line2d_5">
      <path d="M 139.602228 300.337648 
L 139.602228 23.137648 
" clip-path="url(#p033d692fd3)" style="fill: none; stroke: #808080; stroke-width: 0.5; stroke-linecap: square"/>
     </g>
     <g id="line2d_6">
      <g>
       <use xlink:href="#m760e55bfd7" x="139.602228" y="300.337648" style="stroke: #000000; stroke-width: 0.8"/>
      </g>
     </g>
     <g id="text_3">
      <!-- $\mathdefault{3}$ -->
      <g transform="translate(137.111561 314.435969) scale(0.1 -0.1)">
       <defs>
        <path id="CMR17-33" d="M 1414 2176 
C 1984 2176 2234 1673 2234 1094 
C 2234 322 1824 25 1453 25 
C 1114 25 563 193 390 691 
C 422 678 454 678 486 678 
C 640 678 755 780 755 947 
C 755 1132 614 1216 486 1216 
C 378 1216 211 1164 211 927 
C 211 335 787 -128 1466 -128 
C 2176 -128 2720 432 2720 1087 
C 2720 1718 2208 2176 1600 2246 
C 2086 2347 2554 2776 2554 3353 
C 2554 3856 2048 4224 1472 4224 
C 890 4224 378 3862 378 3347 
C 378 3123 544 3084 627 3084 
C 762 3084 877 3167 877 3334 
C 877 3500 762 3584 627 3584 
C 602 3584 570 3584 544 3571 
C 730 3999 1235 4076 1459 4076 
C 1683 4076 2106 3966 2106 3347 
C 2106 3167 2080 2851 1862 2574 
C 1670 2329 1453 2316 1242 2297 
C 1210 2297 1062 2284 1037 2284 
C 992 2278 966 2272 966 2227 
C 966 2182 973 2176 1101 2176 
L 1414 2176 
z
" transform="scale(0.015625)"/>
       </defs>
       <use xlink:href="#CMR17-33" transform="scale(0.996264)"/>
      </g>
     </g>
    </g>
    <g id="xtick_4">
     <g id="line2d_7">
      <path d="M 180.718018 300.337648 
L 180.718018 23.137648 
" clip-path="url(#p033d692fd3)" style="fill: none; stroke: #808080; stroke-width: 0.5; stroke-linecap: square"/>
     </g>
     <g id="line2d_8">
      <g>
       <use xlink:href="#m760e55bfd7" x="180.718018" y="300.337648" style="stroke: #000000; stroke-width: 0.8"/>
      </g>
     </g>
     <g id="text_4">
      <!-- $\mathdefault{4}$ -->
      <g transform="translate(178.22735 314.435969) scale(0.1 -0.1)">
       <defs>
        <path id="CMR17-34" d="M 2150 4147 
C 2150 4281 2144 4288 2029 4288 
L 128 1254 
L 128 1088 
L 1779 1088 
L 1779 460 
C 1779 230 1766 166 1318 166 
L 1197 166 
L 1197 0 
C 1402 12 1747 12 1965 12 
C 2182 12 2528 12 2733 0 
L 2733 166 
L 2611 166 
C 2163 166 2150 230 2150 460 
L 2150 1088 
L 2803 1088 
L 2803 1254 
L 2150 1254 
L 2150 4147 
z
M 1798 3723 
L 1798 1254 
L 256 1254 
L 1798 3723 
z
" transform="scale(0.015625)"/>
       </defs>
       <use xlink:href="#CMR17-34" transform="scale(0.996264)"/>
      </g>
     </g>
    </g>
    <g id="xtick_5">
     <g id="line2d_9">
      <path d="M 221.833807 300.337648 
L 221.833807 23.137648 
" clip-path="url(#p033d692fd3)" style="fill: none; stroke: #808080; stroke-width: 0.5; stroke-linecap: square"/>
     </g>
     <g id="line2d_10">
      <g>
       <use xlink:href="#m760e55bfd7" x="221.833807" y="300.337648" style="stroke: #000000; stroke-width: 0.8"/>
      </g>
     </g>
     <g id="text_5">
      <!-- $\mathdefault{5}$ -->
      <g transform="translate(219.34314 314.435969) scale(0.1 -0.1)">
       <defs>
        <path id="CMR17-35" d="M 730 3750 
C 794 3724 1056 3641 1325 3641 
C 1920 3641 2246 3961 2432 4140 
C 2432 4191 2432 4224 2394 4224 
C 2387 4224 2374 4224 2323 4198 
C 2099 4102 1837 4032 1517 4032 
C 1325 4032 1037 4055 723 4191 
C 653 4224 640 4224 634 4224 
C 602 4224 595 4217 595 4090 
L 595 2231 
C 595 2113 595 2080 659 2080 
C 691 2080 704 2093 736 2139 
C 941 2435 1222 2560 1542 2560 
C 1766 2560 2246 2415 2246 1293 
C 2246 1087 2246 716 2054 422 
C 1894 159 1645 25 1370 25 
C 947 25 518 319 403 812 
C 429 806 480 793 506 793 
C 589 793 749 838 749 1036 
C 749 1209 627 1280 506 1280 
C 358 1280 262 1190 262 1011 
C 262 454 704 -128 1382 -128 
C 2042 -128 2669 441 2669 1267 
C 2669 2054 2170 2662 1549 2662 
C 1222 2662 947 2540 730 2304 
L 730 3750 
z
" transform="scale(0.015625)"/>
       </defs>
       <use xlink:href="#CMR17-35" transform="scale(0.996264)"/>
      </g>
     </g>
    </g>
    <g id="xtick_6">
     <g id="line2d_11">
      <path d="M 262.949597 300.337648 
L 262.949597 23.137648 
" clip-path="url(#p033d692fd3)" style="fill: none; stroke: #808080; stroke-width: 0.5; stroke-linecap: square"/>
     </g>
     <g id="line2d_12">
      <g>
       <use xlink:href="#m760e55bfd7" x="262.949597" y="300.337648" style="stroke: #000000; stroke-width: 0.8"/>
      </g>
     </g>
     <g id="text_6">
      <!-- $\mathdefault{6}$ -->
      <g transform="translate(260.458929 314.435969) scale(0.1 -0.1)">
       <defs>
        <path id="CMR17-36" d="M 678 2198 
C 678 3712 1395 4076 1811 4076 
C 1946 4076 2272 4049 2400 3782 
C 2298 3782 2106 3782 2106 3558 
C 2106 3385 2246 3328 2336 3328 
C 2394 3328 2566 3353 2566 3571 
C 2566 3987 2246 4224 1805 4224 
C 1043 4224 243 3411 243 2011 
C 243 257 966 -128 1478 -128 
C 2099 -128 2688 431 2688 1295 
C 2688 2101 2170 2688 1517 2688 
C 1126 2688 838 2430 678 1979 
L 678 2198 
z
M 1478 25 
C 691 25 691 1212 691 1450 
C 691 1914 909 2585 1504 2585 
C 1613 2585 1926 2585 2138 2140 
C 2253 1889 2253 1624 2253 1302 
C 2253 954 2253 696 2118 438 
C 1978 173 1773 25 1478 25 
z
" transform="scale(0.015625)"/>
       </defs>
       <use xlink:href="#CMR17-36" transform="scale(0.996264)"/>
      </g>
     </g>
    </g>
    <g id="xtick_7">
     <g id="line2d_13">
      <path d="M 304.065386 300.337648 
L 304.065386 23.137648 
" clip-path="url(#p033d692fd3)" style="fill: none; stroke: #808080; stroke-width: 0.5; stroke-linecap: square"/>
     </g>
     <g id="line2d_14">
      <g>
       <use xlink:href="#m760e55bfd7" x="304.065386" y="300.337648" style="stroke: #000000; stroke-width: 0.8"/>
      </g>
     </g>
     <g id="text_7">
      <!-- $\mathdefault{7}$ -->
      <g transform="translate(301.574718 314.435969) scale(0.1 -0.1)">
       <defs>
        <path id="CMR17-37" d="M 2886 3955 
L 2886 4096 
L 1382 4096 
C 634 4096 621 4166 595 4288 
L 480 4288 
L 294 3104 
L 410 3104 
C 429 3226 474 3552 550 3673 
C 589 3724 1062 3724 1171 3724 
L 2579 3724 
L 1869 2670 
C 1395 1961 1069 1003 1069 166 
C 1069 89 1069 -128 1299 -128 
C 1530 -128 1530 89 1530 172 
L 1530 466 
C 1530 1514 1709 2204 2003 2644 
L 2886 3955 
z
" transform="scale(0.015625)"/>
       </defs>
       <use xlink:href="#CMR17-37" transform="scale(0.996264)"/>
      </g>
     </g>
    </g>
    <g id="xtick_8">
     <g id="line2d_15">
      <path d="M 345.181176 300.337648 
L 345.181176 23.137648 
" clip-path="url(#p033d692fd3)" style="fill: none; stroke: #808080; stroke-width: 0.5; stroke-linecap: square"/>
     </g>
     <g id="line2d_16">
      <g>
       <use xlink:href="#m760e55bfd7" x="345.181176" y="300.337648" style="stroke: #000000; stroke-width: 0.8"/>
      </g>
     </g>
     <g id="text_8">
      <!-- $\mathdefault{8}$ -->
      <g transform="translate(342.690508 314.435969) scale(0.1 -0.1)">
       <defs>
        <path id="CMR17-38" d="M 1741 2289 
C 2144 2494 2554 2803 2554 3298 
C 2554 3884 1990 4224 1472 4224 
C 890 4224 378 3800 378 3215 
C 378 3054 416 2777 666 2533 
C 730 2469 998 2276 1171 2154 
C 883 2006 211 1652 211 945 
C 211 282 838 -128 1459 -128 
C 2144 -128 2720 366 2720 1022 
C 2720 1607 2330 1877 2074 2051 
L 1741 2289 
z
M 902 2855 
C 851 2887 595 3086 595 3388 
C 595 3781 998 4076 1459 4076 
C 1965 4076 2336 3716 2336 3298 
C 2336 2700 1670 2359 1638 2359 
C 1632 2359 1626 2359 1574 2398 
L 902 2855 
z
M 2080 1536 
C 2176 1466 2483 1253 2483 861 
C 2483 385 2010 25 1472 25 
C 890 25 448 443 448 951 
C 448 1459 838 1884 1280 2083 
L 2080 1536 
z
" transform="scale(0.015625)"/>
       </defs>
       <use xlink:href="#CMR17-38" transform="scale(0.996264)"/>
      </g>
     </g>
    </g>
    <g id="xtick_9">
     <g id="line2d_17">
      <path d="M 386.296965 300.337648 
L 386.296965 23.137648 
" clip-path="url(#p033d692fd3)" style="fill: none; stroke: #808080; stroke-width: 0.5; stroke-linecap: square"/>
     </g>
     <g id="line2d_18">
      <g>
       <use xlink:href="#m760e55bfd7" x="386.296965" y="300.337648" style="stroke: #000000; stroke-width: 0.8"/>
      </g>
     </g>
     <g id="text_9">
      <!-- $\mathdefault{9}$ -->
      <g transform="translate(383.806297 314.435969) scale(0.1 -0.1)">
       <defs>
        <path id="CMR17-39" d="M 2253 1871 
C 2253 448 1670 25 1190 25 
C 1043 25 685 43 538 281 
C 704 256 826 345 826 505 
C 826 678 685 736 595 736 
C 538 736 365 710 365 492 
C 365 68 742 -128 1203 -128 
C 1939 -128 2688 665 2688 2090 
C 2688 3857 1971 4224 1485 4224 
C 851 4224 243 3664 243 2800 
C 243 2000 762 1408 1414 1408 
C 1952 1408 2189 1910 2253 2122 
L 2253 1871 
z
M 1427 1510 
C 1254 1510 1011 1542 813 1929 
C 678 2181 678 2477 678 2793 
C 678 3174 678 3438 858 3722 
C 947 3857 1114 4076 1485 4076 
C 2240 4076 2240 2909 2240 2651 
C 2240 2193 2035 1510 1427 1510 
z
" transform="scale(0.015625)"/>
       </defs>
       <use xlink:href="#CMR17-39" transform="scale(0.996264)"/>
      </g>
     </g>
    </g>
    <g id="xtick_10">
     <g id="line2d_19">
      <path d="M 427.412755 300.337648 
L 427.412755 23.137648 
" clip-path="url(#p033d692fd3)" style="fill: none; stroke: #808080; stroke-width: 0.5; stroke-linecap: square"/>
     </g>
     <g id="line2d_20">
      <g>
       <use xlink:href="#m760e55bfd7" x="427.412755" y="300.337648" style="stroke: #000000; stroke-width: 0.8"/>
      </g>
     </g>
     <g id="text_10">
      <!-- $\mathdefault{10}$ -->
      <g transform="translate(422.431419 314.435969) scale(0.1 -0.1)">
       <defs>
        <path id="CMR17-30" d="M 2688 2038 
C 2688 2430 2682 3099 2413 3613 
C 2176 4063 1798 4224 1466 4224 
C 1158 4224 768 4082 525 3620 
C 269 3137 243 2539 243 2038 
C 243 1671 250 1112 448 623 
C 723 -39 1216 -128 1466 -128 
C 1760 -128 2208 -7 2470 604 
C 2662 1048 2688 1568 2688 2038 
z
M 1466 -26 
C 1056 -26 813 328 723 816 
C 653 1196 653 1749 653 2109 
C 653 2604 653 3015 736 3407 
C 858 3954 1216 4121 1466 4121 
C 1728 4121 2067 3947 2189 3420 
C 2272 3054 2278 2623 2278 2109 
C 2278 1691 2278 1176 2202 797 
C 2067 96 1690 -26 1466 -26 
z
" transform="scale(0.015625)"/>
       </defs>
       <use xlink:href="#CMR17-31" transform="scale(0.996264)"/>
       <use xlink:href="#CMR17-30" transform="translate(45.690477 0) scale(0.996264)"/>
      </g>
     </g>
    </g>
    <g id="text_11">
     <!-- $data set$ -->
     <g transform="translate(220.361347 330.495603) scale(0.14 -0.14)">
      <defs>
       <path id="CMMI12-64" d="M 3219 4255 
C 3226 4281 3238 4319 3238 4351 
C 3238 4416 3174 4416 3162 4416 
C 3155 4416 2842 4390 2810 4383 
C 2701 4377 2605 4364 2490 4358 
C 2330 4345 2285 4339 2285 4223 
C 2285 4159 2336 4159 2426 4159 
C 2739 4159 2746 4103 2746 4040 
C 2746 4002 2733 3951 2726 3932 
L 2336 2394 
C 2266 2560 2093 2816 1760 2816 
C 1037 2816 256 1883 256 938 
C 256 306 627 -64 1062 -64 
C 1414 -64 1715 210 1894 421 
C 1958 44 2259 -64 2451 -64 
C 2643 -64 2797 51 2912 281 
C 3014 498 3104 887 3104 913 
C 3104 945 3078 970 3040 970 
C 2982 970 2976 938 2950 842 
C 2854 466 2733 64 2470 64 
C 2285 64 2272 230 2272 357 
C 2272 383 2272 517 2317 696 
L 3219 4255 
z
M 1926 759 
C 1894 651 1894 638 1805 517 
C 1664 338 1382 64 1082 64 
C 819 64 672 300 672 676 
C 672 1028 870 1743 992 2011 
C 1210 2458 1510 2687 1760 2687 
C 2182 2687 2266 2164 2266 2113 
C 2266 2107 2246 2024 2240 2011 
L 1926 759 
z
" transform="scale(0.015625)"/>
       <path id="CMMI12-61" d="M 1926 759 
C 1894 651 1894 638 1805 517 
C 1664 338 1382 64 1082 64 
C 819 64 672 300 672 676 
C 672 1028 870 1743 992 2011 
C 1210 2458 1510 2687 1760 2687 
C 2182 2687 2266 2164 2266 2113 
C 2266 2107 2246 2024 2240 2011 
L 1926 759 
z
M 2336 2394 
C 2266 2560 2093 2816 1760 2816 
C 1037 2816 256 1883 256 938 
C 256 306 627 -64 1062 -64 
C 1414 -64 1715 210 1894 421 
C 1958 44 2259 -64 2451 -64 
C 2643 -64 2797 51 2912 280 
C 3014 496 3104 885 3104 910 
C 3104 942 3078 968 3040 968 
C 2982 968 2976 936 2950 840 
C 2854 465 2733 64 2470 64 
C 2285 64 2272 229 2272 356 
C 2272 503 2291 573 2349 821 
C 2394 980 2426 1120 2477 1305 
C 2714 2260 2771 2489 2771 2528 
C 2771 2617 2701 2688 2605 2688 
C 2400 2688 2349 2464 2336 2388 
L 2336 2394 
z
" transform="scale(0.015625)"/>
       <path id="CMMI12-74" d="M 1286 2566 
L 1875 2566 
C 1997 2566 2061 2566 2061 2681 
C 2061 2752 2022 2752 1894 2752 
L 1331 2752 
L 1568 3664 
C 1594 3752 1594 3764 1594 3808 
C 1594 3910 1510 3968 1427 3968 
C 1376 3968 1229 3948 1178 3746 
L 928 2752 
L 326 2752 
C 198 2752 141 2752 141 2630 
C 141 2566 186 2566 307 2566 
L 877 2566 
L 454 881 
C 403 657 384 593 384 510 
C 384 210 595 -64 954 -64 
C 1600 -64 1946 868 1946 913 
C 1946 951 1920 970 1882 970 
C 1869 970 1843 970 1830 944 
C 1824 938 1818 932 1773 830 
C 1638 510 1344 64 973 64 
C 781 64 768 223 768 364 
C 768 370 768 491 787 568 
L 1286 2566 
z
" transform="scale(0.015625)"/>
       <path id="CMMI12-73" d="M 1459 1290 
C 1568 1271 1741 1233 1779 1227 
C 1862 1201 2150 1099 2150 793 
C 2150 595 1971 64 1229 64 
C 1094 64 614 83 486 447 
C 742 414 870 614 870 755 
C 870 889 781 960 653 960 
C 512 960 326 851 326 563 
C 326 176 710 -64 1222 -64 
C 2195 -64 2483 665 2483 998 
C 2483 1093 2483 1271 2278 1475 
C 2118 1627 1965 1659 1619 1729 
C 1446 1767 1171 1824 1171 2111 
C 1171 2239 1286 2687 1894 2687 
C 2163 2687 2426 2589 2490 2368 
C 2208 2368 2195 2124 2195 2118 
C 2195 1983 2317 1945 2374 1945 
C 2464 1945 2643 2015 2643 2284 
C 2643 2546 2400 2816 1901 2816 
C 1062 2816 838 2169 838 1907 
C 838 1424 1312 1322 1459 1290 
z
" transform="scale(0.015625)"/>
       <path id="CMMI12-65" d="M 1146 1472 
C 1318 1472 1754 1484 2061 1600 
C 2547 1786 2592 2160 2592 2275 
C 2592 2559 2349 2816 1926 2816 
C 1254 2816 288 2205 288 1066 
C 288 400 672 -64 1254 -64 
C 2125 -64 2675 609 2675 691 
C 2675 729 2637 761 2611 761 
C 2592 761 2586 755 2528 698 
C 2118 159 1510 64 1267 64 
C 902 64 710 349 710 818 
C 710 907 710 1066 806 1472 
L 1146 1472 
z
M 838 1600 
C 1114 2591 1722 2687 1926 2687 
C 2208 2687 2400 2520 2400 2275 
C 2400 1600 1376 1600 1107 1600 
L 838 1600 
z
" transform="scale(0.015625)"/>
      </defs>
      <use xlink:href="#CMMI12-64" transform="scale(0.996264)"/>
      <use xlink:href="#CMMI12-61" transform="translate(50.689097 0) scale(0.996264)"/>
      <use xlink:href="#CMMI12-74" transform="translate(101.896954 0) scale(0.996264)"/>
      <use xlink:href="#CMMI12-61" transform="translate(137.123285 0) scale(0.996264)"/>
      <use xlink:href="#CMMI12-73" transform="translate(188.331142 0) scale(0.996264)"/>
      <use xlink:href="#CMMI12-65" transform="translate(234.28119 0) scale(0.996264)"/>
      <use xlink:href="#CMMI12-74" transform="translate(279.493191 0) scale(0.996264)"/>
     </g>
    </g>
   </g>
   <g id="matplotlib.axis_2">
    <g id="ytick_1">
     <g id="line2d_21">
      <path d="M 47.091702 282.213119 
L 437.691702 282.213119 
" clip-path="url(#p033d692fd3)" style="fill: none; stroke: #808080; stroke-width: 0.5; stroke-linecap: square"/>
     </g>
     <g id="line2d_22">
      <defs>
       <path id="mcfaa920efd" d="M 0 0 
L -3.5 0 
" style="stroke: #000000; stroke-width: 0.8"/>
      </defs>
      <g>
       <use xlink:href="#mcfaa920efd" x="47.091702" y="282.213119" style="stroke: #000000; stroke-width: 0.8"/>
      </g>
     </g>
     <g id="text_12">
      <!-- $\mathdefault{75}$ -->
      <g transform="translate(30.129031 285.762279) scale(0.1 -0.1)">
       <use xlink:href="#CMR17-37" transform="scale(0.996264)"/>
       <use xlink:href="#CMR17-35" transform="translate(45.690477 0) scale(0.996264)"/>
      </g>
     </g>
    </g>
    <g id="ytick_2">
     <g id="line2d_23">
      <path d="M 47.091702 249.513253 
L 437.691702 249.513253 
" clip-path="url(#p033d692fd3)" style="fill: none; stroke: #808080; stroke-width: 0.5; stroke-linecap: square"/>
     </g>
     <g id="line2d_24">
      <g>
       <use xlink:href="#mcfaa920efd" x="47.091702" y="249.513253" style="stroke: #000000; stroke-width: 0.8"/>
      </g>
     </g>
     <g id="text_13">
      <!-- $\mathdefault{80}$ -->
      <g transform="translate(30.129031 253.062413) scale(0.1 -0.1)">
       <use xlink:href="#CMR17-38" transform="scale(0.996264)"/>
       <use xlink:href="#CMR17-30" transform="translate(45.690477 0) scale(0.996264)"/>
      </g>
     </g>
    </g>
    <g id="ytick_3">
     <g id="line2d_25">
      <path d="M 47.091702 216.813388 
L 437.691702 216.813388 
" clip-path="url(#p033d692fd3)" style="fill: none; stroke: #808080; stroke-width: 0.5; stroke-linecap: square"/>
     </g>
     <g id="line2d_26">
      <g>
       <use xlink:href="#mcfaa920efd" x="47.091702" y="216.813388" style="stroke: #000000; stroke-width: 0.8"/>
      </g>
     </g>
     <g id="text_14">
      <!-- $\mathdefault{85}$ -->
      <g transform="translate(30.129031 220.362548) scale(0.1 -0.1)">
       <use xlink:href="#CMR17-38" transform="scale(0.996264)"/>
       <use xlink:href="#CMR17-35" transform="translate(45.690477 0) scale(0.996264)"/>
      </g>
     </g>
    </g>
    <g id="ytick_4">
     <g id="line2d_27">
      <path d="M 47.091702 184.113522 
L 437.691702 184.113522 
" clip-path="url(#p033d692fd3)" style="fill: none; stroke: #808080; stroke-width: 0.5; stroke-linecap: square"/>
     </g>
     <g id="line2d_28">
      <g>
       <use xlink:href="#mcfaa920efd" x="47.091702" y="184.113522" style="stroke: #000000; stroke-width: 0.8"/>
      </g>
     </g>
     <g id="text_15">
      <!-- $\mathdefault{90}$ -->
      <g transform="translate(30.129031 187.662682) scale(0.1 -0.1)">
       <use xlink:href="#CMR17-39" transform="scale(0.996264)"/>
       <use xlink:href="#CMR17-30" transform="translate(45.690477 0) scale(0.996264)"/>
      </g>
     </g>
    </g>
    <g id="ytick_5">
     <g id="line2d_29">
      <path d="M 47.091702 151.413656 
L 437.691702 151.413656 
" clip-path="url(#p033d692fd3)" style="fill: none; stroke: #808080; stroke-width: 0.5; stroke-linecap: square"/>
     </g>
     <g id="line2d_30">
      <g>
       <use xlink:href="#mcfaa920efd" x="47.091702" y="151.413656" style="stroke: #000000; stroke-width: 0.8"/>
      </g>
     </g>
     <g id="text_16">
      <!-- $\mathdefault{95}$ -->
      <g transform="translate(30.129031 154.962816) scale(0.1 -0.1)">
       <use xlink:href="#CMR17-39" transform="scale(0.996264)"/>
       <use xlink:href="#CMR17-35" transform="translate(45.690477 0) scale(0.996264)"/>
      </g>
     </g>
    </g>
    <g id="ytick_6">
     <g id="line2d_31">
      <path d="M 47.091702 118.71379 
L 437.691702 118.71379 
" clip-path="url(#p033d692fd3)" style="fill: none; stroke: #808080; stroke-width: 0.5; stroke-linecap: square"/>
     </g>
     <g id="line2d_32">
      <g>
       <use xlink:href="#mcfaa920efd" x="47.091702" y="118.71379" style="stroke: #000000; stroke-width: 0.8"/>
      </g>
     </g>
     <g id="text_17">
      <!-- $\mathdefault{100}$ -->
      <g transform="translate(25.147696 122.26295) scale(0.1 -0.1)">
       <use xlink:href="#CMR17-31" transform="scale(0.996264)"/>
       <use xlink:href="#CMR17-30" transform="translate(45.690477 0) scale(0.996264)"/>
       <use xlink:href="#CMR17-30" transform="translate(91.380954 0) scale(0.996264)"/>
      </g>
     </g>
    </g>
    <g id="ytick_7">
     <g id="line2d_33">
      <path d="M 47.091702 86.013924 
L 437.691702 86.013924 
" clip-path="url(#p033d692fd3)" style="fill: none; stroke: #808080; stroke-width: 0.5; stroke-linecap: square"/>
     </g>
     <g id="line2d_34">
      <g>
       <use xlink:href="#mcfaa920efd" x="47.091702" y="86.013924" style="stroke: #000000; stroke-width: 0.8"/>
      </g>
     </g>
     <g id="text_18">
      <!-- $\mathdefault{105}$ -->
      <g transform="translate(25.147696 89.563085) scale(0.1 -0.1)">
       <use xlink:href="#CMR17-31" transform="scale(0.996264)"/>
       <use xlink:href="#CMR17-30" transform="translate(45.690477 0) scale(0.996264)"/>
       <use xlink:href="#CMR17-35" transform="translate(91.380954 0) scale(0.996264)"/>
      </g>
     </g>
    </g>
    <g id="ytick_8">
     <g id="line2d_35">
      <path d="M 47.091702 53.314059 
L 437.691702 53.314059 
" clip-path="url(#p033d692fd3)" style="fill: none; stroke: #808080; stroke-width: 0.5; stroke-linecap: square"/>
     </g>
     <g id="line2d_36">
      <g>
       <use xlink:href="#mcfaa920efd" x="47.091702" y="53.314059" style="stroke: #000000; stroke-width: 0.8"/>
      </g>
     </g>
     <g id="text_19">
      <!-- $\mathdefault{110}$ -->
      <g transform="translate(25.147696 56.863219) scale(0.1 -0.1)">
       <use xlink:href="#CMR17-31" transform="scale(0.996264)"/>
       <use xlink:href="#CMR17-31" transform="translate(45.690477 0) scale(0.996264)"/>
       <use xlink:href="#CMR17-30" transform="translate(91.380954 0) scale(0.996264)"/>
      </g>
     </g>
    </g>
    <g id="text_20">
     <!-- $v_{0}\ [km/h]$ -->
     <g transform="translate(17.660772 190.632337) rotate(-90) scale(0.14 -0.14)">
      <defs>
       <path id="CMMI12-76" d="M 2925 2388 
C 2925 2790 2720 2816 2669 2816 
C 2515 2816 2374 2662 2374 2534 
C 2374 2458 2419 2413 2445 2388 
C 2509 2330 2675 2158 2675 1826 
C 2675 1558 2291 64 1523 64 
C 1133 64 1056 389 1056 625 
C 1056 945 1203 1392 1376 1851 
C 1478 2113 1504 2177 1504 2305 
C 1504 2573 1312 2816 998 2816 
C 410 2816 173 1890 173 1838 
C 173 1813 198 1781 243 1781 
C 301 1781 307 1807 333 1896 
C 486 2445 736 2687 979 2687 
C 1037 2687 1146 2687 1146 2477 
C 1146 2311 1075 2126 979 1883 
C 672 1066 672 868 672 715 
C 672 574 691 313 890 134 
C 1120 -64 1440 -64 1498 -64 
C 2560 -64 2925 2024 2925 2388 
z
" transform="scale(0.015625)"/>
       <path id="CMR17-5b" d="M 1504 -1600 
L 1504 -1376 
L 902 -1376 
L 902 4575 
L 1504 4575 
L 1504 4800 
L 678 4800 
L 678 -1600 
L 1504 -1600 
z
" transform="scale(0.015625)"/>
       <path id="CMMI12-6b" d="M 1798 4255 
C 1805 4281 1818 4319 1818 4351 
C 1818 4416 1754 4416 1741 4416 
C 1734 4416 1504 4396 1389 4383 
C 1280 4377 1184 4364 1069 4358 
C 915 4345 870 4339 870 4223 
C 870 4159 934 4159 998 4159 
C 1325 4159 1325 4103 1325 4040 
C 1325 4014 1325 4002 1293 3888 
L 378 250 
C 352 153 352 141 352 102 
C 352 -39 461 -64 525 -64 
C 704 -64 742 76 794 275 
L 1094 1476 
C 1555 1425 1830 1232 1830 924 
C 1830 885 1830 860 1811 763 
C 1786 667 1786 590 1786 558 
C 1786 185 2029 -64 2355 -64 
C 2650 -64 2803 205 2854 295 
C 2989 532 3072 892 3072 917 
C 3072 949 3046 975 3008 975 
C 2950 975 2944 949 2918 847 
C 2829 513 2694 64 2368 64 
C 2240 64 2157 128 2157 372 
C 2157 494 2182 635 2208 731 
C 2234 847 2234 853 2234 930 
C 2234 1309 1894 1521 1306 1598 
C 1536 1739 1766 1989 1856 2086 
C 2221 2495 2470 2687 2765 2687 
C 2912 2687 2950 2655 2995 2624 
C 2758 2598 2669 2431 2669 2303 
C 2669 2150 2790 2099 2880 2099 
C 3053 2099 3206 2246 3206 2451 
C 3206 2634 3059 2816 2771 2816 
C 2419 2816 2131 2579 1677 2067 
C 1613 1989 1376 1746 1139 1656 
L 1798 4255 
z
" transform="scale(0.015625)"/>
       <path id="CMMI12-6d" d="M 1318 1870 
C 1331 1909 1491 2228 1728 2432 
C 1894 2585 2112 2687 2362 2687 
C 2618 2687 2707 2496 2707 2241 
C 2707 2202 2707 2075 2630 1775 
L 2470 1117 
C 2419 925 2298 453 2285 383 
C 2259 287 2221 121 2221 95 
C 2221 6 2291 -64 2387 -64 
C 2579 -64 2611 83 2669 313 
L 3053 1838 
C 3066 1890 3398 2687 4102 2687 
C 4358 2687 4448 2496 4448 2241 
C 4448 1883 4198 1187 4058 804 
C 4000 651 3968 568 3968 453 
C 3968 166 4166 -64 4474 -64 
C 5069 -64 5293 874 5293 913 
C 5293 945 5267 970 5229 970 
C 5171 970 5165 951 5133 842 
C 4986 332 4749 64 4493 64 
C 4429 64 4326 70 4326 274 
C 4326 440 4403 645 4429 715 
C 4544 1021 4832 1775 4832 2145 
C 4832 2528 4608 2816 4122 2816 
C 3693 2816 3347 2573 3091 2196 
C 3072 2541 2861 2816 2381 2816 
C 1811 2816 1510 2413 1395 2253 
C 1376 2617 1114 2816 832 2816 
C 646 2816 499 2726 378 2483 
C 262 2253 173 1864 173 1838 
C 173 1813 198 1781 243 1781 
C 294 1781 301 1787 339 1934 
C 435 2311 557 2687 813 2687 
C 960 2687 1011 2585 1011 2394 
C 1011 2253 947 2004 902 1807 
L 723 1117 
C 698 996 627 708 595 593 
C 550 427 480 127 480 95 
C 480 6 550 -64 646 -64 
C 723 -64 813 -26 864 70 
C 877 102 934 325 966 453 
L 1107 1028 
L 1318 1870 
z
" transform="scale(0.015625)"/>
       <path id="CMMI12-3d" d="M 2746 4563 
C 2746 4569 2784 4665 2784 4678 
C 2784 4755 2720 4800 2669 4800 
C 2637 4800 2579 4800 2528 4659 
L 384 -1364 
C 384 -1370 346 -1466 346 -1479 
C 346 -1556 410 -1600 461 -1600 
C 499 -1600 557 -1594 602 -1460 
L 2746 4563 
z
" transform="scale(0.015625)"/>
       <path id="CMMI12-68" d="M 1798 4255 
C 1805 4281 1818 4319 1818 4351 
C 1818 4416 1754 4416 1741 4416 
C 1734 4416 1421 4390 1389 4383 
C 1280 4377 1184 4364 1069 4358 
C 909 4345 864 4339 864 4223 
C 864 4159 915 4159 1005 4159 
C 1318 4159 1325 4103 1325 4040 
C 1325 4002 1312 3951 1306 3932 
L 378 249 
C 352 153 352 140 352 102 
C 352 -39 461 -64 525 -64 
C 634 -64 717 19 749 89 
L 1037 1245 
C 1069 1385 1107 1519 1139 1660 
C 1210 1928 1210 1934 1331 2119 
C 1453 2305 1741 2687 2234 2687 
C 2490 2687 2579 2496 2579 2241 
C 2579 1883 2330 1187 2189 804 
C 2131 651 2099 568 2099 453 
C 2099 166 2298 -64 2605 -64 
C 3200 -64 3424 874 3424 913 
C 3424 945 3398 970 3360 970 
C 3302 970 3296 951 3264 842 
C 3117 332 2880 64 2624 64 
C 2560 64 2458 70 2458 274 
C 2458 440 2534 645 2560 715 
C 2675 1021 2963 1775 2963 2145 
C 2963 2528 2739 2816 2253 2816 
C 1888 2816 1568 2643 1306 2311 
L 1798 4255 
z
" transform="scale(0.015625)"/>
       <path id="CMR17-5d" d="M 915 4800 
L 90 4800 
L 90 4575 
L 691 4575 
L 691 -1376 
L 90 -1376 
L 90 -1600 
L 915 -1600 
L 915 4800 
z
" transform="scale(0.015625)"/>
      </defs>
      <use xlink:href="#CMMI12-76" transform="scale(0.996264)"/>
      <use xlink:href="#CMR17-30" transform="translate(47.160581 -14.943915) scale(0.697382)"/>
      <use xlink:href="#CMR17-5b" transform="translate(107.337064 0) scale(0.996264)"/>
      <use xlink:href="#CMMI12-6b" transform="translate(132.208123 0) scale(0.996264)"/>
      <use xlink:href="#CMMI12-6d" transform="translate(186.287323 0) scale(0.996264)"/>
      <use xlink:href="#CMMI12-3d" transform="translate(271.614548 0) scale(0.996264)"/>
      <use xlink:href="#CMMI12-68" transform="translate(320.389467 0) scale(0.996264)"/>
      <use xlink:href="#CMR17-5d" transform="translate(376.544091 0) scale(0.996264)"/>
     </g>
    </g>
   </g>
   <g id="line2d_37">
    <path d="M 57.370649 188.468977 
L 98.486439 188.468977 
L 139.602228 188.468977 
L 180.718018 188.468977 
L 221.833807 188.468977 
L 262.949597 188.468977 
L 304.065386 188.468977 
L 345.181176 188.468977 
L 386.296965 188.468977 
L 427.412755 188.468977 
" clip-path="url(#p033d692fd3)" style="fill: none; stroke: #000000; stroke-width: 1.5; stroke-linecap: square"/>
   </g>
   <g id="line2d_38">
    <path d="M 57.370649 188.534672 
L 98.486439 188.534672 
L 139.602228 188.534672 
L 180.718018 188.534672 
L 221.833807 188.534672 
L 262.949597 188.534672 
L 304.065386 188.534672 
L 345.181176 188.534672 
L 386.296965 188.534672 
L 427.412755 188.534672 
" clip-path="url(#p033d692fd3)" style="fill: none; stroke: #4169e1; stroke-width: 1.5; stroke-linecap: square"/>
   </g>
   <g id="line2d_39">
    <path d="M 57.370649 188.715081 
L 98.486439 188.715081 
L 139.602228 188.715081 
L 180.718018 188.715081 
L 221.833807 188.715081 
L 262.949597 188.715081 
L 304.065386 188.715081 
L 345.181176 188.715081 
L 386.296965 188.715081 
L 427.412755 188.715081 
" clip-path="url(#p033d692fd3)" style="fill: none; stroke: #ff7f50; stroke-width: 1.5; stroke-linecap: square"/>
   </g>
   <g id="line2d_40">
    <path d="M 57.370649 145.669867 
L 98.486439 145.669867 
L 139.602228 145.669867 
L 180.718018 145.669867 
L 221.833807 145.669867 
L 262.949597 145.669867 
L 304.065386 145.669867 
L 345.181176 145.669867 
L 386.296965 145.669867 
L 427.412755 145.669867 
" clip-path="url(#p033d692fd3)" style="fill: none; stroke: #ffd700; stroke-width: 1.5; stroke-linecap: square"/>
   </g>
   <g id="line2d_41">
    <path d="M 57.370649 200.641176 
L 98.486439 200.641176 
L 139.602228 200.641176 
L 180.718018 200.641176 
L 221.833807 200.641176 
L 262.949597 200.641176 
L 304.065386 200.641176 
L 345.181176 200.641176 
L 386.296965 200.641176 
L 427.412755 200.641176 
" clip-path="url(#p033d692fd3)" style="fill: none; stroke: #00ff00; stroke-width: 1.5; stroke-linecap: square"/>
   </g>
   <g id="patch_3">
    <path d="M 47.091702 300.337648 
L 47.091702 23.137648 
" style="fill: none; stroke: #000000; stroke-width: 0.8; stroke-linejoin: miter; stroke-linecap: square"/>
   </g>
   <g id="patch_4">
    <path d="M 437.691702 300.337648 
L 437.691702 23.137648 
" style="fill: none; stroke: #000000; stroke-width: 0.8; stroke-linejoin: miter; stroke-linecap: square"/>
   </g>
   <g id="patch_5">
    <path d="M 47.091702 300.337648 
L 437.691702 300.337648 
" style="fill: none; stroke: #000000; stroke-width: 0.8; stroke-linejoin: miter; stroke-linecap: square"/>
   </g>
   <g id="patch_6">
    <path d="M 47.091702 23.137648 
L 437.691702 23.137648 
" style="fill: none; stroke: #000000; stroke-width: 0.8; stroke-linejoin: miter; stroke-linecap: square"/>
   </g>
   <g id="text_21">
    <!-- $Velocities\ v_0\ of\ the\ leading\ car$ -->
    <g transform="translate(147.095491 17.137648) scale(0.14 -0.14)">
     <defs>
      <path id="CMMI12-56" d="M 3962 3644 
C 4179 3987 4378 4140 4704 4166 
C 4768 4172 4819 4172 4819 4287 
C 4819 4313 4806 4352 4749 4352 
C 4634 4352 4358 4339 4243 4339 
C 4058 4339 3866 4352 3686 4352 
C 3635 4352 3571 4352 3571 4230 
C 3571 4172 3629 4166 3654 4166 
C 3891 4146 3917 4032 3917 3956 
C 3917 3860 3827 3714 3821 3708 
L 1811 540 
L 1363 3968 
C 1363 4153 1696 4166 1766 4166 
C 1862 4166 1920 4166 1920 4287 
C 1920 4352 1850 4352 1830 4352 
C 1722 4352 1594 4339 1485 4339 
L 1126 4339 
C 659 4339 467 4352 461 4352 
C 422 4352 346 4352 346 4236 
C 346 4166 390 4166 493 4166 
C 819 4166 838 4108 858 3949 
L 1370 25 
C 1389 -109 1389 -128 1478 -128 
C 1555 -128 1587 -109 1651 -7 
L 3962 3644 
z
" transform="scale(0.015625)"/>
      <path id="CMMI12-6c" d="M 1626 4255 
C 1632 4281 1645 4319 1645 4351 
C 1645 4416 1581 4416 1568 4416 
C 1562 4416 1331 4396 1216 4383 
C 1107 4377 1011 4364 896 4358 
C 742 4345 698 4339 698 4223 
C 698 4159 762 4159 826 4159 
C 1152 4159 1152 4102 1152 4039 
C 1152 4013 1152 4001 1120 3886 
L 326 731 
C 307 661 294 610 294 509 
C 294 191 531 -64 858 -64 
C 1069 -64 1210 76 1312 273 
C 1421 483 1510 884 1510 909 
C 1510 941 1485 967 1446 967 
C 1389 967 1382 935 1357 839 
C 1242 401 1126 64 870 64 
C 678 64 678 267 678 356 
C 678 382 678 515 723 693 
L 1626 4255 
z
" transform="scale(0.015625)"/>
      <path id="CMMI12-6f" d="M 2918 1755 
C 2918 2362 2522 2816 1939 2816 
C 1094 2816 262 1896 262 996 
C 262 389 659 -64 1242 -64 
C 2093 -64 2918 855 2918 1755 
z
M 1248 64 
C 928 64 691 319 691 766 
C 691 1060 845 1711 1024 2030 
C 1312 2522 1670 2687 1933 2687 
C 2246 2687 2490 2432 2490 1985 
C 2490 1730 2355 1047 2112 657 
C 1850 230 1498 64 1248 64 
z
" transform="scale(0.015625)"/>
      <path id="CMMI12-63" d="M 2502 2432 
C 2381 2432 2323 2432 2234 2355 
C 2195 2323 2125 2227 2125 2124 
C 2125 1996 2221 1919 2342 1919 
C 2496 1919 2669 2047 2669 2303 
C 2669 2591 2374 2816 1933 2816 
C 1094 2816 256 1932 256 1011 
C 256 446 602 -64 1254 -64 
C 2125 -64 2675 622 2675 706 
C 2675 745 2637 777 2611 777 
C 2592 777 2586 771 2528 712 
C 2118 161 1510 64 1267 64 
C 826 64 685 453 685 777 
C 685 1004 794 1634 1024 2073 
C 1190 2374 1536 2687 1939 2687 
C 2022 2687 2374 2676 2502 2432 
z
" transform="scale(0.015625)"/>
      <path id="CMMI12-69" d="M 1811 913 
C 1811 945 1786 970 1747 970 
C 1690 970 1683 951 1651 842 
C 1485 261 1222 64 1011 64 
C 934 64 845 83 845 274 
C 845 447 922 638 992 830 
L 1440 2017 
C 1459 2068 1504 2183 1504 2305 
C 1504 2573 1312 2816 998 2816 
C 410 2816 173 1890 173 1838 
C 173 1813 198 1781 243 1781 
C 301 1781 307 1807 333 1896 
C 486 2432 730 2687 979 2687 
C 1037 2687 1146 2681 1146 2477 
C 1146 2311 1062 2100 1011 1960 
L 563 772 
C 525 670 486 568 486 453 
C 486 166 685 -64 992 -64 
C 1581 -64 1811 868 1811 913 
z
M 1760 4012 
C 1760 4108 1683 4224 1542 4224 
C 1395 4224 1229 4083 1229 3916 
C 1229 3756 1363 3705 1440 3705 
C 1613 3705 1760 3871 1760 4012 
z
" transform="scale(0.015625)"/>
      <path id="CMMI12-66" d="M 2854 2566 
C 2982 2566 3034 2566 3034 2687 
C 3034 2752 2982 2752 2867 2752 
L 2349 2752 
C 2470 3398 2560 3846 2611 4051 
C 2650 4204 2784 4351 2950 4351 
C 3085 4351 3219 4294 3283 4236 
C 3034 4211 2957 4025 2957 3916 
C 2957 3788 3053 3712 3174 3712 
C 3302 3712 3494 3820 3494 4064 
C 3494 4332 3226 4480 2944 4480 
C 2669 4480 2400 4275 2272 4025 
C 2157 3801 2093 3573 1946 2752 
L 1517 2752 
C 1395 2752 1331 2752 1331 2636 
C 1331 2566 1370 2566 1498 2566 
L 1907 2566 
C 1792 1977 1530 545 1382 -132 
C 1274 -685 1178 -1152 858 -1152 
C 838 -1152 653 -1152 538 -1031 
C 864 -1005 864 -724 864 -717 
C 864 -589 768 -512 646 -512 
C 518 -512 326 -621 326 -865 
C 326 -1140 608 -1280 858 -1280 
C 1510 -1280 1779 -113 1850 203 
C 1965 691 2278 2376 2310 2566 
L 2854 2566 
z
" transform="scale(0.015625)"/>
      <path id="CMMI12-6e" d="M 1318 1870 
C 1331 1909 1491 2228 1728 2432 
C 1894 2585 2112 2687 2362 2687 
C 2618 2687 2707 2496 2707 2241 
C 2707 1877 2445 1149 2317 804 
C 2259 651 2227 568 2227 453 
C 2227 166 2426 -64 2733 -64 
C 3328 -64 3552 874 3552 913 
C 3552 945 3526 970 3488 970 
C 3430 970 3424 951 3392 842 
C 3245 319 3002 64 2752 64 
C 2688 64 2586 70 2586 274 
C 2586 434 2656 625 2694 715 
C 2822 1066 3091 1781 3091 2145 
C 3091 2528 2867 2816 2381 2816 
C 1811 2816 1510 2413 1395 2253 
C 1376 2617 1114 2816 832 2816 
C 627 2816 486 2694 378 2477 
C 262 2247 173 1864 173 1838 
C 173 1813 198 1781 243 1781 
C 294 1781 301 1787 339 1934 
C 442 2324 557 2687 813 2687 
C 960 2687 1011 2585 1011 2394 
C 1011 2253 947 2004 902 1807 
L 723 1117 
C 698 996 627 708 595 593 
C 550 427 480 127 480 95 
C 480 6 550 -64 646 -64 
C 723 -64 813 -26 864 70 
C 877 102 934 325 966 453 
L 1107 1028 
L 1318 1870 
z
" transform="scale(0.015625)"/>
      <path id="CMMI12-67" d="M 2163 811 
C 2138 708 2125 683 2042 587 
C 1779 249 1510 128 1312 128 
C 1101 128 902 293 902 734 
C 902 1072 1094 1787 1235 2075 
C 1421 2432 1709 2687 1978 2687 
C 2400 2687 2483 2164 2483 2126 
L 2464 2036 
L 2163 811 
z
M 2560 2394 
C 2477 2579 2298 2816 1978 2816 
C 1280 2816 486 1941 486 989 
C 486 325 890 0 1299 0 
C 1638 0 1939 268 2054 396 
L 1914 -176 
C 1824 -520 1786 -677 1555 -896 
C 1293 -1152 1050 -1152 909 -1152 
C 717 -1152 557 -1140 397 -1090 
C 602 -1034 653 -858 653 -789 
C 653 -689 576 -589 435 -589 
C 282 -589 115 -714 115 -921 
C 115 -1178 378 -1280 922 -1280 
C 1747 -1280 2176 -758 2259 -420 
L 2970 2426 
C 2989 2502 2989 2515 2989 2528 
C 2989 2617 2918 2688 2822 2688 
C 2669 2688 2579 2560 2560 2388 
L 2560 2394 
z
" transform="scale(0.015625)"/>
      <path id="CMMI12-72" d="M 2490 2633 
C 2291 2598 2189 2457 2189 2316 
C 2189 2163 2310 2111 2400 2111 
C 2579 2111 2726 2265 2726 2457 
C 2726 2651 2528 2816 2208 2816 
C 1952 2816 1658 2700 1389 2335 
C 1344 2660 1088 2816 832 2816 
C 582 2816 454 2642 378 2508 
C 269 2278 173 1892 173 1860 
C 173 1834 198 1801 243 1801 
C 294 1801 301 1808 339 1957 
C 435 2342 557 2687 813 2687 
C 966 2687 1011 2604 1011 2419 
C 1011 2278 947 2028 902 1827 
L 723 1130 
C 698 1007 627 716 595 600 
C 550 432 480 128 480 96 
C 480 6 550 -64 646 -64 
C 717 -64 838 -20 877 109 
C 896 160 1133 1136 1171 1285 
C 1203 1427 1242 1562 1274 1705 
C 1299 1795 1325 1898 1344 1982 
C 1363 2040 1536 2355 1696 2495 
C 1773 2566 1939 2687 2202 2687 
C 2304 2687 2406 2674 2490 2633 
z
" transform="scale(0.015625)"/>
     </defs>
     <use xlink:href="#CMMI12-56" transform="scale(0.996264)"/>
     <use xlink:href="#CMMI12-65" transform="translate(78.547321 0) scale(0.996264)"/>
     <use xlink:href="#CMMI12-6c" transform="translate(123.759322 0) scale(0.996264)"/>
     <use xlink:href="#CMMI12-6f" transform="translate(155.007726 0) scale(0.996264)"/>
     <use xlink:href="#CMMI12-63" transform="translate(201.903035 0) scale(0.996264)"/>
     <use xlink:href="#CMMI12-69" transform="translate(243.886269 0) scale(0.996264)"/>
     <use xlink:href="#CMMI12-74" transform="translate(277.164871 0) scale(0.996264)"/>
     <use xlink:href="#CMMI12-69" transform="translate(312.391201 0) scale(0.996264)"/>
     <use xlink:href="#CMMI12-65" transform="translate(345.669803 0) scale(0.996264)"/>
     <use xlink:href="#CMMI12-73" transform="translate(390.881804 0) scale(0.996264)"/>
     <use xlink:href="#CMMI12-76" transform="translate(464.527021 0) scale(0.996264)"/>
     <use xlink:href="#CMR17-30" transform="translate(511.687602 -14.943915) scale(0.697382)"/>
     <use xlink:href="#CMMI12-6f" transform="translate(571.864085 0) scale(0.996264)"/>
     <use xlink:href="#CMMI12-66" transform="translate(618.759395 0) scale(0.996264)"/>
     <use xlink:href="#CMMI12-74" transform="translate(705.174869 0) scale(0.996264)"/>
     <use xlink:href="#CMMI12-68" transform="translate(740.401199 0) scale(0.996264)"/>
     <use xlink:href="#CMMI12-65" transform="translate(796.555823 0) scale(0.996264)"/>
     <use xlink:href="#CMMI12-6c" transform="translate(869.462994 0) scale(0.996264)"/>
     <use xlink:href="#CMMI12-65" transform="translate(900.711398 0) scale(0.996264)"/>
     <use xlink:href="#CMMI12-61" transform="translate(945.923399 0) scale(0.996264)"/>
     <use xlink:href="#CMMI12-64" transform="translate(997.131256 0) scale(0.996264)"/>
     <use xlink:href="#CMMI12-69" transform="translate(1047.820353 0) scale(0.996264)"/>
     <use xlink:href="#CMMI12-6e" transform="translate(1081.098955 0) scale(0.996264)"/>
     <use xlink:href="#CMMI12-67" transform="translate(1139.329002 0) scale(0.996264)"/>
     <use xlink:href="#CMMI12-63" transform="translate(1217.309662 0) scale(0.996264)"/>
     <use xlink:href="#CMMI12-61" transform="translate(1259.292895 0) scale(0.996264)"/>
     <use xlink:href="#CMMI12-72" transform="translate(1310.500753 0) scale(0.996264)"/>
    </g>
   </g>
   <g id="legend_1">
    <g id="patch_7">
     <path d="M 337.233009 102.239182 
L 430.691702 102.239182 
Q 432.691702 102.239182 432.691702 100.239182 
L 432.691702 30.137648 
Q 432.691702 28.137648 430.691702 28.137648 
L 337.233009 28.137648 
Q 335.233009 28.137648 335.233009 30.137648 
L 335.233009 100.239182 
Q 335.233009 102.239182 337.233009 102.239182 
z
" style="fill: #ffffff; opacity: 0.8; stroke: #cccccc; stroke-linejoin: miter"/>
    </g>
    <g id="line2d_42">
     <path d="M 339.233009 35.735969 
L 349.233009 35.735969 
L 359.233009 35.735969 
" style="fill: none; stroke: #000000; stroke-width: 1.5; stroke-linecap: square"/>
    </g>
    <g id="text_22">
     <!-- NN2 500 iter -->
     <g transform="translate(367.233009 39.235969) scale(0.1 -0.1)">
      <defs>
       <path id="NimbusSanL-Regu-4e" d="M 4134 4672 
L 3571 4672 
L 3571 852 
L 1133 4672 
L 486 4672 
L 486 0 
L 1050 0 
L 1050 3787 
L 3462 0 
L 4134 0 
L 4134 4672 
z
" transform="scale(0.015625)"/>
       <path id="NimbusSanL-Regu-32" d="M 3238 556 
L 851 556 
C 909 928 1114 1165 1670 1493 
L 2310 1839 
C 2944 2185 3270 2653 3270 3211 
C 3270 3589 3117 3942 2848 4185 
C 2579 4428 2246 4544 1818 4544 
C 1242 4544 813 4339 563 3955 
C 403 3711 333 3429 320 2967 
L 883 2967 
C 902 3275 941 3461 1018 3608 
C 1165 3884 1459 4051 1798 4051 
C 2310 4051 2694 3685 2694 3198 
C 2694 2839 2483 2531 2080 2300 
L 1491 1967 
C 544 1428 269 999 218 0 
L 3238 0 
L 3238 556 
z
" transform="scale(0.015625)"/>
       <path id="NimbusSanL-Regu-35" d="M 3046 4544 
L 704 4544 
L 365 2076 
L 883 2076 
C 1146 2387 1363 2496 1715 2496 
C 2323 2496 2707 2082 2707 1414 
C 2707 765 2330 371 1715 371 
C 1222 371 922 619 787 1128 
L 224 1128 
C 301 759 365 581 499 415 
C 755 70 1216 -128 1728 -128 
C 2643 -128 3283 536 3283 1490 
C 3283 2381 2688 2995 1818 2995 
C 1498 2995 1242 2912 979 2720 
L 1158 3987 
L 3046 3987 
L 3046 4544 
z
" transform="scale(0.015625)"/>
       <path id="NimbusSanL-Regu-30" d="M 1760 4544 
C 1338 4544 954 4358 717 4044 
C 422 3649 275 3043 275 2207 
C 275 683 787 -128 1760 -128 
C 2720 -128 3245 683 3245 2169 
C 3245 3049 3104 3636 2803 4044 
C 2566 4364 2189 4544 1760 4544 
z
M 1760 4044 
C 2368 4044 2669 3432 2669 2220 
C 2669 938 2374 339 1747 339 
C 1152 339 851 964 851 2201 
C 851 3438 1152 4044 1760 4044 
z
" transform="scale(0.015625)"/>
       <path id="NimbusSanL-Regu-69" d="M 960 3358 
L 429 3358 
L 429 0 
L 960 0 
L 960 3358 
z
M 960 4672 
L 422 4672 
L 422 3999 
L 960 3999 
L 960 4672 
z
" transform="scale(0.015625)"/>
       <path id="NimbusSanL-Regu-74" d="M 1626 3328 
L 1075 3328 
L 1075 4249 
L 544 4249 
L 544 3328 
L 90 3328 
L 90 2892 
L 544 2892 
L 544 402 
C 544 64 774 -128 1190 -128 
C 1318 -128 1446 -116 1626 -84 
L 1626 364 
C 1555 345 1472 339 1370 339 
C 1139 339 1075 402 1075 634 
L 1075 2892 
L 1626 2892 
L 1626 3328 
z
" transform="scale(0.015625)"/>
       <path id="NimbusSanL-Regu-65" d="M 3283 1484 
C 3283 1998 3245 2311 3149 2565 
C 2931 3123 2419 3456 1792 3456 
C 858 3456 256 2734 256 1619 
C 256 545 838 -128 1779 -128 
C 2547 -128 3078 307 3213 1018 
L 2675 1018 
C 2528 588 2227 364 1798 364 
C 1459 364 1171 514 992 787 
C 864 974 819 1161 813 1484 
L 3283 1484 
z
M 826 1920 
C 870 2552 1248 2963 1786 2963 
C 2310 2963 2714 2519 2714 1959 
C 2714 1946 2714 1933 2707 1920 
L 826 1920 
z
" transform="scale(0.015625)"/>
       <path id="NimbusSanL-Regu-72" d="M 442 3328 
L 442 0 
L 979 0 
L 979 1727 
C 979 2203 1101 2514 1357 2698 
C 1523 2819 1683 2857 2054 2863 
L 2054 3404 
C 1965 3449 1920 3456 1850 3456 
C 1504 3456 1242 3251 934 2750 
L 934 3328 
L 442 3328 
z
" transform="scale(0.015625)"/>
      </defs>
      <use xlink:href="#NimbusSanL-Regu-4e" transform="scale(0.996264)"/>
      <use xlink:href="#NimbusSanL-Regu-4e" transform="translate(71.929985 0) scale(0.996264)"/>
      <use xlink:href="#NimbusSanL-Regu-32" transform="translate(143.85997 0) scale(0.996264)"/>
      <use xlink:href="#NimbusSanL-Regu-35" transform="translate(226.946816 0) scale(0.996264)"/>
      <use xlink:href="#NimbusSanL-Regu-30" transform="translate(282.338493 0) scale(0.996264)"/>
      <use xlink:href="#NimbusSanL-Regu-30" transform="translate(337.73017 0) scale(0.996264)"/>
      <use xlink:href="#NimbusSanL-Regu-69" transform="translate(420.817017 0) scale(0.996264)"/>
      <use xlink:href="#NimbusSanL-Regu-74" transform="translate(442.933801 0) scale(0.996264)"/>
      <use xlink:href="#NimbusSanL-Regu-65" transform="translate(470.628971 0) scale(0.996264)"/>
      <use xlink:href="#NimbusSanL-Regu-72" transform="translate(526.020648 0) scale(0.996264)"/>
     </g>
    </g>
    <g id="line2d_43">
     <path d="M 339.233009 49.956275 
L 349.233009 49.956275 
L 359.233009 49.956275 
" style="fill: none; stroke: #4169e1; stroke-width: 1.5; stroke-linecap: square"/>
    </g>
    <g id="text_23">
     <!-- NN4 500 iter -->
     <g transform="translate(367.233009 53.456275) scale(0.1 -0.1)">
      <defs>
       <path id="NimbusSanL-Regu-34" d="M 2093 1088 
L 2093 0 
L 2656 0 
L 2656 1088 
L 3328 1088 
L 3328 1593 
L 2656 1593 
L 2656 4537 
L 2240 4537 
L 179 1683 
L 179 1088 
L 2093 1088 
z
M 2093 1593 
L 672 1593 
L 2093 3577 
L 2093 1593 
z
" transform="scale(0.015625)"/>
      </defs>
      <use xlink:href="#NimbusSanL-Regu-4e" transform="scale(0.996264)"/>
      <use xlink:href="#NimbusSanL-Regu-4e" transform="translate(71.929985 0) scale(0.996264)"/>
      <use xlink:href="#NimbusSanL-Regu-34" transform="translate(143.85997 0) scale(0.996264)"/>
      <use xlink:href="#NimbusSanL-Regu-35" transform="translate(226.946816 0) scale(0.996264)"/>
      <use xlink:href="#NimbusSanL-Regu-30" transform="translate(282.338493 0) scale(0.996264)"/>
      <use xlink:href="#NimbusSanL-Regu-30" transform="translate(337.73017 0) scale(0.996264)"/>
      <use xlink:href="#NimbusSanL-Regu-69" transform="translate(420.817017 0) scale(0.996264)"/>
      <use xlink:href="#NimbusSanL-Regu-74" transform="translate(442.933801 0) scale(0.996264)"/>
      <use xlink:href="#NimbusSanL-Regu-65" transform="translate(470.628971 0) scale(0.996264)"/>
      <use xlink:href="#NimbusSanL-Regu-72" transform="translate(526.020648 0) scale(0.996264)"/>
     </g>
    </g>
    <g id="line2d_44">
     <path d="M 339.233009 64.176582 
L 349.233009 64.176582 
L 359.233009 64.176582 
" style="fill: none; stroke: #ff7f50; stroke-width: 1.5; stroke-linecap: square"/>
    </g>
    <g id="text_24">
     <!-- NN10 500 iter -->
     <g transform="translate(367.233009 67.676582) scale(0.1 -0.1)">
      <defs>
       <path id="NimbusSanL-Regu-31" d="M 1658 3232 
L 1658 0 
L 2221 0 
L 2221 4537 
L 1850 4537 
C 1651 3840 1523 3744 653 3635 
L 653 3232 
L 1658 3232 
z
" transform="scale(0.015625)"/>
      </defs>
      <use xlink:href="#NimbusSanL-Regu-4e" transform="scale(0.996264)"/>
      <use xlink:href="#NimbusSanL-Regu-4e" transform="translate(71.929985 0) scale(0.996264)"/>
      <use xlink:href="#NimbusSanL-Regu-31" transform="translate(143.85997 0) scale(0.996264)"/>
      <use xlink:href="#NimbusSanL-Regu-30" transform="translate(199.251647 0) scale(0.996264)"/>
      <use xlink:href="#NimbusSanL-Regu-35" transform="translate(282.338493 0) scale(0.996264)"/>
      <use xlink:href="#NimbusSanL-Regu-30" transform="translate(337.73017 0) scale(0.996264)"/>
      <use xlink:href="#NimbusSanL-Regu-30" transform="translate(393.121847 0) scale(0.996264)"/>
      <use xlink:href="#NimbusSanL-Regu-69" transform="translate(476.208694 0) scale(0.996264)"/>
      <use xlink:href="#NimbusSanL-Regu-74" transform="translate(498.325478 0) scale(0.996264)"/>
      <use xlink:href="#NimbusSanL-Regu-65" transform="translate(526.020648 0) scale(0.996264)"/>
      <use xlink:href="#NimbusSanL-Regu-72" transform="translate(581.412325 0) scale(0.996264)"/>
     </g>
    </g>
    <g id="line2d_45">
     <path d="M 339.233009 78.396889 
L 349.233009 78.396889 
L 359.233009 78.396889 
" style="fill: none; stroke: #ffd700; stroke-width: 1.5; stroke-linecap: square"/>
    </g>
    <g id="text_25">
     <!-- Lin -->
     <g transform="translate(367.233009 81.896889) scale(0.1 -0.1)">
      <defs>
       <path id="NimbusSanL-Regu-4c" d="M 1107 4672 
L 512 4672 
L 512 0 
L 3411 0 
L 3411 524 
L 1107 524 
L 1107 4672 
z
" transform="scale(0.015625)"/>
       <path id="NimbusSanL-Regu-6e" d="M 448 3328 
L 448 0 
L 986 0 
L 986 1835 
C 986 2539 1344 2988 1894 2988 
C 2317 2988 2586 2732 2586 2328 
L 2586 0 
L 3117 0 
L 3117 2539 
C 3117 3097 2701 3456 2054 3456 
C 1555 3456 1235 3263 941 2796 
L 941 3328 
L 448 3328 
z
" transform="scale(0.015625)"/>
      </defs>
      <use xlink:href="#NimbusSanL-Regu-4c" transform="scale(0.996264)"/>
      <use xlink:href="#NimbusSanL-Regu-69" transform="translate(55.391677 0) scale(0.996264)"/>
      <use xlink:href="#NimbusSanL-Regu-6e" transform="translate(77.508461 0) scale(0.996264)"/>
     </g>
    </g>
    <g id="line2d_46">
     <path d="M 339.233009 92.617195 
L 349.233009 92.617195 
L 359.233009 92.617195 
" style="fill: none; stroke: #00ff00; stroke-width: 1.5; stroke-linecap: square"/>
    </g>
    <g id="text_26">
     <!-- Log -->
     <g transform="translate(367.233009 96.117195) scale(0.1 -0.1)">
      <defs>
       <path id="NimbusSanL-Regu-6f" d="M 1741 3456 
C 800 3456 230 2784 230 1663 
C 230 543 794 -128 1747 -128 
C 2688 -128 3264 543 3264 1638 
C 3264 2791 2707 3456 1741 3456 
z
M 1747 2963 
C 2349 2963 2707 2472 2707 1644 
C 2707 861 2336 364 1747 364 
C 1152 364 787 855 787 1663 
C 787 2466 1152 2963 1747 2963 
z
" transform="scale(0.015625)"/>
       <path id="NimbusSanL-Regu-67" d="M 2637 3359 
L 2637 2873 
C 2368 3270 2042 3456 1613 3456 
C 762 3456 186 2714 186 1632 
C 186 1084 333 638 608 320 
C 858 38 1216 -128 1568 -128 
C 1990 -128 2285 51 2586 473 
L 2586 300 
C 2586 -155 2528 -441 2394 -634 
C 2253 -841 1978 -960 1651 -960 
C 1408 -960 1190 -894 1043 -774 
C 922 -674 870 -581 838 -375 
L 294 -375 
C 352 -1031 845 -1408 1632 -1408 
C 2131 -1408 2560 -1248 2778 -980 
C 3034 -661 3130 -222 3130 568 
L 3130 3359 
L 2637 3359 
z
M 1670 2963 
C 2246 2963 2586 2479 2586 1644 
C 2586 848 2240 364 1677 364 
C 1094 364 742 855 742 1663 
C 742 2466 1101 2963 1670 2963 
z
" transform="scale(0.015625)"/>
      </defs>
      <use xlink:href="#NimbusSanL-Regu-4c" transform="scale(0.996264)"/>
      <use xlink:href="#NimbusSanL-Regu-6f" transform="translate(55.391677 0) scale(0.996264)"/>
      <use xlink:href="#NimbusSanL-Regu-67" transform="translate(110.783354 0) scale(0.996264)"/>
     </g>
    </g>
   </g>
  </g>
 </g>
 <defs>
  <clipPath id="p033d692fd3">
   <rect x="47.091702" y="23.137648" width="390.6" height="277.2"/>
  </clipPath>
 </defs>
</svg>
