<?xml version="1.0" encoding="utf-8" standalone="no"?>
<!DOCTYPE svg PUBLIC "-//W3C//DTD SVG 1.1//EN"
  "http://www.w3.org/Graphics/SVG/1.1/DTD/svg11.dtd">
<svg xmlns:xlink="http://www.w3.org/1999/xlink" width="444.891702pt" height="340.666381pt" viewBox="0 0 444.891702 340.666381" xmlns="http://www.w3.org/2000/svg" version="1.1">
 <metadata>
  <rdf:RDF xmlns:dc="http://purl.org/dc/elements/1.1/" xmlns:cc="http://creativecommons.org/ns#" xmlns:rdf="http://www.w3.org/1999/02/22-rdf-syntax-ns#">
   <cc:Work>
    <dc:type rdf:resource="http://purl.org/dc/dcmitype/StillImage"/>
    <dc:date>2023-12-25T10:55:38.460144</dc:date>
    <dc:format>image/svg+xml</dc:format>
    <dc:creator>
     <cc:Agent>
      <dc:title>Matplotlib v3.8.2, https://matplotlib.org/</dc:title>
     </cc:Agent>
    </dc:creator>
   </cc:Work>
  </rdf:RDF>
 </metadata>
 <defs>
  <style type="text/css">*{stroke-linejoin: round; stroke-linecap: butt}</style>
 </defs>
 <g id="figure_1">
  <g id="patch_1">
   <path d="M 0 340.666381 
L 444.891702 340.666381 
L 444.891702 0 
L 0 0 
z
" style="fill: #ffffff"/>
  </g>
  <g id="axes_1">
   <g id="patch_2">
    <path d="M 47.091702 300.337648 
L 437.691702 300.337648 
L 437.691702 23.137648 
L 47.091702 23.137648 
z
" style="fill: #ffffff"/>
   </g>
   <g id="PathCollection_1">
    <path d="M 57.370649 44.92753 
C 58.166259 44.92753 58.929389 44.611431 59.49197 44.04885 
C 60.05455 43.48627 60.370649 42.723139 60.370649 41.92753 
C 60.370649 41.131921 60.05455 40.36879 59.49197 39.80621 
C 58.929389 39.243629 58.166259 38.92753 57.370649 38.92753 
C 56.57504 38.92753 55.81191 39.243629 55.249329 39.80621 
C 54.686748 40.36879 54.370649 41.131921 54.370649 41.92753 
C 54.370649 42.723139 54.686748 43.48627 55.249329 44.04885 
C 55.81191 44.611431 56.57504 44.92753 57.370649 44.92753 
L 57.370649 44.92753 
z
" clip-path="url(#p9ab99660ee)" style="fill: none; stroke: #008000"/>
   </g>
   <g id="PathCollection_2">
    <path d="M 98.486439 271.398258 
C 99.282048 271.398258 100.045178 271.082159 100.607759 270.519578 
C 101.17034 269.956997 101.486439 269.193867 101.486439 268.398258 
C 101.486439 267.602649 101.17034 266.839518 100.607759 266.276938 
C 100.045178 265.714357 99.282048 265.398258 98.486439 265.398258 
C 97.690829 265.398258 96.927699 265.714357 96.365118 266.276938 
C 95.802538 266.839518 95.486439 267.602649 95.486439 268.398258 
C 95.486439 269.193867 95.802538 269.956997 96.365118 270.519578 
C 96.927699 271.082159 97.690829 271.398258 98.486439 271.398258 
L 98.486439 271.398258 
z
" clip-path="url(#p9ab99660ee)" style="fill: none; stroke: #008000"/>
   </g>
   <g id="PathCollection_3">
    <path d="M 139.602228 38.737649 
C 140.397838 38.737649 141.160968 38.42155 141.723549 37.858969 
C 142.286129 37.296388 142.602228 36.533258 142.602228 35.737649 
C 142.602228 34.942039 142.286129 34.178909 141.723549 33.616328 
C 141.160968 33.053748 140.397838 32.737649 139.602228 32.737649 
C 138.806619 32.737649 138.043489 33.053748 137.480908 33.616328 
C 136.918327 34.178909 136.602228 34.942039 136.602228 35.737649 
C 136.602228 36.533258 136.918327 37.296388 137.480908 37.858969 
C 138.043489 38.42155 138.806619 38.737649 139.602228 38.737649 
L 139.602228 38.737649 
z
" clip-path="url(#p9ab99660ee)" style="fill: none; stroke: #008000"/>
   </g>
   <g id="PathCollection_4">
    <path d="M 180.718018 200.133309 
C 181.513627 200.133309 182.276757 199.81721 182.839338 199.254629 
C 183.401919 198.692049 183.718018 197.928918 183.718018 197.133309 
C 183.718018 196.3377 183.401919 195.574569 182.839338 195.011989 
C 182.276757 194.449408 181.513627 194.133309 180.718018 194.133309 
C 179.922408 194.133309 179.159278 194.449408 178.596697 195.011989 
C 178.034117 195.574569 177.718018 196.3377 177.718018 197.133309 
C 177.718018 197.928918 178.034117 198.692049 178.596697 199.254629 
C 179.159278 199.81721 179.922408 200.133309 180.718018 200.133309 
L 180.718018 200.133309 
z
" clip-path="url(#p9ab99660ee)" style="fill: none; stroke: #008000"/>
   </g>
   <g id="PathCollection_5">
    <path d="M 221.833807 103.836005 
C 222.629416 103.836005 223.392547 103.519906 223.955128 102.957325 
C 224.517708 102.394745 224.833807 101.631614 224.833807 100.836005 
C 224.833807 100.040396 224.517708 99.277266 223.955128 98.714685 
C 223.392547 98.152104 222.629416 97.836005 221.833807 97.836005 
C 221.038198 97.836005 220.275068 98.152104 219.712487 98.714685 
C 219.149906 99.277266 218.833807 100.040396 218.833807 100.836005 
C 218.833807 101.631614 219.149906 102.394745 219.712487 102.957325 
C 220.275068 103.519906 221.038198 103.836005 221.833807 103.836005 
L 221.833807 103.836005 
z
" clip-path="url(#p9ab99660ee)" style="fill: none; stroke: #008000"/>
   </g>
   <g id="PathCollection_6">
    <path d="M 262.949597 251.822991 
C 263.745206 251.822991 264.508336 251.506892 265.070917 250.944311 
C 265.633498 250.38173 265.949597 249.6186 265.949597 248.822991 
C 265.949597 248.027382 265.633498 247.264251 265.070917 246.701671 
C 264.508336 246.13909 263.745206 245.822991 262.949597 245.822991 
C 262.153987 245.822991 261.390857 246.13909 260.828276 246.701671 
C 260.265696 247.264251 259.949597 248.027382 259.949597 248.822991 
C 259.949597 249.6186 260.265696 250.38173 260.828276 250.944311 
C 261.390857 251.506892 262.153987 251.822991 262.949597 251.822991 
L 262.949597 251.822991 
z
" clip-path="url(#p9ab99660ee)" style="fill: none; stroke: #008000"/>
   </g>
   <g id="PathCollection_7">
    <path d="M 304.065386 99.655753 
C 304.860995 99.655753 305.624126 99.339654 306.186706 98.777073 
C 306.749287 98.214492 307.065386 97.451362 307.065386 96.655753 
C 307.065386 95.860143 306.749287 95.097013 306.186706 94.534432 
C 305.624126 93.971851 304.860995 93.655753 304.065386 93.655753 
C 303.269777 93.655753 302.506646 93.971851 301.944066 94.534432 
C 301.381485 95.097013 301.065386 95.860143 301.065386 96.655753 
C 301.065386 97.451362 301.381485 98.214492 301.944066 98.777073 
C 302.506646 99.339654 303.269777 99.655753 304.065386 99.655753 
L 304.065386 99.655753 
z
" clip-path="url(#p9ab99660ee)" style="fill: none; stroke: #008000"/>
   </g>
   <g id="PathCollection_8">
    <path d="M 345.181176 244.305335 
C 345.976785 244.305335 346.739915 243.989237 347.302496 243.426656 
C 347.865077 242.864075 348.181176 242.100945 348.181176 241.305335 
C 348.181176 240.509726 347.865077 239.746596 347.302496 239.184015 
C 346.739915 238.621434 345.976785 238.305335 345.181176 238.305335 
C 344.385566 238.305335 343.622436 238.621434 343.059855 239.184015 
C 342.497275 239.746596 342.181176 240.509726 342.181176 241.305335 
C 342.181176 242.100945 342.497275 242.864075 343.059855 243.426656 
C 343.622436 243.989237 344.385566 244.305335 345.181176 244.305335 
L 345.181176 244.305335 
z
" clip-path="url(#p9ab99660ee)" style="fill: none; stroke: #008000"/>
   </g>
   <g id="PathCollection_9">
    <path d="M 386.296965 137.09388 
C 387.092574 137.09388 387.855705 136.777781 388.418285 136.2152 
C 388.980866 135.652619 389.296965 134.889489 389.296965 134.09388 
C 389.296965 133.29827 388.980866 132.53514 388.418285 131.972559 
C 387.855705 131.409979 387.092574 131.09388 386.296965 131.09388 
C 385.501356 131.09388 384.738225 131.409979 384.175645 131.972559 
C 383.613064 132.53514 383.296965 133.29827 383.296965 134.09388 
C 383.296965 134.889489 383.613064 135.652619 384.175645 136.2152 
C 384.738225 136.777781 385.501356 137.09388 386.296965 137.09388 
L 386.296965 137.09388 
z
" clip-path="url(#p9ab99660ee)" style="fill: none; stroke: #008000"/>
   </g>
   <g id="PathCollection_10">
    <path d="M 427.412755 290.73759 
C 428.208364 290.73759 428.971494 290.421491 429.534075 289.858911 
C 430.096656 289.29633 430.412755 288.5332 430.412755 287.73759 
C 430.412755 286.941981 430.096656 286.178851 429.534075 285.61627 
C 428.971494 285.053689 428.208364 284.73759 427.412755 284.73759 
C 426.617145 284.73759 425.854015 285.053689 425.291434 285.61627 
C 424.728853 286.178851 424.412755 286.941981 424.412755 287.73759 
C 424.412755 288.5332 424.728853 289.29633 425.291434 289.858911 
C 425.854015 290.421491 426.617145 290.73759 427.412755 290.73759 
L 427.412755 290.73759 
z
" clip-path="url(#p9ab99660ee)" style="fill: none; stroke: #008000"/>
   </g>
   <g id="PathCollection_11">
    <path d="M 57.370649 44.92785 
C 58.166259 44.92785 58.929389 44.611752 59.49197 44.049171 
C 60.05455 43.48659 60.370649 42.72346 60.370649 41.92785 
C 60.370649 41.132241 60.05455 40.369111 59.49197 39.80653 
C 58.929389 39.243949 58.166259 38.92785 57.370649 38.92785 
C 56.57504 38.92785 55.81191 39.243949 55.249329 39.80653 
C 54.686748 40.369111 54.370649 41.132241 54.370649 41.92785 
C 54.370649 42.72346 54.686748 43.48659 55.249329 44.049171 
C 55.81191 44.611752 56.57504 44.92785 57.370649 44.92785 
L 57.370649 44.92785 
z
" clip-path="url(#p9ab99660ee)" style="fill: none; stroke: #4169e1"/>
   </g>
   <g id="PathCollection_12">
    <path d="M 98.486439 271.398241 
C 99.282048 271.398241 100.045178 271.082142 100.607759 270.519561 
C 101.17034 269.956981 101.486439 269.19385 101.486439 268.398241 
C 101.486439 267.602632 101.17034 266.839501 100.607759 266.276921 
C 100.045178 265.71434 99.282048 265.398241 98.486439 265.398241 
C 97.690829 265.398241 96.927699 265.71434 96.365118 266.276921 
C 95.802538 266.839501 95.486439 267.602632 95.486439 268.398241 
C 95.486439 269.19385 95.802538 269.956981 96.365118 270.519561 
C 96.927699 271.082142 97.690829 271.398241 98.486439 271.398241 
L 98.486439 271.398241 
z
" clip-path="url(#p9ab99660ee)" style="fill: none; stroke: #4169e1"/>
   </g>
   <g id="PathCollection_13">
    <path d="M 139.602228 38.73765 
C 140.397838 38.73765 141.160968 38.421551 141.723549 37.85897 
C 142.286129 37.29639 142.602228 36.533259 142.602228 35.73765 
C 142.602228 34.942041 142.286129 34.17891 141.723549 33.61633 
C 141.160968 33.053749 140.397838 32.73765 139.602228 32.73765 
C 138.806619 32.73765 138.043489 33.053749 137.480908 33.61633 
C 136.918327 34.17891 136.602228 34.942041 136.602228 35.73765 
C 136.602228 36.533259 136.918327 37.29639 137.480908 37.85897 
C 138.043489 38.421551 138.806619 38.73765 139.602228 38.73765 
L 139.602228 38.73765 
z
" clip-path="url(#p9ab99660ee)" style="fill: none; stroke: #4169e1"/>
   </g>
   <g id="PathCollection_14">
    <path d="M 180.718018 200.13329 
C 181.513627 200.13329 182.276757 199.817192 182.839338 199.254611 
C 183.401919 198.69203 183.718018 197.9289 183.718018 197.13329 
C 183.718018 196.337681 183.401919 195.574551 182.839338 195.01197 
C 182.276757 194.449389 181.513627 194.13329 180.718018 194.13329 
C 179.922408 194.13329 179.159278 194.449389 178.596697 195.01197 
C 178.034117 195.574551 177.718018 196.337681 177.718018 197.13329 
C 177.718018 197.9289 178.034117 198.69203 178.596697 199.254611 
C 179.159278 199.817192 179.922408 200.13329 180.718018 200.13329 
L 180.718018 200.13329 
z
" clip-path="url(#p9ab99660ee)" style="fill: none; stroke: #4169e1"/>
   </g>
   <g id="PathCollection_15">
    <path d="M 221.833807 103.836055 
C 222.629416 103.836055 223.392547 103.519956 223.955128 102.957375 
C 224.517708 102.394795 224.833807 101.631664 224.833807 100.836055 
C 224.833807 100.040446 224.517708 99.277315 223.955128 98.714735 
C 223.392547 98.152154 222.629416 97.836055 221.833807 97.836055 
C 221.038198 97.836055 220.275068 98.152154 219.712487 98.714735 
C 219.149906 99.277315 218.833807 100.040446 218.833807 100.836055 
C 218.833807 101.631664 219.149906 102.394795 219.712487 102.957375 
C 220.275068 103.519956 221.038198 103.836055 221.833807 103.836055 
L 221.833807 103.836055 
z
" clip-path="url(#p9ab99660ee)" style="fill: none; stroke: #4169e1"/>
   </g>
   <g id="PathCollection_16">
    <path d="M 262.949597 251.822977 
C 263.745206 251.822977 264.508336 251.506878 265.070917 250.944297 
C 265.633498 250.381717 265.949597 249.618586 265.949597 248.822977 
C 265.949597 248.027368 265.633498 247.264237 265.070917 246.701657 
C 264.508336 246.139076 263.745206 245.822977 262.949597 245.822977 
C 262.153987 245.822977 261.390857 246.139076 260.828276 246.701657 
C 260.265696 247.264237 259.949597 248.027368 259.949597 248.822977 
C 259.949597 249.618586 260.265696 250.381717 260.828276 250.944297 
C 261.390857 251.506878 262.153987 251.822977 262.949597 251.822977 
L 262.949597 251.822977 
z
" clip-path="url(#p9ab99660ee)" style="fill: none; stroke: #4169e1"/>
   </g>
   <g id="PathCollection_17">
    <path d="M 304.065386 99.655748 
C 304.860995 99.655748 305.624126 99.339649 306.186706 98.777069 
C 306.749287 98.214488 307.065386 97.451358 307.065386 96.655748 
C 307.065386 95.860139 306.749287 95.097009 306.186706 94.534428 
C 305.624126 93.971847 304.860995 93.655748 304.065386 93.655748 
C 303.269777 93.655748 302.506646 93.971847 301.944066 94.534428 
C 301.381485 95.097009 301.065386 95.860139 301.065386 96.655748 
C 301.065386 97.451358 301.381485 98.214488 301.944066 98.777069 
C 302.506646 99.339649 303.269777 99.655748 304.065386 99.655748 
L 304.065386 99.655748 
z
" clip-path="url(#p9ab99660ee)" style="fill: none; stroke: #4169e1"/>
   </g>
   <g id="PathCollection_18">
    <path d="M 345.181176 244.305335 
C 345.976785 244.305335 346.739915 243.989236 347.302496 243.426655 
C 347.865077 242.864075 348.181176 242.100944 348.181176 241.305335 
C 348.181176 240.509726 347.865077 239.746595 347.302496 239.184015 
C 346.739915 238.621434 345.976785 238.305335 345.181176 238.305335 
C 344.385566 238.305335 343.622436 238.621434 343.059855 239.184015 
C 342.497275 239.746595 342.181176 240.509726 342.181176 241.305335 
C 342.181176 242.100944 342.497275 242.864075 343.059855 243.426655 
C 343.622436 243.989236 344.385566 244.305335 345.181176 244.305335 
L 345.181176 244.305335 
z
" clip-path="url(#p9ab99660ee)" style="fill: none; stroke: #4169e1"/>
   </g>
   <g id="PathCollection_19">
    <path d="M 386.296965 137.09388 
C 387.092574 137.09388 387.855705 136.777781 388.418285 136.2152 
C 388.980866 135.652619 389.296965 134.889489 389.296965 134.09388 
C 389.296965 133.29827 388.980866 132.53514 388.418285 131.972559 
C 387.855705 131.409979 387.092574 131.09388 386.296965 131.09388 
C 385.501356 131.09388 384.738225 131.409979 384.175645 131.972559 
C 383.613064 132.53514 383.296965 133.29827 383.296965 134.09388 
C 383.296965 134.889489 383.613064 135.652619 384.175645 136.2152 
C 384.738225 136.777781 385.501356 137.09388 386.296965 137.09388 
L 386.296965 137.09388 
z
" clip-path="url(#p9ab99660ee)" style="fill: none; stroke: #4169e1"/>
   </g>
   <g id="PathCollection_20">
    <path d="M 427.412755 290.737591 
C 428.208364 290.737591 428.971494 290.421492 429.534075 289.858911 
C 430.096656 289.29633 430.412755 288.5332 430.412755 287.737591 
C 430.412755 286.941981 430.096656 286.178851 429.534075 285.61627 
C 428.971494 285.05369 428.208364 284.737591 427.412755 284.737591 
C 426.617145 284.737591 425.854015 285.05369 425.291434 285.61627 
C 424.728853 286.178851 424.412755 286.941981 424.412755 287.737591 
C 424.412755 288.5332 424.728853 289.29633 425.291434 289.858911 
C 425.854015 290.421492 426.617145 290.737591 427.412755 290.737591 
L 427.412755 290.737591 
z
" clip-path="url(#p9ab99660ee)" style="fill: none; stroke: #4169e1"/>
   </g>
   <g id="PathCollection_21">
    <path d="M 57.370649 44.927851 
C 58.166259 44.927851 58.929389 44.611752 59.49197 44.049171 
C 60.05455 43.48659 60.370649 42.72346 60.370649 41.927851 
C 60.370649 41.132241 60.05455 40.369111 59.49197 39.80653 
C 58.929389 39.24395 58.166259 38.927851 57.370649 38.927851 
C 56.57504 38.927851 55.81191 39.24395 55.249329 39.80653 
C 54.686748 40.369111 54.370649 41.132241 54.370649 41.927851 
C 54.370649 42.72346 54.686748 43.48659 55.249329 44.049171 
C 55.81191 44.611752 56.57504 44.927851 57.370649 44.927851 
L 57.370649 44.927851 
z
" clip-path="url(#p9ab99660ee)" style="fill: none; stroke: #ff7f50"/>
   </g>
   <g id="PathCollection_22">
    <path d="M 98.486439 271.398244 
C 99.282048 271.398244 100.045178 271.082145 100.607759 270.519565 
C 101.17034 269.956984 101.486439 269.193854 101.486439 268.398244 
C 101.486439 267.602635 101.17034 266.839505 100.607759 266.276924 
C 100.045178 265.714343 99.282048 265.398244 98.486439 265.398244 
C 97.690829 265.398244 96.927699 265.714343 96.365118 266.276924 
C 95.802538 266.839505 95.486439 267.602635 95.486439 268.398244 
C 95.486439 269.193854 95.802538 269.956984 96.365118 270.519565 
C 96.927699 271.082145 97.690829 271.398244 98.486439 271.398244 
L 98.486439 271.398244 
z
" clip-path="url(#p9ab99660ee)" style="fill: none; stroke: #ff7f50"/>
   </g>
   <g id="PathCollection_23">
    <path d="M 139.602228 38.737648 
C 140.397838 38.737648 141.160968 38.421549 141.723549 37.858969 
C 142.286129 37.296388 142.602228 36.533258 142.602228 35.737648 
C 142.602228 34.942039 142.286129 34.178909 141.723549 33.616328 
C 141.160968 33.053747 140.397838 32.737648 139.602228 32.737648 
C 138.806619 32.737648 138.043489 33.053747 137.480908 33.616328 
C 136.918327 34.178909 136.602228 34.942039 136.602228 35.737648 
C 136.602228 36.533258 136.918327 37.296388 137.480908 37.858969 
C 138.043489 38.421549 138.806619 38.737648 139.602228 38.737648 
L 139.602228 38.737648 
z
" clip-path="url(#p9ab99660ee)" style="fill: none; stroke: #ff7f50"/>
   </g>
   <g id="PathCollection_24">
    <path d="M 180.718018 200.13334 
C 181.513627 200.13334 182.276757 199.817241 182.839338 199.25466 
C 183.401919 198.69208 183.718018 197.928949 183.718018 197.13334 
C 183.718018 196.337731 183.401919 195.5746 182.839338 195.01202 
C 182.276757 194.449439 181.513627 194.13334 180.718018 194.13334 
C 179.922408 194.13334 179.159278 194.449439 178.596697 195.01202 
C 178.034117 195.5746 177.718018 196.337731 177.718018 197.13334 
C 177.718018 197.928949 178.034117 198.69208 178.596697 199.25466 
C 179.159278 199.817241 179.922408 200.13334 180.718018 200.13334 
L 180.718018 200.13334 
z
" clip-path="url(#p9ab99660ee)" style="fill: none; stroke: #ff7f50"/>
   </g>
   <g id="PathCollection_25">
    <path d="M 221.833807 103.83525 
C 222.629416 103.83525 223.392547 103.519151 223.955128 102.95657 
C 224.517708 102.39399 224.833807 101.630859 224.833807 100.83525 
C 224.833807 100.039641 224.517708 99.27651 223.955128 98.71393 
C 223.392547 98.151349 222.629416 97.83525 221.833807 97.83525 
C 221.038198 97.83525 220.275068 98.151349 219.712487 98.71393 
C 219.149906 99.27651 218.833807 100.039641 218.833807 100.83525 
C 218.833807 101.630859 219.149906 102.39399 219.712487 102.95657 
C 220.275068 103.519151 221.038198 103.83525 221.833807 103.83525 
L 221.833807 103.83525 
z
" clip-path="url(#p9ab99660ee)" style="fill: none; stroke: #ff7f50"/>
   </g>
   <g id="PathCollection_26">
    <path d="M 262.949597 251.823064 
C 263.745206 251.823064 264.508336 251.506965 265.070917 250.944384 
C 265.633498 250.381804 265.949597 249.618673 265.949597 248.823064 
C 265.949597 248.027455 265.633498 247.264324 265.070917 246.701744 
C 264.508336 246.139163 263.745206 245.823064 262.949597 245.823064 
C 262.153987 245.823064 261.390857 246.139163 260.828276 246.701744 
C 260.265696 247.264324 259.949597 248.027455 259.949597 248.823064 
C 259.949597 249.618673 260.265696 250.381804 260.828276 250.944384 
C 261.390857 251.506965 262.153987 251.823064 262.949597 251.823064 
L 262.949597 251.823064 
z
" clip-path="url(#p9ab99660ee)" style="fill: none; stroke: #ff7f50"/>
   </g>
   <g id="PathCollection_27">
    <path d="M 304.065386 99.655799 
C 304.860995 99.655799 305.624126 99.3397 306.186706 98.77712 
C 306.749287 98.214539 307.065386 97.451409 307.065386 96.655799 
C 307.065386 95.86019 306.749287 95.09706 306.186706 94.534479 
C 305.624126 93.971898 304.860995 93.655799 304.065386 93.655799 
C 303.269777 93.655799 302.506646 93.971898 301.944066 94.534479 
C 301.381485 95.09706 301.065386 95.86019 301.065386 96.655799 
C 301.065386 97.451409 301.381485 98.214539 301.944066 98.77712 
C 302.506646 99.3397 303.269777 99.655799 304.065386 99.655799 
L 304.065386 99.655799 
z
" clip-path="url(#p9ab99660ee)" style="fill: none; stroke: #ff7f50"/>
   </g>
   <g id="PathCollection_28">
    <path d="M 345.181176 244.305379 
C 345.976785 244.305379 346.739915 243.98928 347.302496 243.426699 
C 347.865077 242.864118 348.181176 242.100988 348.181176 241.305379 
C 348.181176 240.509769 347.865077 239.746639 347.302496 239.184058 
C 346.739915 238.621477 345.976785 238.305379 345.181176 238.305379 
C 344.385566 238.305379 343.622436 238.621477 343.059855 239.184058 
C 342.497275 239.746639 342.181176 240.509769 342.181176 241.305379 
C 342.181176 242.100988 342.497275 242.864118 343.059855 243.426699 
C 343.622436 243.98928 344.385566 244.305379 345.181176 244.305379 
L 345.181176 244.305379 
z
" clip-path="url(#p9ab99660ee)" style="fill: none; stroke: #ff7f50"/>
   </g>
   <g id="PathCollection_29">
    <path d="M 386.296965 137.094049 
C 387.092574 137.094049 387.855705 136.77795 388.418285 136.215369 
C 388.980866 135.652788 389.296965 134.889658 389.296965 134.094049 
C 389.296965 133.298439 388.980866 132.535309 388.418285 131.972728 
C 387.855705 131.410147 387.092574 131.094049 386.296965 131.094049 
C 385.501356 131.094049 384.738225 131.410147 384.175645 131.972728 
C 383.613064 132.535309 383.296965 133.298439 383.296965 134.094049 
C 383.296965 134.889658 383.613064 135.652788 384.175645 136.215369 
C 384.738225 136.77795 385.501356 137.094049 386.296965 137.094049 
L 386.296965 137.094049 
z
" clip-path="url(#p9ab99660ee)" style="fill: none; stroke: #ff7f50"/>
   </g>
   <g id="PathCollection_30">
    <path d="M 427.412755 290.737648 
C 428.208364 290.737648 428.971494 290.421549 429.534075 289.858969 
C 430.096656 289.296388 430.412755 288.533258 430.412755 287.737648 
C 430.412755 286.942039 430.096656 286.178909 429.534075 285.616328 
C 428.971494 285.053747 428.208364 284.737648 427.412755 284.737648 
C 426.617145 284.737648 425.854015 285.053747 425.291434 285.616328 
C 424.728853 286.178909 424.412755 286.942039 424.412755 287.737648 
C 424.412755 288.533258 424.728853 289.296388 425.291434 289.858969 
C 425.854015 290.421549 426.617145 290.737648 427.412755 290.737648 
L 427.412755 290.737648 
z
" clip-path="url(#p9ab99660ee)" style="fill: none; stroke: #ff7f50"/>
   </g>
   <g id="matplotlib.axis_1">
    <g id="xtick_1">
     <g id="line2d_1">
      <path d="M 57.370649 300.337648 
L 57.370649 23.137648 
" clip-path="url(#p9ab99660ee)" style="fill: none; stroke: #808080; stroke-width: 0.5; stroke-linecap: square"/>
     </g>
     <g id="line2d_2">
      <defs>
       <path id="mf876c4eb9b" d="M 0 0 
L 0 3.5 
" style="stroke: #000000; stroke-width: 0.8"/>
      </defs>
      <g>
       <use xlink:href="#mf876c4eb9b" x="57.370649" y="300.337648" style="stroke: #000000; stroke-width: 0.8"/>
      </g>
     </g>
     <g id="text_1">
      <!-- $\mathdefault{1}$ -->
      <g transform="translate(54.879982 314.435969) scale(0.1 -0.1)">
       <defs>
        <path id="CMR17-31" d="M 1702 4058 
C 1702 4192 1696 4192 1606 4192 
C 1357 3916 979 3827 621 3827 
C 602 3827 570 3827 563 3808 
C 557 3795 557 3782 557 3648 
C 755 3648 1088 3686 1344 3839 
L 1344 461 
C 1344 236 1331 160 781 160 
L 589 160 
L 589 0 
C 896 0 1216 0 1523 0 
C 1830 0 2150 0 2458 0 
L 2458 160 
L 2266 160 
C 1715 160 1702 230 1702 458 
L 1702 4058 
z
" transform="scale(0.015625)"/>
       </defs>
       <use xlink:href="#CMR17-31" transform="scale(0.996264)"/>
      </g>
     </g>
    </g>
    <g id="xtick_2">
     <g id="line2d_3">
      <path d="M 98.486439 300.337648 
L 98.486439 23.137648 
" clip-path="url(#p9ab99660ee)" style="fill: none; stroke: #808080; stroke-width: 0.5; stroke-linecap: square"/>
     </g>
     <g id="line2d_4">
      <g>
       <use xlink:href="#mf876c4eb9b" x="98.486439" y="300.337648" style="stroke: #000000; stroke-width: 0.8"/>
      </g>
     </g>
     <g id="text_2">
      <!-- $\mathdefault{2}$ -->
      <g transform="translate(95.995771 314.435969) scale(0.1 -0.1)">
       <defs>
        <path id="CMR17-32" d="M 2669 989 
L 2554 989 
C 2490 536 2438 459 2413 420 
C 2381 369 1920 369 1830 369 
L 602 369 
C 832 619 1280 1072 1824 1597 
C 2214 1967 2669 2402 2669 3035 
C 2669 3790 2067 4224 1395 4224 
C 691 4224 262 3604 262 3030 
C 262 2780 448 2748 525 2748 
C 589 2748 781 2787 781 3010 
C 781 3207 614 3264 525 3264 
C 486 3264 448 3258 422 3245 
C 544 3790 915 4058 1306 4058 
C 1862 4058 2227 3617 2227 3035 
C 2227 2479 1901 2000 1536 1584 
L 262 146 
L 262 0 
L 2515 0 
L 2669 989 
z
" transform="scale(0.015625)"/>
       </defs>
       <use xlink:href="#CMR17-32" transform="scale(0.996264)"/>
      </g>
     </g>
    </g>
    <g id="xtick_3">
     <g id="line2d_5">
      <path d="M 139.602228 300.337648 
L 139.602228 23.137648 
" clip-path="url(#p9ab99660ee)" style="fill: none; stroke: #808080; stroke-width: 0.5; stroke-linecap: square"/>
     </g>
     <g id="line2d_6">
      <g>
       <use xlink:href="#mf876c4eb9b" x="139.602228" y="300.337648" style="stroke: #000000; stroke-width: 0.8"/>
      </g>
     </g>
     <g id="text_3">
      <!-- $\mathdefault{3}$ -->
      <g transform="translate(137.111561 314.435969) scale(0.1 -0.1)">
       <defs>
        <path id="CMR17-33" d="M 1414 2157 
C 1984 2157 2234 1662 2234 1090 
C 2234 320 1824 25 1453 25 
C 1114 25 563 194 390 693 
C 422 680 454 680 486 680 
C 640 680 755 782 755 948 
C 755 1133 614 1216 486 1216 
C 378 1216 211 1165 211 926 
C 211 335 787 -128 1466 -128 
C 2176 -128 2720 430 2720 1085 
C 2720 1707 2208 2157 1600 2227 
C 2086 2328 2554 2756 2554 3329 
C 2554 3820 2048 4179 1472 4179 
C 890 4179 378 3829 378 3329 
C 378 3110 544 3072 627 3072 
C 762 3072 877 3155 877 3321 
C 877 3486 762 3569 627 3569 
C 602 3569 570 3569 544 3557 
C 730 3959 1235 4032 1459 4032 
C 1683 4032 2106 3925 2106 3320 
C 2106 3143 2080 2828 1862 2550 
C 1670 2304 1453 2304 1242 2284 
C 1210 2284 1062 2269 1037 2269 
C 992 2263 966 2257 966 2208 
C 966 2163 973 2157 1101 2157 
L 1414 2157 
z
" transform="scale(0.015625)"/>
       </defs>
       <use xlink:href="#CMR17-33" transform="scale(0.996264)"/>
      </g>
     </g>
    </g>
    <g id="xtick_4">
     <g id="line2d_7">
      <path d="M 180.718018 300.337648 
L 180.718018 23.137648 
" clip-path="url(#p9ab99660ee)" style="fill: none; stroke: #808080; stroke-width: 0.5; stroke-linecap: square"/>
     </g>
     <g id="line2d_8">
      <g>
       <use xlink:href="#mf876c4eb9b" x="180.718018" y="300.337648" style="stroke: #000000; stroke-width: 0.8"/>
      </g>
     </g>
     <g id="text_4">
      <!-- $\mathdefault{4}$ -->
      <g transform="translate(178.22735 314.435969) scale(0.1 -0.1)">
       <defs>
        <path id="CMR17-34" d="M 2150 4122 
C 2150 4256 2144 4256 2029 4256 
L 128 1254 
L 128 1088 
L 1779 1088 
L 1779 457 
C 1779 224 1766 160 1318 160 
L 1197 160 
L 1197 0 
C 1402 0 1747 0 1965 0 
C 2182 0 2528 0 2733 0 
L 2733 160 
L 2611 160 
C 2163 160 2150 224 2150 457 
L 2150 1088 
L 2803 1088 
L 2803 1254 
L 2150 1254 
L 2150 4122 
z
M 1798 3703 
L 1798 1254 
L 256 1254 
L 1798 3703 
z
" transform="scale(0.015625)"/>
       </defs>
       <use xlink:href="#CMR17-34" transform="scale(0.996264)"/>
      </g>
     </g>
    </g>
    <g id="xtick_5">
     <g id="line2d_9">
      <path d="M 221.833807 300.337648 
L 221.833807 23.137648 
" clip-path="url(#p9ab99660ee)" style="fill: none; stroke: #808080; stroke-width: 0.5; stroke-linecap: square"/>
     </g>
     <g id="line2d_10">
      <g>
       <use xlink:href="#mf876c4eb9b" x="221.833807" y="300.337648" style="stroke: #000000; stroke-width: 0.8"/>
      </g>
     </g>
     <g id="text_5">
      <!-- $\mathdefault{5}$ -->
      <g transform="translate(219.34314 314.435969) scale(0.1 -0.1)">
       <defs>
        <path id="CMR17-35" d="M 730 3692 
C 794 3666 1056 3584 1325 3584 
C 1920 3584 2246 3911 2432 4100 
C 2432 4157 2432 4192 2394 4192 
C 2387 4192 2374 4192 2323 4163 
C 2099 4058 1837 3973 1517 3973 
C 1325 3973 1037 3999 723 4139 
C 653 4171 640 4171 634 4171 
C 602 4171 595 4164 595 4037 
L 595 2203 
C 595 2089 595 2057 659 2057 
C 691 2057 704 2070 736 2114 
C 941 2401 1222 2522 1542 2522 
C 1766 2522 2246 2382 2246 1289 
C 2246 1085 2246 715 2054 421 
C 1894 159 1645 25 1370 25 
C 947 25 518 320 403 814 
C 429 807 480 795 506 795 
C 589 795 749 840 749 1038 
C 749 1210 627 1280 506 1280 
C 358 1280 262 1190 262 1011 
C 262 454 704 -128 1382 -128 
C 2042 -128 2669 440 2669 1264 
C 2669 2030 2170 2624 1549 2624 
C 1222 2624 947 2503 730 2274 
L 730 3692 
z
" transform="scale(0.015625)"/>
       </defs>
       <use xlink:href="#CMR17-35" transform="scale(0.996264)"/>
      </g>
     </g>
    </g>
    <g id="xtick_6">
     <g id="line2d_11">
      <path d="M 262.949597 300.337648 
L 262.949597 23.137648 
" clip-path="url(#p9ab99660ee)" style="fill: none; stroke: #808080; stroke-width: 0.5; stroke-linecap: square"/>
     </g>
     <g id="line2d_12">
      <g>
       <use xlink:href="#mf876c4eb9b" x="262.949597" y="300.337648" style="stroke: #000000; stroke-width: 0.8"/>
      </g>
     </g>
     <g id="text_6">
      <!-- $\mathdefault{6}$ -->
      <g transform="translate(260.458929 314.435969) scale(0.1 -0.1)">
       <defs>
        <path id="CMR17-36" d="M 678 2176 
C 678 3690 1395 4032 1811 4032 
C 1946 4032 2272 4009 2400 3776 
C 2298 3776 2106 3776 2106 3553 
C 2106 3381 2246 3323 2336 3323 
C 2394 3323 2566 3348 2566 3560 
C 2566 3954 2246 4179 1805 4179 
C 1043 4179 243 3390 243 1984 
C 243 253 966 -128 1478 -128 
C 2099 -128 2688 427 2688 1283 
C 2688 2081 2170 2662 1517 2662 
C 1126 2662 838 2407 678 1960 
L 678 2176 
z
M 1478 25 
C 691 25 691 1200 691 1436 
C 691 1896 909 2560 1504 2560 
C 1613 2560 1926 2560 2138 2120 
C 2253 1870 2253 1609 2253 1289 
C 2253 944 2253 690 2118 434 
C 1978 171 1773 25 1478 25 
z
" transform="scale(0.015625)"/>
       </defs>
       <use xlink:href="#CMR17-36" transform="scale(0.996264)"/>
      </g>
     </g>
    </g>
    <g id="xtick_7">
     <g id="line2d_13">
      <path d="M 304.065386 300.337648 
L 304.065386 23.137648 
" clip-path="url(#p9ab99660ee)" style="fill: none; stroke: #808080; stroke-width: 0.5; stroke-linecap: square"/>
     </g>
     <g id="line2d_14">
      <g>
       <use xlink:href="#mf876c4eb9b" x="304.065386" y="300.337648" style="stroke: #000000; stroke-width: 0.8"/>
      </g>
     </g>
     <g id="text_7">
      <!-- $\mathdefault{7}$ -->
      <g transform="translate(301.574718 314.435969) scale(0.1 -0.1)">
       <defs>
        <path id="CMR17-37" d="M 2886 3941 
L 2886 4081 
L 1382 4081 
C 634 4081 621 4165 595 4288 
L 480 4288 
L 294 3094 
L 410 3094 
C 429 3215 474 3540 550 3661 
C 589 3712 1062 3712 1171 3712 
L 2579 3712 
L 1869 2661 
C 1395 1954 1069 999 1069 165 
C 1069 89 1069 -128 1299 -128 
C 1530 -128 1530 89 1530 171 
L 1530 465 
C 1530 1508 1709 2196 2003 2636 
L 2886 3941 
z
" transform="scale(0.015625)"/>
       </defs>
       <use xlink:href="#CMR17-37" transform="scale(0.996264)"/>
      </g>
     </g>
    </g>
    <g id="xtick_8">
     <g id="line2d_15">
      <path d="M 345.181176 300.337648 
L 345.181176 23.137648 
" clip-path="url(#p9ab99660ee)" style="fill: none; stroke: #808080; stroke-width: 0.5; stroke-linecap: square"/>
     </g>
     <g id="line2d_16">
      <g>
       <use xlink:href="#mf876c4eb9b" x="345.181176" y="300.337648" style="stroke: #000000; stroke-width: 0.8"/>
      </g>
     </g>
     <g id="text_8">
      <!-- $\mathdefault{8}$ -->
      <g transform="translate(342.690508 314.435969) scale(0.1 -0.1)">
       <defs>
        <path id="CMR17-38" d="M 1741 2264 
C 2144 2467 2554 2773 2554 3263 
C 2554 3841 1990 4179 1472 4179 
C 890 4179 378 3759 378 3180 
C 378 3021 416 2747 666 2505 
C 730 2442 998 2251 1171 2130 
C 883 1983 211 1634 211 934 
C 211 279 838 -128 1459 -128 
C 2144 -128 2720 362 2720 1010 
C 2720 1590 2330 1857 2074 2029 
L 1741 2264 
z
M 902 2822 
C 851 2854 595 3051 595 3351 
C 595 3739 998 4032 1459 4032 
C 1965 4032 2336 3676 2336 3262 
C 2336 2669 1670 2331 1638 2331 
C 1632 2331 1626 2331 1574 2370 
L 902 2822 
z
M 2080 1519 
C 2176 1449 2483 1240 2483 851 
C 2483 381 2010 25 1472 25 
C 890 25 448 438 448 940 
C 448 1443 838 1862 1280 2060 
L 2080 1519 
z
" transform="scale(0.015625)"/>
       </defs>
       <use xlink:href="#CMR17-38" transform="scale(0.996264)"/>
      </g>
     </g>
    </g>
    <g id="xtick_9">
     <g id="line2d_17">
      <path d="M 386.296965 300.337648 
L 386.296965 23.137648 
" clip-path="url(#p9ab99660ee)" style="fill: none; stroke: #808080; stroke-width: 0.5; stroke-linecap: square"/>
     </g>
     <g id="line2d_18">
      <g>
       <use xlink:href="#mf876c4eb9b" x="386.296965" y="300.337648" style="stroke: #000000; stroke-width: 0.8"/>
      </g>
     </g>
     <g id="text_9">
      <!-- $\mathdefault{9}$ -->
      <g transform="translate(383.806297 314.435969) scale(0.1 -0.1)">
       <defs>
        <path id="CMR17-39" d="M 2253 1864 
C 2253 464 1670 31 1190 31 
C 1043 31 685 31 538 294 
C 704 268 826 357 826 518 
C 826 692 685 749 595 749 
C 538 749 365 723 365 506 
C 365 71 742 -128 1203 -128 
C 1939 -128 2688 674 2688 2073 
C 2688 3817 1971 4179 1485 4179 
C 851 4179 243 3628 243 2778 
C 243 1991 762 1408 1414 1408 
C 1952 1408 2189 1903 2253 2112 
L 2253 1864 
z
M 1427 1510 
C 1254 1510 1011 1542 813 1922 
C 678 2169 678 2461 678 2771 
C 678 3146 678 3405 858 3684 
C 947 3817 1114 4032 1485 4032 
C 2240 4032 2240 2885 2240 2632 
C 2240 2182 2035 1510 1427 1510 
z
" transform="scale(0.015625)"/>
       </defs>
       <use xlink:href="#CMR17-39" transform="scale(0.996264)"/>
      </g>
     </g>
    </g>
    <g id="xtick_10">
     <g id="line2d_19">
      <path d="M 427.412755 300.337648 
L 427.412755 23.137648 
" clip-path="url(#p9ab99660ee)" style="fill: none; stroke: #808080; stroke-width: 0.5; stroke-linecap: square"/>
     </g>
     <g id="line2d_20">
      <g>
       <use xlink:href="#mf876c4eb9b" x="427.412755" y="300.337648" style="stroke: #000000; stroke-width: 0.8"/>
      </g>
     </g>
     <g id="text_10">
      <!-- $\mathdefault{10}$ -->
      <g transform="translate(422.431419 314.435969) scale(0.1 -0.1)">
       <defs>
        <path id="CMR17-30" d="M 2688 2025 
C 2688 2416 2682 3080 2413 3591 
C 2176 4039 1798 4198 1466 4198 
C 1158 4198 768 4058 525 3597 
C 269 3118 243 2524 243 2025 
C 243 1661 250 1106 448 619 
C 723 -39 1216 -128 1466 -128 
C 1760 -128 2208 -7 2470 600 
C 2662 1042 2688 1559 2688 2025 
z
M 1466 -26 
C 1056 -26 813 325 723 812 
C 653 1188 653 1738 653 2096 
C 653 2588 653 2997 736 3387 
C 858 3929 1216 4096 1466 4096 
C 1728 4096 2067 3923 2189 3400 
C 2272 3036 2278 2607 2278 2096 
C 2278 1680 2278 1169 2202 792 
C 2067 95 1690 -26 1466 -26 
z
" transform="scale(0.015625)"/>
       </defs>
       <use xlink:href="#CMR17-31" transform="scale(0.996264)"/>
       <use xlink:href="#CMR17-30" transform="translate(45.690477 0) scale(0.996264)"/>
      </g>
     </g>
    </g>
    <g id="text_11">
     <!-- $data set$ -->
     <g transform="translate(220.361347 330.495603) scale(0.14 -0.14)">
      <defs>
       <path id="CMMI12-64" d="M 3219 4257 
C 3226 4282 3238 4320 3238 4352 
C 3238 4416 3174 4416 3162 4416 
C 3155 4416 2842 4388 2810 4380 
C 2701 4373 2605 4358 2490 4358 
C 2330 4345 2285 4339 2285 4224 
C 2285 4160 2336 4160 2426 4160 
C 2739 4160 2746 4103 2746 4040 
C 2746 4002 2733 3952 2726 3933 
L 2336 2395 
C 2266 2561 2093 2816 1760 2816 
C 1037 2816 256 1884 256 939 
C 256 307 627 -64 1062 -64 
C 1414 -64 1715 211 1894 422 
C 1958 45 2259 -64 2451 -64 
C 2643 -64 2797 51 2912 281 
C 3014 498 3104 888 3104 913 
C 3104 945 3078 971 3040 971 
C 2982 971 2976 939 2950 843 
C 2854 466 2733 64 2470 64 
C 2285 64 2272 229 2272 357 
C 2272 382 2272 515 2317 694 
L 3219 4257 
z
M 1926 760 
C 1894 651 1894 639 1805 517 
C 1664 338 1382 64 1082 64 
C 819 64 672 300 672 677 
C 672 1028 870 1743 992 2012 
C 1210 2459 1510 2689 1760 2689 
C 2182 2689 2266 2165 2266 2114 
C 2266 2108 2246 2024 2240 2012 
L 1926 760 
z
" transform="scale(0.015625)"/>
       <path id="CMMI12-61" d="M 1926 760 
C 1894 651 1894 639 1805 517 
C 1664 338 1382 64 1082 64 
C 819 64 672 300 672 677 
C 672 1028 870 1743 992 2012 
C 1210 2459 1510 2689 1760 2689 
C 2182 2689 2266 2165 2266 2114 
C 2266 2108 2246 2024 2240 2012 
L 1926 760 
z
M 2336 2395 
C 2266 2561 2093 2816 1760 2816 
C 1037 2816 256 1884 256 939 
C 256 307 627 -64 1062 -64 
C 1414 -64 1715 211 1894 422 
C 1958 45 2259 -64 2451 -64 
C 2643 -64 2797 51 2912 281 
C 3014 498 3104 888 3104 913 
C 3104 945 3078 971 3040 971 
C 2982 971 2976 939 2950 843 
C 2854 466 2733 64 2470 64 
C 2285 64 2272 230 2272 358 
C 2272 505 2291 575 2349 824 
C 2394 984 2426 1124 2477 1309 
C 2714 2267 2771 2497 2771 2535 
C 2771 2625 2701 2695 2605 2695 
C 2400 2695 2349 2472 2336 2395 
z
" transform="scale(0.015625)"/>
       <path id="CMMI12-74" d="M 1286 2566 
L 1875 2566 
C 1997 2566 2061 2566 2061 2681 
C 2061 2752 2022 2752 1894 2752 
L 1331 2752 
L 1568 3692 
C 1594 3781 1594 3794 1594 3840 
C 1594 3943 1510 4000 1427 4000 
C 1376 4000 1229 3981 1178 3775 
L 928 2752 
L 326 2752 
C 198 2752 141 2752 141 2630 
C 141 2566 186 2566 307 2566 
L 877 2566 
L 454 881 
C 403 658 384 594 384 511 
C 384 211 595 -64 954 -64 
C 1600 -64 1946 868 1946 912 
C 1946 951 1920 970 1882 970 
C 1869 970 1843 970 1830 944 
C 1824 938 1818 931 1773 829 
C 1638 511 1344 64 973 64 
C 781 64 768 224 768 364 
C 768 370 768 492 787 568 
L 1286 2566 
z
" transform="scale(0.015625)"/>
       <path id="CMMI12-73" d="M 1459 1280 
C 1568 1261 1741 1223 1779 1216 
C 1862 1192 2150 1090 2150 783 
C 2150 586 1971 70 1229 70 
C 1094 70 614 70 486 436 
C 742 404 870 603 870 745 
C 870 880 781 950 653 950 
C 512 950 326 841 326 552 
C 326 173 710 -64 1222 -64 
C 2195 -64 2483 651 2483 984 
C 2483 1079 2483 1258 2278 1462 
C 2118 1616 1965 1648 1619 1718 
C 1446 1756 1171 1814 1171 2101 
C 1171 2229 1286 2689 1894 2689 
C 2163 2689 2426 2589 2490 2368 
C 2208 2368 2195 2125 2195 2119 
C 2195 1984 2317 1946 2374 1946 
C 2464 1946 2643 2015 2643 2281 
C 2643 2545 2400 2816 1901 2816 
C 1062 2816 838 2160 838 1899 
C 838 1414 1312 1312 1459 1280 
z
" transform="scale(0.015625)"/>
       <path id="CMMI12-65" d="M 1146 1479 
C 1318 1479 1754 1479 2061 1595 
C 2547 1783 2592 2158 2592 2274 
C 2592 2558 2349 2816 1926 2816 
C 1254 2816 288 2210 288 1073 
C 288 402 672 -64 1254 -64 
C 2125 -64 2675 609 2675 692 
C 2675 730 2637 762 2611 762 
C 2592 762 2586 756 2528 699 
C 2118 159 1510 64 1267 64 
C 902 64 710 350 710 822 
C 710 911 710 1071 806 1479 
L 1146 1479 
z
M 838 1600 
C 1114 2592 1722 2689 1926 2689 
C 2208 2689 2400 2522 2400 2277 
C 2400 1600 1376 1600 1107 1600 
L 838 1600 
z
" transform="scale(0.015625)"/>
      </defs>
      <use xlink:href="#CMMI12-64" transform="scale(0.996264)"/>
      <use xlink:href="#CMMI12-61" transform="translate(50.689097 0) scale(0.996264)"/>
      <use xlink:href="#CMMI12-74" transform="translate(101.896954 0) scale(0.996264)"/>
      <use xlink:href="#CMMI12-61" transform="translate(137.123285 0) scale(0.996264)"/>
      <use xlink:href="#CMMI12-73" transform="translate(188.331142 0) scale(0.996264)"/>
      <use xlink:href="#CMMI12-65" transform="translate(234.28119 0) scale(0.996264)"/>
      <use xlink:href="#CMMI12-74" transform="translate(279.493191 0) scale(0.996264)"/>
     </g>
    </g>
   </g>
   <g id="matplotlib.axis_2">
    <g id="ytick_1">
     <g id="line2d_21">
      <path d="M 47.091702 276.388961 
L 437.691702 276.388961 
" clip-path="url(#p9ab99660ee)" style="fill: none; stroke: #808080; stroke-width: 0.5; stroke-linecap: square"/>
     </g>
     <g id="line2d_22">
      <defs>
       <path id="mea037984d7" d="M 0 0 
L -3.5 0 
" style="stroke: #000000; stroke-width: 0.8"/>
      </defs>
      <g>
       <use xlink:href="#mea037984d7" x="47.091702" y="276.388961" style="stroke: #000000; stroke-width: 0.8"/>
      </g>
     </g>
     <g id="text_12">
      <!-- $\mathdefault{75}$ -->
      <g transform="translate(30.129031 279.938121) scale(0.1 -0.1)">
       <use xlink:href="#CMR17-37" transform="scale(0.996264)"/>
       <use xlink:href="#CMR17-35" transform="translate(45.690477 0) scale(0.996264)"/>
      </g>
     </g>
    </g>
    <g id="ytick_2">
     <g id="line2d_23">
      <path d="M 47.091702 237.227036 
L 437.691702 237.227036 
" clip-path="url(#p9ab99660ee)" style="fill: none; stroke: #808080; stroke-width: 0.5; stroke-linecap: square"/>
     </g>
     <g id="line2d_24">
      <g>
       <use xlink:href="#mea037984d7" x="47.091702" y="237.227036" style="stroke: #000000; stroke-width: 0.8"/>
      </g>
     </g>
     <g id="text_13">
      <!-- $\mathdefault{80}$ -->
      <g transform="translate(30.129031 240.776196) scale(0.1 -0.1)">
       <use xlink:href="#CMR17-38" transform="scale(0.996264)"/>
       <use xlink:href="#CMR17-30" transform="translate(45.690477 0) scale(0.996264)"/>
      </g>
     </g>
    </g>
    <g id="ytick_3">
     <g id="line2d_25">
      <path d="M 47.091702 198.065111 
L 437.691702 198.065111 
" clip-path="url(#p9ab99660ee)" style="fill: none; stroke: #808080; stroke-width: 0.5; stroke-linecap: square"/>
     </g>
     <g id="line2d_26">
      <g>
       <use xlink:href="#mea037984d7" x="47.091702" y="198.065111" style="stroke: #000000; stroke-width: 0.8"/>
      </g>
     </g>
     <g id="text_14">
      <!-- $\mathdefault{85}$ -->
      <g transform="translate(30.129031 201.614271) scale(0.1 -0.1)">
       <use xlink:href="#CMR17-38" transform="scale(0.996264)"/>
       <use xlink:href="#CMR17-35" transform="translate(45.690477 0) scale(0.996264)"/>
      </g>
     </g>
    </g>
    <g id="ytick_4">
     <g id="line2d_27">
      <path d="M 47.091702 158.903186 
L 437.691702 158.903186 
" clip-path="url(#p9ab99660ee)" style="fill: none; stroke: #808080; stroke-width: 0.5; stroke-linecap: square"/>
     </g>
     <g id="line2d_28">
      <g>
       <use xlink:href="#mea037984d7" x="47.091702" y="158.903186" style="stroke: #000000; stroke-width: 0.8"/>
      </g>
     </g>
     <g id="text_15">
      <!-- $\mathdefault{90}$ -->
      <g transform="translate(30.129031 162.452346) scale(0.1 -0.1)">
       <use xlink:href="#CMR17-39" transform="scale(0.996264)"/>
       <use xlink:href="#CMR17-30" transform="translate(45.690477 0) scale(0.996264)"/>
      </g>
     </g>
    </g>
    <g id="ytick_5">
     <g id="line2d_29">
      <path d="M 47.091702 119.74126 
L 437.691702 119.74126 
" clip-path="url(#p9ab99660ee)" style="fill: none; stroke: #808080; stroke-width: 0.5; stroke-linecap: square"/>
     </g>
     <g id="line2d_30">
      <g>
       <use xlink:href="#mea037984d7" x="47.091702" y="119.74126" style="stroke: #000000; stroke-width: 0.8"/>
      </g>
     </g>
     <g id="text_16">
      <!-- $\mathdefault{95}$ -->
      <g transform="translate(30.129031 123.290421) scale(0.1 -0.1)">
       <use xlink:href="#CMR17-39" transform="scale(0.996264)"/>
       <use xlink:href="#CMR17-35" transform="translate(45.690477 0) scale(0.996264)"/>
      </g>
     </g>
    </g>
    <g id="ytick_6">
     <g id="line2d_31">
      <path d="M 47.091702 80.579335 
L 437.691702 80.579335 
" clip-path="url(#p9ab99660ee)" style="fill: none; stroke: #808080; stroke-width: 0.5; stroke-linecap: square"/>
     </g>
     <g id="line2d_32">
      <g>
       <use xlink:href="#mea037984d7" x="47.091702" y="80.579335" style="stroke: #000000; stroke-width: 0.8"/>
      </g>
     </g>
     <g id="text_17">
      <!-- $\mathdefault{100}$ -->
      <g transform="translate(25.147696 84.128495) scale(0.1 -0.1)">
       <use xlink:href="#CMR17-31" transform="scale(0.996264)"/>
       <use xlink:href="#CMR17-30" transform="translate(45.690477 0) scale(0.996264)"/>
       <use xlink:href="#CMR17-30" transform="translate(91.380954 0) scale(0.996264)"/>
      </g>
     </g>
    </g>
    <g id="ytick_7">
     <g id="line2d_33">
      <path d="M 47.091702 41.41741 
L 437.691702 41.41741 
" clip-path="url(#p9ab99660ee)" style="fill: none; stroke: #808080; stroke-width: 0.5; stroke-linecap: square"/>
     </g>
     <g id="line2d_34">
      <g>
       <use xlink:href="#mea037984d7" x="47.091702" y="41.41741" style="stroke: #000000; stroke-width: 0.8"/>
      </g>
     </g>
     <g id="text_18">
      <!-- $\mathdefault{105}$ -->
      <g transform="translate(25.147696 44.96657) scale(0.1 -0.1)">
       <use xlink:href="#CMR17-31" transform="scale(0.996264)"/>
       <use xlink:href="#CMR17-30" transform="translate(45.690477 0) scale(0.996264)"/>
       <use xlink:href="#CMR17-35" transform="translate(91.380954 0) scale(0.996264)"/>
      </g>
     </g>
    </g>
    <g id="text_19">
     <!-- $v_{0}\ [km/h]$ -->
     <g transform="translate(17.660772 190.632337) rotate(-90) scale(0.14 -0.14)">
      <defs>
       <path id="CMMI12-76" d="M 2925 2389 
C 2925 2791 2720 2816 2669 2816 
C 2515 2816 2374 2663 2374 2535 
C 2374 2459 2419 2414 2445 2389 
C 2509 2331 2675 2159 2675 1827 
C 2675 1558 2291 64 1523 64 
C 1133 64 1056 390 1056 626 
C 1056 945 1203 1392 1376 1852 
C 1478 2114 1504 2178 1504 2305 
C 1504 2574 1312 2816 998 2816 
C 410 2816 173 1890 173 1839 
C 173 1814 198 1782 243 1782 
C 301 1782 307 1807 333 1897 
C 486 2446 736 2689 979 2689 
C 1037 2689 1146 2689 1146 2478 
C 1146 2312 1075 2127 979 1884 
C 672 1067 672 869 672 715 
C 672 575 691 313 890 134 
C 1120 -64 1440 -64 1498 -64 
C 2560 -64 2925 2024 2925 2389 
z
" transform="scale(0.015625)"/>
       <path id="CMR17-5b" d="M 1504 -1600 
L 1504 -1377 
L 902 -1377 
L 902 4544 
L 1504 4544 
L 1504 4767 
L 678 4767 
L 678 -1600 
L 1504 -1600 
z
" transform="scale(0.015625)"/>
       <path id="CMMI12-6b" d="M 1798 4257 
C 1805 4283 1818 4321 1818 4352 
C 1818 4416 1754 4416 1741 4416 
C 1734 4416 1504 4393 1389 4377 
C 1280 4377 1184 4358 1069 4358 
C 915 4345 870 4339 870 4224 
C 870 4160 934 4160 998 4160 
C 1325 4160 1325 4103 1325 4040 
C 1325 4015 1325 4002 1293 3888 
L 378 248 
C 352 152 352 140 352 101 
C 352 -38 461 -64 525 -64 
C 704 -64 742 77 794 275 
L 1094 1469 
C 1555 1418 1830 1226 1830 920 
C 1830 881 1830 856 1811 760 
C 1786 664 1786 588 1786 556 
C 1786 185 2029 -64 2355 -64 
C 2650 -64 2803 204 2854 294 
C 2989 530 3072 888 3072 913 
C 3072 945 3046 971 3008 971 
C 2950 971 2944 945 2918 843 
C 2829 511 2694 64 2368 64 
C 2240 64 2157 128 2157 370 
C 2157 492 2182 632 2208 728 
C 2234 843 2234 849 2234 926 
C 2234 1303 1894 1514 1306 1590 
C 1536 1731 1766 1980 1856 2076 
C 2221 2484 2470 2689 2765 2689 
C 2912 2689 2950 2650 2995 2612 
C 2758 2586 2669 2420 2669 2293 
C 2669 2139 2790 2088 2880 2088 
C 3053 2088 3206 2235 3206 2440 
C 3206 2625 3059 2816 2771 2816 
C 2419 2816 2131 2567 1677 2056 
C 1613 1980 1376 1737 1139 1648 
L 1798 4257 
z
" transform="scale(0.015625)"/>
       <path id="CMMI12-6d" d="M 1318 1871 
C 1331 1910 1491 2229 1728 2433 
C 1894 2586 2112 2689 2362 2689 
C 2618 2689 2707 2497 2707 2242 
C 2707 2203 2707 2076 2630 1775 
L 2470 1118 
C 2419 926 2298 453 2285 383 
C 2259 287 2221 121 2221 96 
C 2221 6 2291 -64 2387 -64 
C 2579 -64 2611 83 2669 313 
L 3053 1839 
C 3066 1890 3398 2689 4102 2689 
C 4358 2689 4448 2497 4448 2242 
C 4448 1884 4198 1188 4058 805 
C 4000 651 3968 568 3968 453 
C 3968 166 4166 -64 4474 -64 
C 5069 -64 5293 875 5293 913 
C 5293 945 5267 971 5229 971 
C 5171 971 5165 952 5133 843 
C 4986 332 4749 64 4493 64 
C 4429 64 4326 64 4326 269 
C 4326 436 4403 640 4429 710 
C 4544 1018 4832 1773 4832 2145 
C 4832 2528 4608 2816 4122 2816 
C 3693 2816 3347 2574 3091 2197 
C 3072 2542 2861 2816 2381 2816 
C 1811 2816 1510 2415 1395 2255 
C 1376 2618 1114 2816 832 2816 
C 646 2816 499 2727 378 2484 
C 262 2254 173 1865 173 1839 
C 173 1814 198 1782 243 1782 
C 294 1782 301 1788 339 1935 
C 435 2312 557 2689 813 2689 
C 960 2689 1011 2586 1011 2395 
C 1011 2254 947 2005 902 1807 
L 723 1118 
C 698 996 627 709 595 594 
C 550 428 480 128 480 96 
C 480 6 550 -64 646 -64 
C 723 -64 813 -26 864 70 
C 877 102 934 326 966 453 
L 1107 1028 
L 1318 1871 
z
" transform="scale(0.015625)"/>
       <path id="CMMI12-3d" d="M 2746 4562 
C 2746 4569 2784 4666 2784 4678 
C 2784 4755 2720 4800 2669 4800 
C 2637 4800 2579 4800 2528 4659 
L 384 -1363 
C 384 -1370 346 -1465 346 -1478 
C 346 -1555 410 -1600 461 -1600 
C 499 -1600 557 -1593 602 -1459 
L 2746 4562 
z
" transform="scale(0.015625)"/>
       <path id="CMMI12-68" d="M 1798 4257 
C 1805 4283 1818 4321 1818 4352 
C 1818 4416 1754 4416 1741 4416 
C 1734 4416 1421 4388 1389 4380 
C 1280 4373 1184 4358 1069 4358 
C 909 4345 864 4339 864 4224 
C 864 4160 915 4160 1005 4160 
C 1318 4160 1325 4103 1325 4040 
C 1325 4002 1312 3951 1306 3932 
L 378 248 
C 352 152 352 140 352 101 
C 352 -38 461 -64 525 -64 
C 634 -64 717 19 749 89 
L 1037 1245 
C 1069 1386 1107 1520 1139 1660 
C 1210 1929 1210 1935 1331 2120 
C 1453 2305 1741 2689 2234 2689 
C 2490 2689 2579 2497 2579 2242 
C 2579 1884 2330 1188 2189 805 
C 2131 651 2099 568 2099 453 
C 2099 166 2298 -64 2605 -64 
C 3200 -64 3424 875 3424 913 
C 3424 945 3398 971 3360 971 
C 3302 971 3296 952 3264 843 
C 3117 332 2880 64 2624 64 
C 2560 64 2458 64 2458 269 
C 2458 436 2534 640 2560 710 
C 2675 1018 2963 1773 2963 2145 
C 2963 2528 2739 2816 2253 2816 
C 1888 2816 1568 2644 1306 2312 
L 1798 4257 
z
" transform="scale(0.015625)"/>
       <path id="CMR17-5d" d="M 915 4767 
L 90 4767 
L 90 4544 
L 691 4544 
L 691 -1377 
L 90 -1377 
L 90 -1600 
L 915 -1600 
L 915 4767 
z
" transform="scale(0.015625)"/>
      </defs>
      <use xlink:href="#CMMI12-76" transform="scale(0.996264)"/>
      <use xlink:href="#CMR17-30" transform="translate(47.160581 -14.943915) scale(0.697382)"/>
      <use xlink:href="#CMR17-5b" transform="translate(107.337064 0) scale(0.996264)"/>
      <use xlink:href="#CMMI12-6b" transform="translate(132.208123 0) scale(0.996264)"/>
      <use xlink:href="#CMMI12-6d" transform="translate(186.287323 0) scale(0.996264)"/>
      <use xlink:href="#CMMI12-3d" transform="translate(271.614548 0) scale(0.996264)"/>
      <use xlink:href="#CMMI12-68" transform="translate(320.389467 0) scale(0.996264)"/>
      <use xlink:href="#CMR17-5d" transform="translate(376.544091 0) scale(0.996264)"/>
     </g>
    </g>
   </g>
   <g id="line2d_35">
    <path d="M 57.370649 165.26483 
L 98.486439 165.26483 
L 139.602228 165.26483 
L 180.718018 165.26483 
L 221.833807 165.26483 
L 262.949597 165.26483 
L 304.065386 165.26483 
L 345.181176 165.26483 
L 386.296965 165.26483 
L 427.412755 165.26483 
" clip-path="url(#p9ab99660ee)" style="fill: none; stroke: #008000; stroke-width: 1.5; stroke-linecap: square"/>
   </g>
   <g id="line2d_36">
    <path d="M 57.370649 165.264862 
L 98.486439 165.264862 
L 139.602228 165.264862 
L 180.718018 165.264862 
L 221.833807 165.264862 
L 262.949597 165.264862 
L 304.065386 165.264862 
L 345.181176 165.264862 
L 386.296965 165.264862 
L 427.412755 165.264862 
" clip-path="url(#p9ab99660ee)" style="fill: none; stroke: #4169e1; stroke-width: 1.5; stroke-linecap: square"/>
   </g>
   <g id="line2d_37">
    <path d="M 57.370649 165.264827 
L 98.486439 165.264827 
L 139.602228 165.264827 
L 180.718018 165.264827 
L 221.833807 165.264827 
L 262.949597 165.264827 
L 304.065386 165.264827 
L 345.181176 165.264827 
L 386.296965 165.264827 
L 427.412755 165.264827 
" clip-path="url(#p9ab99660ee)" style="fill: none; stroke: #ff7f50; stroke-width: 1.5; stroke-linecap: square"/>
   </g>
   <g id="patch_3">
    <path d="M 47.091702 300.337648 
L 47.091702 23.137648 
" style="fill: none; stroke: #000000; stroke-width: 0.8; stroke-linejoin: miter; stroke-linecap: square"/>
   </g>
   <g id="patch_4">
    <path d="M 437.691702 300.337648 
L 437.691702 23.137648 
" style="fill: none; stroke: #000000; stroke-width: 0.8; stroke-linejoin: miter; stroke-linecap: square"/>
   </g>
   <g id="patch_5">
    <path d="M 47.091702 300.337648 
L 437.691702 300.337648 
" style="fill: none; stroke: #000000; stroke-width: 0.8; stroke-linejoin: miter; stroke-linecap: square"/>
   </g>
   <g id="patch_6">
    <path d="M 47.091702 23.137648 
L 437.691702 23.137648 
" style="fill: none; stroke: #000000; stroke-width: 0.8; stroke-linejoin: miter; stroke-linecap: square"/>
   </g>
   <g id="text_20">
    <!-- $Velocities\ v_0\ of\ the\ leading\ car$ -->
    <g transform="translate(147.095491 17.137648) scale(0.14 -0.14)">
     <defs>
      <path id="CMMI12-56" d="M 3962 3640 
C 4179 3984 4378 4136 4704 4162 
C 4768 4168 4819 4168 4819 4282 
C 4819 4308 4806 4346 4749 4346 
C 4634 4346 4358 4346 4243 4346 
C 4058 4346 3866 4346 3686 4346 
C 3635 4346 3571 4346 3571 4226 
C 3571 4168 3629 4162 3654 4162 
C 3891 4143 3917 4029 3917 3952 
C 3917 3857 3827 3710 3821 3704 
L 1811 540 
L 1363 3969 
C 1363 4160 1696 4160 1766 4160 
C 1862 4160 1920 4160 1920 4282 
C 1920 4346 1850 4346 1830 4346 
C 1722 4346 1594 4346 1485 4346 
L 1126 4346 
C 659 4346 467 4346 461 4346 
C 422 4346 346 4346 346 4230 
C 346 4160 390 4160 493 4160 
C 819 4160 838 4102 858 3944 
L 1370 24 
C 1389 -109 1389 -128 1478 -128 
C 1555 -128 1587 -109 1651 -8 
L 3962 3640 
z
" transform="scale(0.015625)"/>
      <path id="CMMI12-6c" d="M 1626 4257 
C 1632 4282 1645 4320 1645 4352 
C 1645 4416 1581 4416 1568 4416 
C 1562 4416 1331 4393 1216 4377 
C 1107 4377 1011 4358 896 4358 
C 742 4345 698 4339 698 4224 
C 698 4160 762 4160 826 4160 
C 1152 4160 1152 4102 1152 4039 
C 1152 4014 1152 4001 1120 3887 
L 326 731 
C 307 661 294 610 294 509 
C 294 191 531 -64 858 -64 
C 1069 -64 1210 76 1312 274 
C 1421 483 1510 884 1510 909 
C 1510 941 1485 967 1446 967 
C 1389 967 1382 935 1357 840 
C 1242 401 1126 64 870 64 
C 678 64 678 267 678 357 
C 678 382 678 515 723 694 
L 1626 4257 
z
" transform="scale(0.015625)"/>
      <path id="CMMI12-6f" d="M 2918 1756 
C 2918 2363 2522 2816 1939 2816 
C 1094 2816 262 1897 262 996 
C 262 390 659 -64 1242 -64 
C 2093 -64 2918 856 2918 1756 
z
M 1248 64 
C 928 64 691 319 691 766 
C 691 1060 845 1712 1024 2031 
C 1312 2523 1670 2689 1933 2689 
C 2246 2689 2490 2433 2490 1986 
C 2490 1731 2355 1047 2112 658 
C 1850 230 1498 64 1248 64 
z
" transform="scale(0.015625)"/>
      <path id="CMMI12-63" d="M 2502 2431 
C 2381 2431 2323 2431 2234 2355 
C 2195 2323 2125 2227 2125 2125 
C 2125 1997 2221 1920 2342 1920 
C 2496 1920 2669 2044 2669 2292 
C 2669 2588 2374 2816 1933 2816 
C 1094 2816 256 1903 256 996 
C 256 441 602 -64 1254 -64 
C 2125 -64 2675 622 2675 706 
C 2675 744 2637 776 2611 776 
C 2592 776 2586 770 2528 713 
C 2118 162 1510 64 1267 64 
C 826 64 685 446 685 764 
C 685 988 794 1605 1024 2039 
C 1190 2338 1536 2682 1939 2682 
C 2022 2682 2374 2682 2502 2431 
z
" transform="scale(0.015625)"/>
      <path id="CMMI12-69" d="M 1811 913 
C 1811 945 1786 971 1747 971 
C 1690 971 1683 952 1651 843 
C 1485 262 1222 64 1011 64 
C 934 64 845 83 845 275 
C 845 447 922 639 992 830 
L 1440 2018 
C 1459 2069 1504 2184 1504 2305 
C 1504 2574 1312 2816 998 2816 
C 410 2816 173 1890 173 1839 
C 173 1814 198 1782 243 1782 
C 301 1782 307 1807 333 1896 
C 486 2428 730 2682 979 2682 
C 1037 2682 1146 2682 1146 2478 
C 1146 2312 1062 2101 1011 1961 
L 563 773 
C 525 671 486 568 486 453 
C 486 166 685 -64 992 -64 
C 1581 -64 1811 869 1811 913 
z
M 1760 4013 
C 1760 4109 1683 4224 1542 4224 
C 1395 4224 1229 4083 1229 3917 
C 1229 3758 1363 3707 1440 3707 
C 1613 3707 1760 3873 1760 4013 
z
" transform="scale(0.015625)"/>
      <path id="CMMI12-66" d="M 2854 2566 
C 2982 2566 3034 2566 3034 2688 
C 3034 2752 2982 2752 2867 2752 
L 2349 2752 
C 2470 3429 2560 3897 2611 4107 
C 2650 4265 2784 4416 2950 4416 
C 3085 4416 3219 4358 3283 4298 
C 3034 4272 2957 4082 2957 3969 
C 2957 3837 3053 3759 3174 3759 
C 3302 3759 3494 3870 3494 4119 
C 3494 4393 3226 4544 2944 4544 
C 2669 4544 2400 4334 2272 4078 
C 2157 3848 2093 3611 1946 2752 
L 1517 2752 
C 1395 2752 1331 2752 1331 2637 
C 1331 2566 1370 2566 1498 2566 
L 1907 2566 
C 1792 1976 1530 542 1382 -137 
C 1274 -689 1178 -1152 858 -1152 
C 838 -1152 653 -1152 538 -1031 
C 864 -1005 864 -726 864 -720 
C 864 -593 768 -517 646 -517 
C 518 -517 326 -625 326 -867 
C 326 -1140 608 -1280 858 -1280 
C 1510 -1280 1779 -118 1850 199 
C 1965 688 2278 2376 2310 2566 
L 2854 2566 
z
" transform="scale(0.015625)"/>
      <path id="CMMI12-6e" d="M 1318 1871 
C 1331 1910 1491 2229 1728 2433 
C 1894 2586 2112 2689 2362 2689 
C 2618 2689 2707 2497 2707 2242 
C 2707 1878 2445 1150 2317 805 
C 2259 651 2227 568 2227 453 
C 2227 166 2426 -64 2733 -64 
C 3328 -64 3552 875 3552 913 
C 3552 945 3526 971 3488 971 
C 3430 971 3424 952 3392 843 
C 3245 319 3002 64 2752 64 
C 2688 64 2586 64 2586 269 
C 2586 429 2656 621 2694 710 
C 2822 1063 3091 1780 3091 2145 
C 3091 2528 2867 2816 2381 2816 
C 1811 2816 1510 2415 1395 2255 
C 1376 2618 1114 2816 832 2816 
C 627 2816 486 2695 378 2478 
C 262 2248 173 1865 173 1839 
C 173 1814 198 1782 243 1782 
C 294 1782 301 1788 339 1935 
C 442 2325 557 2689 813 2689 
C 960 2689 1011 2586 1011 2395 
C 1011 2254 947 2005 902 1807 
L 723 1118 
C 698 996 627 709 595 594 
C 550 428 480 128 480 96 
C 480 6 550 -64 646 -64 
C 723 -64 813 -26 864 70 
C 877 102 934 326 966 453 
L 1107 1028 
L 1318 1871 
z
" transform="scale(0.015625)"/>
      <path id="CMMI12-67" d="M 2163 811 
C 2138 709 2125 683 2042 588 
C 1779 249 1510 128 1312 128 
C 1101 128 902 294 902 734 
C 902 1073 1094 1788 1235 2076 
C 1421 2433 1709 2689 1978 2689 
C 2400 2689 2483 2165 2483 2127 
L 2464 2037 
L 2163 811 
z
M 2560 2395 
C 2477 2580 2298 2816 1978 2816 
C 1280 2816 486 1941 486 990 
C 486 326 890 0 1299 0 
C 1638 0 1939 268 2054 396 
L 1914 -171 
C 1824 -516 1786 -674 1555 -894 
C 1293 -1152 1050 -1152 909 -1152 
C 717 -1152 557 -1139 397 -1089 
C 602 -1033 653 -858 653 -789 
C 653 -689 576 -588 435 -588 
C 282 -588 115 -714 115 -922 
C 115 -1180 378 -1280 922 -1280 
C 1747 -1280 2176 -753 2259 -410 
L 2970 2435 
C 2989 2511 2989 2524 2989 2536 
C 2989 2625 2918 2695 2822 2695 
C 2669 2695 2579 2567 2560 2395 
z
" transform="scale(0.015625)"/>
      <path id="CMMI12-72" d="M 2490 2612 
C 2291 2574 2189 2433 2189 2293 
C 2189 2139 2310 2088 2400 2088 
C 2579 2088 2726 2242 2726 2433 
C 2726 2638 2528 2816 2208 2816 
C 1952 2816 1658 2701 1389 2312 
C 1344 2650 1088 2816 832 2816 
C 582 2816 454 2625 378 2484 
C 269 2254 173 1871 173 1839 
C 173 1814 198 1782 243 1782 
C 294 1782 301 1788 339 1935 
C 435 2318 557 2689 813 2689 
C 966 2689 1011 2580 1011 2395 
C 1011 2254 947 2005 902 1807 
L 723 1118 
C 698 996 627 709 595 594 
C 550 428 480 128 480 96 
C 480 6 550 -64 646 -64 
C 717 -64 838 -19 877 109 
C 896 160 1133 1124 1171 1271 
C 1203 1411 1242 1546 1274 1686 
C 1299 1775 1325 1878 1344 1961 
C 1363 2018 1536 2331 1696 2472 
C 1773 2542 1939 2689 2202 2689 
C 2304 2689 2406 2670 2490 2612 
z
" transform="scale(0.015625)"/>
     </defs>
     <use xlink:href="#CMMI12-56" transform="scale(0.996264)"/>
     <use xlink:href="#CMMI12-65" transform="translate(78.547321 0) scale(0.996264)"/>
     <use xlink:href="#CMMI12-6c" transform="translate(123.759322 0) scale(0.996264)"/>
     <use xlink:href="#CMMI12-6f" transform="translate(155.007726 0) scale(0.996264)"/>
     <use xlink:href="#CMMI12-63" transform="translate(201.903035 0) scale(0.996264)"/>
     <use xlink:href="#CMMI12-69" transform="translate(243.886269 0) scale(0.996264)"/>
     <use xlink:href="#CMMI12-74" transform="translate(277.164871 0) scale(0.996264)"/>
     <use xlink:href="#CMMI12-69" transform="translate(312.391201 0) scale(0.996264)"/>
     <use xlink:href="#CMMI12-65" transform="translate(345.669803 0) scale(0.996264)"/>
     <use xlink:href="#CMMI12-73" transform="translate(390.881804 0) scale(0.996264)"/>
     <use xlink:href="#CMMI12-76" transform="translate(464.527021 0) scale(0.996264)"/>
     <use xlink:href="#CMR17-30" transform="translate(511.687602 -14.943915) scale(0.697382)"/>
     <use xlink:href="#CMMI12-6f" transform="translate(571.864085 0) scale(0.996264)"/>
     <use xlink:href="#CMMI12-66" transform="translate(618.759395 0) scale(0.996264)"/>
     <use xlink:href="#CMMI12-74" transform="translate(705.174869 0) scale(0.996264)"/>
     <use xlink:href="#CMMI12-68" transform="translate(740.401199 0) scale(0.996264)"/>
     <use xlink:href="#CMMI12-65" transform="translate(796.555823 0) scale(0.996264)"/>
     <use xlink:href="#CMMI12-6c" transform="translate(869.462994 0) scale(0.996264)"/>
     <use xlink:href="#CMMI12-65" transform="translate(900.711398 0) scale(0.996264)"/>
     <use xlink:href="#CMMI12-61" transform="translate(945.923399 0) scale(0.996264)"/>
     <use xlink:href="#CMMI12-64" transform="translate(997.131256 0) scale(0.996264)"/>
     <use xlink:href="#CMMI12-69" transform="translate(1047.820353 0) scale(0.996264)"/>
     <use xlink:href="#CMMI12-6e" transform="translate(1081.098955 0) scale(0.996264)"/>
     <use xlink:href="#CMMI12-67" transform="translate(1139.329002 0) scale(0.996264)"/>
     <use xlink:href="#CMMI12-63" transform="translate(1217.309662 0) scale(0.996264)"/>
     <use xlink:href="#CMMI12-61" transform="translate(1259.292895 0) scale(0.996264)"/>
     <use xlink:href="#CMMI12-72" transform="translate(1310.500753 0) scale(0.996264)"/>
    </g>
   </g>
   <g id="legend_1">
    <g id="patch_7">
     <path d="M 370.547274 73.798568 
L 430.691702 73.798568 
Q 432.691702 73.798568 432.691702 71.798568 
L 432.691702 30.137648 
Q 432.691702 28.137648 430.691702 28.137648 
L 370.547274 28.137648 
Q 368.547274 28.137648 368.547274 30.137648 
L 368.547274 71.798568 
Q 368.547274 73.798568 370.547274 73.798568 
z
" style="fill: #ffffff; opacity: 0.8; stroke: #cccccc; stroke-linejoin: miter"/>
    </g>
    <g id="line2d_38">
     <path d="M 372.547274 35.735969 
L 382.547274 35.735969 
L 392.547274 35.735969 
" style="fill: none; stroke: #008000; stroke-width: 1.5; stroke-linecap: square"/>
    </g>
    <g id="text_21">
     <!-- $NN 2$ -->
     <g transform="translate(400.547274 39.235969) scale(0.1 -0.1)">
      <defs>
       <path id="CMMI12-4e" d="M 4736 3698 
C 4806 3974 4909 4166 5395 4166 
C 5414 4166 5491 4166 5491 4279 
C 5491 4352 5434 4352 5408 4352 
C 5280 4352 4954 4352 4826 4352 
L 4518 4352 
C 4429 4352 4314 4352 4224 4352 
C 4186 4352 4109 4352 4109 4230 
C 4109 4166 4160 4166 4205 4166 
C 4589 4166 4614 4019 4614 3903 
C 4614 3846 4608 3826 4589 3737 
L 3866 850 
L 2496 4249 
C 2451 4352 2445 4352 2304 4352 
L 1523 4352 
C 1395 4352 1338 4352 1338 4230 
C 1338 4166 1382 4166 1504 4166 
C 1536 4166 1914 4166 1914 4115 
C 1914 4102 1901 4051 1894 4032 
L 1043 635 
C 966 320 813 186 390 186 
C 358 186 294 186 294 67 
C 294 0 358 0 378 0 
C 506 0 832 0 960 0 
L 1267 0 
C 1357 0 1466 0 1555 0 
C 1600 0 1670 0 1670 122 
C 1670 180 1606 186 1581 186 
C 1370 186 1165 224 1165 454 
C 1165 505 1178 562 1190 613 
L 2054 4032 
C 2093 3968 2093 3956 2118 3898 
L 3642 115 
C 3674 38 3686 0 3744 0 
C 3808 0 3814 19 3840 128 
L 4736 3698 
z
" transform="scale(0.015625)"/>
      </defs>
      <use xlink:href="#CMMI12-4e" transform="scale(0.996264)"/>
      <use xlink:href="#CMMI12-4e" transform="translate(88.521773 0) scale(0.996264)"/>
      <use xlink:href="#CMR17-32" transform="translate(177.043545 0) scale(0.996264)"/>
     </g>
    </g>
    <g id="line2d_39">
     <path d="M 372.547274 49.956275 
L 382.547274 49.956275 
L 392.547274 49.956275 
" style="fill: none; stroke: #4169e1; stroke-width: 1.5; stroke-linecap: square"/>
    </g>
    <g id="text_22">
     <!-- $NN 4$ -->
     <g transform="translate(400.547274 53.456275) scale(0.1 -0.1)">
      <use xlink:href="#CMMI12-4e" transform="scale(0.996264)"/>
      <use xlink:href="#CMMI12-4e" transform="translate(88.521773 0) scale(0.996264)"/>
      <use xlink:href="#CMR17-34" transform="translate(177.043545 0) scale(0.996264)"/>
     </g>
    </g>
    <g id="line2d_40">
     <path d="M 372.547274 64.176582 
L 382.547274 64.176582 
L 392.547274 64.176582 
" style="fill: none; stroke: #ff7f50; stroke-width: 1.5; stroke-linecap: square"/>
    </g>
    <g id="text_23">
     <!-- $NN 10$ -->
     <g transform="translate(400.547274 67.676582) scale(0.1 -0.1)">
      <use xlink:href="#CMMI12-4e" transform="scale(0.996264)"/>
      <use xlink:href="#CMMI12-4e" transform="translate(88.521773 0) scale(0.996264)"/>
      <use xlink:href="#CMR17-31" transform="translate(177.043545 0) scale(0.996264)"/>
      <use xlink:href="#CMR17-30" transform="translate(222.734022 0) scale(0.996264)"/>
     </g>
    </g>
   </g>
  </g>
 </g>
 <defs>
  <clipPath id="p9ab99660ee">
   <rect x="47.091702" y="23.137648" width="390.6" height="277.2"/>
  </clipPath>
 </defs>
</svg>
